<!-- Generator: Adobe Illustrator 22.0.1, SVG Export Plug-In  -->
<svg version="1.1"
	 xmlns="http://www.w3.org/2000/svg" xmlns:xlink="http://www.w3.org/1999/xlink" xmlns:a="http://ns.adobe.com/AdobeSVGViewerExtensions/3.0/"
	 x="0px" y="0px" width="689.558px" height="252.752px" viewBox="0 0 689.558 252.752"
	 style="enable-background:new 0 0 689.558 252.752;" xml:space="preserve">
<style type="text/css">
	.st0{fill:none;}
	.st1{fill:#575756;}
	.st2{font-family:'PingFangTC-Regular-B5pc-H';}
	.st3{font-size:36px;}
	.st4{letter-spacing:3;}
</style>
<defs>
</defs>
<g>
	<rect y="4.752" class="st0" width="677.57" height="248"/>
	<path class="st1" d="M5.723,5.259V30.96H2.808V5.259H5.723z"/>
	<path class="st1" d="M15.732,12.35h4.607v2.412h-4.607v11.842c0,0.684,0.107,1.188,0.396,1.476c0.252,0.288,0.72,0.468,1.368,0.468
		h2.375v2.412h-2.808c-1.512,0-2.627-0.396-3.275-1.188c-0.611-0.72-0.899-1.764-0.899-3.167V14.762H9.144V12.35h3.744V7.527
		l2.844-1.188V12.35z"/>
	<path class="st1" d="M42.795,5.943c0.432,0.36,0.647,0.864,0.647,1.512c0,0.612-0.216,1.116-0.647,1.548
		c-0.433,0.396-0.937,0.612-1.548,0.612c-0.612,0-1.116-0.216-1.548-0.612c-0.433-0.432-0.612-0.936-0.612-1.548
		c0-0.648,0.18-1.152,0.612-1.512c0.432-0.432,0.936-0.612,1.548-0.612C41.859,5.331,42.363,5.511,42.795,5.943z M42.687,12.35
		v18.61h-2.88V12.35H42.687z"/>
	<path class="st1" d="M62.305,17.642h-2.808c-0.252-1.152-0.72-2.016-1.439-2.52c-0.792-0.576-1.943-0.864-3.42-0.864
		c-1.295,0-2.304,0.216-3.023,0.72c-0.792,0.468-1.188,1.116-1.188,1.944c0,0.792,0.504,1.476,1.584,2.016
		c0.684,0.324,1.979,0.72,3.852,1.224c2.231,0.54,3.815,1.116,4.787,1.728c1.476,0.936,2.231,2.196,2.231,3.815
		c0,3.815-2.627,5.759-7.883,5.759c-4.896,0-7.559-2.16-7.991-6.443h2.808c0.216,1.476,0.756,2.52,1.548,3.168
		c0.792,0.576,1.98,0.864,3.563,0.864c3.312,0,5.004-1.08,5.004-3.167c0-1.044-0.612-1.836-1.764-2.412
		c-0.612-0.288-1.944-0.684-3.96-1.188c-2.195-0.54-3.743-1.08-4.607-1.656c-1.439-0.864-2.124-2.052-2.124-3.636
		c0-1.583,0.685-2.808,2.088-3.744c1.296-0.936,3.023-1.404,5.111-1.404C59.282,11.846,61.801,13.754,62.305,17.642z"/>
	<path class="st1" d="M95.597,13.934c1.08,1.224,1.655,2.916,1.655,5.075V30.96h-2.699v-3.132c-0.72,1.008-1.691,1.836-2.844,2.484
		c-1.368,0.756-2.916,1.152-4.644,1.152c-1.872,0-3.348-0.468-4.463-1.404c-1.152-0.972-1.729-2.232-1.729-3.744
		c0-2.124,0.828-3.708,2.556-4.787c1.512-1.008,3.672-1.548,6.479-1.584l4.464-0.072v-0.972c0-3.131-1.62-4.679-4.859-4.679
		c-1.368,0-2.484,0.252-3.348,0.828c-0.973,0.576-1.584,1.476-1.872,2.664l-2.844-0.216c0.396-1.944,1.368-3.419,2.88-4.355
		c1.368-0.864,3.132-1.296,5.363-1.296C92.357,11.846,94.301,12.53,95.597,13.934z M90.089,22.105
		c-4.175,0.072-6.263,1.44-6.263,4.14c0,0.864,0.324,1.548,1.044,2.124c0.72,0.54,1.655,0.828,2.808,0.828
		c1.764,0,3.312-0.576,4.679-1.728c1.332-1.116,2.017-2.412,2.017-3.852v-1.583L90.089,22.105z"/>
	<path class="st1" d="M105.138,4.755V30.96h-2.844V4.755H105.138z"/>
	<path class="st1" d="M111.293,12.35l4.571,15.083l4.319-15.083h2.7l4.319,15.083l4.571-15.083h3.168l-6.335,18.61h-2.736
		l-4.319-14.974l-4.392,14.974h-2.699l-6.335-18.61H111.293z"/>
	<path class="st1" d="M151.36,13.934c1.08,1.224,1.655,2.916,1.655,5.075V30.96h-2.699v-3.132c-0.72,1.008-1.691,1.836-2.844,2.484
		c-1.368,0.756-2.916,1.152-4.644,1.152c-1.872,0-3.348-0.468-4.463-1.404c-1.152-0.972-1.729-2.232-1.729-3.744
		c0-2.124,0.828-3.708,2.556-4.787c1.512-1.008,3.672-1.548,6.479-1.584l4.464-0.072v-0.972c0-3.131-1.62-4.679-4.859-4.679
		c-1.368,0-2.484,0.252-3.348,0.828c-0.973,0.576-1.584,1.476-1.872,2.664l-2.844-0.216c0.396-1.944,1.368-3.419,2.88-4.355
		c1.368-0.864,3.132-1.296,5.363-1.296C148.12,11.846,150.064,12.53,151.36,13.934z M145.852,22.105
		c-4.175,0.072-6.263,1.44-6.263,4.14c0,0.864,0.324,1.548,1.044,2.124c0.72,0.54,1.655,0.828,2.808,0.828
		c1.764,0,3.312-0.576,4.679-1.728c1.332-1.116,2.017-2.412,2.017-3.852v-1.583L145.852,22.105z"/>
	<path class="st1" d="M158.561,12.35l5.688,14.687l5.507-14.687h3.168l-10.187,25.737h-3.132l3.203-7.559l-7.379-18.178H158.561z"/>
	<path class="st1" d="M189.554,17.642h-2.808c-0.252-1.152-0.72-2.016-1.439-2.52c-0.792-0.576-1.943-0.864-3.42-0.864
		c-1.295,0-2.304,0.216-3.023,0.72c-0.792,0.468-1.188,1.116-1.188,1.944c0,0.792,0.504,1.476,1.584,2.016
		c0.684,0.324,1.979,0.72,3.852,1.224c2.231,0.54,3.815,1.116,4.787,1.728c1.476,0.936,2.231,2.196,2.231,3.815
		c0,3.815-2.627,5.759-7.883,5.759c-4.896,0-7.559-2.16-7.991-6.443h2.808c0.216,1.476,0.756,2.52,1.548,3.168
		c0.792,0.576,1.98,0.864,3.563,0.864c3.312,0,5.004-1.08,5.004-3.167c0-1.044-0.612-1.836-1.764-2.412
		c-0.612-0.288-1.944-0.684-3.96-1.188c-2.195-0.54-3.743-1.08-4.607-1.656c-1.439-0.864-2.124-2.052-2.124-3.636
		c0-1.583,0.685-2.808,2.088-3.744c1.296-0.936,3.023-1.404,5.111-1.404C186.531,11.846,189.05,13.754,189.554,17.642z"/>
	<path class="st1" d="M209.96,12.35l4.571,15.083l4.319-15.083h2.7l4.319,15.083l4.571-15.083h3.168l-6.335,18.61h-2.736
		l-4.319-14.974l-4.392,14.974h-2.699l-6.335-18.61H209.96z"/>
	<path class="st1" d="M250.458,14.87c1.368,1.8,2.088,4.355,2.16,7.595h-14.687c0.145,2.088,0.684,3.708,1.691,4.859
		c1.009,1.152,2.412,1.728,4.176,1.728c1.512,0,2.771-0.396,3.708-1.152c0.792-0.648,1.403-1.62,1.871-2.916h2.88
		c-0.432,1.8-1.26,3.239-2.52,4.391c-1.548,1.368-3.527,2.088-5.939,2.088c-2.663,0-4.823-0.9-6.407-2.627
		c-1.655-1.8-2.447-4.176-2.447-7.199c0-2.736,0.756-5.04,2.34-6.875c1.583-1.944,3.707-2.916,6.407-2.916
		C246.678,11.846,248.946,12.854,250.458,14.87z M239.767,15.878c-1.008,1.08-1.584,2.52-1.764,4.355h11.626
		c-0.359-3.996-2.339-5.976-5.867-5.976C242.107,14.258,240.775,14.798,239.767,15.878z"/>
	<path class="st1" d="M259.423,4.755V30.96h-2.844V4.755H259.423z"/>
	<path class="st1" d="M278.034,13.466c1.439,1.116,2.304,2.808,2.627,5.075h-2.844c-0.252-1.44-0.827-2.52-1.728-3.24
		c-0.936-0.72-2.124-1.044-3.6-1.044c-1.8,0-3.239,0.684-4.283,2.052c-1.008,1.332-1.512,3.132-1.512,5.399
		c0,2.268,0.468,4.067,1.476,5.363c0.972,1.296,2.412,1.98,4.283,1.98c3.168,0,5.004-1.62,5.436-4.823h2.88
		c-0.432,2.375-1.332,4.211-2.771,5.435c-1.404,1.188-3.24,1.8-5.544,1.8c-2.808,0-4.967-0.936-6.515-2.808
		c-1.476-1.764-2.196-4.067-2.196-6.911s0.721-5.147,2.196-6.947c1.584-1.979,3.779-2.952,6.551-2.952
		C274.793,11.846,276.629,12.386,278.034,13.466z"/>
	<path class="st1" d="M299.129,14.726c1.583,1.835,2.375,4.139,2.375,6.947c0,2.771-0.792,5.075-2.34,6.875
		c-1.691,1.944-3.923,2.916-6.694,2.916c-2.808,0-5.004-0.972-6.659-2.916c-1.584-1.8-2.376-4.104-2.376-6.875
		c0-2.808,0.792-5.112,2.376-6.947c1.655-1.944,3.852-2.88,6.659-2.88C295.242,11.846,297.473,12.782,299.129,14.726z
		 M287.863,16.526c-1.009,1.368-1.477,3.06-1.477,5.147c0,2.052,0.468,3.743,1.477,5.111c1.079,1.512,2.627,2.268,4.607,2.268
		c1.943,0,3.491-0.756,4.643-2.268c0.973-1.368,1.477-3.096,1.477-5.111c0-2.088-0.504-3.78-1.477-5.147
		c-1.151-1.512-2.699-2.268-4.643-2.268C290.49,14.258,288.942,15.014,287.863,16.526z"/>
	<path class="st1" d="M319.216,15.374c0.721-1.224,1.584-2.124,2.592-2.664c0.9-0.576,1.98-0.864,3.276-0.864
		c1.943,0,3.491,0.612,4.715,1.836c1.152,1.26,1.764,2.952,1.764,5.075V30.96h-2.88V19.226c0-1.656-0.359-2.88-1.043-3.672
		c-0.721-0.864-1.872-1.26-3.456-1.26c-1.224,0-2.268,0.432-3.06,1.368c-0.864,0.936-1.26,2.124-1.26,3.635V30.96h-2.88V19.226
		c0-3.312-1.439-4.932-4.283-4.932c-1.332,0-2.412,0.504-3.275,1.584c-0.864,1.008-1.296,2.268-1.296,3.744V30.96h-2.88V12.35h2.88
		v2.484c1.403-2.016,3.167-2.988,5.255-2.988C316.229,11.846,318.173,12.998,319.216,15.374z"/>
	<path class="st1" d="M350.464,14.87c1.368,1.8,2.088,4.355,2.16,7.595h-14.687c0.145,2.088,0.684,3.708,1.691,4.859
		c1.009,1.152,2.412,1.728,4.176,1.728c1.512,0,2.771-0.396,3.708-1.152c0.792-0.648,1.403-1.62,1.871-2.916h2.88
		c-0.432,1.8-1.26,3.239-2.52,4.391c-1.548,1.368-3.527,2.088-5.939,2.088c-2.663,0-4.823-0.9-6.407-2.627
		c-1.655-1.8-2.447-4.176-2.447-7.199c0-2.736,0.756-5.04,2.34-6.875c1.583-1.944,3.707-2.916,6.407-2.916
		C346.685,11.846,348.953,12.854,350.464,14.87z M339.774,15.878c-1.008,1.08-1.584,2.52-1.764,4.355h11.626
		c-0.359-3.996-2.339-5.976-5.867-5.976C342.114,14.258,340.782,14.798,339.774,15.878z"/>
	<path class="st1" d="M372.64,4.755V30.96h-2.699V27.9c-1.296,2.375-3.384,3.563-6.191,3.563c-2.736,0-4.859-1.008-6.371-2.952
		c-1.404-1.8-2.088-4.104-2.088-6.911c0-2.736,0.684-4.967,2.088-6.767c1.512-2.016,3.563-2.988,6.227-2.988
		c2.664,0,4.716,1.296,6.155,3.924V4.755H372.64z M359.61,16.382c-0.936,1.26-1.368,2.988-1.368,5.219
		c0,2.232,0.433,3.996,1.332,5.292c1.008,1.44,2.52,2.196,4.535,2.196c1.872,0,3.312-0.72,4.355-2.16
		c0.9-1.296,1.368-2.988,1.368-5.076v-0.36c0-2.16-0.54-3.923-1.548-5.255c-1.044-1.368-2.411-2.016-4.067-2.016
		C362.166,14.222,360.618,14.942,359.61,16.382z"/>
	<path class="st1" d="M396.357,5.943c0.433,0.36,0.648,0.864,0.648,1.512c0,0.612-0.216,1.116-0.648,1.548
		c-0.432,0.396-0.936,0.612-1.548,0.612c-0.611,0-1.115-0.216-1.548-0.612c-0.432-0.432-0.611-0.936-0.611-1.548
		c0-0.648,0.18-1.152,0.611-1.512c0.433-0.432,0.937-0.612,1.548-0.612C395.421,5.331,395.925,5.511,396.357,5.943z M396.25,12.35
		v18.61h-2.88V12.35H396.25z"/>
	<path class="st1" d="M417.307,19.513V30.96h-2.879v-11.23c0-3.636-1.656-5.436-4.896-5.436c-1.296,0-2.412,0.468-3.348,1.404
		c-1.008,1.008-1.548,2.34-1.656,4.032v11.23h-2.879V12.35h2.879v2.736c0.648-1.044,1.477-1.836,2.484-2.375
		c1.008-0.576,2.123-0.864,3.348-0.864C414.968,11.846,417.307,14.402,417.307,19.513z"/>
	<path class="st1" d="M456.539,5.259v2.556h-9.071V30.96h-2.916V7.815h-9.07V5.259H456.539z"/>
	<path class="st1" d="M462.264,4.755V15.41c0.647-1.188,1.512-2.088,2.592-2.7c1.008-0.576,2.123-0.864,3.383-0.864
		c2.16,0,3.852,0.612,5.004,1.908c1.151,1.26,1.728,3.096,1.728,5.472V30.96h-2.88V19.657c0-1.728-0.432-3.06-1.224-3.995
		c-0.863-0.936-2.052-1.404-3.6-1.404c-1.439,0-2.627,0.576-3.563,1.728c-0.972,1.152-1.439,2.627-1.439,4.355V30.96h-2.88V4.755
		H462.264z"/>
	<path class="st1" d="M493.835,14.87c1.368,1.8,2.088,4.355,2.16,7.595h-14.687c0.145,2.088,0.684,3.708,1.691,4.859
		c1.009,1.152,2.412,1.728,4.176,1.728c1.512,0,2.771-0.396,3.708-1.152c0.792-0.648,1.403-1.62,1.871-2.916h2.88
		c-0.432,1.8-1.26,3.239-2.52,4.391c-1.548,1.368-3.527,2.088-5.939,2.088c-2.663,0-4.823-0.9-6.407-2.627
		c-1.655-1.8-2.447-4.176-2.447-7.199c0-2.736,0.756-5.04,2.34-6.875c1.583-1.944,3.707-2.916,6.407-2.916
		C490.055,11.846,492.323,12.854,493.835,14.87z M483.144,15.878c-1.008,1.08-1.584,2.52-1.764,4.355h11.626
		c-0.359-3.996-2.339-5.976-5.867-5.976C485.484,14.258,484.152,14.798,483.144,15.878z"/>
	<path class="st1" d="M524.284,5.259c4.067,0,7.127,1.152,9.215,3.527c1.907,2.16,2.879,5.292,2.879,9.323
		c0,3.959-1.044,7.091-3.096,9.323c-2.159,2.339-5.255,3.527-9.286,3.527h-8.927V5.259H524.284z M518.02,28.404h5.472
		c3.348,0,5.867-0.9,7.559-2.664c1.584-1.728,2.412-4.284,2.412-7.631c0-3.456-0.756-6.011-2.232-7.667
		c-1.583-1.764-4.031-2.627-7.415-2.627h-5.795V28.404z"/>
	<path class="st1" d="M554.558,14.87c1.368,1.8,2.088,4.355,2.16,7.595h-14.687c0.145,2.088,0.684,3.708,1.691,4.859
		c1.009,1.152,2.412,1.728,4.176,1.728c1.512,0,2.771-0.396,3.708-1.152c0.792-0.648,1.403-1.62,1.871-2.916h2.88
		c-0.432,1.8-1.26,3.239-2.52,4.391c-1.548,1.368-3.527,2.088-5.939,2.088c-2.663,0-4.823-0.9-6.407-2.627
		c-1.655-1.8-2.447-4.176-2.447-7.199c0-2.736,0.756-5.04,2.34-6.875c1.583-1.944,3.707-2.916,6.407-2.916
		C550.779,11.846,553.046,12.854,554.558,14.87z M543.868,15.878c-1.008,1.08-1.584,2.52-1.764,4.355h11.626
		c-0.359-3.996-2.339-5.976-5.867-5.976C546.208,14.258,544.876,14.798,543.868,15.878z"/>
	<path class="st1" d="M571.119,5.259v2.483h-3.204c-0.792,0-1.403,0.18-1.764,0.612c-0.36,0.396-0.54,1.043-0.54,1.943v2.052h5.255
		v2.412h-5.255V30.96h-2.88V14.762h-4.679V12.35h4.679v-2.124c0-1.584,0.396-2.771,1.188-3.636c0.827-0.9,2.052-1.332,3.635-1.332
		H571.119z"/>
	<path class="st1" d="M584.258,12.278v2.879c-0.937-0.288-1.872-0.396-2.772-0.396c-1.439,0-2.663,0.612-3.635,1.908
		c-1.008,1.224-1.477,2.7-1.477,4.427v9.863h-2.843V12.35h2.843v3.24c0.504-1.08,1.152-1.944,1.944-2.556
		c0.972-0.792,2.088-1.188,3.384-1.188C582.711,11.846,583.574,11.99,584.258,12.278z"/>
	<path class="st1" d="M601.645,14.726c1.584,1.835,2.376,4.139,2.376,6.947c0,2.771-0.792,5.075-2.34,6.875
		c-1.691,1.944-3.924,2.916-6.695,2.916c-2.808,0-5.003-0.972-6.659-2.916c-1.584-1.8-2.376-4.104-2.376-6.875
		c0-2.808,0.792-5.112,2.376-6.947c1.656-1.944,3.852-2.88,6.659-2.88C597.757,11.846,599.99,12.782,601.645,14.726z
		 M590.378,16.526c-1.008,1.368-1.476,3.06-1.476,5.147c0,2.052,0.468,3.743,1.476,5.111c1.08,1.512,2.628,2.268,4.607,2.268
		c1.943,0,3.491-0.756,4.644-2.268c0.972-1.368,1.476-3.096,1.476-5.111c0-2.088-0.504-3.78-1.476-5.147
		c-1.152-1.512-2.7-2.268-4.644-2.268C593.006,14.258,591.459,15.014,590.378,16.526z"/>
	<path class="st1" d="M621.985,17.642h-2.808c-0.252-1.152-0.72-2.016-1.439-2.52c-0.792-0.576-1.944-0.864-3.42-0.864
		c-1.296,0-2.304,0.216-3.023,0.72c-0.792,0.468-1.188,1.116-1.188,1.944c0,0.792,0.504,1.476,1.584,2.016
		c0.685,0.324,1.979,0.72,3.852,1.224c2.231,0.54,3.815,1.116,4.787,1.728c1.477,0.936,2.232,2.196,2.232,3.815
		c0,3.815-2.628,5.759-7.883,5.759c-4.896,0-7.56-2.16-7.991-6.443h2.808c0.216,1.476,0.756,2.52,1.548,3.168
		c0.792,0.576,1.979,0.864,3.563,0.864c3.312,0,5.003-1.08,5.003-3.167c0-1.044-0.611-1.836-1.764-2.412
		c-0.611-0.288-1.943-0.684-3.959-1.188c-2.196-0.54-3.744-1.08-4.607-1.656c-1.44-0.864-2.124-2.052-2.124-3.636
		c0-1.583,0.684-2.808,2.088-3.744c1.296-0.936,3.023-1.404,5.111-1.404C618.961,11.846,621.481,13.754,621.985,17.642z"/>
	<path class="st1" d="M630.914,12.35h4.607v2.412h-4.607v11.842c0,0.684,0.108,1.188,0.396,1.476
		c0.252,0.288,0.72,0.468,1.367,0.468h2.376v2.412h-2.808c-1.512,0-2.628-0.396-3.275-1.188c-0.612-0.72-0.9-1.764-0.9-3.167V14.762
		h-3.743V12.35h3.743V7.527l2.844-1.188V12.35z"/>
	<path class="st1" d="M653.161,14.87c1.367,1.8,2.087,4.355,2.159,7.595h-14.686c0.144,2.088,0.684,3.708,1.691,4.859
		s2.412,1.728,4.176,1.728c1.512,0,2.771-0.396,3.707-1.152c0.792-0.648,1.404-1.62,1.872-2.916h2.88
		c-0.433,1.8-1.26,3.239-2.521,4.391c-1.547,1.368-3.527,2.088-5.938,2.088c-2.664,0-4.823-0.9-6.407-2.627
		c-1.656-1.8-2.448-4.176-2.448-7.199c0-2.736,0.756-5.04,2.34-6.875c1.584-1.944,3.708-2.916,6.407-2.916
		C649.38,11.846,651.649,12.854,653.161,14.87z M642.469,15.878c-1.008,1.08-1.583,2.52-1.764,4.355h11.627
		c-0.36-3.996-2.34-5.976-5.867-5.976C644.809,14.258,643.477,14.798,642.469,15.878z"/>
	<path class="st1" d="M675.336,4.755V30.96h-2.7V27.9c-1.296,2.375-3.384,3.563-6.191,3.563c-2.735,0-4.859-1.008-6.371-2.952
		c-1.403-1.8-2.088-4.104-2.088-6.911c0-2.736,0.685-4.967,2.088-6.767c1.512-2.016,3.563-2.988,6.228-2.988
		c2.663,0,4.715,1.296,6.155,3.924V4.755H675.336z M662.305,16.382c-0.936,1.26-1.367,2.988-1.367,5.219
		c0,2.232,0.432,3.996,1.332,5.292c1.008,1.44,2.52,2.196,4.535,2.196c1.872,0,3.312-0.72,4.355-2.16
		c0.899-1.296,1.368-2.988,1.368-5.076v-0.36c0-2.16-0.54-3.923-1.548-5.255c-1.044-1.368-2.412-2.016-4.068-2.016
		C664.861,14.222,663.314,14.942,662.305,16.382z"/>
	<path class="st1" d="M21.238,67.095c1.8,1.476,2.915,3.6,3.384,6.407h-2.952c-0.396-1.943-1.26-3.419-2.592-4.463
		c-1.403-1.116-3.239-1.656-5.507-1.656c-2.808,0-5.004,0.972-6.659,2.952c-1.656,1.944-2.448,4.571-2.448,7.883
		c0,3.239,0.792,5.795,2.376,7.667c1.691,1.979,4.212,2.987,7.56,2.987c1.403,0,2.735-0.216,4.031-0.576
		c1.26-0.36,2.34-0.864,3.239-1.44v-6.551h-8.062V77.75h10.979V88.26c-1.225,1.008-2.736,1.764-4.5,2.34
		c-1.871,0.576-3.852,0.864-5.975,0.864c-4.067,0-7.235-1.296-9.467-3.888c-2.088-2.412-3.132-5.543-3.132-9.358
		c0-3.816,1.008-6.947,3.096-9.431c2.195-2.7,5.184-4.031,8.963-4.031C16.774,64.755,19.33,65.511,21.238,67.095z"/>
	<path class="st1" d="M43.162,73.934c1.08,1.224,1.656,2.916,1.656,5.075V90.96h-2.7v-3.132c-0.72,1.008-1.691,1.836-2.843,2.484
		c-1.368,0.756-2.916,1.152-4.644,1.152c-1.872,0-3.348-0.468-4.464-1.404c-1.151-0.972-1.728-2.232-1.728-3.744
		c0-2.124,0.828-3.708,2.556-4.787c1.512-1.008,3.672-1.548,6.479-1.584l4.463-0.072v-0.972c0-3.131-1.62-4.679-4.859-4.679
		c-1.368,0-2.483,0.252-3.348,0.828c-0.972,0.576-1.584,1.476-1.872,2.664l-2.843-0.216c0.396-1.944,1.367-3.419,2.879-4.355
		c1.368-0.864,3.132-1.296,5.363-1.296C39.922,71.846,41.866,72.53,43.162,73.934z M37.655,82.105
		c-4.176,0.072-6.264,1.44-6.264,4.14c0,0.864,0.324,1.548,1.044,2.124c0.72,0.54,1.656,0.828,2.808,0.828
		c1.764,0,3.312-0.576,4.68-1.728c1.332-1.116,2.016-2.412,2.016-3.852v-1.583L37.655,82.105z"/>
	<path class="st1" d="M52.703,64.755V90.96h-2.844V64.755H52.703z"/>
	<path class="st1" d="M61.163,64.755V90.96h-2.844V64.755H61.163z"/>
	<path class="st1" d="M80.636,74.87c1.368,1.8,2.088,4.355,2.16,7.595H68.11c0.145,2.088,0.684,3.708,1.691,4.859
		c1.009,1.152,2.412,1.728,4.176,1.728c1.512,0,2.771-0.396,3.708-1.152c0.792-0.648,1.403-1.62,1.871-2.916h2.88
		c-0.432,1.8-1.26,3.239-2.52,4.391c-1.548,1.368-3.527,2.088-5.939,2.088c-2.663,0-4.823-0.9-6.407-2.627
		c-1.655-1.8-2.447-4.176-2.447-7.199c0-2.736,0.756-5.04,2.34-6.875c1.583-1.944,3.707-2.916,6.407-2.916
		C76.857,71.846,79.125,72.854,80.636,74.87z M69.946,75.878c-1.008,1.08-1.584,2.52-1.764,4.355h11.626
		c-0.359-3.996-2.339-5.976-5.867-5.976C72.286,74.258,70.954,74.798,69.946,75.878z"/>
	<path class="st1" d="M96.909,72.278v2.879c-0.936-0.288-1.872-0.396-2.771-0.396c-1.439,0-2.664,0.612-3.636,1.908
		c-1.008,1.224-1.476,2.7-1.476,4.427v9.863h-2.844V72.35h2.844v3.24c0.504-1.08,1.151-1.944,1.943-2.556
		c0.973-0.792,2.088-1.188,3.384-1.188C95.361,71.846,96.225,71.99,96.909,72.278z"/>
	<path class="st1" d="M100.402,72.35l5.688,14.687l5.507-14.687h3.168l-10.187,25.737h-3.132l3.203-7.559L97.27,72.35H100.402z"/>
	<path class="st1" d="M137.88,72.35h4.607v2.412h-4.607v11.842c0,0.684,0.108,1.188,0.396,1.476c0.252,0.288,0.72,0.468,1.367,0.468
		h2.376v2.412h-2.808c-1.512,0-2.628-0.396-3.275-1.188c-0.612-0.72-0.9-1.764-0.9-3.167V74.762h-3.743V72.35h3.743v-4.823
		l2.844-1.188V72.35z"/>
	<path class="st1" d="M160.668,74.726c1.583,1.835,2.375,4.139,2.375,6.947c0,2.771-0.792,5.075-2.34,6.875
		c-1.691,1.944-3.923,2.916-6.694,2.916c-2.808,0-5.004-0.972-6.659-2.916c-1.584-1.8-2.376-4.104-2.376-6.875
		c0-2.808,0.792-5.112,2.376-6.947c1.655-1.944,3.852-2.88,6.659-2.88C156.78,71.846,159.011,72.782,160.668,74.726z
		 M149.401,76.526c-1.009,1.368-1.477,3.06-1.477,5.147c0,2.052,0.468,3.743,1.477,5.111c1.079,1.512,2.627,2.268,4.607,2.268
		c1.943,0,3.491-0.756,4.643-2.268c0.973-1.368,1.477-3.096,1.477-5.111c0-2.088-0.504-3.78-1.477-5.147
		c-1.151-1.512-2.699-2.268-4.643-2.268C152.028,74.258,150.48,75.014,149.401,76.526z"/>
	<path class="st1" d="M187.492,72.35h4.607v2.412h-4.607v11.842c0,0.684,0.107,1.188,0.396,1.476
		c0.252,0.288,0.72,0.468,1.368,0.468h2.375v2.412h-2.808c-1.512,0-2.627-0.396-3.275-1.188c-0.611-0.72-0.899-1.764-0.899-3.167
		V74.762h-3.744V72.35h3.744v-4.823l2.844-1.188V72.35z"/>
	<path class="st1" d="M209.306,73.934c1.08,1.224,1.655,2.916,1.655,5.075V90.96h-2.699v-3.132c-0.72,1.008-1.691,1.836-2.844,2.484
		c-1.368,0.756-2.916,1.152-4.644,1.152c-1.872,0-3.348-0.468-4.463-1.404c-1.152-0.972-1.729-2.232-1.729-3.744
		c0-2.124,0.828-3.708,2.556-4.787c1.512-1.008,3.672-1.548,6.479-1.584l4.464-0.072v-0.972c0-3.131-1.62-4.679-4.859-4.679
		c-1.368,0-2.484,0.252-3.348,0.828c-0.973,0.576-1.584,1.476-1.872,2.664l-2.844-0.216c0.396-1.944,1.368-3.419,2.88-4.355
		c1.368-0.864,3.132-1.296,5.363-1.296C206.066,71.846,208.01,72.53,209.306,73.934z M203.798,82.105
		c-4.175,0.072-6.263,1.44-6.263,4.14c0,0.864,0.324,1.548,1.044,2.124c0.72,0.54,1.655,0.828,2.808,0.828
		c1.764,0,3.312-0.576,4.679-1.728c1.332-1.116,2.017-2.412,2.017-3.852v-1.583L203.798,82.105z"/>
	<path class="st1" d="M218.307,64.755v16.234l9.322-8.639h3.815l-8.206,7.487l8.998,11.123h-3.707l-7.271-9.251l-2.951,2.664v6.587
		h-2.88V64.755H218.307z"/>
	<path class="st1" d="M248.905,74.87c1.368,1.8,2.088,4.355,2.16,7.595h-14.687c0.145,2.088,0.684,3.708,1.691,4.859
		c1.009,1.152,2.412,1.728,4.176,1.728c1.512,0,2.771-0.396,3.708-1.152c0.792-0.648,1.403-1.62,1.871-2.916h2.88
		c-0.432,1.8-1.26,3.239-2.52,4.391c-1.548,1.368-3.527,2.088-5.939,2.088c-2.663,0-4.823-0.9-6.407-2.627
		c-1.655-1.8-2.447-4.176-2.447-7.199c0-2.736,0.756-5.04,2.34-6.875c1.583-1.944,3.707-2.916,6.407-2.916
		C245.126,71.846,247.393,72.854,248.905,74.87z M238.214,75.878c-1.008,1.08-1.584,2.52-1.764,4.355h11.626
		c-0.359-3.996-2.339-5.976-5.867-5.976C240.554,74.258,239.222,74.798,238.214,75.878z"/>
	<path class="st1" d="M285.161,74.726c1.583,1.835,2.375,4.139,2.375,6.947c0,2.771-0.792,5.075-2.34,6.875
		c-1.691,1.944-3.923,2.916-6.694,2.916c-2.808,0-5.004-0.972-6.659-2.916c-1.584-1.8-2.376-4.104-2.376-6.875
		c0-2.808,0.792-5.112,2.376-6.947c1.655-1.944,3.852-2.88,6.659-2.88C281.273,71.846,283.504,72.782,285.161,74.726z
		 M273.894,76.526c-1.009,1.368-1.477,3.06-1.477,5.147c0,2.052,0.468,3.743,1.477,5.111c1.079,1.512,2.627,2.268,4.607,2.268
		c1.943,0,3.491-0.756,4.643-2.268c0.973-1.368,1.477-3.096,1.477-5.111c0-2.088-0.504-3.78-1.477-5.147
		c-1.151-1.512-2.699-2.268-4.643-2.268C276.521,74.258,274.973,75.014,273.894,76.526z"/>
	<path class="st1" d="M294.162,72.35v11.375c0,1.764,0.36,3.095,1.116,3.959c0.756,0.864,1.979,1.332,3.672,1.332
		c1.224,0,2.339-0.504,3.312-1.44c1.008-1.008,1.619-2.304,1.835-3.887V72.35h2.88v18.61h-2.88v-2.88
		c-1.512,2.232-3.527,3.384-6.047,3.384c-4.535,0-6.767-2.556-6.767-7.595V72.35H294.162z"/>
	<path class="st1" d="M316.41,72.35h4.607v2.412h-4.607v11.842c0,0.684,0.108,1.188,0.396,1.476c0.252,0.288,0.72,0.468,1.367,0.468
		h2.376v2.412h-2.808c-1.512,0-2.628-0.396-3.275-1.188c-0.612-0.72-0.9-1.764-0.9-3.167V74.762h-3.743V72.35h3.743v-4.823
		l2.844-1.188V72.35z"/>
	<path class="st1" d="M341.038,72.35l5.688,14.687l5.507-14.687h3.168l-10.187,25.737h-3.132l3.203-7.559l-7.379-18.178H341.038z"/>
	<path class="st1" d="M372.788,74.726c1.583,1.835,2.375,4.139,2.375,6.947c0,2.771-0.792,5.075-2.34,6.875
		c-1.691,1.944-3.923,2.916-6.694,2.916c-2.808,0-5.004-0.972-6.659-2.916c-1.584-1.8-2.376-4.104-2.376-6.875
		c0-2.808,0.792-5.112,2.376-6.947c1.655-1.944,3.852-2.88,6.659-2.88C368.9,71.846,371.131,72.782,372.788,74.726z M361.521,76.526
		c-1.009,1.368-1.477,3.06-1.477,5.147c0,2.052,0.468,3.743,1.477,5.111c1.079,1.512,2.627,2.268,4.607,2.268
		c1.943,0,3.491-0.756,4.643-2.268c0.973-1.368,1.477-3.096,1.477-5.111c0-2.088-0.504-3.78-1.477-5.147
		c-1.151-1.512-2.699-2.268-4.643-2.268C364.148,74.258,362.6,75.014,361.521,76.526z"/>
	<path class="st1" d="M381.789,72.35v11.375c0,1.764,0.359,3.095,1.115,3.959c0.756,0.864,1.98,1.332,3.672,1.332
		c1.224,0,2.34-0.504,3.312-1.44c1.008-1.008,1.62-2.304,1.836-3.887V72.35h2.88v18.61h-2.88v-2.88
		c-1.512,2.232-3.527,3.384-6.047,3.384c-4.536,0-6.768-2.556-6.768-7.595V72.35H381.789z"/>
	<path class="st1" d="M409.795,72.278v2.879c-0.936-0.288-1.872-0.396-2.771-0.396c-1.439,0-2.664,0.612-3.636,1.908
		c-1.008,1.224-1.476,2.7-1.476,4.427v9.863h-2.844V72.35h2.844v3.24c0.504-1.08,1.151-1.944,1.943-2.556
		c0.973-0.792,2.088-1.188,3.384-1.188C408.248,71.846,409.112,71.99,409.795,72.278z"/>
	<path class="st1" d="M441.911,75.374c0.72-1.224,1.584-2.124,2.592-2.664c0.899-0.576,1.979-0.864,3.275-0.864
		c1.943,0,3.491,0.612,4.716,1.836c1.151,1.26,1.764,2.952,1.764,5.075V90.96h-2.88V79.226c0-1.656-0.36-2.88-1.044-3.672
		c-0.72-0.864-1.872-1.26-3.455-1.26c-1.225,0-2.269,0.432-3.06,1.368c-0.864,0.936-1.261,2.124-1.261,3.635V90.96h-2.879V79.226
		c0-3.312-1.44-4.932-4.284-4.932c-1.331,0-2.411,0.504-3.275,1.584c-0.863,1.008-1.296,2.268-1.296,3.744V90.96h-2.879V72.35h2.879
		v2.484c1.404-2.016,3.168-2.988,5.256-2.988C438.923,71.846,440.867,72.998,441.911,75.374z"/>
	<path class="st1" d="M473.699,74.726c1.583,1.835,2.375,4.139,2.375,6.947c0,2.771-0.792,5.075-2.34,6.875
		c-1.691,1.944-3.923,2.916-6.694,2.916c-2.808,0-5.004-0.972-6.659-2.916c-1.584-1.8-2.376-4.104-2.376-6.875
		c0-2.808,0.792-5.112,2.376-6.947c1.655-1.944,3.852-2.88,6.659-2.88C469.811,71.846,472.043,72.782,473.699,74.726z
		 M462.432,76.526c-1.009,1.368-1.477,3.06-1.477,5.147c0,2.052,0.468,3.743,1.477,5.111c1.079,1.512,2.627,2.268,4.607,2.268
		c1.943,0,3.491-0.756,4.643-2.268c0.973-1.368,1.477-3.096,1.477-5.111c0-2.088-0.504-3.78-1.477-5.147
		c-1.151-1.512-2.699-2.268-4.643-2.268C465.059,74.258,463.511,75.014,462.432,76.526z"/>
	<path class="st1" d="M482.7,64.755V75.77c1.439-2.628,3.491-3.924,6.155-3.924c2.627,0,4.715,0.972,6.227,2.988
		c1.368,1.8,2.088,4.031,2.088,6.767c0,2.808-0.72,5.111-2.088,6.911c-1.548,1.944-3.671,2.952-6.371,2.952
		c-2.879,0-4.931-1.188-6.191-3.563v3.06h-2.699V64.755H482.7z M484.175,76.238c-1.08,1.332-1.584,3.096-1.584,5.255v0.36
		c0,2.088,0.468,3.78,1.404,5.076c1.008,1.439,2.483,2.16,4.355,2.16c2.016,0,3.527-0.756,4.535-2.196
		c0.864-1.296,1.332-3.06,1.332-5.292c0-2.231-0.468-3.959-1.404-5.219c-1.044-1.44-2.556-2.16-4.571-2.16
		C486.551,74.222,485.183,74.87,484.175,76.238z"/>
	<path class="st1" d="M504.839,65.943c0.432,0.36,0.647,0.864,0.647,1.512c0,0.612-0.216,1.116-0.647,1.548
		c-0.433,0.396-0.937,0.612-1.548,0.612c-0.612,0-1.116-0.216-1.548-0.612c-0.433-0.432-0.612-0.936-0.612-1.548
		c0-0.648,0.18-1.152,0.612-1.512c0.432-0.432,0.936-0.612,1.548-0.612C503.903,65.331,504.407,65.511,504.839,65.943z
		 M504.731,72.35v18.61h-2.88V72.35H504.731z"/>
	<path class="st1" d="M513.551,64.755V90.96h-2.844V64.755H513.551z"/>
	<path class="st1" d="M533.025,74.87c1.368,1.8,2.088,4.355,2.16,7.595h-14.687c0.145,2.088,0.684,3.708,1.691,4.859
		c1.009,1.152,2.412,1.728,4.176,1.728c1.512,0,2.771-0.396,3.708-1.152c0.792-0.648,1.403-1.62,1.871-2.916h2.88
		c-0.432,1.8-1.26,3.239-2.52,4.391c-1.548,1.368-3.527,2.088-5.939,2.088c-2.663,0-4.823-0.9-6.407-2.627
		c-1.655-1.8-2.447-4.176-2.447-7.199c0-2.736,0.756-5.04,2.34-6.875c1.583-1.944,3.707-2.916,6.407-2.916
		C529.246,71.846,531.513,72.854,533.025,74.87z M522.335,75.878c-1.008,1.08-1.584,2.52-1.764,4.355h11.626
		c-0.359-3.996-2.339-5.976-5.867-5.976C524.674,74.258,523.342,74.798,522.335,75.878z"/>
	<path class="st1" d="M570.937,64.755V90.96h-2.7V87.9c-1.296,2.375-3.384,3.563-6.191,3.563c-2.735,0-4.859-1.008-6.371-2.952
		c-1.403-1.8-2.088-4.104-2.088-6.911c0-2.736,0.685-4.967,2.088-6.767c1.512-2.016,3.563-2.988,6.228-2.988
		c2.663,0,4.715,1.296,6.155,3.924V64.755H570.937z M557.906,76.382c-0.936,1.26-1.367,2.988-1.367,5.219
		c0,2.232,0.432,3.996,1.332,5.292c1.008,1.44,2.52,2.196,4.535,2.196c1.872,0,3.312-0.72,4.355-2.16
		c0.899-1.296,1.368-2.988,1.368-5.076v-0.36c0-2.16-0.54-3.923-1.548-5.255c-1.044-1.368-2.412-2.016-4.068-2.016
		C560.461,74.222,558.915,74.942,557.906,76.382z"/>
	<path class="st1" d="M589.837,74.87c1.367,1.8,2.087,4.355,2.159,7.595h-14.686c0.144,2.088,0.684,3.708,1.691,4.859
		s2.412,1.728,4.176,1.728c1.512,0,2.771-0.396,3.707-1.152c0.792-0.648,1.404-1.62,1.872-2.916h2.88
		c-0.433,1.8-1.26,3.239-2.521,4.391c-1.547,1.368-3.527,2.088-5.938,2.088c-2.664,0-4.823-0.9-6.407-2.627
		c-1.656-1.8-2.448-4.176-2.448-7.199c0-2.736,0.756-5.04,2.34-6.875c1.584-1.944,3.708-2.916,6.407-2.916
		C586.057,71.846,588.326,72.854,589.837,74.87z M579.146,75.878c-1.008,1.08-1.583,2.52-1.764,4.355h11.627
		c-0.36-3.996-2.34-5.976-5.867-5.976C581.486,74.258,580.154,74.798,579.146,75.878z"/>
	<path class="st1" d="M596.499,72.35l5.327,15.01l5.327-15.01h3.168l-7.056,18.61h-2.915l-7.02-18.61H596.499z"/>
	<path class="st1" d="M616.658,65.943c0.432,0.36,0.647,0.864,0.647,1.512c0,0.612-0.216,1.116-0.647,1.548
		c-0.433,0.396-0.937,0.612-1.548,0.612c-0.612,0-1.116-0.216-1.548-0.612c-0.433-0.432-0.612-0.936-0.612-1.548
		c0-0.648,0.18-1.152,0.612-1.512c0.432-0.432,0.936-0.612,1.548-0.612C615.721,65.331,616.225,65.511,616.658,65.943z
		 M616.549,72.35v18.61h-2.88V72.35H616.549z"/>
	<path class="st1" d="M635.52,73.466c1.439,1.116,2.304,2.808,2.628,5.075h-2.844c-0.252-1.44-0.828-2.52-1.728-3.24
		c-0.937-0.72-2.124-1.044-3.6-1.044c-1.8,0-3.24,0.684-4.284,2.052c-1.008,1.332-1.512,3.132-1.512,5.399
		c0,2.268,0.468,4.067,1.477,5.363c0.972,1.296,2.411,1.98,4.283,1.98c3.167,0,5.003-1.62,5.436-4.823h2.879
		c-0.432,2.375-1.331,4.211-2.771,5.435c-1.403,1.188-3.239,1.8-5.543,1.8c-2.808,0-4.968-0.936-6.516-2.808
		c-1.476-1.764-2.195-4.067-2.195-6.911s0.72-5.147,2.195-6.947c1.584-1.979,3.78-2.952,6.552-2.952
		C632.281,71.846,634.117,72.386,635.52,73.466z"/>
	<path class="st1" d="M656.076,74.87c1.368,1.8,2.088,4.355,2.16,7.595h-14.687c0.145,2.088,0.684,3.708,1.691,4.859
		c1.009,1.152,2.412,1.728,4.176,1.728c1.512,0,2.771-0.396,3.708-1.152c0.792-0.648,1.403-1.62,1.871-2.916h2.88
		c-0.432,1.8-1.26,3.239-2.52,4.391c-1.548,1.368-3.527,2.088-5.939,2.088c-2.663,0-4.823-0.9-6.407-2.627
		c-1.655-1.8-2.447-4.176-2.447-7.199c0-2.736,0.756-5.04,2.34-6.875c1.583-1.944,3.707-2.916,6.407-2.916
		C652.296,71.846,654.564,72.854,656.076,74.87z M645.385,75.878c-1.008,1.08-1.584,2.52-1.764,4.355h11.626
		c-0.359-3.996-2.339-5.976-5.867-5.976C647.725,74.258,646.393,74.798,645.385,75.878z"/>
	<path class="st1" d="M675.839,77.642h-2.808c-0.252-1.152-0.72-2.016-1.439-2.52c-0.792-0.576-1.943-0.864-3.42-0.864
		c-1.295,0-2.304,0.216-3.023,0.72c-0.792,0.468-1.188,1.116-1.188,1.944c0,0.792,0.504,1.476,1.584,2.016
		c0.684,0.324,1.979,0.72,3.852,1.224c2.231,0.54,3.815,1.116,4.787,1.728c1.476,0.936,2.231,2.196,2.231,3.815
		c0,3.815-2.627,5.759-7.883,5.759c-4.896,0-7.559-2.16-7.991-6.443h2.808c0.216,1.476,0.756,2.52,1.548,3.168
		c0.792,0.576,1.98,0.864,3.563,0.864c3.312,0,5.004-1.08,5.004-3.167c0-1.044-0.612-1.836-1.764-2.412
		c-0.612-0.288-1.944-0.684-3.96-1.188c-2.195-0.54-3.743-1.08-4.607-1.656c-1.439-0.864-2.124-2.052-2.124-3.636
		c0-1.583,0.685-2.808,2.088-3.744c1.296-0.936,3.023-1.404,5.111-1.404C672.816,71.846,675.336,73.754,675.839,77.642z"/>
	<path class="st1" d="M16.234,133.934c1.08,1.224,1.656,2.916,1.656,5.075v11.951h-2.7v-3.132c-0.72,1.008-1.691,1.836-2.843,2.484
		c-1.368,0.756-2.916,1.152-4.644,1.152c-1.872,0-3.348-0.468-4.464-1.404c-1.151-0.972-1.728-2.232-1.728-3.744
		c0-2.124,0.828-3.708,2.556-4.787c1.512-1.008,3.672-1.548,6.479-1.584l4.463-0.072v-0.972c0-3.131-1.62-4.679-4.859-4.679
		c-1.368,0-2.483,0.252-3.348,0.828c-0.972,0.576-1.584,1.476-1.872,2.664l-2.843-0.216c0.396-1.944,1.367-3.419,2.879-4.355
		c1.368-0.864,3.132-1.296,5.363-1.296C12.995,131.846,14.938,132.53,16.234,133.934z M10.727,142.105
		c-4.176,0.072-6.264,1.44-6.264,4.14c0,0.864,0.324,1.548,1.044,2.124c0.72,0.54,1.656,0.828,2.808,0.828
		c1.764,0,3.312-0.576,4.68-1.728c1.332-1.116,2.016-2.412,2.016-3.852v-1.583L10.727,142.105z"/>
	<path class="st1" d="M38.013,139.513v11.447h-2.879v-11.23c0-3.636-1.656-5.436-4.896-5.436c-1.296,0-2.412,0.468-3.348,1.404
		c-1.008,1.008-1.548,2.34-1.656,4.032v11.23h-2.879v-18.61h2.879v2.736c0.648-1.044,1.477-1.836,2.484-2.375
		c1.008-0.576,2.123-0.864,3.348-0.864C35.674,131.846,38.013,134.402,38.013,139.513z"/>
	<path class="st1" d="M59.109,124.755v26.205H56.41v-3.06c-1.296,2.375-3.384,3.563-6.191,3.563c-2.736,0-4.859-1.008-6.371-2.952
		c-1.404-1.8-2.088-4.104-2.088-6.911c0-2.736,0.684-4.967,2.088-6.767c1.512-2.016,3.563-2.988,6.227-2.988
		c2.664,0,4.716,1.296,6.155,3.924v-11.015H59.109z M46.079,136.382c-0.936,1.26-1.368,2.988-1.368,5.219
		c0,2.232,0.433,3.996,1.332,5.292c1.008,1.44,2.52,2.196,4.535,2.196c1.872,0,3.312-0.72,4.355-2.16
		c0.9-1.296,1.368-2.988,1.368-5.076v-0.36c0-2.16-0.54-3.923-1.548-5.255c-1.044-1.368-2.411-2.016-4.067-2.016
		C48.634,134.222,47.086,134.942,46.079,136.382z"/>
	<path class="st1" d="M79.486,125.943c0.433,0.36,0.648,0.864,0.648,1.512c0,0.612-0.216,1.116-0.648,1.548
		c-0.432,0.396-0.936,0.612-1.548,0.612c-0.611,0-1.115-0.216-1.548-0.612c-0.432-0.432-0.611-0.936-0.611-1.548
		c0-0.648,0.18-1.152,0.611-1.512c0.433-0.432,0.937-0.612,1.548-0.612C78.55,125.331,79.054,125.511,79.486,125.943z
		 M79.378,132.35v18.61h-2.88v-18.61H79.378z"/>
	<path class="st1" d="M100.436,139.513v11.447h-2.879v-11.23c0-3.636-1.656-5.436-4.896-5.436c-1.296,0-2.412,0.468-3.348,1.404
		c-1.008,1.008-1.548,2.34-1.656,4.032v11.23h-2.879v-18.61h2.879v2.736c0.648-1.044,1.477-1.836,2.484-2.375
		c1.008-0.576,2.123-0.864,3.348-0.864C98.097,131.846,100.436,134.402,100.436,139.513z"/>
	<path class="st1" d="M109.87,132.35h4.607v2.412h-4.607v11.842c0,0.684,0.107,1.188,0.396,1.476
		c0.252,0.288,0.72,0.468,1.368,0.468h2.375v2.412h-2.808c-1.512,0-2.627-0.396-3.275-1.188c-0.611-0.72-0.899-1.764-0.899-3.167
		v-11.842h-3.744v-2.412h3.744v-4.823l2.844-1.188V132.35z"/>
	<path class="st1" d="M132.116,134.87c1.368,1.8,2.088,4.355,2.16,7.595h-14.687c0.145,2.088,0.684,3.708,1.691,4.859
		c1.009,1.152,2.412,1.728,4.176,1.728c1.512,0,2.771-0.396,3.708-1.152c0.792-0.648,1.403-1.62,1.871-2.916h2.88
		c-0.432,1.8-1.26,3.239-2.52,4.391c-1.548,1.368-3.527,2.088-5.939,2.088c-2.663,0-4.823-0.9-6.407-2.627
		c-1.655-1.8-2.447-4.176-2.447-7.199c0-2.736,0.756-5.04,2.34-6.875c1.583-1.944,3.707-2.916,6.407-2.916
		C128.336,131.846,130.604,132.854,132.116,134.87z M121.425,135.878c-1.008,1.08-1.584,2.52-1.764,4.355h11.626
		c-0.359-3.996-2.339-5.976-5.867-5.976C123.765,134.258,122.433,134.798,121.425,135.878z"/>
	<path class="st1" d="M148.388,132.278v2.879c-0.936-0.288-1.872-0.396-2.771-0.396c-1.439,0-2.664,0.612-3.636,1.908
		c-1.008,1.224-1.476,2.7-1.476,4.427v9.863h-2.844v-18.61h2.844v3.24c0.504-1.08,1.151-1.944,1.943-2.556
		c0.973-0.792,2.088-1.188,3.384-1.188C146.84,131.846,147.705,131.99,148.388,132.278z"/>
	<path class="st1" d="M164.803,133.934c1.08,1.224,1.656,2.916,1.656,5.075v11.951h-2.7v-3.132c-0.72,1.008-1.691,1.836-2.843,2.484
		c-1.368,0.756-2.916,1.152-4.644,1.152c-1.872,0-3.348-0.468-4.464-1.404c-1.151-0.972-1.728-2.232-1.728-3.744
		c0-2.124,0.828-3.708,2.556-4.787c1.512-1.008,3.672-1.548,6.479-1.584l4.463-0.072v-0.972c0-3.131-1.62-4.679-4.859-4.679
		c-1.368,0-2.483,0.252-3.348,0.828c-0.972,0.576-1.584,1.476-1.872,2.664l-2.843-0.216c0.396-1.944,1.367-3.419,2.879-4.355
		c1.368-0.864,3.132-1.296,5.363-1.296C161.564,131.846,163.507,132.53,164.803,133.934z M159.296,142.105
		c-4.176,0.072-6.264,1.44-6.264,4.14c0,0.864,0.324,1.548,1.044,2.124c0.72,0.54,1.656,0.828,2.808,0.828
		c1.764,0,3.312-0.576,4.68-1.728c1.332-1.116,2.016-2.412,2.016-3.852v-1.583L159.296,142.105z"/>
	<path class="st1" d="M184.496,133.466c1.439,1.116,2.304,2.808,2.627,5.075h-2.844c-0.252-1.44-0.827-2.52-1.728-3.24
		c-0.936-0.72-2.124-1.044-3.6-1.044c-1.8,0-3.239,0.684-4.283,2.052c-1.008,1.332-1.512,3.132-1.512,5.399
		c0,2.268,0.468,4.067,1.476,5.363c0.972,1.296,2.412,1.98,4.283,1.98c3.168,0,5.004-1.62,5.436-4.823h2.88
		c-0.432,2.375-1.332,4.211-2.771,5.435c-1.404,1.188-3.24,1.8-5.544,1.8c-2.808,0-4.967-0.936-6.515-2.808
		c-1.476-1.764-2.196-4.067-2.196-6.911s0.721-5.147,2.196-6.947c1.584-1.979,3.779-2.952,6.551-2.952
		C181.255,131.846,183.091,132.386,184.496,133.466z"/>
	<path class="st1" d="M195.585,132.35h4.607v2.412h-4.607v11.842c0,0.684,0.107,1.188,0.396,1.476
		c0.252,0.288,0.72,0.468,1.368,0.468h2.375v2.412h-2.808c-1.512,0-2.627-0.396-3.275-1.188c-0.611-0.72-0.899-1.764-0.899-3.167
		v-11.842h-3.744v-2.412h3.744v-4.823l2.844-1.188V132.35z"/>
	<path class="st1" d="M216.501,132.35l4.571,15.083l4.319-15.083h2.699l4.32,15.083l4.571-15.083h3.167l-6.335,18.61h-2.735
		l-4.319-14.974l-4.392,14.974h-2.7l-6.335-18.61H216.501z"/>
	<path class="st1" d="M246.488,125.943c0.432,0.36,0.647,0.864,0.647,1.512c0,0.612-0.216,1.116-0.647,1.548
		c-0.433,0.396-0.937,0.612-1.548,0.612c-0.612,0-1.116-0.216-1.548-0.612c-0.433-0.432-0.612-0.936-0.612-1.548
		c0-0.648,0.18-1.152,0.612-1.512c0.432-0.432,0.936-0.612,1.548-0.612C245.551,125.331,246.055,125.511,246.488,125.943z
		 M246.379,132.35v18.61h-2.88v-18.61H246.379z"/>
	<path class="st1" d="M256.748,132.35h4.607v2.412h-4.607v11.842c0,0.684,0.107,1.188,0.396,1.476
		c0.252,0.288,0.72,0.468,1.368,0.468h2.375v2.412h-2.808c-1.512,0-2.627-0.396-3.275-1.188c-0.611-0.72-0.899-1.764-0.899-3.167
		v-11.842h-3.744v-2.412h3.744v-4.823l2.844-1.188V132.35z"/>
	<path class="st1" d="M267.439,124.755v10.655c0.648-1.188,1.512-2.088,2.592-2.7c1.008-0.576,2.124-0.864,3.384-0.864
		c2.16,0,3.852,0.612,5.003,1.908c1.152,1.26,1.729,3.096,1.729,5.472v11.734h-2.88v-11.303c0-1.728-0.432-3.06-1.224-3.995
		c-0.864-0.936-2.052-1.404-3.6-1.404c-1.44,0-2.628,0.576-3.563,1.728c-0.973,1.152-1.44,2.627-1.44,4.355v10.619h-2.879v-26.205
		H267.439z"/>
	<path class="st1" d="M301.531,132.35h4.607v2.412h-4.607v11.842c0,0.684,0.108,1.188,0.396,1.476
		c0.252,0.288,0.72,0.468,1.367,0.468h2.376v2.412h-2.808c-1.512,0-2.628-0.396-3.275-1.188c-0.612-0.72-0.9-1.764-0.9-3.167
		v-11.842h-3.743v-2.412h3.743v-4.823l2.844-1.188V132.35z"/>
	<path class="st1" d="M312.223,124.755v10.655c0.647-1.188,1.512-2.088,2.592-2.7c1.008-0.576,2.123-0.864,3.383-0.864
		c2.16,0,3.852,0.612,5.004,1.908c1.151,1.26,1.728,3.096,1.728,5.472v11.734h-2.88v-11.303c0-1.728-0.432-3.06-1.224-3.995
		c-0.863-0.936-2.052-1.404-3.6-1.404c-1.439,0-2.627,0.576-3.563,1.728c-0.972,1.152-1.439,2.627-1.439,4.355v10.619h-2.88v-26.205
		H312.223z"/>
	<path class="st1" d="M343.793,134.87c1.368,1.8,2.088,4.355,2.16,7.595h-14.687c0.145,2.088,0.684,3.708,1.691,4.859
		c1.009,1.152,2.412,1.728,4.176,1.728c1.512,0,2.771-0.396,3.708-1.152c0.792-0.648,1.403-1.62,1.871-2.916h2.88
		c-0.432,1.8-1.26,3.239-2.52,4.391c-1.548,1.368-3.527,2.088-5.939,2.088c-2.663,0-4.823-0.9-6.407-2.627
		c-1.655-1.8-2.447-4.176-2.447-7.199c0-2.736,0.756-5.04,2.34-6.875c1.583-1.944,3.707-2.916,6.407-2.916
		C340.014,131.846,342.282,132.854,343.793,134.87z M333.103,135.878c-1.008,1.08-1.584,2.52-1.764,4.355h11.626
		c-0.359-3.996-2.339-5.976-5.867-5.976C335.443,134.258,334.111,134.798,333.103,135.878z"/>
	<path class="st1" d="M376.553,134.834c1.404,1.8,2.124,4.067,2.124,6.875c0,2.736-0.72,5.003-2.088,6.803
		c-1.512,1.944-3.563,2.952-6.228,2.952c-2.663,0-4.715-1.296-6.155-3.888v10.511h-2.879V132.35h2.699v3.06
		c1.332-2.376,3.384-3.564,6.191-3.564C372.881,131.846,375.005,132.818,376.553,134.834z M365.502,136.418
		c-0.936,1.296-1.403,3.023-1.403,5.111v0.36c0,2.16,0.504,3.887,1.584,5.219c1.008,1.296,2.339,1.98,4.067,1.98
		c2.016,0,3.527-0.72,4.571-2.088c0.936-1.296,1.403-3.06,1.403-5.292c0-2.196-0.468-3.959-1.332-5.255
		c-1.043-1.512-2.556-2.231-4.535-2.231C367.987,134.222,366.51,134.942,365.502,136.418z"/>
	<path class="st1" d="M396.425,133.934c1.08,1.224,1.656,2.916,1.656,5.075v11.951h-2.7v-3.132c-0.72,1.008-1.691,1.836-2.843,2.484
		c-1.368,0.756-2.916,1.152-4.644,1.152c-1.872,0-3.348-0.468-4.464-1.404c-1.151-0.972-1.728-2.232-1.728-3.744
		c0-2.124,0.828-3.708,2.556-4.787c1.512-1.008,3.672-1.548,6.479-1.584l4.463-0.072v-0.972c0-3.131-1.62-4.679-4.859-4.679
		c-1.368,0-2.483,0.252-3.348,0.828c-0.972,0.576-1.584,1.476-1.872,2.664l-2.843-0.216c0.396-1.944,1.367-3.419,2.879-4.355
		c1.368-0.864,3.132-1.296,5.363-1.296C393.186,131.846,395.129,132.53,396.425,133.934z M390.918,142.105
		c-4.176,0.072-6.264,1.44-6.264,4.14c0,0.864,0.324,1.548,1.044,2.124c0.72,0.54,1.656,0.828,2.808,0.828
		c1.764,0,3.312-0.576,4.68-1.728c1.332-1.116,2.016-2.412,2.016-3.852v-1.583L390.918,142.105z"/>
	<path class="st1" d="M406.47,125.943c0.433,0.36,0.648,0.864,0.648,1.512c0,0.612-0.216,1.116-0.648,1.548
		c-0.432,0.396-0.936,0.612-1.548,0.612c-0.611,0-1.115-0.216-1.548-0.612c-0.432-0.432-0.611-0.936-0.611-1.548
		c0-0.648,0.18-1.152,0.611-1.512c0.433-0.432,0.937-0.612,1.548-0.612C405.535,125.331,406.039,125.511,406.47,125.943z
		 M406.363,132.35v18.61h-2.88v-18.61H406.363z"/>
	<path class="st1" d="M427.42,139.513v11.447h-2.879v-11.23c0-3.636-1.656-5.436-4.896-5.436c-1.296,0-2.412,0.468-3.348,1.404
		c-1.008,1.008-1.548,2.34-1.656,4.032v11.23h-2.879v-18.61h2.879v2.736c0.648-1.044,1.477-1.836,2.484-2.375
		c1.008-0.576,2.123-0.864,3.348-0.864C425.082,131.846,427.42,134.402,427.42,139.513z"/>
	<path class="st1" d="M436.854,132.35h4.607v2.412h-4.607v11.842c0,0.684,0.107,1.188,0.396,1.476
		c0.252,0.288,0.72,0.468,1.368,0.468h2.375v2.412h-2.808c-1.512,0-2.627-0.396-3.275-1.188c-0.611-0.72-0.899-1.764-0.899-3.167
		v-11.842h-3.744v-2.412h3.744v-4.823l2.844-1.188V132.35z"/>
	<path class="st1" d="M448.589,125.943c0.433,0.36,0.648,0.864,0.648,1.512c0,0.612-0.216,1.116-0.648,1.548
		c-0.432,0.396-0.936,0.612-1.548,0.612c-0.611,0-1.115-0.216-1.548-0.612c-0.432-0.432-0.611-0.936-0.611-1.548
		c0-0.648,0.18-1.152,0.611-1.512c0.433-0.432,0.937-0.612,1.548-0.612C447.654,125.331,448.158,125.511,448.589,125.943z
		 M448.482,132.35v18.61h-2.88v-18.61H448.482z"/>
	<path class="st1" d="M469.54,139.513v11.447h-2.879v-11.23c0-3.636-1.656-5.436-4.896-5.436c-1.296,0-2.412,0.468-3.348,1.404
		c-1.008,1.008-1.548,2.34-1.656,4.032v11.23h-2.879v-18.61h2.879v2.736c0.648-1.044,1.477-1.836,2.484-2.375
		c1.008-0.576,2.123-0.864,3.348-0.864C467.201,131.846,469.54,134.402,469.54,139.513z"/>
	<path class="st1" d="M487.936,135.554v-3.204h2.879v17.314c0,5.939-2.844,8.927-8.494,8.927c-2.521,0-4.464-0.504-5.76-1.512
		c-1.332-1.008-2.16-2.52-2.483-4.535h2.88c0.216,1.26,0.756,2.195,1.583,2.771c0.828,0.612,2.088,0.936,3.78,0.936
		c3.743,0,5.615-2.088,5.615-6.191v-3.275c-1.368,2.483-3.456,3.743-6.264,3.743c-2.592,0-4.644-0.9-6.155-2.664
		c-1.512-1.728-2.231-3.923-2.231-6.623c0-2.736,0.72-4.932,2.231-6.659c1.512-1.836,3.563-2.736,6.155-2.736
		C484.48,131.846,486.568,133.07,487.936,135.554z M477.749,136.238c-1.008,1.224-1.512,2.916-1.512,5.003
		c0,1.944,0.433,3.563,1.332,4.788c1.008,1.368,2.483,2.087,4.5,2.087c1.871,0,3.312-0.648,4.391-1.944
		c1.008-1.26,1.512-2.916,1.512-4.931c0-2.088-0.504-3.78-1.512-5.003c-1.079-1.368-2.52-2.016-4.355-2.016
		C480.233,134.222,478.793,134.87,477.749,136.238z"/>
	<path class="st1" d="M509.499,137.642h-2.808c-0.252-1.152-0.72-2.016-1.439-2.52c-0.792-0.576-1.943-0.864-3.42-0.864
		c-1.295,0-2.304,0.216-3.023,0.72c-0.792,0.468-1.188,1.116-1.188,1.944c0,0.792,0.504,1.476,1.584,2.016
		c0.684,0.324,1.979,0.72,3.852,1.224c2.231,0.54,3.815,1.116,4.787,1.728c1.476,0.936,2.231,2.196,2.231,3.815
		c0,3.815-2.627,5.759-7.883,5.759c-4.896,0-7.559-2.16-7.991-6.443h2.808c0.216,1.476,0.756,2.52,1.548,3.168
		c0.792,0.576,1.98,0.864,3.563,0.864c3.312,0,5.004-1.08,5.004-3.167c0-1.044-0.612-1.836-1.764-2.412
		c-0.612-0.288-1.944-0.684-3.96-1.188c-2.195-0.54-3.743-1.08-4.607-1.656c-1.439-0.864-2.124-2.052-2.124-3.636
		c0-1.583,0.685-2.808,2.088-3.744c1.296-0.936,3.023-1.404,5.111-1.404C506.475,131.846,508.995,133.754,509.499,137.642z"/>
	<path class="st1" d="M517.528,147.324c0.432,0.432,0.648,0.936,0.648,1.584c0,0.612-0.217,1.116-0.648,1.548
		s-0.972,0.648-1.548,0.648c-0.647,0-1.151-0.216-1.548-0.648c-0.432-0.432-0.647-0.936-0.647-1.548
		c0-0.648,0.216-1.152,0.647-1.584c0.396-0.432,0.9-0.648,1.548-0.648C516.556,146.676,517.096,146.893,517.528,147.324z"/>
</g>
</svg>