<!-- Generator: Adobe Illustrator 22.0.1, SVG Export Plug-In  -->
<svg version="1.1"
	 xmlns="http://www.w3.org/2000/svg" xmlns:xlink="http://www.w3.org/1999/xlink" xmlns:a="http://ns.adobe.com/AdobeSVGViewerExtensions/3.0/"
	 x="0px" y="0px" width="632.82px" height="144.651px" viewBox="0 0 632.82 144.651"
	 style="enable-background:new 0 0 632.82 144.651;" xml:space="preserve">
<style type="text/css">
	.st0{fill:#575756;}
	.st1{font-family:'PingFangTC-Medium-B5pc-H';}
	.st2{font-size:55px;}
	.st3{font-family:'PingFangTC-Regular-B5pc-H';}
	.st4{font-size:36px;}
</style>
<defs>
</defs>
<g>
	<path class="st0" d="M32.721,10.675c2.805,2.2,4.564,5.444,5.279,9.844h-6.049c-0.55-2.64-1.76-4.62-3.629-5.939
		c-1.87-1.375-4.399-2.035-7.479-2.035c-3.794,0-6.819,1.265-9.074,3.904c-2.42,2.75-3.575,6.544-3.575,11.384
		c0,4.729,1.045,8.359,3.245,10.888c2.31,2.75,5.939,4.125,10.833,4.125c1.925,0,3.74-0.275,5.444-0.715
		c1.65-0.44,3.08-1.1,4.399-1.925v-8.524H21.282v-5.114H38.11v16.498c-2.035,1.595-4.399,2.805-7.094,3.685
		c-2.859,0.88-5.994,1.32-9.403,1.32c-6.27,0-11.109-1.98-14.573-5.939C3.794,38.446,2.2,33.662,2.2,27.833
		c0-5.884,1.595-10.724,4.839-14.518c3.41-4.069,8.029-6.049,13.803-6.049C25.847,7.265,29.806,8.365,32.721,10.675z"/>
	<path class="st0" d="M51.809,8.585c0.77,0.715,1.155,1.65,1.155,2.805s-0.44,2.09-1.21,2.859c-0.77,0.715-1.76,1.1-2.86,1.1
		c-1.155,0-2.089-0.385-2.859-1.1c-0.77-0.77-1.155-1.76-1.155-2.859c0-1.155,0.385-2.09,1.155-2.805c0.77-0.77,1.705-1.1,2.859-1.1
		C50.049,7.485,51.039,7.815,51.809,8.585z M51.809,18.869V47.3h-5.83V18.869H51.809z"/>
	<path class="st0" d="M76.557,18.813v5.829c-1.43-0.439-2.805-0.604-4.124-0.604c-1.76,0-3.355,0.715-4.729,2.145
		c-1.485,1.54-2.2,3.575-2.2,6.049V47.3h-5.83V18.869h5.83v4.29c0.715-1.54,1.65-2.695,2.75-3.465c1.32-1.1,2.859-1.595,4.619-1.595
		C74.302,18.099,75.567,18.319,76.557,18.813z"/>
	<path class="st0" d="M86.623,7.265V47.3h-5.829V7.265H86.623z"/>
	<path class="st0" d="M115.938,8.035l7.644,30.576h0.22l8.029-30.576h6.269l8.028,30.576h0.221l7.644-30.576h6.764L149.428,47.3
		h-6.379l-7.974-30.301h-0.22L126.881,47.3h-6.434L109.174,8.035H115.938z"/>
	<path class="st0" d="M171.377,8.585c0.77,0.715,1.155,1.65,1.155,2.805s-0.44,2.09-1.21,2.859c-0.771,0.715-1.76,1.1-2.86,1.1
		c-1.154,0-2.089-0.385-2.859-1.1c-0.77-0.77-1.154-1.76-1.154-2.859c0-1.155,0.385-2.09,1.154-2.805
		c0.771-0.77,1.705-1.1,2.859-1.1C169.618,7.485,170.608,7.815,171.377,8.585z M171.377,18.869V47.3h-5.829V18.869H171.377z"/>
	<path class="st0" d="M187.876,18.869h6.489v4.839h-6.489v16.498c0,0.77,0.165,1.32,0.495,1.705c0.33,0.33,0.825,0.55,1.54,0.55
		h3.739V47.3h-4.675c-2.419,0-4.234-0.66-5.334-1.925c-1.1-1.21-1.595-2.915-1.595-5.169V23.708h-5.279v-4.839h5.279v-6.764
		l5.829-2.42V18.869z"/>
	<path class="st0" d="M204.872,7.265v15.618c1.045-1.649,2.364-2.915,3.959-3.684c1.43-0.77,3.024-1.1,4.84-1.1
		c3.409,0,5.994,0.99,7.754,3.024c1.649,1.925,2.475,4.785,2.475,8.524V47.3h-5.829V30.637c0-2.53-0.551-4.399-1.54-5.719
		c-1.1-1.375-2.805-2.035-5.005-2.035c-1.979,0-3.574,0.77-4.784,2.365c-1.265,1.595-1.869,3.63-1.869,6.104V47.3h-5.83V7.265
		H204.872z"/>
	<path class="st0" d="M270.869,21.233c1.704,1.814,2.584,4.454,2.584,7.919V47.3h-5.389v-4.015c-1.1,1.43-2.475,2.585-4.125,3.41
		c-1.869,0.88-4.069,1.375-6.599,1.375c-2.97,0-5.279-0.77-6.929-2.255c-1.815-1.485-2.695-3.41-2.695-5.774
		c0-3.19,1.265-5.665,3.795-7.369c2.31-1.65,5.609-2.475,9.788-2.585l6.38-0.165v-1.155c0-3.959-2.146-5.939-6.435-5.939
		c-1.814,0-3.3,0.33-4.399,0.99c-1.319,0.77-2.145,1.925-2.475,3.52l-5.774-0.495c0.605-3.08,2.145-5.39,4.564-6.819
		c2.09-1.32,4.949-1.925,8.469-1.925C265.809,18.099,268.889,19.144,270.869,21.233z M261.685,34.321
		c-5.335,0.11-7.975,1.98-7.975,5.5c0,1.1,0.44,1.98,1.375,2.695c0.88,0.715,2.09,1.1,3.574,1.1c2.475,0,4.564-0.77,6.324-2.255
		c1.76-1.484,2.695-3.354,2.695-5.554v-1.649L261.685,34.321z"/>
	<path class="st0" d="M315.252,8.035c9.349,0,14.023,3.959,14.023,11.933c0,8.029-4.729,12.043-14.134,12.043h-10.173V47.3h-5.994
		V8.035H315.252z M304.969,26.897h9.788c2.97,0,5.114-0.55,6.489-1.65c1.32-1.1,2.035-2.859,2.035-5.279
		c0-2.419-0.715-4.179-2.09-5.169c-1.375-1.1-3.52-1.65-6.435-1.65h-9.788V26.897z"/>
	<path class="st0" d="M356.941,22.828c2.2,2.859,3.355,6.819,3.41,11.878h-21.558c0.221,2.75,0.936,4.894,2.255,6.379
		c1.32,1.43,3.135,2.2,5.444,2.2c2.035,0,3.685-0.495,4.949-1.43c0.99-0.77,1.815-2.035,2.585-3.685h5.829
		c-0.66,2.64-1.925,4.895-3.904,6.654c-2.475,2.145-5.609,3.245-9.404,3.245c-4.179,0-7.533-1.32-9.953-3.905
		c-2.64-2.75-3.96-6.434-3.96-11.108c0-4.234,1.21-7.754,3.74-10.613c2.419-2.915,5.773-4.345,9.953-4.345
		C350.947,18.099,354.522,19.639,356.941,22.828z M341.268,24.808c-1.209,1.265-2.034,3.08-2.364,5.5h15.343
		c-0.55-4.949-3.135-7.424-7.754-7.424C344.293,22.883,342.588,23.488,341.268,24.808z"/>
	<path class="st0" d="M387.356,21.233c1.705,1.814,2.585,4.454,2.585,7.919V47.3h-5.39v-4.015c-1.1,1.43-2.475,2.585-4.124,3.41
		c-1.87,0.88-4.069,1.375-6.6,1.375c-2.97,0-5.279-0.77-6.929-2.255c-1.815-1.485-2.694-3.41-2.694-5.774
		c0-3.19,1.265-5.665,3.794-7.369c2.31-1.65,5.609-2.475,9.789-2.585l6.379-0.165v-1.155c0-3.959-2.145-5.939-6.435-5.939
		c-1.814,0-3.299,0.33-4.399,0.99c-1.319,0.77-2.145,1.925-2.475,3.52l-5.774-0.495c0.605-3.08,2.146-5.39,4.564-6.819
		c2.09-1.32,4.95-1.925,8.47-1.925C382.296,18.099,385.376,19.144,387.356,21.233z M378.172,34.321
		c-5.334,0.11-7.974,1.98-7.974,5.5c0,1.1,0.439,1.98,1.374,2.695c0.88,0.715,2.09,1.1,3.575,1.1c2.475,0,4.564-0.77,6.324-2.255
		c1.76-1.484,2.694-3.354,2.694-5.554v-1.649L378.172,34.321z"/>
	<path class="st0" d="M413.481,18.813v5.829c-1.43-0.439-2.805-0.604-4.125-0.604c-1.76,0-3.354,0.715-4.729,2.145
		c-1.484,1.54-2.199,3.575-2.199,6.049V47.3h-5.829V18.869h5.829v4.29c0.715-1.54,1.649-2.695,2.75-3.465
		c1.319-1.1,2.859-1.595,4.619-1.595C411.226,18.099,412.491,18.319,413.481,18.813z"/>
	<path class="st0" d="M423.547,7.265V47.3h-5.829V7.265H423.547z"/>
	<path class="st0" d="M477.883,8.035v5.114h-22.217v11.438h20.897v5.114h-20.897v12.483h23.151V47.3h-29.146V8.035H477.883z"/>
	<path class="st0" d="M506.429,21.233c1.705,1.814,2.585,4.454,2.585,7.919V47.3h-5.39v-4.015c-1.1,1.43-2.475,2.585-4.124,3.41
		c-1.87,0.88-4.069,1.375-6.6,1.375c-2.97,0-5.279-0.77-6.929-2.255c-1.814-1.485-2.695-3.41-2.695-5.774
		c0-3.19,1.266-5.665,3.795-7.369c2.31-1.65,5.609-2.475,9.789-2.585l6.379-0.165v-1.155c0-3.959-2.145-5.939-6.435-5.939
		c-1.814,0-3.299,0.33-4.399,0.99c-1.319,0.77-2.145,1.925-2.475,3.52l-5.773-0.495c0.604-3.08,2.145-5.39,4.563-6.819
		c2.09-1.32,4.95-1.925,8.47-1.925C501.37,18.099,504.45,19.144,506.429,21.233z M497.246,34.321c-5.334,0.11-7.974,1.98-7.974,5.5
		c0,1.1,0.439,1.98,1.374,2.695c0.88,0.715,2.09,1.1,3.575,1.1c2.475,0,4.564-0.77,6.324-2.255c1.76-1.484,2.694-3.354,2.694-5.554
		v-1.649L497.246,34.321z"/>
	<path class="st0" d="M532.554,18.813v5.829c-1.43-0.439-2.805-0.604-4.125-0.604c-1.76,0-3.354,0.715-4.729,2.145
		c-1.484,1.54-2.199,3.575-2.199,6.049V47.3h-5.829V18.869h5.829v4.29c0.715-1.54,1.649-2.695,2.749-3.465
		c1.32-1.1,2.86-1.595,4.62-1.595C530.299,18.099,531.564,18.319,532.554,18.813z"/>
	<path class="st0" d="M553.014,18.813v5.829c-1.43-0.439-2.805-0.604-4.125-0.604c-1.76,0-3.354,0.715-4.729,2.145
		c-1.484,1.54-2.199,3.575-2.199,6.049V47.3h-5.829V18.869h5.829v4.29c0.715-1.54,1.649-2.695,2.75-3.465
		c1.319-1.1,2.859-1.595,4.619-1.595C550.759,18.099,552.024,18.319,553.014,18.813z"/>
	<path class="st0" d="M563.629,8.585c0.77,0.715,1.154,1.65,1.154,2.805s-0.439,2.09-1.21,2.859c-0.77,0.715-1.76,1.1-2.859,1.1
		c-1.154,0-2.09-0.385-2.859-1.1c-0.77-0.77-1.155-1.76-1.155-2.859c0-1.155,0.386-2.09,1.155-2.805c0.77-0.77,1.705-1.1,2.859-1.1
		C561.87,7.485,562.859,7.815,563.629,8.585z M563.629,18.869V47.3H557.8V18.869H563.629z"/>
	<path class="st0" d="M596.517,29.757V47.3h-5.829V30.252c0-4.839-2.255-7.259-6.654-7.259c-1.649,0-3.135,0.55-4.345,1.76
		c-1.319,1.32-2.145,3.134-2.364,5.444V47.3h-5.829V18.869h5.829v3.52c1.1-1.43,2.364-2.475,3.794-3.189
		c1.431-0.77,3.025-1.1,4.785-1.1C592.943,18.099,596.517,21.948,596.517,29.757z"/>
	<path class="st0" d="M623.687,22.663v-3.794h5.829V45.43c0,9.019-4.454,13.528-13.253,13.528c-3.959,0-6.984-0.77-9.073-2.254
		c-2.09-1.54-3.354-3.85-3.905-6.984h5.83c0.329,1.649,0.989,2.859,2.089,3.574c1.045,0.66,2.75,1.045,5.06,1.045
		c4.949,0,7.424-2.695,7.424-8.029v-4.399c-2.09,3.134-4.949,4.729-8.688,4.729c-3.85,0-6.984-1.319-9.349-3.904
		c-2.42-2.584-3.574-5.994-3.574-10.284s1.154-7.699,3.574-10.338c2.364-2.695,5.499-4.015,9.349-4.015
		C618.738,18.099,621.597,19.583,623.687,22.663z M610.159,25.413c-1.43,1.65-2.089,4.015-2.089,7.039c0,2.75,0.55,4.95,1.649,6.544
		c1.265,1.87,3.3,2.859,6.159,2.859c2.475,0,4.399-0.825,5.829-2.475c1.32-1.705,2.035-4.015,2.035-6.929
		c0-2.969-0.715-5.334-2.035-7.039c-1.43-1.76-3.354-2.584-5.829-2.584S611.479,23.653,610.159,25.413z"/>
	<path class="st0" d="M19.978,125.753v2.448H1.8v-2.448H19.978z"/>
	<path class="st0" d="M49.822,110.599v17.494c0,2.808-0.576,4.896-1.728,6.335c-1.296,1.583-3.384,2.375-6.227,2.375
		c-2.412,0-4.248-0.684-5.543-1.979c-1.368-1.368-2.016-3.312-2.016-5.832v-0.9h2.952v0.864c0,3.456,1.548,5.22,4.679,5.22
		c1.728,0,2.988-0.54,3.78-1.548c0.756-0.972,1.152-2.52,1.152-4.644v-17.386H49.822z"/>
	<path class="st0" d="M69.585,120.066c1.583,1.835,2.375,4.139,2.375,6.947c0,2.771-0.792,5.075-2.34,6.875
		c-1.691,1.944-3.923,2.916-6.695,2.916c-2.808,0-5.003-0.972-6.659-2.916c-1.584-1.8-2.376-4.104-2.376-6.875
		c0-2.808,0.792-5.112,2.376-6.947c1.656-1.944,3.852-2.88,6.659-2.88C65.698,117.186,67.93,118.122,69.585,120.066z
		 M58.319,121.866c-1.008,1.368-1.476,3.06-1.476,5.147c0,2.052,0.468,3.743,1.476,5.111c1.08,1.512,2.627,2.268,4.607,2.268
		c1.943,0,3.491-0.756,4.643-2.268c0.972-1.368,1.476-3.096,1.476-5.111c0-2.088-0.504-3.78-1.476-5.147
		c-1.152-1.512-2.7-2.268-4.643-2.268C60.946,119.598,59.398,120.354,58.319,121.866z"/>
	<path class="st0" d="M78.587,110.095v10.655c0.648-1.188,1.512-2.088,2.592-2.7c1.008-0.576,2.124-0.864,3.383-0.864
		c2.16,0,3.852,0.612,5.003,1.908c1.152,1.26,1.728,3.096,1.728,5.472V136.3h-2.88v-11.303c0-1.728-0.432-3.06-1.224-3.995
		c-0.864-0.936-2.052-1.404-3.6-1.404c-1.44,0-2.627,0.576-3.563,1.728c-0.972,1.152-1.44,2.627-1.44,4.355V136.3h-2.879v-26.205
		H78.587z"/>
	<path class="st0" d="M109.725,119.274c1.08,1.224,1.656,2.916,1.656,5.075V136.3h-2.7v-3.132c-0.72,1.008-1.691,1.836-2.843,2.484
		c-1.368,0.756-2.916,1.152-4.644,1.152c-1.872,0-3.348-0.468-4.463-1.404c-1.152-0.972-1.728-2.232-1.728-3.744
		c0-2.124,0.828-3.708,2.556-4.787c1.512-1.008,3.672-1.548,6.479-1.584l4.463-0.072v-0.972c0-3.131-1.62-4.679-4.859-4.679
		c-1.368,0-2.484,0.252-3.348,0.828c-0.972,0.576-1.584,1.476-1.872,2.664l-2.843-0.216c0.396-1.944,1.368-3.419,2.879-4.355
		c1.368-0.864,3.132-1.296,5.363-1.296C106.485,117.186,108.429,117.87,109.725,119.274z M104.218,127.445
		c-4.175,0.072-6.263,1.44-6.263,4.14c0,0.864,0.324,1.548,1.044,2.124c0.72,0.54,1.656,0.828,2.808,0.828
		c1.764,0,3.312-0.576,4.679-1.728c1.332-1.116,2.016-2.412,2.016-3.852v-1.583L104.218,127.445z"/>
	<path class="st0" d="M131.505,124.853V136.3h-2.879v-11.23c0-3.636-1.656-5.436-4.896-5.436c-1.296,0-2.412,0.468-3.348,1.404
		c-1.008,1.008-1.548,2.34-1.656,4.032v11.23h-2.879v-18.61h2.879v2.736c0.648-1.044,1.476-1.836,2.484-2.375
		c1.008-0.576,2.124-0.864,3.347-0.864C129.165,117.186,131.505,119.742,131.505,124.853z"/>
	<path class="st0" d="M151.628,124.853V136.3h-2.88v-11.23c0-3.636-1.655-5.436-4.896-5.436c-1.296,0-2.411,0.468-3.348,1.404
		c-1.008,1.008-1.548,2.34-1.655,4.032v11.23h-2.879v-18.61h2.879v2.736c0.647-1.044,1.476-1.836,2.483-2.375
		c1.008-0.576,2.124-0.864,3.348-0.864C149.289,117.186,151.628,119.742,151.628,124.853z"/>
	<path class="st0" d="M170.528,120.21c1.368,1.8,2.088,4.355,2.16,7.595h-14.687c0.145,2.088,0.684,3.708,1.691,4.859
		c1.009,1.152,2.412,1.728,4.176,1.728c1.512,0,2.771-0.396,3.708-1.152c0.792-0.648,1.403-1.62,1.871-2.916h2.88
		c-0.432,1.8-1.26,3.239-2.52,4.391c-1.548,1.368-3.527,2.088-5.939,2.088c-2.663,0-4.823-0.9-6.407-2.627
		c-1.655-1.8-2.447-4.176-2.447-7.199c0-2.736,0.756-5.04,2.34-6.875c1.583-1.944,3.707-2.916,6.407-2.916
		C166.749,117.186,169.016,118.194,170.528,120.21z M159.837,121.218c-1.008,1.08-1.584,2.52-1.764,4.355H169.7
		c-0.359-3.996-2.339-5.976-5.867-5.976C162.177,119.598,160.845,120.138,159.837,121.218z"/>
	<path class="st0" d="M190.292,122.981h-2.808c-0.252-1.152-0.72-2.016-1.439-2.52c-0.792-0.576-1.943-0.864-3.42-0.864
		c-1.296,0-2.304,0.216-3.023,0.72c-0.792,0.468-1.188,1.116-1.188,1.944c0,0.792,0.504,1.476,1.584,2.016
		c0.684,0.324,1.979,0.72,3.852,1.224c2.231,0.54,3.815,1.116,4.787,1.728c1.476,0.936,2.231,2.196,2.231,3.815
		c0,3.815-2.628,5.759-7.883,5.759c-4.896,0-7.559-2.16-7.991-6.443h2.808c0.216,1.476,0.756,2.52,1.548,3.168
		c0.792,0.576,1.979,0.864,3.563,0.864c3.312,0,5.004-1.08,5.004-3.167c0-1.044-0.612-1.836-1.764-2.412
		c-0.612-0.288-1.944-0.684-3.96-1.188c-2.195-0.54-3.743-1.08-4.607-1.656c-1.439-0.864-2.124-2.052-2.124-3.636
		c0-1.583,0.685-2.808,2.088-3.744c1.296-0.936,3.023-1.404,5.111-1.404C187.268,117.186,189.788,119.094,190.292,122.981z"/>
	<path class="st0" d="M207.429,110.599l8.027,22.497h0.107l8.027-22.497h3.239l-9.503,25.701h-3.636l-9.502-25.701H207.429z"/>
	<path class="st0" d="M243.679,120.21c1.367,1.8,2.087,4.355,2.159,7.595h-14.686c0.144,2.088,0.684,3.708,1.691,4.859
		s2.412,1.728,4.176,1.728c1.512,0,2.771-0.396,3.707-1.152c0.792-0.648,1.404-1.62,1.872-2.916h2.88
		c-0.433,1.8-1.26,3.239-2.521,4.391c-1.548,1.368-3.527,2.088-5.938,2.088c-2.664,0-4.824-0.9-6.407-2.627
		c-1.656-1.8-2.448-4.176-2.448-7.199c0-2.736,0.756-5.04,2.34-6.875c1.584-1.944,3.708-2.916,6.407-2.916
		C239.899,117.186,242.167,118.194,243.679,120.21z M232.988,121.218c-1.008,1.08-1.583,2.52-1.764,4.355h11.627
		c-0.36-3.996-2.34-5.976-5.867-5.976C235.328,119.598,233.996,120.138,232.988,121.218z"/>
	<path class="st0" d="M259.952,117.618v2.879c-0.937-0.288-1.872-0.396-2.772-0.396c-1.439,0-2.663,0.612-3.635,1.908
		c-1.008,1.224-1.477,2.7-1.477,4.427v9.863h-2.843v-18.61h2.843v3.24c0.504-1.08,1.152-1.944,1.944-2.556
		c0.972-0.792,2.088-1.188,3.384-1.188C258.404,117.186,259.267,117.33,259.952,117.618z"/>
	<path class="st0" d="M276.331,120.714c0.72-1.224,1.584-2.124,2.592-2.664c0.899-0.576,1.979-0.864,3.275-0.864
		c1.943,0,3.491,0.612,4.716,1.836c1.151,1.26,1.764,2.952,1.764,5.075V136.3h-2.88v-11.734c0-1.656-0.36-2.88-1.044-3.672
		c-0.72-0.864-1.872-1.26-3.455-1.26c-1.225,0-2.269,0.432-3.06,1.368c-0.864,0.936-1.261,2.124-1.261,3.635V136.3h-2.879v-11.734
		c0-3.312-1.44-4.932-4.284-4.932c-1.331,0-2.411,0.504-3.275,1.584c-0.863,1.008-1.296,2.268-1.296,3.744V136.3h-2.879v-18.61
		h2.879v2.484c1.404-2.016,3.168-2.988,5.256-2.988C273.343,117.186,275.287,118.338,276.331,120.714z"/>
	<path class="st0" d="M307.579,120.21c1.367,1.8,2.087,4.355,2.159,7.595h-14.686c0.144,2.088,0.684,3.708,1.691,4.859
		s2.412,1.728,4.176,1.728c1.512,0,2.771-0.396,3.707-1.152c0.792-0.648,1.404-1.62,1.872-2.916h2.88
		c-0.433,1.8-1.26,3.239-2.521,4.391c-1.548,1.368-3.527,2.088-5.938,2.088c-2.664,0-4.824-0.9-6.407-2.627
		c-1.656-1.8-2.448-4.176-2.448-7.199c0-2.736,0.756-5.04,2.34-6.875c1.584-1.944,3.708-2.916,6.407-2.916
		C303.798,117.186,306.067,118.194,307.579,120.21z M296.887,121.218c-1.008,1.08-1.583,2.52-1.764,4.355h11.627
		c-0.36-3.996-2.34-5.976-5.867-5.976C299.227,119.598,297.895,120.138,296.887,121.218z"/>
	<path class="st0" d="M327.558,120.21c1.367,1.8,2.087,4.355,2.159,7.595h-14.686c0.144,2.088,0.684,3.708,1.691,4.859
		s2.412,1.728,4.176,1.728c1.512,0,2.771-0.396,3.707-1.152c0.792-0.648,1.404-1.62,1.872-2.916h2.879
		c-0.432,1.8-1.26,3.239-2.52,4.391c-1.548,1.368-3.527,2.088-5.938,2.088c-2.664,0-4.824-0.9-6.407-2.627
		c-1.656-1.8-2.448-4.176-2.448-7.199c0-2.736,0.756-5.04,2.34-6.875c1.584-1.944,3.708-2.916,6.407-2.916
		C323.778,117.186,326.046,118.194,327.558,120.21z M316.867,121.218c-1.008,1.08-1.583,2.52-1.764,4.355h11.627
		c-0.36-3.996-2.34-5.976-5.867-5.976C319.207,119.598,317.875,120.138,316.867,121.218z"/>
	<path class="st0" d="M343.83,117.618v2.879c-0.936-0.288-1.871-0.396-2.771-0.396c-1.439,0-2.663,0.612-3.636,1.908
		c-1.008,1.224-1.476,2.7-1.476,4.427v9.863h-2.844v-18.61h2.844v3.24c0.504-1.08,1.152-1.944,1.944-2.556
		c0.972-0.792,2.087-1.188,3.383-1.188C342.282,117.186,343.146,117.33,343.83,117.618z"/>
</g>
</svg>