<!-- Generator: Adobe Illustrator 22.0.1, SVG Export Plug-In  -->
<svg version="1.1"
	 xmlns="http://www.w3.org/2000/svg" xmlns:xlink="http://www.w3.org/1999/xlink" xmlns:a="http://ns.adobe.com/AdobeSVGViewerExtensions/3.0/"
	 x="0px" y="0px" width="657.717px" height="333.033px" viewBox="0 0 657.717 333.033"
	 style="enable-background:new 0 0 657.717 333.033;" xml:space="preserve">
<style type="text/css">
	.st0{fill:none;}
	.st1{fill:#575756;}
	.st2{font-family:'PingFangTC-Regular-B5pc-H';}
	.st3{font-size:36px;}
	.st4{letter-spacing:1;}
</style>
<defs>
</defs>
<g>
	<rect x="0" y="4.752" class="st0" width="645.729" height="328.281"/>
	<path class="st1" d="M13.103,5.259c5.903,0,8.854,2.52,8.854,7.559c0,5.075-2.987,7.631-8.891,7.631H5.543V30.96H2.592V5.259
		H13.103z M5.543,17.894h7.379c2.088,0,3.6-0.432,4.607-1.26c0.972-0.828,1.476-2.088,1.476-3.815c0-1.728-0.504-2.988-1.512-3.744
		c-1.008-0.864-2.52-1.26-4.571-1.26H5.543V17.894z"/>
	<path class="st1" d="M39.346,13.934c1.08,1.224,1.656,2.916,1.656,5.075V30.96h-2.7v-3.132c-0.72,1.008-1.691,1.836-2.843,2.484
		c-1.368,0.756-2.916,1.152-4.644,1.152c-1.872,0-3.348-0.468-4.463-1.404c-1.152-0.972-1.728-2.232-1.728-3.744
		c0-2.124,0.828-3.708,2.556-4.787c1.512-1.008,3.672-1.548,6.479-1.584l4.463-0.072v-0.972c0-3.131-1.62-4.679-4.859-4.679
		c-1.368,0-2.484,0.252-3.348,0.828c-0.972,0.576-1.584,1.476-1.872,2.664L25.2,17.498c0.396-1.944,1.368-3.419,2.879-4.355
		c1.368-0.864,3.132-1.296,5.363-1.296C36.106,11.846,38.05,12.53,39.346,13.934z M33.838,22.105
		c-4.175,0.072-6.263,1.44-6.263,4.14c0,0.864,0.324,1.548,1.044,2.124c0.72,0.54,1.656,0.828,2.808,0.828
		c1.764,0,3.312-0.576,4.679-1.728c1.332-1.116,2.016-2.412,2.016-3.852v-1.583L33.838,22.105z"/>
	<path class="st1" d="M49.391,5.943c0.432,0.36,0.648,0.864,0.648,1.512c0,0.612-0.216,1.116-0.648,1.548
		c-0.432,0.396-0.936,0.612-1.548,0.612s-1.116-0.216-1.548-0.612c-0.432-0.432-0.612-0.936-0.612-1.548
		c0-0.648,0.18-1.152,0.612-1.512c0.432-0.432,0.936-0.612,1.548-0.612S48.958,5.511,49.391,5.943z M49.283,12.35v18.61h-2.88V12.35
		H49.283z"/>
	<path class="st1" d="M70.341,19.513V30.96h-2.879v-11.23c0-3.636-1.656-5.436-4.896-5.436c-1.296,0-2.412,0.468-3.348,1.404
		c-1.008,1.008-1.548,2.34-1.656,4.032v11.23h-2.879V12.35h2.879v2.736c0.648-1.044,1.476-1.836,2.484-2.375
		c1.008-0.576,2.124-0.864,3.347-0.864C68.001,11.846,70.341,14.402,70.341,19.513z"/>
	<path class="st1" d="M79.774,12.35h4.607v2.412h-4.607v11.842c0,0.684,0.108,1.188,0.396,1.476c0.252,0.288,0.72,0.468,1.368,0.468
		h2.375v2.412h-2.808c-1.512,0-2.627-0.396-3.275-1.188c-0.612-0.72-0.9-1.764-0.9-3.167V14.762h-3.744V12.35h3.744V7.527
		l2.844-1.188V12.35z"/>
	<path class="st1" d="M91.51,5.943c0.432,0.36,0.648,0.864,0.648,1.512c0,0.612-0.216,1.116-0.648,1.548
		c-0.432,0.396-0.936,0.612-1.548,0.612s-1.116-0.216-1.548-0.612c-0.432-0.432-0.612-0.936-0.612-1.548
		c0-0.648,0.18-1.152,0.612-1.512c0.432-0.432,0.936-0.612,1.548-0.612S91.078,5.511,91.51,5.943z M91.402,12.35v18.61h-2.88V12.35
		H91.402z"/>
	<path class="st1" d="M112.46,19.513V30.96h-2.879v-11.23c0-3.636-1.656-5.436-4.896-5.436c-1.296,0-2.412,0.468-3.348,1.404
		c-1.008,1.008-1.548,2.34-1.656,4.032v11.23h-2.879V12.35h2.879v2.736c0.648-1.044,1.476-1.836,2.484-2.375
		c1.008-0.576,2.124-0.864,3.347-0.864C110.12,11.846,112.46,14.402,112.46,19.513z"/>
	<path class="st1" d="M130.856,15.554V12.35h2.879v17.314c0,5.939-2.844,8.927-8.495,8.927c-2.52,0-4.464-0.504-5.759-1.512
		c-1.332-1.008-2.16-2.52-2.484-4.535h2.879c0.216,1.26,0.756,2.195,1.584,2.771c0.828,0.612,2.088,0.936,3.78,0.936
		c3.743,0,5.615-2.088,5.615-6.191v-3.275c-1.368,2.483-3.456,3.743-6.263,3.743c-2.592,0-4.644-0.9-6.155-2.664
		c-1.512-1.728-2.232-3.923-2.232-6.623c0-2.736,0.72-4.932,2.232-6.659c1.512-1.836,3.563-2.736,6.155-2.736
		C127.4,11.846,129.488,13.07,130.856,15.554z M120.669,16.238c-1.008,1.224-1.512,2.916-1.512,5.003
		c0,1.944,0.432,3.563,1.332,4.788c1.008,1.368,2.483,2.087,4.5,2.087c1.872,0,3.312-0.648,4.391-1.944
		c1.008-1.26,1.512-2.916,1.512-4.931c0-2.088-0.504-3.78-1.512-5.003c-1.08-1.368-2.52-2.016-4.355-2.016
		C123.153,14.222,121.713,14.87,120.669,16.238z"/>
	<path class="st1" d="M152.419,17.642h-2.808c-0.252-1.152-0.72-2.016-1.439-2.52c-0.792-0.576-1.944-0.864-3.42-0.864
		c-1.296,0-2.304,0.216-3.023,0.72c-0.792,0.468-1.188,1.116-1.188,1.944c0,0.792,0.503,1.476,1.583,2.016
		c0.685,0.324,1.979,0.72,3.852,1.224c2.231,0.54,3.815,1.116,4.787,1.728c1.477,0.936,2.232,2.196,2.232,3.815
		c0,3.815-2.628,5.759-7.883,5.759c-4.896,0-7.559-2.16-7.991-6.443h2.808c0.216,1.476,0.756,2.52,1.548,3.168
		c0.792,0.576,1.979,0.864,3.563,0.864c3.312,0,5.003-1.08,5.003-3.167c0-1.044-0.611-1.836-1.764-2.412
		c-0.611-0.288-1.943-0.684-3.959-1.188c-2.196-0.54-3.744-1.08-4.607-1.656c-1.44-0.864-2.124-2.052-2.124-3.636
		c0-1.583,0.684-2.808,2.088-3.744c1.296-0.936,3.023-1.404,5.111-1.404C149.396,11.846,151.915,13.754,152.419,17.642z"/>
	<path class="st1" d="M182.37,13.934c1.08,1.224,1.656,2.916,1.656,5.075V30.96h-2.7v-3.132c-0.72,1.008-1.691,1.836-2.843,2.484
		c-1.368,0.756-2.916,1.152-4.644,1.152c-1.872,0-3.348-0.468-4.464-1.404c-1.151-0.972-1.728-2.232-1.728-3.744
		c0-2.124,0.828-3.708,2.556-4.787c1.512-1.008,3.672-1.548,6.479-1.584l4.463-0.072v-0.972c0-3.131-1.62-4.679-4.859-4.679
		c-1.368,0-2.483,0.252-3.348,0.828c-0.972,0.576-1.584,1.476-1.872,2.664l-2.843-0.216c0.396-1.944,1.367-3.419,2.879-4.355
		c1.368-0.864,3.132-1.296,5.363-1.296C179.131,11.846,181.074,12.53,182.37,13.934z M176.863,22.105
		c-4.176,0.072-6.264,1.44-6.264,4.14c0,0.864,0.324,1.548,1.044,2.124c0.72,0.54,1.656,0.828,2.808,0.828
		c1.764,0,3.312-0.576,4.68-1.728c1.332-1.116,2.016-2.412,2.016-3.852v-1.583L176.863,22.105z"/>
	<path class="st1" d="M199.219,12.278v2.879c-0.937-0.288-1.872-0.396-2.772-0.396c-1.439,0-2.663,0.612-3.635,1.908
		c-1.008,1.224-1.477,2.7-1.477,4.427v9.863h-2.843V12.35h2.843v3.24c0.504-1.08,1.152-1.944,1.944-2.556
		c0.972-0.792,2.088-1.188,3.384-1.188C197.671,11.846,198.534,11.99,199.219,12.278z"/>
	<path class="st1" d="M216.065,14.87c1.368,1.8,2.088,4.355,2.16,7.595h-14.687c0.145,2.088,0.684,3.708,1.691,4.859
		c1.009,1.152,2.412,1.728,4.176,1.728c1.512,0,2.771-0.396,3.708-1.152c0.792-0.648,1.403-1.62,1.871-2.916h2.88
		c-0.432,1.8-1.26,3.239-2.52,4.391c-1.548,1.368-3.527,2.088-5.939,2.088c-2.663,0-4.823-0.9-6.407-2.627
		c-1.655-1.8-2.447-4.176-2.447-7.199c0-2.736,0.756-5.04,2.34-6.875c1.583-1.944,3.707-2.916,6.407-2.916
		C212.286,11.846,214.554,12.854,216.065,14.87z M205.375,15.878c-1.008,1.08-1.584,2.52-1.764,4.355h11.626
		c-0.359-3.996-2.339-5.976-5.867-5.976C207.715,14.258,206.383,14.798,205.375,15.878z"/>
	<path class="st1" d="M247.602,13.934c1.08,1.224,1.655,2.916,1.655,5.075V30.96h-2.699v-3.132c-0.72,1.008-1.691,1.836-2.844,2.484
		c-1.368,0.756-2.916,1.152-4.644,1.152c-1.872,0-3.348-0.468-4.463-1.404c-1.152-0.972-1.729-2.232-1.729-3.744
		c0-2.124,0.828-3.708,2.556-4.787c1.512-1.008,3.672-1.548,6.479-1.584l4.464-0.072v-0.972c0-3.131-1.62-4.679-4.859-4.679
		c-1.368,0-2.484,0.252-3.348,0.828c-0.973,0.576-1.584,1.476-1.872,2.664l-2.844-0.216c0.396-1.944,1.368-3.419,2.88-4.355
		c1.368-0.864,3.132-1.296,5.363-1.296C244.361,11.846,246.306,12.53,247.602,13.934z M242.094,22.105
		c-4.175,0.072-6.263,1.44-6.263,4.14c0,0.864,0.324,1.548,1.044,2.124c0.72,0.54,1.655,0.828,2.808,0.828
		c1.764,0,3.312-0.576,4.679-1.728c1.332-1.116,2.017-2.412,2.017-3.852v-1.583L242.094,22.105z"/>
	<path class="st1" d="M257.143,4.755V30.96h-2.844V4.755H257.143z"/>
	<path class="st1" d="M263.298,12.35l4.571,15.083l4.319-15.083h2.7l4.319,15.083l4.571-15.083h3.168l-6.335,18.61h-2.736
		l-4.319-14.974l-4.392,14.974h-2.699l-6.335-18.61H263.298z"/>
	<path class="st1" d="M303.364,13.934c1.08,1.224,1.655,2.916,1.655,5.075V30.96h-2.699v-3.132c-0.72,1.008-1.691,1.836-2.844,2.484
		c-1.368,0.756-2.916,1.152-4.644,1.152c-1.872,0-3.348-0.468-4.463-1.404c-1.152-0.972-1.729-2.232-1.729-3.744
		c0-2.124,0.828-3.708,2.556-4.787c1.512-1.008,3.672-1.548,6.479-1.584l4.464-0.072v-0.972c0-3.131-1.62-4.679-4.859-4.679
		c-1.368,0-2.484,0.252-3.348,0.828c-0.973,0.576-1.584,1.476-1.872,2.664l-2.844-0.216c0.396-1.944,1.368-3.419,2.88-4.355
		c1.368-0.864,3.132-1.296,5.363-1.296C300.124,11.846,302.068,12.53,303.364,13.934z M297.856,22.105
		c-4.175,0.072-6.263,1.44-6.263,4.14c0,0.864,0.324,1.548,1.044,2.124c0.72,0.54,1.655,0.828,2.808,0.828
		c1.764,0,3.312-0.576,4.679-1.728c1.332-1.116,2.017-2.412,2.017-3.852v-1.583L297.856,22.105z"/>
	<path class="st1" d="M310.565,12.35l5.688,14.687l5.507-14.687h3.168l-10.187,25.737h-3.132l3.203-7.559l-7.379-18.178H310.565z"/>
	<path class="st1" d="M341.559,17.642h-2.808c-0.252-1.152-0.72-2.016-1.439-2.52c-0.792-0.576-1.943-0.864-3.42-0.864
		c-1.295,0-2.304,0.216-3.023,0.72c-0.792,0.468-1.188,1.116-1.188,1.944c0,0.792,0.504,1.476,1.584,2.016
		c0.684,0.324,1.979,0.72,3.852,1.224c2.231,0.54,3.815,1.116,4.787,1.728c1.476,0.936,2.231,2.196,2.231,3.815
		c0,3.815-2.627,5.759-7.883,5.759c-4.896,0-7.559-2.16-7.991-6.443h2.808c0.216,1.476,0.756,2.52,1.548,3.168
		c0.792,0.576,1.98,0.864,3.563,0.864c3.312,0,5.004-1.08,5.004-3.167c0-1.044-0.612-1.836-1.764-2.412
		c-0.612-0.288-1.944-0.684-3.96-1.188c-2.195-0.54-3.743-1.08-4.607-1.656c-1.439-0.864-2.124-2.052-2.124-3.636
		c0-1.583,0.685-2.808,2.088-3.744c1.296-0.936,3.023-1.404,5.111-1.404C338.535,11.846,341.055,13.754,341.559,17.642z"/>
	<path class="st1" d="M371.475,15.374c0.72-1.224,1.584-2.124,2.592-2.664c0.899-0.576,1.979-0.864,3.275-0.864
		c1.943,0,3.491,0.612,4.716,1.836c1.151,1.26,1.764,2.952,1.764,5.075V30.96h-2.88V19.226c0-1.656-0.36-2.88-1.044-3.672
		c-0.72-0.864-1.872-1.26-3.455-1.26c-1.225,0-2.269,0.432-3.06,1.368c-0.864,0.936-1.261,2.124-1.261,3.635V30.96h-2.879V19.226
		c0-3.312-1.44-4.932-4.284-4.932c-1.331,0-2.411,0.504-3.275,1.584c-0.863,1.008-1.296,2.268-1.296,3.744V30.96h-2.879V12.35h2.879
		v2.484c1.404-2.016,3.168-2.988,5.256-2.988C368.487,11.846,370.431,12.998,371.475,15.374z"/>
	<path class="st1" d="M403.263,14.726c1.583,1.835,2.375,4.139,2.375,6.947c0,2.771-0.792,5.075-2.34,6.875
		c-1.691,1.944-3.923,2.916-6.694,2.916c-2.808,0-5.004-0.972-6.659-2.916c-1.584-1.8-2.376-4.104-2.376-6.875
		c0-2.808,0.792-5.112,2.376-6.947c1.655-1.944,3.852-2.88,6.659-2.88C399.375,11.846,401.606,12.782,403.263,14.726z
		 M391.996,16.526c-1.009,1.368-1.477,3.06-1.477,5.147c0,2.052,0.468,3.743,1.477,5.111c1.079,1.512,2.627,2.268,4.607,2.268
		c1.943,0,3.491-0.756,4.643-2.268c0.973-1.368,1.477-3.096,1.477-5.111c0-2.088-0.504-3.78-1.477-5.147
		c-1.151-1.512-2.699-2.268-4.643-2.268C394.623,14.258,393.075,15.014,391.996,16.526z"/>
	<path class="st1" d="M414.352,12.35h4.607v2.412h-4.607v11.842c0,0.684,0.107,1.188,0.396,1.476
		c0.252,0.288,0.72,0.468,1.368,0.468h2.375v2.412h-2.808c-1.512,0-2.627-0.396-3.275-1.188c-0.611-0.72-0.899-1.764-0.899-3.167
		V14.762h-3.744V12.35h3.744V7.527l2.844-1.188V12.35z"/>
	<path class="st1" d="M426.087,5.943c0.433,0.36,0.648,0.864,0.648,1.512c0,0.612-0.216,1.116-0.648,1.548
		c-0.432,0.396-0.936,0.612-1.548,0.612c-0.611,0-1.115-0.216-1.548-0.612c-0.432-0.432-0.611-0.936-0.611-1.548
		c0-0.648,0.18-1.152,0.611-1.512c0.433-0.432,0.937-0.612,1.548-0.612C425.151,5.331,425.655,5.511,426.087,5.943z M425.979,12.35
		v18.61h-2.88V12.35H425.979z"/>
	<path class="st1" d="M446.354,14.726c1.584,1.835,2.376,4.139,2.376,6.947c0,2.771-0.792,5.075-2.34,6.875
		c-1.691,1.944-3.924,2.916-6.695,2.916c-2.808,0-5.003-0.972-6.659-2.916c-1.584-1.8-2.376-4.104-2.376-6.875
		c0-2.808,0.792-5.112,2.376-6.947c1.656-1.944,3.852-2.88,6.659-2.88C442.466,11.846,444.698,12.782,446.354,14.726z
		 M435.087,16.526c-1.008,1.368-1.476,3.06-1.476,5.147c0,2.052,0.468,3.743,1.476,5.111c1.08,1.512,2.628,2.268,4.607,2.268
		c1.943,0,3.491-0.756,4.644-2.268c0.972-1.368,1.476-3.096,1.476-5.111c0-2.088-0.504-3.78-1.476-5.147
		c-1.152-1.512-2.7-2.268-4.644-2.268C437.715,14.258,436.167,15.014,435.087,16.526z"/>
	<path class="st1" d="M468.134,19.513V30.96h-2.88v-11.23c0-3.636-1.655-5.436-4.896-5.436c-1.296,0-2.411,0.468-3.348,1.404
		c-1.008,1.008-1.548,2.34-1.655,4.032v11.23h-2.88V12.35h2.88v2.736c0.647-1.044,1.476-1.836,2.483-2.375
		c1.008-0.576,2.124-0.864,3.348-0.864C465.794,11.846,468.134,14.402,468.134,19.513z"/>
	<path class="st1" d="M499.813,14.834c1.403,1.8,2.123,4.067,2.123,6.875c0,2.736-0.72,5.003-2.088,6.803
		c-1.512,1.944-3.563,2.952-6.227,2.952c-2.664,0-4.716-1.296-6.155-3.888v10.511h-2.88V12.35h2.699v3.06
		c1.332-2.376,3.384-3.564,6.191-3.564C496.142,11.846,498.266,12.818,499.813,14.834z M488.763,16.418
		c-0.937,1.296-1.404,3.023-1.404,5.111v0.36c0,2.16,0.504,3.887,1.584,5.219c1.008,1.296,2.34,1.98,4.067,1.98
		c2.016,0,3.527-0.72,4.571-2.088c0.937-1.296,1.404-3.06,1.404-5.292c0-2.196-0.468-3.959-1.332-5.255
		c-1.044-1.512-2.556-2.231-4.535-2.231C491.246,14.222,489.771,14.942,488.763,16.418z"/>
	<path class="st1" d="M519.685,13.934c1.08,1.224,1.656,2.916,1.656,5.075V30.96h-2.7v-3.132c-0.72,1.008-1.691,1.836-2.843,2.484
		c-1.368,0.756-2.916,1.152-4.644,1.152c-1.872,0-3.348-0.468-4.464-1.404c-1.151-0.972-1.728-2.232-1.728-3.744
		c0-2.124,0.828-3.708,2.556-4.787c1.512-1.008,3.672-1.548,6.479-1.584l4.463-0.072v-0.972c0-3.131-1.62-4.679-4.859-4.679
		c-1.368,0-2.483,0.252-3.348,0.828c-0.972,0.576-1.584,1.476-1.872,2.664l-2.843-0.216c0.396-1.944,1.367-3.419,2.879-4.355
		c1.368-0.864,3.132-1.296,5.363-1.296C516.445,11.846,518.389,12.53,519.685,13.934z M514.178,22.105
		c-4.176,0.072-6.264,1.44-6.264,4.14c0,0.864,0.324,1.548,1.044,2.124c0.72,0.54,1.656,0.828,2.808,0.828
		c1.764,0,3.312-0.576,4.68-1.728c1.332-1.116,2.016-2.412,2.016-3.852v-1.583L514.178,22.105z"/>
	<path class="st1" d="M528.686,12.35v11.375c0,1.764,0.36,3.095,1.116,3.959c0.756,0.864,1.979,1.332,3.672,1.332
		c1.224,0,2.339-0.504,3.312-1.44c1.008-1.008,1.619-2.304,1.835-3.887V12.35h2.88v18.61h-2.88v-2.88
		c-1.512,2.232-3.527,3.384-6.047,3.384c-4.535,0-6.767-2.556-6.767-7.595V12.35H528.686z"/>
	<path class="st1" d="M560.184,17.642h-2.808c-0.252-1.152-0.72-2.016-1.439-2.52c-0.792-0.576-1.943-0.864-3.42-0.864
		c-1.295,0-2.304,0.216-3.023,0.72c-0.792,0.468-1.188,1.116-1.188,1.944c0,0.792,0.504,1.476,1.584,2.016
		c0.684,0.324,1.979,0.72,3.852,1.224c2.231,0.54,3.815,1.116,4.787,1.728c1.476,0.936,2.231,2.196,2.231,3.815
		c0,3.815-2.627,5.759-7.883,5.759c-4.896,0-7.559-2.16-7.991-6.443h2.808c0.216,1.476,0.756,2.52,1.548,3.168
		c0.792,0.576,1.98,0.864,3.563,0.864c3.312,0,5.004-1.08,5.004-3.167c0-1.044-0.612-1.836-1.764-2.412
		c-0.612-0.288-1.944-0.684-3.96-1.188c-2.195-0.54-3.743-1.08-4.607-1.656c-1.439-0.864-2.124-2.052-2.124-3.636
		c0-1.583,0.685-2.808,2.088-3.744c1.296-0.936,3.023-1.404,5.111-1.404C557.16,11.846,559.68,13.754,560.184,17.642z"/>
	<path class="st1" d="M578.58,14.87c1.367,1.8,2.087,4.355,2.159,7.595h-14.686c0.144,2.088,0.684,3.708,1.691,4.859
		s2.412,1.728,4.176,1.728c1.512,0,2.771-0.396,3.707-1.152c0.792-0.648,1.404-1.62,1.872-2.916h2.88
		c-0.433,1.8-1.26,3.239-2.521,4.391c-1.547,1.368-3.527,2.088-5.938,2.088c-2.664,0-4.823-0.9-6.407-2.627
		c-1.656-1.8-2.448-4.176-2.448-7.199c0-2.736,0.756-5.04,2.34-6.875c1.584-1.944,3.708-2.916,6.407-2.916
		C574.8,11.846,577.068,12.854,578.58,14.87z M567.889,15.878c-1.008,1.08-1.583,2.52-1.764,4.355h11.627
		c-0.36-3.996-2.34-5.976-5.867-5.976C570.229,14.258,568.896,14.798,567.889,15.878z"/>
	<path class="st1" d="M600.755,4.755V30.96h-2.699V27.9c-1.296,2.375-3.384,3.563-6.191,3.563c-2.736,0-4.859-1.008-6.371-2.952
		c-1.404-1.8-2.088-4.104-2.088-6.911c0-2.736,0.684-4.967,2.088-6.767c1.512-2.016,3.563-2.988,6.227-2.988
		c2.664,0,4.716,1.296,6.155,3.924V4.755H600.755z M587.725,16.382c-0.936,1.26-1.368,2.988-1.368,5.219
		c0,2.232,0.433,3.996,1.332,5.292c1.008,1.44,2.52,2.196,4.535,2.196c1.872,0,3.312-0.72,4.355-2.16
		c0.9-1.296,1.368-2.988,1.368-5.076v-0.36c0-2.16-0.54-3.923-1.548-5.255c-1.044-1.368-2.411-2.016-4.067-2.016
		C590.28,14.222,588.732,14.942,587.725,16.382z"/>
	<path class="st1" d="M609.288,27.324c0.432,0.432,0.648,0.936,0.648,1.584c0,0.612-0.217,1.116-0.648,1.548
		s-0.972,0.648-1.548,0.648c-0.647,0-1.151-0.216-1.548-0.648c-0.432-0.432-0.647-0.936-0.647-1.548
		c0-0.648,0.216-1.152,0.647-1.584c0.396-0.432,0.9-0.648,1.548-0.648C608.316,26.676,608.856,26.893,609.288,27.324z"/>
	<path class="st1" d="M3.492,65.259L9.143,86.82h0.144l5.868-21.561h3.204l5.831,21.561h0.144l5.651-21.561h3.312L25.917,90.96
		h-3.276L16.81,69.542h-0.108L10.834,90.96H7.559L0.18,65.259H3.492z"/>
	<path class="st1" d="M38.591,64.755V75.41c0.648-1.188,1.512-2.088,2.592-2.7c1.008-0.576,2.124-0.864,3.383-0.864
		c2.16,0,3.852,0.612,5.003,1.908c1.152,1.26,1.728,3.096,1.728,5.472V90.96h-2.88V79.657c0-1.728-0.432-3.06-1.224-3.995
		c-0.864-0.936-2.052-1.404-3.6-1.404c-1.44,0-2.627,0.576-3.563,1.728c-0.972,1.152-1.44,2.627-1.44,4.355V90.96h-2.879V64.755
		H38.591z"/>
	<path class="st1" d="M69.729,73.934c1.08,1.224,1.656,2.916,1.656,5.075V90.96h-2.7v-3.132c-0.72,1.008-1.691,1.836-2.843,2.484
		c-1.368,0.756-2.916,1.152-4.644,1.152c-1.872,0-3.348-0.468-4.463-1.404c-1.152-0.972-1.728-2.232-1.728-3.744
		c0-2.124,0.828-3.708,2.556-4.787c1.512-1.008,3.672-1.548,6.479-1.584l4.463-0.072v-0.972c0-3.131-1.62-4.679-4.859-4.679
		c-1.368,0-2.484,0.252-3.348,0.828c-0.972,0.576-1.584,1.476-1.872,2.664l-2.843-0.216c0.396-1.944,1.368-3.419,2.879-4.355
		c1.368-0.864,3.132-1.296,5.363-1.296C66.49,71.846,68.434,72.53,69.729,73.934z M64.222,82.105
		c-4.175,0.072-6.263,1.44-6.263,4.14c0,0.864,0.324,1.548,1.044,2.124c0.72,0.54,1.656,0.828,2.808,0.828
		c1.764,0,3.312-0.576,4.679-1.728c1.332-1.116,2.016-2.412,2.016-3.852v-1.583L64.222,82.105z"/>
	<path class="st1" d="M80.818,72.35h4.607v2.412h-4.607v11.842c0,0.684,0.108,1.188,0.396,1.476c0.252,0.288,0.72,0.468,1.368,0.468
		h2.375v2.412H82.15c-1.512,0-2.627-0.396-3.275-1.188c-0.612-0.72-0.9-1.764-0.9-3.167V74.762h-3.744V72.35h3.744v-4.823
		l2.844-1.188V72.35z"/>
	<path class="st1" d="M105.603,65.943c0.432,0.36,0.648,0.864,0.648,1.512c0,0.612-0.216,1.116-0.648,1.548
		c-0.432,0.396-0.936,0.612-1.548,0.612s-1.116-0.216-1.548-0.612c-0.432-0.432-0.612-0.936-0.612-1.548
		c0-0.648,0.18-1.152,0.612-1.512c0.432-0.432,0.936-0.612,1.548-0.612S105.17,65.511,105.603,65.943z M105.495,72.35v18.61h-2.88
		V72.35H105.495z"/>
	<path class="st1" d="M121.909,65.259v2.483h-3.203c-0.792,0-1.404,0.18-1.764,0.612c-0.36,0.396-0.54,1.043-0.54,1.943v2.052h5.255
		v2.412h-5.255V90.96h-2.88V74.762h-4.679V72.35h4.679v-2.124c0-1.584,0.396-2.771,1.188-3.636c0.828-0.9,2.052-1.332,3.635-1.332
		H121.909z"/>
	<path class="st1" d="M138.486,72.35l4.571,15.083l4.319-15.083h2.699l4.32,15.083l4.571-15.083h3.167L155.8,90.96h-2.735
		l-4.319-14.974l-4.392,14.974h-2.7l-6.334-18.61H138.486z"/>
	<path class="st1" d="M178.984,74.87c1.367,1.8,2.087,4.355,2.159,7.595h-14.686c0.144,2.088,0.684,3.708,1.691,4.859
		s2.412,1.728,4.176,1.728c1.512,0,2.771-0.396,3.707-1.152c0.792-0.648,1.404-1.62,1.872-2.916h2.88
		c-0.433,1.8-1.26,3.239-2.521,4.391c-1.547,1.368-3.527,2.088-5.938,2.088c-2.664,0-4.823-0.9-6.407-2.627
		c-1.656-1.8-2.448-4.176-2.448-7.199c0-2.736,0.756-5.04,2.34-6.875c1.584-1.944,3.708-2.916,6.407-2.916
		C175.204,71.846,177.473,72.854,178.984,74.87z M168.293,75.878c-1.008,1.08-1.583,2.52-1.764,4.355h11.627
		c-0.36-3.996-2.34-5.976-5.867-5.976C170.633,74.258,169.301,74.798,168.293,75.878z"/>
	<path class="st1" d="M211.148,73.466c1.439,1.116,2.304,2.808,2.628,5.075h-2.844c-0.252-1.44-0.828-2.52-1.728-3.24
		c-0.937-0.72-2.124-1.044-3.6-1.044c-1.8,0-3.24,0.684-4.284,2.052c-1.008,1.332-1.512,3.132-1.512,5.399
		c0,2.268,0.468,4.067,1.477,5.363c0.972,1.296,2.411,1.98,4.283,1.98c3.167,0,5.003-1.62,5.436-4.823h2.879
		c-0.432,2.375-1.331,4.211-2.771,5.435c-1.403,1.188-3.239,1.8-5.543,1.8c-2.808,0-4.968-0.936-6.516-2.808
		c-1.476-1.764-2.195-4.067-2.195-6.911s0.72-5.147,2.195-6.947c1.584-1.979,3.78-2.952,6.552-2.952
		C207.909,71.846,209.745,72.386,211.148,73.466z"/>
	<path class="st1" d="M227.997,72.278v2.879c-0.937-0.288-1.872-0.396-2.772-0.396c-1.439,0-2.663,0.612-3.635,1.908
		c-1.008,1.224-1.477,2.7-1.477,4.427v9.863h-2.843V72.35h2.843v3.24c0.504-1.08,1.152-1.944,1.944-2.556
		c0.972-0.792,2.088-1.188,3.384-1.188C226.449,71.846,227.312,71.99,227.997,72.278z"/>
	<path class="st1" d="M244.844,74.87c1.368,1.8,2.088,4.355,2.16,7.595h-14.687c0.145,2.088,0.684,3.708,1.691,4.859
		c1.009,1.152,2.412,1.728,4.176,1.728c1.512,0,2.771-0.396,3.708-1.152c0.792-0.648,1.403-1.62,1.871-2.916h2.88
		c-0.432,1.8-1.26,3.239-2.52,4.391c-1.548,1.368-3.527,2.088-5.939,2.088c-2.663,0-4.823-0.9-6.407-2.627
		c-1.655-1.8-2.447-4.176-2.447-7.199c0-2.736,0.756-5.04,2.34-6.875c1.583-1.944,3.707-2.916,6.407-2.916
		C241.064,71.846,243.332,72.854,244.844,74.87z M234.153,75.878c-1.008,1.08-1.584,2.52-1.764,4.355h11.626
		c-0.359-3.996-2.339-5.976-5.867-5.976C236.493,74.258,235.161,74.798,234.153,75.878z"/>
	<path class="st1" d="M264.392,73.934c1.08,1.224,1.655,2.916,1.655,5.075V90.96h-2.699v-3.132c-0.72,1.008-1.691,1.836-2.844,2.484
		c-1.368,0.756-2.916,1.152-4.644,1.152c-1.872,0-3.348-0.468-4.463-1.404c-1.152-0.972-1.729-2.232-1.729-3.744
		c0-2.124,0.828-3.708,2.556-4.787c1.512-1.008,3.672-1.548,6.479-1.584l4.464-0.072v-0.972c0-3.131-1.62-4.679-4.859-4.679
		c-1.368,0-2.484,0.252-3.348,0.828c-0.973,0.576-1.584,1.476-1.872,2.664l-2.844-0.216c0.396-1.944,1.368-3.419,2.88-4.355
		c1.368-0.864,3.132-1.296,5.363-1.296C261.151,71.846,263.096,72.53,264.392,73.934z M258.884,82.105
		c-4.175,0.072-6.263,1.44-6.263,4.14c0,0.864,0.324,1.548,1.044,2.124c0.72,0.54,1.655,0.828,2.808,0.828
		c1.764,0,3.312-0.576,4.679-1.728c1.332-1.116,2.017-2.412,2.017-3.852v-1.583L258.884,82.105z"/>
	<path class="st1" d="M275.48,72.35h4.607v2.412h-4.607v11.842c0,0.684,0.107,1.188,0.396,1.476c0.252,0.288,0.72,0.468,1.368,0.468
		h2.375v2.412h-2.808c-1.512,0-2.627-0.396-3.275-1.188c-0.611-0.72-0.899-1.764-0.899-3.167V74.762h-3.744V72.35h3.744v-4.823
		l2.844-1.188V72.35z"/>
	<path class="st1" d="M297.727,74.87c1.368,1.8,2.088,4.355,2.16,7.595H285.2c0.145,2.088,0.684,3.708,1.691,4.859
		c1.009,1.152,2.412,1.728,4.176,1.728c1.512,0,2.771-0.396,3.708-1.152c0.792-0.648,1.403-1.62,1.871-2.916h2.88
		c-0.432,1.8-1.26,3.239-2.52,4.391c-1.548,1.368-3.527,2.088-5.939,2.088c-2.663,0-4.823-0.9-6.407-2.627
		c-1.655-1.8-2.447-4.176-2.447-7.199c0-2.736,0.756-5.04,2.34-6.875c1.583-1.944,3.707-2.916,6.407-2.916
		C293.947,71.846,296.215,72.854,297.727,74.87z M287.036,75.878c-1.008,1.08-1.584,2.52-1.764,4.355h11.626
		c-0.359-3.996-2.339-5.976-5.867-5.976C289.376,74.258,288.044,74.798,287.036,75.878z"/>
	<path class="st1" d="M320.244,65.943c0.432,0.36,0.647,0.864,0.647,1.512c0,0.612-0.216,1.116-0.647,1.548
		c-0.433,0.396-0.937,0.612-1.548,0.612c-0.612,0-1.116-0.216-1.548-0.612c-0.433-0.432-0.612-0.936-0.612-1.548
		c0-0.648,0.18-1.152,0.612-1.512c0.432-0.432,0.936-0.612,1.548-0.612C319.308,65.331,319.812,65.511,320.244,65.943z
		 M320.136,72.35v18.61h-2.88V72.35H320.136z"/>
	<path class="st1" d="M339.502,75.374c0.721-1.224,1.584-2.124,2.592-2.664c0.9-0.576,1.98-0.864,3.276-0.864
		c1.943,0,3.491,0.612,4.715,1.836c1.152,1.26,1.764,2.952,1.764,5.075V90.96h-2.88V79.226c0-1.656-0.359-2.88-1.043-3.672
		c-0.721-0.864-1.872-1.26-3.456-1.26c-1.224,0-2.268,0.432-3.06,1.368c-0.864,0.936-1.26,2.124-1.26,3.635V90.96h-2.88V79.226
		c0-3.312-1.439-4.932-4.283-4.932c-1.332,0-2.412,0.504-3.275,1.584c-0.864,1.008-1.296,2.268-1.296,3.744V90.96h-2.88V72.35h2.88
		v2.484c1.403-2.016,3.167-2.988,5.255-2.988C336.515,71.846,338.459,72.998,339.502,75.374z"/>
	<path class="st1" d="M370.318,73.934c1.08,1.224,1.655,2.916,1.655,5.075V90.96h-2.699v-3.132c-0.72,1.008-1.691,1.836-2.844,2.484
		c-1.368,0.756-2.916,1.152-4.644,1.152c-1.872,0-3.348-0.468-4.463-1.404c-1.152-0.972-1.729-2.232-1.729-3.744
		c0-2.124,0.828-3.708,2.556-4.787c1.512-1.008,3.672-1.548,6.479-1.584l4.464-0.072v-0.972c0-3.131-1.62-4.679-4.859-4.679
		c-1.368,0-2.484,0.252-3.348,0.828c-0.973,0.576-1.584,1.476-1.872,2.664l-2.844-0.216c0.396-1.944,1.368-3.419,2.88-4.355
		c1.368-0.864,3.132-1.296,5.363-1.296C367.078,71.846,369.022,72.53,370.318,73.934z M364.811,82.105
		c-4.175,0.072-6.263,1.44-6.263,4.14c0,0.864,0.324,1.548,1.044,2.124c0.72,0.54,1.655,0.828,2.808,0.828
		c1.764,0,3.312-0.576,4.679-1.728c1.332-1.116,2.017-2.412,2.017-3.852v-1.583L364.811,82.105z"/>
	<path class="st1" d="M390.37,75.554V72.35h2.879v17.314c0,5.939-2.844,8.927-8.494,8.927c-2.521,0-4.464-0.504-5.76-1.512
		c-1.332-1.008-2.16-2.52-2.483-4.535h2.88c0.216,1.26,0.756,2.195,1.583,2.771c0.828,0.612,2.088,0.936,3.78,0.936
		c3.743,0,5.615-2.088,5.615-6.191v-3.275c-1.368,2.483-3.456,3.743-6.264,3.743c-2.592,0-4.644-0.9-6.155-2.664
		c-1.512-1.728-2.231-3.923-2.231-6.623c0-2.736,0.72-4.932,2.231-6.659c1.512-1.836,3.563-2.736,6.155-2.736
		C386.914,71.846,389.002,73.07,390.37,75.554z M380.183,76.238c-1.008,1.224-1.512,2.916-1.512,5.003
		c0,1.944,0.433,3.563,1.332,4.788c1.008,1.368,2.483,2.087,4.5,2.087c1.871,0,3.312-0.648,4.391-1.944
		c1.008-1.26,1.512-2.916,1.512-4.931c0-2.088-0.504-3.78-1.512-5.003c-1.079-1.368-2.52-2.016-4.355-2.016
		C382.667,74.222,381.227,74.87,380.183,76.238z"/>
	<path class="st1" d="M412.149,74.87c1.367,1.8,2.087,4.355,2.159,7.595h-14.686c0.144,2.088,0.684,3.708,1.691,4.859
		s2.412,1.728,4.176,1.728c1.512,0,2.771-0.396,3.707-1.152c0.792-0.648,1.404-1.62,1.872-2.916h2.88
		c-0.433,1.8-1.26,3.239-2.521,4.391c-1.547,1.368-3.527,2.088-5.938,2.088c-2.664,0-4.823-0.9-6.407-2.627
		c-1.656-1.8-2.448-4.176-2.448-7.199c0-2.736,0.756-5.04,2.34-6.875c1.584-1.944,3.708-2.916,6.407-2.916
		C408.369,71.846,410.638,72.854,412.149,74.87z M401.458,75.878c-1.008,1.08-1.583,2.52-1.764,4.355h11.627
		c-0.36-3.996-2.34-5.976-5.867-5.976C403.798,74.258,402.466,74.798,401.458,75.878z"/>
	<path class="st1" d="M431.913,77.642h-2.808c-0.252-1.152-0.72-2.016-1.439-2.52c-0.792-0.576-1.944-0.864-3.42-0.864
		c-1.296,0-2.304,0.216-3.023,0.72c-0.792,0.468-1.188,1.116-1.188,1.944c0,0.792,0.504,1.476,1.584,2.016
		c0.685,0.324,1.979,0.72,3.852,1.224c2.231,0.54,3.815,1.116,4.787,1.728c1.477,0.936,2.232,2.196,2.232,3.815
		c0,3.815-2.628,5.759-7.883,5.759c-4.896,0-7.56-2.16-7.991-6.443h2.808c0.216,1.476,0.756,2.52,1.548,3.168
		c0.792,0.576,1.979,0.864,3.563,0.864c3.312,0,5.003-1.08,5.003-3.167c0-1.044-0.611-1.836-1.764-2.412
		c-0.611-0.288-1.943-0.684-3.959-1.188c-2.196-0.54-3.744-1.08-4.607-1.656c-1.44-0.864-2.124-2.052-2.124-3.636
		c0-1.583,0.684-2.808,2.088-3.744c1.296-0.936,3.023-1.404,5.111-1.404C428.89,71.846,431.409,73.754,431.913,77.642z"/>
	<path class="st1" d="M453.89,72.35h4.607v2.412h-4.607v11.842c0,0.684,0.108,1.188,0.396,1.476c0.252,0.288,0.72,0.468,1.367,0.468
		h2.376v2.412h-2.808c-1.512,0-2.628-0.396-3.275-1.188c-0.612-0.72-0.9-1.764-0.9-3.167V74.762h-3.743V72.35h3.743v-4.823
		l2.844-1.188V72.35z"/>
	<path class="st1" d="M464.582,64.755V75.41c0.647-1.188,1.512-2.088,2.592-2.7c1.008-0.576,2.123-0.864,3.383-0.864
		c2.16,0,3.852,0.612,5.004,1.908c1.151,1.26,1.728,3.096,1.728,5.472V90.96h-2.88V79.657c0-1.728-0.432-3.06-1.224-3.995
		c-0.863-0.936-2.052-1.404-3.6-1.404c-1.439,0-2.627,0.576-3.563,1.728c-0.972,1.152-1.439,2.627-1.439,4.355V90.96h-2.88V64.755
		H464.582z"/>
	<path class="st1" d="M495.721,73.934c1.08,1.224,1.655,2.916,1.655,5.075V90.96h-2.699v-3.132c-0.72,1.008-1.691,1.836-2.844,2.484
		c-1.368,0.756-2.916,1.152-4.644,1.152c-1.872,0-3.348-0.468-4.463-1.404c-1.152-0.972-1.729-2.232-1.729-3.744
		c0-2.124,0.828-3.708,2.556-4.787c1.512-1.008,3.672-1.548,6.479-1.584l4.464-0.072v-0.972c0-3.131-1.62-4.679-4.859-4.679
		c-1.368,0-2.484,0.252-3.348,0.828c-0.973,0.576-1.584,1.476-1.872,2.664l-2.844-0.216c0.396-1.944,1.368-3.419,2.88-4.355
		c1.368-0.864,3.132-1.296,5.363-1.296C492.48,71.846,494.425,72.53,495.721,73.934z M490.213,82.105
		c-4.175,0.072-6.263,1.44-6.263,4.14c0,0.864,0.324,1.548,1.044,2.124c0.72,0.54,1.655,0.828,2.808,0.828
		c1.764,0,3.312-0.576,4.679-1.728c1.332-1.116,2.017-2.412,2.017-3.852v-1.583L490.213,82.105z"/>
	<path class="st1" d="M506.81,72.35h4.607v2.412h-4.607v11.842c0,0.684,0.107,1.188,0.396,1.476c0.252,0.288,0.72,0.468,1.368,0.468
		h2.375v2.412h-2.808c-1.512,0-2.627-0.396-3.275-1.188c-0.611-0.72-0.899-1.764-0.899-3.167V74.762h-3.744V72.35h3.744v-4.823
		l2.844-1.188V72.35z"/>
	<path class="st1" d="M541.672,73.934c1.08,1.224,1.656,2.916,1.656,5.075V90.96h-2.7v-3.132c-0.72,1.008-1.691,1.836-2.843,2.484
		c-1.368,0.756-2.916,1.152-4.644,1.152c-1.872,0-3.348-0.468-4.464-1.404c-1.151-0.972-1.728-2.232-1.728-3.744
		c0-2.124,0.828-3.708,2.556-4.787c1.512-1.008,3.672-1.548,6.479-1.584l4.463-0.072v-0.972c0-3.131-1.62-4.679-4.859-4.679
		c-1.368,0-2.483,0.252-3.348,0.828c-0.972,0.576-1.584,1.476-1.872,2.664l-2.843-0.216c0.396-1.944,1.367-3.419,2.879-4.355
		c1.368-0.864,3.132-1.296,5.363-1.296C538.433,71.846,540.376,72.53,541.672,73.934z M536.165,82.105
		c-4.176,0.072-6.264,1.44-6.264,4.14c0,0.864,0.324,1.548,1.044,2.124c0.72,0.54,1.656,0.828,2.808,0.828
		c1.764,0,3.312-0.576,4.68-1.728c1.332-1.116,2.016-2.412,2.016-3.852v-1.583L536.165,82.105z"/>
	<path class="st1" d="M558.521,72.278v2.879c-0.937-0.288-1.872-0.396-2.772-0.396c-1.439,0-2.663,0.612-3.635,1.908
		c-1.008,1.224-1.477,2.7-1.477,4.427v9.863h-2.843V72.35h2.843v3.24c0.504-1.08,1.152-1.944,1.944-2.556
		c0.972-0.792,2.088-1.188,3.384-1.188C556.973,71.846,557.836,71.99,558.521,72.278z"/>
	<path class="st1" d="M575.367,74.87c1.368,1.8,2.088,4.355,2.16,7.595h-14.687c0.145,2.088,0.684,3.708,1.691,4.859
		c1.009,1.152,2.412,1.728,4.176,1.728c1.512,0,2.771-0.396,3.708-1.152c0.792-0.648,1.403-1.62,1.871-2.916h2.88
		c-0.432,1.8-1.26,3.239-2.52,4.391c-1.548,1.368-3.527,2.088-5.939,2.088c-2.663,0-4.823-0.9-6.407-2.627
		c-1.655-1.8-2.447-4.176-2.447-7.199c0-2.736,0.756-5.04,2.34-6.875c1.583-1.944,3.707-2.916,6.407-2.916
		C571.588,71.846,573.855,72.854,575.367,74.87z M564.677,75.878c-1.008,1.08-1.584,2.52-1.764,4.355h11.626
		c-0.359-3.996-2.339-5.976-5.867-5.976C567.017,74.258,565.685,74.798,564.677,75.878z"/>
	<path class="st1" d="M609.619,79.513V90.96h-2.879v-11.23c0-3.636-1.656-5.436-4.896-5.436c-1.296,0-2.412,0.468-3.348,1.404
		c-1.008,1.008-1.548,2.34-1.656,4.032v11.23h-2.879V72.35h2.879v2.736c0.648-1.044,1.477-1.836,2.484-2.375
		c1.008-0.576,2.123-0.864,3.348-0.864C607.28,71.846,609.619,74.402,609.619,79.513z"/>
	<path class="st1" d="M629.06,74.726c1.583,1.835,2.375,4.139,2.375,6.947c0,2.771-0.792,5.075-2.34,6.875
		c-1.691,1.944-3.923,2.916-6.694,2.916c-2.808,0-5.004-0.972-6.659-2.916c-1.584-1.8-2.376-4.104-2.376-6.875
		c0-2.808,0.792-5.112,2.376-6.947c1.655-1.944,3.852-2.88,6.659-2.88C625.172,71.846,627.403,72.782,629.06,74.726z
		 M617.793,76.526c-1.009,1.368-1.477,3.06-1.477,5.147c0,2.052,0.468,3.743,1.477,5.111c1.079,1.512,2.627,2.268,4.607,2.268
		c1.943,0,3.491-0.756,4.643-2.268c0.973-1.368,1.477-3.096,1.477-5.111c0-2.088-0.504-3.78-1.477-5.147
		c-1.151-1.512-2.699-2.268-4.643-2.268C620.42,74.258,618.872,75.014,617.793,76.526z"/>
	<path class="st1" d="M640.148,72.35h4.607v2.412h-4.607v11.842c0,0.684,0.107,1.188,0.396,1.476
		c0.252,0.288,0.72,0.468,1.368,0.468h2.375v2.412h-2.808c-1.512,0-2.627-0.396-3.275-1.188c-0.611-0.72-0.899-1.764-0.899-3.167
		V74.762h-3.744V72.35h3.744v-4.823l2.844-1.188V72.35z"/>
	<path class="st1" d="M16.162,135.554v-3.204h2.879v17.314c0,5.939-2.844,8.927-8.495,8.927c-2.52,0-4.464-0.504-5.759-1.512
		c-1.332-1.008-2.16-2.52-2.484-4.535h2.88c0.216,1.26,0.756,2.195,1.583,2.771c0.828,0.612,2.088,0.936,3.78,0.936
		c3.743,0,5.615-2.088,5.615-6.191v-3.275c-1.368,2.483-3.456,3.743-6.263,3.743c-2.592,0-4.644-0.9-6.155-2.664
		c-1.512-1.728-2.232-3.923-2.232-6.623c0-2.736,0.72-4.932,2.232-6.659c1.512-1.836,3.563-2.736,6.155-2.736
		C12.707,131.846,14.794,133.07,16.162,135.554z M5.975,136.238c-1.008,1.224-1.512,2.916-1.512,5.003
		c0,1.944,0.432,3.563,1.332,4.788c1.008,1.368,2.483,2.087,4.5,2.087c1.872,0,3.312-0.648,4.391-1.944
		c1.008-1.26,1.512-2.916,1.512-4.931c0-2.088-0.504-3.78-1.512-5.003c-1.08-1.368-2.52-2.016-4.355-2.016
		C8.459,134.222,7.019,134.87,5.975,136.238z"/>
	<path class="st1" d="M37.941,134.87c1.368,1.8,2.087,4.355,2.16,7.595H25.415c0.144,2.088,0.684,3.708,1.691,4.859
		c1.008,1.152,2.412,1.728,4.176,1.728c1.512,0,2.771-0.396,3.708-1.152c0.792-0.648,1.404-1.62,1.872-2.916h2.88
		c-0.432,1.8-1.26,3.239-2.52,4.391c-1.547,1.368-3.527,2.088-5.939,2.088c-2.664,0-4.823-0.9-6.407-2.627
		c-1.656-1.8-2.448-4.176-2.448-7.199c0-2.736,0.756-5.04,2.34-6.875c1.583-1.944,3.708-2.916,6.407-2.916
		C34.162,131.846,36.43,132.854,37.941,134.87z M27.25,135.878c-1.008,1.08-1.583,2.52-1.764,4.355h11.626
		c-0.36-3.996-2.339-5.976-5.867-5.976C29.59,134.258,28.258,134.798,27.25,135.878z"/>
	<path class="st1" d="M48.454,132.35h4.607v2.412h-4.607v11.842c0,0.684,0.108,1.188,0.396,1.476
		c0.252,0.288,0.72,0.468,1.368,0.468h2.375v2.412h-2.808c-1.512,0-2.627-0.396-3.275-1.188c-0.612-0.72-0.9-1.764-0.9-3.167
		v-11.842h-3.744v-2.412h3.744v-4.823l2.844-1.188V132.35z"/>
	<path class="st1" d="M61.234,132.35h4.607v2.412h-4.607v11.842c0,0.684,0.108,1.188,0.396,1.476
		c0.252,0.288,0.72,0.468,1.368,0.468h2.375v2.412h-2.808c-1.512,0-2.627-0.396-3.275-1.188c-0.612-0.72-0.9-1.764-0.9-3.167
		v-11.842h-3.744v-2.412h3.744v-4.823l2.844-1.188V132.35z"/>
	<path class="st1" d="M72.97,125.943c0.432,0.36,0.648,0.864,0.648,1.512c0,0.612-0.216,1.116-0.648,1.548
		c-0.432,0.396-0.936,0.612-1.548,0.612s-1.116-0.216-1.548-0.612c-0.432-0.432-0.612-0.936-0.612-1.548
		c0-0.648,0.18-1.152,0.612-1.512c0.432-0.432,0.936-0.612,1.548-0.612S72.538,125.511,72.97,125.943z M72.862,132.35v18.61h-2.88
		v-18.61H72.862z"/>
	<path class="st1" d="M93.92,139.513v11.447h-2.879v-11.23c0-3.636-1.656-5.436-4.896-5.436c-1.296,0-2.412,0.468-3.348,1.404
		c-1.008,1.008-1.548,2.34-1.656,4.032v11.23h-2.879v-18.61h2.879v2.736c0.648-1.044,1.476-1.836,2.484-2.375
		c1.008-0.576,2.124-0.864,3.347-0.864C91.58,131.846,93.92,134.402,93.92,139.513z"/>
	<path class="st1" d="M112.316,135.554v-3.204h2.879v17.314c0,5.939-2.844,8.927-8.495,8.927c-2.52,0-4.464-0.504-5.759-1.512
		c-1.332-1.008-2.16-2.52-2.484-4.535h2.879c0.216,1.26,0.756,2.195,1.584,2.771c0.828,0.612,2.088,0.936,3.78,0.936
		c3.743,0,5.615-2.088,5.615-6.191v-3.275c-1.368,2.483-3.456,3.743-6.263,3.743c-2.592,0-4.644-0.9-6.155-2.664
		c-1.512-1.728-2.232-3.923-2.232-6.623c0-2.736,0.72-4.932,2.232-6.659c1.512-1.836,3.563-2.736,6.155-2.736
		C108.86,131.846,110.948,133.07,112.316,135.554z M102.129,136.238c-1.008,1.224-1.512,2.916-1.512,5.003
		c0,1.944,0.432,3.563,1.332,4.788c1.008,1.368,2.483,2.087,4.5,2.087c1.872,0,3.312-0.648,4.391-1.944
		c1.008-1.26,1.512-2.916,1.512-4.931c0-2.088-0.504-3.78-1.512-5.003c-1.08-1.368-2.52-2.016-4.355-2.016
		C104.613,134.222,103.173,134.87,102.129,136.238z"/>
	<path class="st1" d="M142.663,125.259v2.483h-3.203c-0.792,0-1.404,0.18-1.764,0.612c-0.36,0.396-0.54,1.043-0.54,1.943v2.052
		h5.255v2.412h-5.255v16.198h-2.88v-16.198h-4.679v-2.412h4.679v-2.124c0-1.584,0.396-2.771,1.188-3.636
		c0.828-0.9,2.052-1.332,3.635-1.332H142.663z"/>
	<path class="st1" d="M155.803,132.278v2.879c-0.936-0.288-1.872-0.396-2.771-0.396c-1.439,0-2.664,0.612-3.636,1.908
		c-1.008,1.224-1.476,2.7-1.476,4.427v9.863h-2.844v-18.61h2.844v3.24c0.504-1.08,1.151-1.944,1.943-2.556
		c0.973-0.792,2.088-1.188,3.384-1.188C154.255,131.846,155.119,131.99,155.803,132.278z"/>
	<path class="st1" d="M173.19,134.726c1.583,1.835,2.375,4.139,2.375,6.947c0,2.771-0.792,5.075-2.34,6.875
		c-1.691,1.944-3.923,2.916-6.694,2.916c-2.808,0-5.004-0.972-6.659-2.916c-1.584-1.8-2.376-4.104-2.376-6.875
		c0-2.808,0.792-5.112,2.376-6.947c1.655-1.944,3.852-2.88,6.659-2.88C169.303,131.846,171.534,132.782,173.19,134.726z
		 M161.924,136.526c-1.009,1.368-1.477,3.06-1.477,5.147c0,2.052,0.468,3.743,1.477,5.111c1.079,1.512,2.627,2.268,4.607,2.268
		c1.943,0,3.491-0.756,4.643-2.268c0.973-1.368,1.477-3.096,1.477-5.111c0-2.088-0.504-3.78-1.477-5.147
		c-1.151-1.512-2.699-2.268-4.643-2.268C164.551,134.258,163.003,135.014,161.924,136.526z"/>
	<path class="st1" d="M193.134,132.35v2.016l-11.41,14.182h11.986v2.412h-15.73v-2.088l11.375-14.11H178.34v-2.412H193.134z"/>
	<path class="st1" d="M211.278,134.87c1.367,1.8,2.087,4.355,2.159,7.595h-14.686c0.144,2.088,0.684,3.708,1.691,4.859
		s2.412,1.728,4.176,1.728c1.512,0,2.771-0.396,3.707-1.152c0.792-0.648,1.404-1.62,1.872-2.916h2.88
		c-0.433,1.8-1.26,3.239-2.521,4.391c-1.547,1.368-3.527,2.088-5.938,2.088c-2.664,0-4.823-0.9-6.407-2.627
		c-1.656-1.8-2.448-4.176-2.448-7.199c0-2.736,0.756-5.04,2.34-6.875c1.584-1.944,3.708-2.916,6.407-2.916
		C207.498,131.846,209.767,132.854,211.278,134.87z M200.587,135.878c-1.008,1.08-1.583,2.52-1.764,4.355h11.627
		c-0.36-3.996-2.34-5.976-5.867-5.976C202.927,134.258,201.595,134.798,200.587,135.878z"/>
	<path class="st1" d="M232.481,139.513v11.447h-2.88v-11.23c0-3.636-1.655-5.436-4.896-5.436c-1.296,0-2.411,0.468-3.348,1.404
		c-1.008,1.008-1.548,2.34-1.655,4.032v11.23h-2.88v-18.61h2.88v2.736c0.647-1.044,1.476-1.836,2.483-2.375
		c1.008-0.576,2.124-0.864,3.348-0.864C230.142,131.846,232.481,134.402,232.481,139.513z"/>
	<path class="st1" d="M251.814,124.755v11.015c1.439-2.628,3.491-3.924,6.155-3.924c2.627,0,4.715,0.972,6.227,2.988
		c1.368,1.8,2.088,4.031,2.088,6.767c0,2.808-0.72,5.111-2.088,6.911c-1.548,1.944-3.671,2.952-6.371,2.952
		c-2.879,0-4.931-1.188-6.191-3.563v3.06h-2.699v-26.205H251.814z M253.29,136.238c-1.08,1.332-1.584,3.096-1.584,5.255v0.36
		c0,2.088,0.468,3.78,1.404,5.076c1.008,1.439,2.483,2.16,4.355,2.16c2.016,0,3.527-0.756,4.535-2.196
		c0.864-1.296,1.332-3.06,1.332-5.292c0-2.231-0.468-3.959-1.404-5.219c-1.044-1.44-2.556-2.16-4.571-2.16
		C255.666,134.222,254.298,134.87,253.29,136.238z"/>
	<path class="st1" d="M271.11,132.35l5.688,14.687l5.507-14.687h3.168l-10.187,25.737h-3.132l3.203-7.559l-7.379-18.178H271.11z"/>
	<path class="st1" d="M304.841,132.35h4.607v2.412h-4.607v11.842c0,0.684,0.108,1.188,0.396,1.476
		c0.252,0.288,0.72,0.468,1.367,0.468h2.376v2.412h-2.808c-1.512,0-2.628-0.396-3.275-1.188c-0.612-0.72-0.9-1.764-0.9-3.167
		v-11.842h-3.743v-2.412h3.743v-4.823l2.844-1.188V132.35z"/>
	<path class="st1" d="M316.577,125.943c0.432,0.36,0.647,0.864,0.647,1.512c0,0.612-0.216,1.116-0.647,1.548
		c-0.433,0.396-0.937,0.612-1.548,0.612c-0.612,0-1.116-0.216-1.548-0.612c-0.433-0.432-0.612-0.936-0.612-1.548
		c0-0.648,0.18-1.152,0.612-1.512c0.432-0.432,0.936-0.612,1.548-0.612C315.641,125.331,316.145,125.511,316.577,125.943z
		 M316.469,132.35v18.61h-2.88v-18.61H316.469z"/>
	<path class="st1" d="M335.835,135.374c0.721-1.224,1.584-2.124,2.592-2.664c0.9-0.576,1.98-0.864,3.276-0.864
		c1.943,0,3.491,0.612,4.715,1.836c1.152,1.26,1.764,2.952,1.764,5.075v12.203h-2.88v-11.734c0-1.656-0.359-2.88-1.043-3.672
		c-0.721-0.864-1.872-1.26-3.456-1.26c-1.224,0-2.268,0.432-3.06,1.368c-0.864,0.936-1.26,2.124-1.26,3.635v11.663h-2.88v-11.734
		c0-3.312-1.439-4.932-4.283-4.932c-1.332,0-2.412,0.504-3.275,1.584c-0.864,1.008-1.296,2.268-1.296,3.744v11.338h-2.88v-18.61
		h2.88v2.484c1.403-2.016,3.167-2.988,5.255-2.988C332.848,131.846,334.792,132.998,335.835,135.374z"/>
	<path class="st1" d="M367.083,134.87c1.368,1.8,2.088,4.355,2.16,7.595h-14.687c0.145,2.088,0.684,3.708,1.691,4.859
		c1.009,1.152,2.412,1.728,4.176,1.728c1.512,0,2.771-0.396,3.708-1.152c0.792-0.648,1.403-1.62,1.871-2.916h2.88
		c-0.432,1.8-1.26,3.239-2.52,4.391c-1.548,1.368-3.527,2.088-5.939,2.088c-2.663,0-4.823-0.9-6.407-2.627
		c-1.655-1.8-2.447-4.176-2.447-7.199c0-2.736,0.756-5.04,2.34-6.875c1.583-1.944,3.707-2.916,6.407-2.916
		C363.304,131.846,365.571,132.854,367.083,134.87z M356.393,135.878c-1.008,1.08-1.584,2.52-1.764,4.355h11.626
		c-0.359-3.996-2.339-5.976-5.867-5.976C358.732,134.258,357.4,134.798,356.393,135.878z"/>
	<path class="st1" d="M385.911,126.663c1.332,1.224,2.016,2.916,2.016,5.075c0,1.62-0.468,3.024-1.332,4.211
		c-0.359,0.432-1.367,1.368-2.951,2.772c-0.756,0.648-1.296,1.296-1.656,1.943c-0.468,0.792-0.684,1.692-0.684,2.664v0.828h-2.915
		v-0.828c0-1.188,0.216-2.232,0.684-3.132c0.468-1.08,1.691-2.448,3.636-4.175c0.575-0.576,0.972-1.008,1.224-1.296
		c0.684-0.9,1.044-1.836,1.044-2.844c0-1.44-0.396-2.556-1.188-3.348c-0.863-0.864-2.052-1.26-3.563-1.26
		c-1.764,0-3.096,0.576-3.995,1.764c-0.756,1.008-1.152,2.376-1.152,4.14h-2.879c0-2.52,0.72-4.536,2.123-6.047
		c1.477-1.583,3.492-2.375,6.048-2.375C382.672,124.755,384.543,125.367,385.911,126.663z M381.412,147.289
		c0.396,0.396,0.611,0.9,0.611,1.512c0,0.648-0.216,1.152-0.611,1.548c-0.433,0.396-0.972,0.612-1.548,0.612
		c-0.648,0-1.152-0.216-1.548-0.612c-0.432-0.432-0.648-0.936-0.648-1.548s0.217-1.116,0.648-1.512
		c0.396-0.432,0.899-0.612,1.548-0.612C380.476,146.676,380.979,146.856,381.412,147.289z"/>
</g>
</svg>