<!-- Generator: Adobe Illustrator 22.0.1, SVG Export Plug-In  -->
<svg version="1.1"
	 xmlns="http://www.w3.org/2000/svg" xmlns:xlink="http://www.w3.org/1999/xlink" xmlns:a="http://ns.adobe.com/AdobeSVGViewerExtensions/3.0/"
	 x="0px" y="0px" width="269.241px" height="144.651px" viewBox="0 0 269.241 144.651"
	 style="enable-background:new 0 0 269.241 144.651;" xml:space="preserve">
<style type="text/css">
	.st0{fill:#575756;}
	.st1{font-family:'PingFangTC-Regular-B5pc-H';}
	.st2{font-size:55px;}
	.st3{font-family:'PingFangTC-Medium-B5pc-H';}
	.st4{font-size:36px;}
</style>
<defs>
</defs>
<g>
	<path class="st0" d="M8.414,8.035v35.36h22.712V47.3H3.959V8.035H8.414z"/>
	<path class="st0" d="M57.801,22.718c2.09,2.75,3.19,6.654,3.3,11.603H38.664c0.22,3.19,1.045,5.665,2.584,7.424
		c1.54,1.76,3.685,2.64,6.379,2.64c2.31,0,4.234-0.605,5.664-1.76c1.21-0.99,2.145-2.475,2.86-4.455h4.399
		c-0.66,2.75-1.925,4.949-3.85,6.709c-2.365,2.09-5.389,3.19-9.074,3.19c-4.069,0-7.369-1.375-9.789-4.015
		c-2.529-2.75-3.739-6.379-3.739-10.999c0-4.179,1.155-7.699,3.575-10.503c2.419-2.97,5.664-4.455,9.789-4.455
		C52.027,18.099,55.492,19.639,57.801,22.718z M41.469,24.258c-1.54,1.65-2.42,3.85-2.695,6.654h17.763
		c-0.55-6.104-3.575-9.129-8.964-9.129C45.043,21.783,43.008,22.608,41.469,24.258z"/>
	<path class="st0" d="M102.076,8.035c3.905,0,6.984,0.88,9.239,2.694c2.31,1.87,3.52,4.62,3.52,8.249c0,2.2-0.605,4.125-1.815,5.829
		c-1.32,1.76-3.08,2.86-5.334,3.41v0.11c3.74,0.825,5.829,3.19,6.27,7.149l0.604,6.049c0.22,2.42,0.935,4.345,2.09,5.774h-4.895
		c-0.88-1.32-1.43-3.024-1.595-5.224l-0.495-5.225c-0.22-2.31-1.045-4.014-2.475-5.004c-1.32-0.99-3.19-1.43-5.665-1.43H89.648V47.3
		h-4.509V8.035H102.076z M89.648,26.513h11.878c2.86,0,5.114-0.715,6.654-2.035c1.375-1.265,2.09-3.025,2.09-5.334
		c0-2.42-0.715-4.234-2.035-5.389c-1.43-1.21-3.684-1.815-6.709-1.815H89.648V26.513z"/>
	<path class="st0" d="M143.82,22.718c2.09,2.75,3.19,6.654,3.3,11.603h-22.437c0.22,3.19,1.045,5.665,2.584,7.424
		c1.54,1.76,3.685,2.64,6.379,2.64c2.31,0,4.234-0.605,5.664-1.76c1.21-0.99,2.145-2.475,2.86-4.455h4.399
		c-0.66,2.75-1.925,4.949-3.85,6.709c-2.364,2.09-5.389,3.19-9.074,3.19c-4.07,0-7.369-1.375-9.789-4.015
		c-2.53-2.75-3.74-6.379-3.74-10.999c0-4.179,1.155-7.699,3.575-10.503c2.419-2.97,5.664-4.455,9.789-4.455
		C138.046,18.099,141.511,19.639,143.82,22.718z M127.488,24.258c-1.54,1.65-2.42,3.85-2.695,6.654h17.763
		c-0.55-6.104-3.575-9.129-8.964-9.129C131.062,21.783,129.027,22.608,127.488,24.258z M135.517,7.925l5.885,6.984h-2.97
		l-4.784-4.895l-4.839,4.895h-2.97l5.939-6.984H135.517z"/>
	<path class="st0" d="M153.998,18.869l8.139,22.932l8.139-22.932h4.84L164.337,47.3h-4.455l-10.724-28.431H153.998z"/>
	<path class="st0" d="M200.854,22.718c2.09,2.75,3.19,6.654,3.3,11.603h-22.437c0.22,3.19,1.045,5.665,2.584,7.424
		c1.54,1.76,3.685,2.64,6.38,2.64c2.31,0,4.234-0.605,5.664-1.76c1.21-0.99,2.145-2.475,2.859-4.455h4.399
		c-0.66,2.75-1.925,4.949-3.85,6.709c-2.364,2.09-5.389,3.19-9.073,3.19c-4.07,0-7.369-1.375-9.789-4.015
		c-2.529-2.75-3.739-6.379-3.739-10.999c0-4.179,1.154-7.699,3.574-10.503c2.42-2.97,5.664-4.455,9.789-4.455
		C195.081,18.099,198.545,19.639,200.854,22.718z M184.522,24.258c-1.54,1.65-2.42,3.85-2.695,6.654h17.763
		c-0.55-6.104-3.574-9.129-8.964-9.129C188.097,21.783,186.062,22.608,184.522,24.258z"/>
	<path class="st0" d="M19.978,125.753v2.448H1.8v-2.448H19.978z"/>
	<path class="st0" d="M46.87,110.599c5.903,0,8.854,2.52,8.854,7.559c0,5.075-2.987,7.631-8.891,7.631h-7.523V136.3h-2.952v-25.701
		H46.87z M39.311,123.233h7.379c2.088,0,3.6-0.432,4.607-1.26c0.972-0.828,1.476-2.088,1.476-3.815c0-1.728-0.504-2.988-1.512-3.744
		c-1.008-0.864-2.52-1.26-4.571-1.26h-7.379V123.233z"/>
	<path class="st0" d="M73.113,119.274c1.08,1.224,1.656,2.916,1.656,5.075V136.3h-2.7v-3.132c-0.72,1.008-1.691,1.836-2.843,2.484
		c-1.368,0.756-2.916,1.152-4.644,1.152c-1.872,0-3.348-0.468-4.463-1.404c-1.152-0.972-1.728-2.232-1.728-3.744
		c0-2.124,0.828-3.708,2.556-4.787c1.512-1.008,3.672-1.548,6.479-1.584l4.463-0.072v-0.972c0-3.131-1.62-4.679-4.859-4.679
		c-1.368,0-2.484,0.252-3.348,0.828c-0.972,0.576-1.584,1.476-1.872,2.664l-2.843-0.216c0.396-1.944,1.368-3.419,2.879-4.355
		c1.368-0.864,3.132-1.296,5.363-1.296C69.874,117.186,71.817,117.87,73.113,119.274z M67.606,127.445
		c-4.175,0.072-6.263,1.44-6.263,4.14c0,0.864,0.324,1.548,1.044,2.124c0.72,0.54,1.656,0.828,2.808,0.828
		c1.764,0,3.312-0.576,4.679-1.728c1.332-1.116,2.016-2.412,2.016-3.852v-1.583L67.606,127.445z"/>
	<path class="st0" d="M82.114,110.095v11.015c1.44-2.628,3.492-3.924,6.155-3.924c2.627,0,4.715,0.972,6.227,2.988
		c1.368,1.8,2.088,4.031,2.088,6.767c0,2.808-0.72,5.111-2.088,6.911c-1.548,1.944-3.671,2.952-6.371,2.952
		c-2.879,0-4.931-1.188-6.191-3.563v3.06h-2.699v-26.205H82.114z M83.59,121.578c-1.08,1.332-1.584,3.096-1.584,5.255v0.36
		c0,2.088,0.468,3.78,1.404,5.076c1.008,1.439,2.484,2.16,4.355,2.16c2.016,0,3.527-0.756,4.535-2.196
		c0.864-1.296,1.332-3.06,1.332-5.292c0-2.231-0.468-3.959-1.404-5.219c-1.044-1.44-2.556-2.16-4.571-2.16
		C85.966,119.562,84.598,120.21,83.59,121.578z"/>
	<path class="st0" d="M103.75,110.095V136.3h-2.844v-26.205H103.75z"/>
	<path class="st0" d="M123.765,120.066c1.583,1.835,2.375,4.139,2.375,6.947c0,2.771-0.792,5.075-2.34,6.875
		c-1.692,1.944-3.923,2.916-6.695,2.916c-2.808,0-5.003-0.972-6.659-2.916c-1.584-1.8-2.376-4.104-2.376-6.875
		c0-2.808,0.792-5.112,2.376-6.947c1.656-1.944,3.852-2.88,6.659-2.88C119.877,117.186,122.108,118.122,123.765,120.066z
		 M112.498,121.866c-1.008,1.368-1.476,3.06-1.476,5.147c0,2.052,0.468,3.743,1.476,5.111c1.08,1.512,2.627,2.268,4.607,2.268
		c1.943,0,3.491-0.756,4.643-2.268c0.972-1.368,1.476-3.096,1.476-5.111c0-2.088-0.504-3.78-1.476-5.147
		c-1.152-1.512-2.7-2.268-4.643-2.268C115.125,119.598,113.578,120.354,112.498,121.866z"/>
	<path class="st0" d="M152.745,110.599c5.902,0,8.854,2.52,8.854,7.559c0,5.075-2.987,7.631-8.891,7.631h-7.523V136.3h-2.951
		v-25.701H152.745z M145.186,123.233h7.379c2.088,0,3.6-0.432,4.607-1.26c0.972-0.828,1.476-2.088,1.476-3.815
		c0-1.728-0.504-2.988-1.512-3.744c-1.008-0.864-2.52-1.26-4.571-1.26h-7.379V123.233z"/>
	<path class="st0" d="M168.91,111.283c0.432,0.36,0.647,0.864,0.647,1.512c0,0.612-0.216,1.116-0.647,1.548
		c-0.433,0.396-0.937,0.612-1.548,0.612c-0.612,0-1.116-0.216-1.548-0.612c-0.433-0.432-0.612-0.936-0.612-1.548
		c0-0.648,0.18-1.152,0.612-1.512c0.432-0.432,0.936-0.612,1.548-0.612C167.974,110.671,168.478,110.851,168.91,111.283z
		 M168.802,117.69v18.61h-2.88v-18.61H168.802z"/>
	<path class="st0" d="M187.772,118.806c1.439,1.116,2.304,2.808,2.628,5.075h-2.844c-0.252-1.44-0.828-2.52-1.728-3.24
		c-0.937-0.72-2.124-1.044-3.6-1.044c-1.8,0-3.24,0.684-4.284,2.052c-1.008,1.332-1.512,3.132-1.512,5.399
		c0,2.268,0.468,4.067,1.477,5.363c0.972,1.296,2.411,1.98,4.283,1.98c3.167,0,5.003-1.62,5.436-4.823h2.879
		c-0.432,2.375-1.331,4.211-2.771,5.435c-1.403,1.188-3.239,1.8-5.543,1.8c-2.808,0-4.968-0.936-6.516-2.808
		c-1.476-1.764-2.195-4.067-2.195-6.911s0.72-5.147,2.195-6.947c1.584-1.979,3.779-2.952,6.552-2.952
		C184.533,117.186,186.368,117.726,187.772,118.806z"/>
	<path class="st0" d="M207.896,119.274c1.08,1.224,1.655,2.916,1.655,5.075V136.3h-2.699v-3.132
		c-0.72,1.008-1.691,1.836-2.844,2.484c-1.368,0.756-2.916,1.152-4.644,1.152c-1.872,0-3.348-0.468-4.463-1.404
		c-1.152-0.972-1.729-2.232-1.729-3.744c0-2.124,0.828-3.708,2.556-4.787c1.512-1.008,3.672-1.548,6.479-1.584l4.464-0.072v-0.972
		c0-3.131-1.62-4.679-4.859-4.679c-1.368,0-2.484,0.252-3.348,0.828c-0.973,0.576-1.584,1.476-1.872,2.664l-2.844-0.216
		c0.396-1.944,1.368-3.419,2.88-4.355c1.367-0.864,3.132-1.296,5.363-1.296C204.656,117.186,206.601,117.87,207.896,119.274z
		 M202.389,127.445c-4.175,0.072-6.263,1.44-6.263,4.14c0,0.864,0.324,1.548,1.044,2.124c0.72,0.54,1.655,0.828,2.808,0.828
		c1.764,0,3.312-0.576,4.679-1.728c1.332-1.116,2.017-2.412,2.017-3.852v-1.583L202.389,127.445z"/>
	<path class="st0" d="M228.235,122.981h-2.808c-0.252-1.152-0.72-2.016-1.439-2.52c-0.792-0.576-1.943-0.864-3.42-0.864
		c-1.296,0-2.304,0.216-3.023,0.72c-0.792,0.468-1.188,1.116-1.188,1.944c0,0.792,0.504,1.476,1.584,2.016
		c0.684,0.324,1.979,0.72,3.852,1.224c2.231,0.54,3.815,1.116,4.787,1.728c1.476,0.936,2.231,2.196,2.231,3.815
		c0,3.815-2.628,5.759-7.883,5.759c-4.896,0-7.559-2.16-7.991-6.443h2.808c0.216,1.476,0.756,2.52,1.548,3.168
		c0.792,0.576,1.979,0.864,3.563,0.864c3.312,0,5.004-1.08,5.004-3.167c0-1.044-0.612-1.836-1.764-2.412
		c-0.612-0.288-1.944-0.684-3.96-1.188c-2.195-0.54-3.743-1.08-4.607-1.656c-1.439-0.864-2.124-2.052-2.124-3.636
		c0-1.583,0.685-2.808,2.088-3.744c1.296-0.936,3.023-1.404,5.111-1.404C225.212,117.186,227.731,119.094,228.235,122.981z"/>
	<path class="st0" d="M246.415,122.981h-2.808c-0.252-1.152-0.72-2.016-1.439-2.52c-0.792-0.576-1.943-0.864-3.42-0.864
		c-1.296,0-2.304,0.216-3.023,0.72c-0.792,0.468-1.188,1.116-1.188,1.944c0,0.792,0.504,1.476,1.584,2.016
		c0.684,0.324,1.979,0.72,3.852,1.224c2.231,0.54,3.815,1.116,4.787,1.728c1.476,0.936,2.231,2.196,2.231,3.815
		c0,3.815-2.628,5.759-7.883,5.759c-4.896,0-7.559-2.16-7.991-6.443h2.808c0.216,1.476,0.756,2.52,1.548,3.168
		c0.792,0.576,1.979,0.864,3.563,0.864c3.312,0,5.004-1.08,5.004-3.167c0-1.044-0.612-1.836-1.764-2.412
		c-0.612-0.288-1.944-0.684-3.96-1.188c-2.195-0.54-3.743-1.08-4.607-1.656c-1.439-0.864-2.124-2.052-2.124-3.636
		c0-1.583,0.685-2.808,2.088-3.744c1.296-0.936,3.023-1.404,5.111-1.404C243.392,117.186,245.911,119.094,246.415,122.981z"/>
	<path class="st0" d="M265.352,120.066c1.583,1.835,2.375,4.139,2.375,6.947c0,2.771-0.792,5.075-2.34,6.875
		c-1.691,1.944-3.923,2.916-6.694,2.916c-2.808,0-5.004-0.972-6.659-2.916c-1.584-1.8-2.376-4.104-2.376-6.875
		c0-2.808,0.792-5.112,2.376-6.947c1.655-1.944,3.852-2.88,6.659-2.88C261.464,117.186,263.695,118.122,265.352,120.066z
		 M254.085,121.866c-1.009,1.368-1.477,3.06-1.477,5.147c0,2.052,0.468,3.743,1.477,5.111c1.079,1.512,2.627,2.268,4.607,2.268
		c1.943,0,3.491-0.756,4.643-2.268c0.973-1.368,1.477-3.096,1.477-5.111c0-2.088-0.504-3.78-1.477-5.147
		c-1.151-1.512-2.699-2.268-4.643-2.268C256.712,119.598,255.164,120.354,254.085,121.866z"/>
</g>
</svg>