<!-- Generator: Adobe Illustrator 22.0.1, SVG Export Plug-In  -->
<svg version="1.1"
	 xmlns="http://www.w3.org/2000/svg" xmlns:xlink="http://www.w3.org/1999/xlink" xmlns:a="http://ns.adobe.com/AdobeSVGViewerExtensions/3.0/"
	 x="0px" y="0px" width="163.633px" height="163.633px" viewBox="0 0 163.633 163.633"
	 style="enable-background:new 0 0 163.633 163.633;" xml:space="preserve">
<style type="text/css">
	.st0{fill:none;stroke:#F6F6F6;stroke-width:3;stroke-miterlimit:10;}
	.st1{fill:none;stroke:#F6F6F6;stroke-width:3;stroke-linecap:round;stroke-miterlimit:10;}
</style>
<defs>
</defs>
<g>
	<circle class="st0" cx="81.817" cy="81.817" r="80.317"/>
	<g>
		<path class="st1" d="M125.66,103.15c0,0-3.367-9.523-4.938-14.285c-1.241-3.76-1.782-23.853-1.954-32.138
			c-0.046-2.218-1.199-4.243-3.027-5.322L79.664,30.122c-1.818-1.072-4.034-1.049-5.831,0.062l-36.147,22.35
			c-1.811,1.12-2.925,3.176-2.925,5.4v44.762c0,2.201,1.091,4.239,2.873,5.367l35.879,22.713c1.843,1.166,4.135,1.179,5.988,0.032
			c7.182-4.449,25.138-15.431,29.774-16.945c5.835-1.905,10.324-2.619,10.324-2.619"/>
		<path class="st1" d="M42.392,58.867l31.566,19.916c1.715,1.082,3.845,1.107,5.583,0.066l31.755-19.029"/>
		<line class="st1" x1="76.929" y1="121.481" x2="76.817" y2="79.817"/>
		<path class="st1" d="M93.707,122.196c5.468,2.619,49.01,1.428,47.439-12.142c0.224-4.762-7.631-4.762-7.182-8.69
			s2.02-4.643,1.347-7.738c-0.673-3.095-11.784-7.394-15.206-8.34"/>
		<line class="st1" x1="104.225" y1="83.389" x2="93.707" y2="104.302"/>
		<line class="st1" x1="108.265" y1="92.317" x2="102.542" y2="104.302"/>
	</g>
</g>
</svg>