<!-- Generator: Adobe Illustrator 22.0.1, SVG Export Plug-In  -->
<svg version="1.1"
	 xmlns="http://www.w3.org/2000/svg" xmlns:xlink="http://www.w3.org/1999/xlink" xmlns:a="http://ns.adobe.com/AdobeSVGViewerExtensions/3.0/"
	 x="0px" y="0px" width="616.538px" height="149.061px" viewBox="0 0 616.538 149.061"
	 style="enable-background:new 0 0 616.538 149.061;" xml:space="preserve">
<style type="text/css">
	.st0{fill:#F6F6F6;}
	.st1{font-family:'PingFangTC-Medium-B5pc-H';}
	.st2{font-size:55px;}
</style>
<defs>
</defs>
<g>
	<path class="st0" d="M158.231,8.035v16.553h20.567V8.035h5.994v39.266h-5.994V29.703h-20.567v17.598h-5.994V8.035H158.231z"/>
	<path class="st0" d="M213.999,21.234c1.705,1.814,2.584,4.453,2.584,7.918v18.148h-5.389v-4.016c-1.1,1.431-2.475,2.586-4.125,3.41
		c-1.87,0.88-4.069,1.375-6.599,1.375c-2.969,0-5.279-0.77-6.929-2.255c-1.815-1.485-2.695-3.409-2.695-5.774
		c0-3.189,1.265-5.664,3.794-7.369c2.31-1.649,5.609-2.475,9.789-2.584l6.379-0.166v-1.154c0-3.959-2.145-5.939-6.434-5.939
		c-1.815,0-3.3,0.33-4.399,0.99c-1.32,0.77-2.145,1.925-2.475,3.52l-5.774-0.494c0.605-3.08,2.145-5.391,4.564-6.82
		c2.09-1.319,4.949-1.924,8.469-1.924C208.939,18.1,212.019,19.145,213.999,21.234z M204.815,34.322
		c-5.334,0.109-7.974,1.979-7.974,5.499c0,1.101,0.44,1.979,1.375,2.694c0.88,0.715,2.09,1.1,3.574,1.1
		c2.475,0,4.564-0.77,6.324-2.254s2.695-3.355,2.695-5.555v-1.649L204.815,34.322z"/>
	<path class="st0" d="M248.262,29.758v17.543h-5.829V30.252c0-4.839-2.255-7.258-6.654-7.258c-1.65,0-3.135,0.549-4.344,1.76
		c-1.32,1.319-2.145,3.134-2.365,5.443v17.104h-5.83V18.869h5.83v3.52c1.1-1.43,2.365-2.475,3.794-3.189
		c1.43-0.77,3.024-1.1,4.784-1.1C244.688,18.1,248.262,21.949,248.262,29.758z"/>
	<path class="st0" d="M281.207,7.266v40.035h-5.444v-3.41c-1.979,2.75-4.949,4.18-8.799,4.18c-4.179,0-7.479-1.484-9.843-4.455
		c-2.2-2.749-3.3-6.324-3.3-10.668c0-4.18,1.045-7.645,3.245-10.394c2.31-2.97,5.554-4.454,9.624-4.454
		c3.465,0,6.379,1.649,8.689,5.004V7.266H281.207z M261.629,25.743c-1.21,1.649-1.815,4.069-1.815,7.204s0.55,5.555,1.705,7.314
		c1.319,2.034,3.464,3.079,6.324,3.079c2.53,0,4.455-1.045,5.884-3.024c1.21-1.814,1.815-4.125,1.815-6.984v-0.494
		c0-3.08-0.77-5.555-2.2-7.425c-1.43-1.76-3.189-2.585-5.334-2.585C265.149,22.828,263.004,23.764,261.629,25.743z"/>
	<path class="st0" d="M320.972,8.035c6.324,0,11.109,1.76,14.408,5.334c3.08,3.301,4.62,8.084,4.62,14.299
		c0,6.159-1.596,10.943-4.729,14.354c-3.3,3.52-8.084,5.279-14.408,5.279h-14.188V8.035H320.972z M312.668,42.186h7.095
		c4.949,0,8.634-1.209,10.943-3.574c2.255-2.365,3.409-5.994,3.409-10.943c0-5.06-1.154-8.689-3.354-10.998
		c-2.31-2.365-5.939-3.52-10.889-3.52h-7.204V42.186z"/>
	<path class="st0" d="M362.441,18.814v5.828c-1.43-0.439-2.805-0.604-4.124-0.604c-1.76,0-3.355,0.715-4.729,2.145
		c-1.485,1.539-2.2,3.574-2.2,6.049v15.068h-5.829V18.869h5.829v4.289c0.715-1.539,1.65-2.694,2.75-3.465
		c1.319-1.1,2.859-1.594,4.619-1.594C360.187,18.1,361.451,18.319,362.441,18.814z"/>
	<path class="st0" d="M388.07,21.234c1.705,1.814,2.585,4.453,2.585,7.918v18.148h-5.39v-4.016c-1.1,1.431-2.475,2.586-4.124,3.41
		c-1.87,0.88-4.069,1.375-6.6,1.375c-2.969,0-5.279-0.77-6.929-2.255c-1.814-1.485-2.694-3.409-2.694-5.774
		c0-3.189,1.265-5.664,3.794-7.369c2.31-1.649,5.609-2.475,9.789-2.584l6.379-0.166v-1.154c0-3.959-2.145-5.939-6.434-5.939
		c-1.815,0-3.3,0.33-4.399,0.99c-1.32,0.77-2.146,1.925-2.475,3.52l-5.774-0.494c0.604-3.08,2.145-5.391,4.564-6.82
		c2.09-1.319,4.949-1.924,8.469-1.924C383.012,18.1,386.091,19.145,388.07,21.234z M378.887,34.322
		c-5.334,0.109-7.974,1.979-7.974,5.499c0,1.101,0.439,1.979,1.375,2.694c0.88,0.715,2.09,1.1,3.574,1.1
		c2.475,0,4.564-0.77,6.324-2.254s2.694-3.355,2.694-5.555v-1.649L378.887,34.322z"/>
	<path class="st0" d="M400.722,18.869l5.994,21.502l5.83-21.502h5.389l5.829,21.502l5.994-21.502h6.435l-9.624,28.432h-5.389
		l-5.939-21.283l-5.939,21.283h-5.389l-9.624-28.432H400.722z"/>
	<path class="st0" d="M464.794,29.758v17.543h-5.829V30.252c0-4.839-2.255-7.258-6.654-7.258c-1.65,0-3.135,0.549-4.345,1.76
		c-1.319,1.319-2.145,3.134-2.364,5.443v17.104h-5.829V18.869h5.829v3.52c1.1-1.43,2.364-2.475,3.794-3.189
		c1.43-0.77,3.024-1.1,4.784-1.1C461.219,18.1,464.794,21.949,464.794,29.758z"/>
	<path class="st0" d="M28.321,99.18c2.75,2.035,4.29,5.17,4.674,9.459h-5.939c-0.55-2.529-1.54-4.398-3.08-5.499
		c-1.54-1.155-3.739-1.704-6.709-1.704c-2.584,0-4.564,0.385-5.939,1.154c-1.705,0.88-2.53,2.31-2.53,4.289
		c0,1.76,0.935,3.135,2.915,4.18c0.88,0.495,3.135,1.32,6.819,2.42c5.279,1.649,8.744,2.914,10.284,3.85
		c3.354,2.035,5.059,4.839,5.059,8.469c0,3.52-1.375,6.27-4.125,8.304c-2.75,1.979-6.599,2.97-11.548,2.97
		c-4.785,0-8.524-0.99-11.219-2.859c-3.245-2.311-5.004-5.939-5.334-10.889h5.939c0.44,3.08,1.54,5.334,3.3,6.654
		c1.595,1.209,4.014,1.814,7.314,1.814c2.97,0,5.334-0.551,7.094-1.54s2.64-2.364,2.64-4.124c0-2.2-1.265-3.904-3.74-5.17
		c-0.88-0.439-3.464-1.319-7.809-2.639c-4.839-1.541-7.809-2.586-9.019-3.245c-3.025-1.815-4.51-4.454-4.51-7.864
		c0-3.465,1.43-6.159,4.345-8.139c2.75-1.869,6.214-2.805,10.394-2.805C22.162,96.266,25.736,97.201,28.321,99.18z"/>
	<path class="st0" d="M47.518,107.869h6.489v4.84h-6.489v16.497c0,0.771,0.165,1.319,0.495,1.705c0.33,0.329,0.825,0.55,1.54,0.55
		h3.739v4.84h-4.674c-2.419,0-4.234-0.66-5.334-1.926c-1.1-1.209-1.595-2.914-1.595-5.169v-16.497h-5.279v-4.84h5.279v-6.764
		l5.83-2.42V107.869z"/>
	<path class="st0" d="M82.11,111.389c2.53,2.805,3.849,6.379,3.849,10.724c0,4.29-1.265,7.864-3.794,10.613
		c-2.64,2.86-6.104,4.345-10.394,4.345s-7.754-1.484-10.394-4.345c-2.53-2.749-3.794-6.323-3.794-10.613
		c0-4.345,1.265-7.919,3.85-10.724c2.584-2.859,6.049-4.289,10.338-4.289S79.525,108.529,82.11,111.389z M65.502,115.073
		c-1.32,1.814-1.925,4.179-1.925,7.039c0,2.859,0.605,5.169,1.925,6.983c1.485,2.09,3.575,3.189,6.269,3.189
		c2.695,0,4.785-1.1,6.324-3.189c1.32-1.869,1.98-4.179,1.98-6.983c0-2.86-0.66-5.225-1.98-7.039c-1.54-2.146-3.629-3.19-6.324-3.19
		C69.077,111.883,66.987,112.928,65.502,115.073z"/>
	<path class="st0" d="M115.604,111.554c2.2,2.749,3.3,6.269,3.3,10.669c0,4.18-1.1,7.644-3.245,10.393
		c-2.31,2.971-5.554,4.455-9.624,4.455c-3.52,0-6.379-1.65-8.688-4.949v15.068h-5.829v-39.32h5.444v3.41
		c1.98-2.805,4.95-4.18,8.799-4.18C109.94,107.1,113.185,108.584,115.604,111.554z M98.996,114.854
		c-1.209,1.76-1.814,4.124-1.814,7.039v0.494c0,3.025,0.715,5.5,2.255,7.369c1.319,1.705,3.079,2.585,5.279,2.585
		c2.859,0,4.949-0.935,6.324-2.805c1.21-1.76,1.87-4.179,1.87-7.313s-0.605-5.555-1.705-7.314c-1.375-2.09-3.464-3.08-6.324-3.08
		C102.351,111.828,100.371,112.818,98.996,114.854z"/>
	<path class="st0" d="M151.628,119.638v4.839h-27.771v-4.839H151.628z"/>
	<path class="st0" d="M165.325,97.035l13.693,31.456h0.165l13.638-31.456h7.094v39.266h-5.995v-28.047h-0.22l-12.043,28.047h-5.169
		l-12.043-28.047h-0.22v28.047h-5.994V97.035H165.325z"/>
	<path class="st0" d="M230.499,111.389c2.53,2.805,3.849,6.379,3.849,10.724c0,4.29-1.265,7.864-3.794,10.613
		c-2.64,2.86-6.104,4.345-10.394,4.345s-7.754-1.484-10.394-4.345c-2.53-2.749-3.794-6.323-3.794-10.613
		c0-4.345,1.265-7.919,3.85-10.724c2.584-2.859,6.049-4.289,10.338-4.289S227.914,108.529,230.499,111.389z M213.891,115.073
		c-1.32,1.814-1.925,4.179-1.925,7.039c0,2.859,0.605,5.169,1.925,6.983c1.485,2.09,3.575,3.189,6.269,3.189
		c2.695,0,4.785-1.1,6.324-3.189c1.32-1.869,1.98-4.179,1.98-6.983c0-2.86-0.66-5.225-1.98-7.039c-1.54-2.146-3.629-3.19-6.324-3.19
		C217.465,111.883,215.375,112.928,213.891,115.073z"/>
	<path class="st0" d="M248.54,107.869h6.489v4.84h-6.489v16.497c0,0.771,0.165,1.319,0.495,1.705c0.33,0.329,0.825,0.55,1.54,0.55
		h3.739v4.84h-4.674c-2.419,0-4.234-0.66-5.334-1.926c-1.1-1.209-1.595-2.914-1.595-5.169v-16.497h-5.279v-4.84h5.279v-6.764
		l5.83-2.42V107.869z"/>
	<path class="st0" d="M266.744,97.586c0.77,0.715,1.155,1.649,1.155,2.805c0,1.154-0.44,2.09-1.21,2.859
		c-0.77,0.715-1.76,1.1-2.86,1.1c-1.155,0-2.089-0.385-2.859-1.1c-0.77-0.77-1.155-1.76-1.155-2.859c0-1.155,0.385-2.09,1.155-2.805
		c0.77-0.771,1.705-1.1,2.859-1.1C264.984,96.486,265.974,96.815,266.744,97.586z M266.744,107.869v28.432h-5.83v-28.432H266.744z"
		/>
	<path class="st0" d="M298.037,111.389c2.53,2.805,3.849,6.379,3.849,10.724c0,4.29-1.265,7.864-3.794,10.613
		c-2.64,2.86-6.104,4.345-10.394,4.345s-7.754-1.484-10.394-4.345c-2.53-2.749-3.794-6.323-3.794-10.613
		c0-4.345,1.265-7.919,3.85-10.724c2.584-2.859,6.049-4.289,10.338-4.289S295.452,108.529,298.037,111.389z M281.429,115.073
		c-1.32,1.814-1.925,4.179-1.925,7.039c0,2.859,0.605,5.169,1.925,6.983c1.485,2.09,3.575,3.189,6.269,3.189
		c2.695,0,4.785-1.1,6.324-3.189c1.32-1.869,1.98-4.179,1.98-6.983c0-2.86-0.66-5.225-1.98-7.039c-1.54-2.146-3.629-3.19-6.324-3.19
		C285.003,111.883,282.914,112.928,281.429,115.073z"/>
	<path class="st0" d="M332.465,118.758v17.543h-5.829v-17.049c0-4.839-2.255-7.258-6.654-7.258c-1.649,0-3.135,0.549-4.344,1.76
		c-1.32,1.319-2.146,3.134-2.365,5.443v17.104h-5.829v-28.432h5.829v3.52c1.1-1.43,2.365-2.475,3.795-3.189
		c1.43-0.77,3.024-1.1,4.784-1.1C328.891,107.1,332.465,110.949,332.465,118.758z"/>
	<path class="st0" d="M376.08,97.035l15.123,39.266h-6.435l-3.685-10.119h-16.883l-3.684,10.119h-6.38l15.123-39.266H376.08z
		 M379.27,121.232l-6.489-17.763h-0.22l-6.544,17.763H379.27z"/>
	<path class="st0" d="M419.529,118.758v17.543H413.7v-17.049c0-4.839-2.255-7.258-6.654-7.258c-1.65,0-3.135,0.549-4.345,1.76
		c-1.319,1.319-2.145,3.134-2.364,5.443v17.104h-5.829v-28.432h5.829v3.52c1.1-1.43,2.364-2.475,3.794-3.189
		c1.43-0.77,3.024-1.1,4.784-1.1C415.954,107.1,419.529,110.949,419.529,118.758z"/>
	<path class="st0" d="M433.226,97.586c0.77,0.715,1.155,1.649,1.155,2.805c0,1.154-0.44,2.09-1.21,2.859
		c-0.771,0.715-1.76,1.1-2.86,1.1c-1.154,0-2.089-0.385-2.859-1.1c-0.77-0.77-1.154-1.76-1.154-2.859
		c0-1.155,0.385-2.09,1.154-2.805c0.771-0.771,1.705-1.1,2.859-1.1C431.466,96.486,432.456,96.815,433.226,97.586z M433.226,107.869
		v28.432h-5.829v-28.432H433.226z"/>
	<path class="st0" d="M463.693,111.883c1.265-1.76,2.64-3.023,4.069-3.738c1.32-0.715,2.915-1.045,4.84-1.045
		c2.914,0,5.334,0.935,7.259,2.914c1.869,1.925,2.859,4.455,2.859,7.645v18.643h-5.829v-17.653c0-2.31-0.495-4.015-1.484-5.06
		c-0.99-1.1-2.64-1.594-4.84-1.594c-1.649,0-2.97,0.604-4.069,1.814c-1.1,1.209-1.649,2.914-1.649,5.004v17.488h-5.83v-17.598
		c0-4.51-1.979-6.709-5.829-6.709c-1.869,0-3.409,0.715-4.509,2.145c-1.21,1.375-1.76,3.079-1.76,5.059v17.104h-5.829v-28.432h5.829
		v3.135c2.31-2.641,4.949-3.904,7.809-3.904C458.909,107.1,461.934,108.693,463.693,111.883z"/>
	<path class="st0" d="M511.378,110.234c1.705,1.814,2.585,4.453,2.585,7.918v18.148h-5.39v-4.016c-1.1,1.431-2.475,2.586-4.124,3.41
		c-1.87,0.88-4.069,1.375-6.6,1.375c-2.969,0-5.279-0.77-6.929-2.255c-1.814-1.485-2.694-3.409-2.694-5.774
		c0-3.189,1.265-5.664,3.794-7.369c2.31-1.649,5.609-2.475,9.789-2.584l6.379-0.166v-1.154c0-3.959-2.145-5.939-6.434-5.939
		c-1.815,0-3.3,0.33-4.399,0.99c-1.32,0.77-2.146,1.925-2.475,3.52l-5.774-0.494c0.604-3.08,2.145-5.391,4.564-6.82
		c2.09-1.319,4.949-1.924,8.469-1.924C506.319,107.1,509.398,108.145,511.378,110.234z M502.194,123.322
		c-5.334,0.109-7.974,1.979-7.974,5.499c0,1.101,0.439,1.979,1.375,2.694c0.88,0.715,2.09,1.1,3.574,1.1
		c2.475,0,4.564-0.77,6.324-2.254s2.694-3.355,2.694-5.555v-1.649L502.194,123.322z"/>
	<path class="st0" d="M529.255,107.869h6.488v4.84h-6.488v16.497c0,0.771,0.165,1.319,0.494,1.705c0.33,0.329,0.825,0.55,1.54,0.55
		h3.739v4.84h-4.674c-2.42,0-4.234-0.66-5.334-1.926c-1.101-1.209-1.596-2.914-1.596-5.169v-16.497h-5.279v-4.84h5.279v-6.764
		l5.83-2.42V107.869z"/>
	<path class="st0" d="M547.459,97.586c0.77,0.715,1.154,1.649,1.154,2.805c0,1.154-0.439,2.09-1.21,2.859
		c-0.77,0.715-1.76,1.1-2.859,1.1c-1.155,0-2.09-0.385-2.859-1.1c-0.771-0.77-1.155-1.76-1.155-2.859
		c0-1.155,0.385-2.09,1.155-2.805c0.77-0.771,1.704-1.1,2.859-1.1S546.688,96.815,547.459,97.586z M547.459,107.869v28.432h-5.83
		v-28.432H547.459z"/>
	<path class="st0" d="M578.751,111.389c2.53,2.805,3.85,6.379,3.85,10.724c0,4.29-1.265,7.864-3.795,10.613
		c-2.64,2.86-6.104,4.345-10.394,4.345c-4.289,0-7.754-1.484-10.394-4.345c-2.529-2.749-3.794-6.323-3.794-10.613
		c0-4.345,1.265-7.919,3.85-10.724c2.584-2.859,6.049-4.289,10.338-4.289C572.702,107.1,576.166,108.529,578.751,111.389z
		 M562.144,115.073c-1.32,1.814-1.925,4.179-1.925,7.039c0,2.859,0.604,5.169,1.925,6.983c1.484,2.09,3.574,3.189,6.269,3.189
		c2.695,0,4.785-1.1,6.324-3.189c1.32-1.869,1.98-4.179,1.98-6.983c0-2.86-0.66-5.225-1.98-7.039
		c-1.539-2.146-3.629-3.19-6.324-3.19C565.718,111.883,563.628,112.928,562.144,115.073z"/>
	<path class="st0" d="M613.181,118.758v17.543h-5.829v-17.049c0-4.839-2.255-7.258-6.654-7.258c-1.65,0-3.135,0.549-4.345,1.76
		c-1.319,1.319-2.145,3.134-2.364,5.443v17.104h-5.829v-28.432h5.829v3.52c1.1-1.43,2.364-2.475,3.794-3.189
		c1.43-0.77,3.024-1.1,4.784-1.1C609.605,107.1,613.181,110.949,613.181,118.758z"/>
</g>
</svg>