<!-- Generator: Adobe Illustrator 22.0.1, SVG Export Plug-In  -->
<svg version="1.1"
	 xmlns="http://www.w3.org/2000/svg" xmlns:xlink="http://www.w3.org/1999/xlink" xmlns:a="http://ns.adobe.com/AdobeSVGViewerExtensions/3.0/"
	 x="0px" y="0px" width="519.691px" height="149.672px" viewBox="0 0 519.691 149.672"
	 style="enable-background:new 0 0 519.691 149.672;" xml:space="preserve">
<style type="text/css">
	.st0{fill:none;stroke:#575756;stroke-width:3;stroke-linecap:round;stroke-miterlimit:10;}
	.st1{fill:none;stroke:#575756;stroke-width:3;stroke-linecap:round;stroke-linejoin:round;stroke-miterlimit:10;}
	.st2{fill:#3C3C3B;stroke:#575756;stroke-miterlimit:10;}
</style>
<defs>
</defs>
<g>
	<g>
		<circle class="st0" cx="72.277" cy="77.395" r="70.777"/>
		<line class="st0" x1="122.324" y1="27.348" x2="22.23" y2="127.442"/>
	</g>
	<g>
		<line class="st1" x1="73.835" y1="27.879" x2="73.835" y2="47.82"/>
		<path class="st1" d="M46.071,47.82h52.412c0.586,0,1.06,0.475,1.06,1.06v6.916c0,0.586-0.475,1.06-1.06,1.06H46.071
			c-0.586,0-1.06-0.475-1.06-1.06V48.88C45.011,48.295,45.486,47.82,46.071,47.82z"/>
		<path class="st1" d="M48.75,56.857l5.094,65.322c0.115,1.473,1.344,2.61,2.822,2.61h31.36c1.475,0,2.703-1.133,2.821-2.603
			l5.269-65.329"/>
		<line class="st1" x1="66.201" y1="65.568" x2="58.099" y2="73.996"/>
		<line class="st1" x1="72.433" y1="71.191" x2="60.28" y2="83.967"/>
	</g>
</g>
<g>
	<g>
		<circle class="st0" cx="254.345" cy="77.395" r="70.777"/>
		<line class="st0" x1="304.392" y1="27.348" x2="204.298" y2="127.442"/>
	</g>
	<g>
		<path class="st1" d="M216.161,65.326h77.968c-2.72-10.199-8.329-31.731-37.568-31.561
			C227.324,33.934,220.127,51.16,216.161,65.326z"/>
		<path class="st1" d="M215.254,70.312c3.74,0,7.31,4.08,11.559,3.91c4.25-0.17,5.95-3.74,11.389-3.91s7.82,4.26,12.239,3.915
			c4.42-0.345,6.12-4.094,10.709-3.92c4.59,0.175,6.46,4.133,11.389,3.939s5.44-3.945,10.369-3.945s7.31,3.75,11.219,3.41"/>
		<path class="st1" d="M215.254,93.93c3.74,0,7.31,4.08,11.559,3.91c4.25-0.17,5.95-3.74,11.389-3.91
			c5.44-0.17,7.82,4.26,12.239,3.915s6.12-4.094,10.709-3.92c4.59,0.175,6.46,4.133,11.389,3.939s5.44-3.945,10.369-3.945
			s7.31,3.75,11.219,3.41"/>
		<path class="st1" d="M216.161,83.741c0,4.25,2.153,6.29,6.573,6.29s66.976,0,66.976,0s4.42-1.02,4.42-6.29s-6.12-4.93-8.669-4.93
			s-63.236-0.004-63.236-0.004S216.161,78.641,216.161,83.741z"/>
		<path class="st1" d="M216.161,101.76h77.968c0,6.46-7.99,15.979-16.659,15.979c0,0-43.517,0.17-44.027,0
			c-0.51-0.17-1.53,0.17-6.29-1.36C222.394,114.849,216.728,107.71,216.161,101.76z"/>
		<circle class="st2" cx="235.143" cy="51.273" r="0.935"/>
		<circle class="st2" cx="242.963" cy="42.774" r="0.935"/>
		<circle class="st2" cx="274.921" cy="51.273" r="0.935"/>
		<circle class="st2" cx="261.661" cy="51.273" r="0.935"/>
		<circle class="st2" cx="268.121" cy="42.774" r="0.935"/>
		<circle class="st2" cx="248.572" cy="51.273" r="0.935"/>
		<circle class="st2" cx="255.542" cy="42.774" r="0.935"/>
	</g>
</g>
<g>
	<circle class="st0" cx="447.414" cy="72.277" r="70.777"/>
	<g>
		<path class="st1" d="M428.636,28.735h37.912c3.181,0,5.76,2.672,5.76,5.968v75.149c0,3.296-2.579,5.968-5.76,5.968h-37.912
			c-3.181,0-5.76-2.672-5.76-5.968V34.703C422.876,31.407,425.455,28.735,428.636,28.735z"/>
		<line class="st1" x1="422.876" y1="41.677" x2="472.308" y2="41.677"/>
		<line class="st1" x1="440.543" y1="35.206" x2="455.176" y2="35.206"/>
		<line class="st1" x1="422.876" y1="103.432" x2="472.308" y2="103.432"/>
		<line class="st1" x1="444.469" y1="109.533" x2="450.358" y2="109.533"/>
	</g>
</g>
</svg>