<!-- Generator: Adobe Illustrator 22.0.1, SVG Export Plug-In  -->
<svg version="1.1"
	 xmlns="http://www.w3.org/2000/svg" xmlns:xlink="http://www.w3.org/1999/xlink" xmlns:a="http://ns.adobe.com/AdobeSVGViewerExtensions/3.0/"
	 x="0px" y="0px" width="783.787px" height="494.674px" viewBox="0 0 783.787 494.674"
	 style="enable-background:new 0 0 783.787 494.674;" xml:space="preserve">
<style type="text/css">
	.st0{fill:none;}
	.st1{fill:#F6F6F6;}
	.st2{font-family:'PingFangTC-Regular-B5pc-H';}
	.st3{font-size:36px;}
	.st4{letter-spacing:14;}
	.st5{letter-spacing:21;}
	.st6{letter-spacing:2;}
</style>
<defs>
</defs>
<g>
	<rect x="0" y="4.751" class="st0" width="771.798" height="489.923"/>
	<path class="st1" d="M5.543,5.26v11.158H20.41V5.26h2.951v25.7H20.41V18.974H5.543V30.96H2.592V5.26H5.543z"/>
	<path class="st1" d="M42.153,13.934c1.08,1.225,1.656,2.916,1.656,5.076v11.95h-2.7v-3.132c-0.72,1.008-1.691,1.836-2.843,2.484
		c-1.368,0.756-2.916,1.151-4.644,1.151c-1.872,0-3.348-0.468-4.463-1.403c-1.152-0.973-1.728-2.232-1.728-3.744
		c0-2.123,0.828-3.707,2.556-4.787c1.512-1.008,3.672-1.548,6.479-1.584l4.463-0.072v-0.972c0-3.132-1.62-4.679-4.859-4.679
		c-1.368,0-2.484,0.252-3.348,0.827c-0.972,0.576-1.584,1.476-1.872,2.664l-2.843-0.216c0.396-1.944,1.368-3.42,2.879-4.355
		c1.368-0.864,3.132-1.297,5.363-1.297C38.914,11.846,40.857,12.53,42.153,13.934z M36.646,22.105
		c-4.175,0.072-6.263,1.439-6.263,4.139c0,0.864,0.324,1.549,1.044,2.124c0.72,0.54,1.656,0.828,2.808,0.828
		c1.764,0,3.312-0.576,4.679-1.728c1.332-1.116,2.016-2.412,2.016-3.852v-1.584L36.646,22.105z"/>
	<path class="st1" d="M63.933,19.514V30.96h-2.879v-11.23c0-3.636-1.656-5.436-4.896-5.436c-1.296,0-2.412,0.468-3.348,1.403
		c-1.008,1.008-1.548,2.34-1.656,4.032v11.23h-2.879V12.35h2.879v2.736c0.648-1.044,1.476-1.836,2.484-2.375
		c1.008-0.576,2.124-0.865,3.347-0.865C61.593,11.846,63.933,14.402,63.933,19.514z"/>
	<path class="st1" d="M85.028,4.756V30.96h-2.7V27.9c-1.296,2.375-3.384,3.563-6.191,3.563c-2.736,0-4.859-1.008-6.371-2.952
		c-1.404-1.799-2.088-4.104-2.088-6.91c0-2.736,0.684-4.968,2.088-6.768c1.512-2.016,3.563-2.988,6.227-2.988
		s4.715,1.297,6.155,3.924V4.756H85.028z M71.998,16.382c-0.936,1.26-1.368,2.987-1.368,5.22c0,2.231,0.432,3.995,1.332,5.291
		c1.008,1.439,2.52,2.195,4.535,2.195c1.872,0,3.312-0.72,4.355-2.159c0.9-1.296,1.368-2.987,1.368-5.075v-0.36
		c0-2.159-0.54-3.923-1.548-5.255c-1.044-1.368-2.412-2.016-4.068-2.016C74.553,14.223,73.006,14.941,71.998,16.382z"/>
	<path class="st1" d="M107.24,20.413v2.448H89.062v-2.448H107.24z"/>
	<path class="st1" d="M127.904,4.756V30.96h-2.7V27.9c-1.296,2.375-3.384,3.563-6.191,3.563c-2.736,0-4.859-1.008-6.371-2.952
		c-1.404-1.799-2.088-4.104-2.088-6.91c0-2.736,0.684-4.968,2.088-6.768c1.512-2.016,3.563-2.988,6.227-2.988
		s4.715,1.297,6.155,3.924V4.756H127.904z M114.874,16.382c-0.936,1.26-1.368,2.987-1.368,5.22c0,2.231,0.432,3.995,1.332,5.291
		c1.008,1.439,2.52,2.195,4.535,2.195c1.872,0,3.312-0.72,4.355-2.159c0.9-1.296,1.368-2.987,1.368-5.075v-0.36
		c0-2.159-0.54-3.923-1.548-5.255c-1.044-1.368-2.412-2.016-4.068-2.016C117.429,14.223,115.882,14.941,114.874,16.382z"/>
	<path class="st1" d="M143.097,12.278v2.88c-0.936-0.288-1.872-0.396-2.772-0.396c-1.439,0-2.664,0.612-3.635,1.908
		c-1.008,1.224-1.476,2.699-1.476,4.428v9.862h-2.843V12.35h2.843v3.24c0.504-1.08,1.152-1.943,1.944-2.556
		c0.972-0.792,2.088-1.188,3.384-1.188C141.549,11.846,142.413,11.99,143.097,12.278z"/>
	<path class="st1" d="M159.512,13.934c1.08,1.225,1.656,2.916,1.656,5.076v11.95h-2.7v-3.132c-0.72,1.008-1.691,1.836-2.843,2.484
		c-1.368,0.756-2.916,1.151-4.644,1.151c-1.872,0-3.348-0.468-4.463-1.403c-1.152-0.973-1.728-2.232-1.728-3.744
		c0-2.123,0.828-3.707,2.556-4.787c1.512-1.008,3.672-1.548,6.479-1.584l4.463-0.072v-0.972c0-3.132-1.62-4.679-4.859-4.679
		c-1.368,0-2.484,0.252-3.348,0.827c-0.972,0.576-1.584,1.476-1.872,2.664l-2.843-0.216c0.396-1.944,1.368-3.42,2.879-4.355
		c1.368-0.864,3.132-1.297,5.363-1.297C156.272,11.846,158.216,12.53,159.512,13.934z M154.005,22.105
		c-4.175,0.072-6.263,1.439-6.263,4.139c0,0.864,0.324,1.549,1.044,2.124c0.72,0.54,1.656,0.828,2.808,0.828
		c1.764,0,3.312-0.576,4.679-1.728c1.332-1.116,2.016-2.412,2.016-3.852v-1.584L154.005,22.105z"/>
	<path class="st1" d="M166.75,12.35l4.571,15.083l4.319-15.083h2.7l4.32,15.083l4.571-15.083h3.167l-6.335,18.61h-2.736
		l-4.319-14.974l-4.392,14.974h-2.7l-6.335-18.61H166.75z"/>
	<path class="st1" d="M196.737,5.943c0.432,0.359,0.648,0.863,0.648,1.512c0,0.611-0.216,1.115-0.648,1.548
		c-0.432,0.396-0.936,0.612-1.548,0.612s-1.116-0.217-1.548-0.612c-0.432-0.433-0.612-0.937-0.612-1.548
		c0-0.648,0.18-1.152,0.612-1.512c0.432-0.432,0.936-0.612,1.548-0.612S196.305,5.512,196.737,5.943z M196.629,12.35v18.61h-2.88
		V12.35H196.629z"/>
	<path class="st1" d="M217.687,19.514V30.96h-2.879v-11.23c0-3.636-1.656-5.436-4.896-5.436c-1.296,0-2.412,0.468-3.348,1.403
		c-1.008,1.008-1.548,2.34-1.656,4.032v11.23h-2.879V12.35h2.879v2.736c0.648-1.044,1.476-1.836,2.484-2.375
		c1.008-0.576,2.124-0.865,3.348-0.865C215.348,11.846,217.687,14.402,217.687,19.514z"/>
	<path class="st1" d="M236.083,15.554V12.35h2.879v17.314c0,5.939-2.844,8.927-8.495,8.927c-2.52,0-4.464-0.504-5.759-1.512
		c-1.332-1.008-2.16-2.52-2.484-4.535h2.88c0.216,1.26,0.756,2.195,1.583,2.771c0.828,0.612,2.088,0.937,3.78,0.937
		c3.743,0,5.615-2.088,5.615-6.191v-3.275c-1.368,2.482-3.456,3.742-6.263,3.742c-2.592,0-4.644-0.899-6.155-2.663
		c-1.512-1.728-2.232-3.923-2.232-6.623c0-2.735,0.72-4.932,2.232-6.659c1.512-1.836,3.563-2.736,6.155-2.736
		C232.627,11.846,234.715,13.07,236.083,15.554z M225.896,16.238c-1.008,1.223-1.512,2.915-1.512,5.003
		c0,1.944,0.432,3.563,1.332,4.788c1.008,1.367,2.483,2.087,4.5,2.087c1.872,0,3.312-0.647,4.391-1.944
		c1.008-1.26,1.512-2.915,1.512-4.931c0-2.088-0.504-3.78-1.512-5.003c-1.08-1.368-2.52-2.016-4.355-2.016
		C228.38,14.223,226.94,14.87,225.896,16.238z"/>
	<path class="st1" d="M273.156,4.756V15.77c1.44-2.627,3.492-3.924,6.155-3.924c2.627,0,4.715,0.973,6.227,2.988
		c1.368,1.8,2.088,4.031,2.088,6.768c0,2.807-0.72,5.111-2.088,6.91c-1.548,1.944-3.671,2.952-6.371,2.952
		c-2.879,0-4.931-1.188-6.191-3.563v3.06h-2.699V4.756H273.156z M274.632,16.238c-1.08,1.332-1.584,3.096-1.584,5.255v0.36
		c0,2.088,0.468,3.779,1.404,5.075c1.008,1.439,2.484,2.159,4.355,2.159c2.016,0,3.527-0.756,4.535-2.195
		c0.864-1.296,1.332-3.06,1.332-5.291c0-2.232-0.468-3.96-1.404-5.22c-1.044-1.44-2.556-2.159-4.571-2.159
		C277.007,14.223,275.64,14.87,274.632,16.238z"/>
	<path class="st1" d="M302.099,12.278v2.88c-0.936-0.288-1.872-0.396-2.772-0.396c-1.439,0-2.664,0.612-3.635,1.908
		c-1.008,1.224-1.476,2.699-1.476,4.428v9.862h-2.843V12.35h2.843v3.24c0.504-1.08,1.152-1.943,1.944-2.556
		c0.972-0.792,2.088-1.188,3.384-1.188C300.551,11.846,301.415,11.99,302.099,12.278z"/>
	<path class="st1" d="M308.436,5.943c0.432,0.359,0.648,0.863,0.648,1.512c0,0.611-0.216,1.115-0.648,1.548
		c-0.432,0.396-0.936,0.612-1.548,0.612s-1.116-0.217-1.548-0.612c-0.432-0.433-0.612-0.937-0.612-1.548
		c0-0.648,0.18-1.152,0.612-1.512c0.432-0.432,0.936-0.612,1.548-0.612S308.003,5.512,308.436,5.943z M308.328,12.35v18.61h-2.88
		V12.35H308.328z"/>
	<path class="st1" d="M329.386,19.514V30.96h-2.879v-11.23c0-3.636-1.656-5.436-4.896-5.436c-1.296,0-2.412,0.468-3.348,1.403
		c-1.008,1.008-1.548,2.34-1.656,4.032v11.23h-2.879V12.35h2.879v2.736c0.648-1.044,1.476-1.836,2.484-2.375
		c1.008-0.576,2.124-0.865,3.347-0.865C327.046,11.846,329.386,14.402,329.386,19.514z"/>
	<path class="st1" d="M347.782,15.554V12.35h2.879v17.314c0,5.939-2.844,8.927-8.495,8.927c-2.52,0-4.464-0.504-5.759-1.512
		c-1.332-1.008-2.16-2.52-2.484-4.535h2.879c0.216,1.26,0.756,2.195,1.584,2.771c0.828,0.612,2.088,0.937,3.78,0.937
		c3.743,0,5.615-2.088,5.615-6.191v-3.275c-1.368,2.482-3.456,3.742-6.263,3.742c-2.592,0-4.644-0.899-6.155-2.663
		c-1.512-1.728-2.232-3.923-2.232-6.623c0-2.735,0.72-4.932,2.232-6.659c1.512-1.836,3.563-2.736,6.155-2.736
		C344.326,11.846,346.414,13.07,347.782,15.554z M337.595,16.238c-1.008,1.223-1.512,2.915-1.512,5.003
		c0,1.944,0.432,3.563,1.332,4.788c1.008,1.367,2.483,2.087,4.5,2.087c1.872,0,3.312-0.647,4.391-1.944
		c1.008-1.26,1.512-2.915,1.512-4.931c0-2.088-0.504-3.78-1.512-5.003c-1.08-1.368-2.52-2.016-4.355-2.016
		C340.079,14.223,338.639,14.87,337.595,16.238z"/>
	<path class="st1" d="M369.345,17.642h-2.808c-0.252-1.151-0.72-2.016-1.439-2.52c-0.792-0.576-1.944-0.864-3.42-0.864
		c-1.296,0-2.304,0.217-3.023,0.721c-0.792,0.467-1.188,1.115-1.188,1.943c0,0.792,0.504,1.476,1.584,2.016
		c0.684,0.324,1.979,0.72,3.852,1.224c2.231,0.54,3.815,1.116,4.787,1.728c1.476,0.937,2.232,2.196,2.232,3.816
		c0,3.814-2.628,5.759-7.883,5.759c-4.896,0-7.559-2.159-7.991-6.443h2.808c0.216,1.476,0.756,2.521,1.548,3.168
		c0.792,0.575,1.979,0.864,3.563,0.864c3.312,0,5.003-1.08,5.003-3.168c0-1.044-0.612-1.836-1.764-2.412
		c-0.612-0.287-1.944-0.684-3.959-1.188c-2.196-0.54-3.744-1.08-4.607-1.656c-1.44-0.863-2.124-2.051-2.124-3.635
		s0.684-2.809,2.088-3.744c1.296-0.936,3.023-1.404,5.111-1.404C366.321,11.846,368.841,13.754,369.345,17.642z"/>
	<path class="st1" d="M403.034,4.756V15.41c0.647-1.188,1.512-2.088,2.592-2.699c1.008-0.576,2.123-0.865,3.383-0.865
		c2.16,0,3.852,0.613,5.004,1.908c1.151,1.26,1.728,3.096,1.728,5.472V30.96h-2.88V19.657c0-1.728-0.432-3.06-1.224-3.995
		c-0.863-0.936-2.052-1.404-3.6-1.404c-1.439,0-2.628,0.576-3.563,1.729c-0.972,1.151-1.439,2.627-1.439,4.355V30.96h-2.88V4.756
		H403.034z"/>
	<path class="st1" d="M423.05,12.35v11.375c0,1.764,0.36,3.096,1.116,3.96s1.979,1.331,3.672,1.331c1.224,0,2.339-0.504,3.312-1.439
		c1.008-1.008,1.619-2.304,1.835-3.887V12.35h2.88v18.61h-2.88v-2.88c-1.512,2.232-3.527,3.384-6.047,3.384
		c-4.535,0-6.767-2.556-6.767-7.595V12.35H423.05z"/>
	<path class="st1" d="M454.296,15.374c0.721-1.224,1.584-2.124,2.592-2.663c0.9-0.576,1.98-0.865,3.276-0.865
		c1.943,0,3.491,0.613,4.715,1.836c1.152,1.26,1.764,2.952,1.764,5.076V30.96h-2.88V19.226c0-1.655-0.359-2.88-1.043-3.672
		c-0.721-0.864-1.872-1.26-3.456-1.26c-1.224,0-2.268,0.433-3.06,1.368c-0.864,0.936-1.26,2.123-1.26,3.635V30.96h-2.88V19.226
		c0-3.312-1.439-4.932-4.283-4.932c-1.332,0-2.412,0.504-3.275,1.584c-0.864,1.008-1.296,2.268-1.296,3.743V30.96h-2.88V12.35h2.88
		v2.484c1.403-2.016,3.167-2.988,5.255-2.988C451.309,11.846,453.253,12.998,454.296,15.374z"/>
	<path class="st1" d="M485.112,13.934c1.08,1.225,1.655,2.916,1.655,5.076v11.95h-2.699v-3.132c-0.72,1.008-1.691,1.836-2.844,2.484
		c-1.368,0.756-2.916,1.151-4.644,1.151c-1.872,0-3.348-0.468-4.463-1.403c-1.152-0.973-1.729-2.232-1.729-3.744
		c0-2.123,0.828-3.707,2.556-4.787c1.512-1.008,3.672-1.548,6.479-1.584l4.464-0.072v-0.972c0-3.132-1.62-4.679-4.859-4.679
		c-1.368,0-2.484,0.252-3.348,0.827c-0.973,0.576-1.584,1.476-1.872,2.664l-2.844-0.216c0.396-1.944,1.368-3.42,2.88-4.355
		c1.367-0.864,3.132-1.297,5.363-1.297C481.872,11.846,483.816,12.53,485.112,13.934z M479.604,22.105
		c-4.175,0.072-6.263,1.439-6.263,4.139c0,0.864,0.324,1.549,1.044,2.124c0.72,0.54,1.655,0.828,2.808,0.828
		c1.764,0,3.312-0.576,4.679-1.728c1.332-1.116,2.017-2.412,2.017-3.852v-1.584L479.604,22.105z"/>
	<path class="st1" d="M506.892,19.514V30.96h-2.88v-11.23c0-3.636-1.655-5.436-4.896-5.436c-1.296,0-2.411,0.468-3.348,1.403
		c-1.008,1.008-1.548,2.34-1.655,4.032v11.23h-2.88V12.35h2.88v2.736c0.647-1.044,1.476-1.836,2.483-2.375
		c1.008-0.576,2.124-0.865,3.348-0.865C504.552,11.846,506.892,14.402,506.892,19.514z"/>
	<path class="st1" d="M515.28,5.943c0.433,0.359,0.648,0.863,0.648,1.512c0,0.611-0.216,1.115-0.648,1.548
		c-0.432,0.396-0.936,0.612-1.548,0.612c-0.611,0-1.115-0.217-1.548-0.612c-0.432-0.433-0.611-0.937-0.611-1.548
		c0-0.648,0.18-1.152,0.611-1.512c0.433-0.432,0.937-0.612,1.548-0.612C514.345,5.331,514.849,5.512,515.28,5.943z M515.173,12.35
		v18.61h-2.88V12.35H515.173z"/>
	<path class="st1" d="M525.54,12.35h4.607v2.412h-4.607v11.843c0,0.685,0.108,1.188,0.396,1.476c0.252,0.288,0.72,0.469,1.367,0.469
		h2.376v2.411h-2.808c-1.512,0-2.628-0.396-3.275-1.188c-0.612-0.719-0.9-1.764-0.9-3.167V14.762h-3.743V12.35h3.743V7.527
		l2.844-1.188V12.35z"/>
	<path class="st1" d="M534.433,12.35l5.688,14.688l5.507-14.688h3.168l-10.188,25.737h-3.131l3.203-7.56l-7.379-18.178H534.433z"/>
	<path class="st1" d="M592.059,13.934c1.08,1.225,1.655,2.916,1.655,5.076v11.95h-2.699v-3.132c-0.72,1.008-1.691,1.836-2.844,2.484
		c-1.368,0.756-2.916,1.151-4.644,1.151c-1.872,0-3.348-0.468-4.463-1.403c-1.152-0.973-1.729-2.232-1.729-3.744
		c0-2.123,0.828-3.707,2.556-4.787c1.512-1.008,3.672-1.548,6.479-1.584l4.464-0.072v-0.972c0-3.132-1.62-4.679-4.859-4.679
		c-1.368,0-2.484,0.252-3.348,0.827c-0.973,0.576-1.584,1.476-1.872,2.664l-2.844-0.216c0.396-1.944,1.368-3.42,2.88-4.355
		c1.367-0.864,3.132-1.297,5.363-1.297C588.818,11.846,590.763,12.53,592.059,13.934z M586.551,22.105
		c-4.175,0.072-6.263,1.439-6.263,4.139c0,0.864,0.324,1.549,1.044,2.124c0.72,0.54,1.655,0.828,2.808,0.828
		c1.764,0,3.312-0.576,4.679-1.728c1.332-1.116,2.017-2.412,2.017-3.852v-1.584L586.551,22.105z"/>
	<path class="st1" d="M613.838,19.514V30.96h-2.88v-11.23c0-3.636-1.655-5.436-4.896-5.436c-1.296,0-2.411,0.468-3.348,1.403
		c-1.008,1.008-1.548,2.34-1.655,4.032v11.23h-2.88V12.35h2.88v2.736c0.647-1.044,1.476-1.836,2.483-2.375
		c1.008-0.576,2.124-0.865,3.348-0.865C611.498,11.846,613.838,14.402,613.838,19.514z"/>
	<path class="st1" d="M634.934,4.756V30.96h-2.7V27.9c-1.296,2.375-3.384,3.563-6.191,3.563c-2.735,0-4.859-1.008-6.371-2.952
		c-1.403-1.799-2.088-4.104-2.088-6.91c0-2.736,0.685-4.968,2.088-6.768c1.512-2.016,3.563-2.988,6.228-2.988
		c2.663,0,4.715,1.297,6.155,3.924V4.756H634.934z M621.902,16.382c-0.936,1.26-1.367,2.987-1.367,5.22
		c0,2.231,0.432,3.995,1.332,5.291c1.008,1.439,2.52,2.195,4.535,2.195c1.872,0,3.312-0.72,4.355-2.159
		c0.899-1.296,1.368-2.987,1.368-5.075v-0.36c0-2.159-0.54-3.923-1.548-5.255c-1.044-1.368-2.412-2.016-4.068-2.016
		C624.458,14.223,622.911,14.941,621.902,16.382z"/>
	<path class="st1" d="M667.363,12.35l5.327,15.011l5.328-15.011h3.167l-7.055,18.61h-2.916l-7.019-18.61H667.363z"/>
	<path class="st1" d="M687.523,5.943c0.432,0.359,0.647,0.863,0.647,1.512c0,0.611-0.216,1.115-0.647,1.548
		c-0.433,0.396-0.937,0.612-1.548,0.612c-0.612,0-1.116-0.217-1.548-0.612c-0.433-0.433-0.612-0.937-0.612-1.548
		c0-0.648,0.18-1.152,0.612-1.512c0.432-0.432,0.936-0.612,1.548-0.612C686.587,5.331,687.091,5.512,687.523,5.943z M687.415,12.35
		v18.61h-2.88V12.35H687.415z"/>
	<path class="st1" d="M697.783,12.35h4.607v2.412h-4.607v11.843c0,0.685,0.107,1.188,0.396,1.476
		c0.252,0.288,0.72,0.469,1.368,0.469h2.375v2.411h-2.808c-1.512,0-2.627-0.396-3.275-1.188c-0.611-0.719-0.899-1.764-0.899-3.167
		V14.762h-3.744V12.35h3.744V7.527l2.844-1.188V12.35z"/>
	<path class="st1" d="M719.598,13.934c1.08,1.225,1.655,2.916,1.655,5.076v11.95h-2.699v-3.132c-0.72,1.008-1.691,1.836-2.844,2.484
		c-1.368,0.756-2.916,1.151-4.644,1.151c-1.872,0-3.348-0.468-4.463-1.403c-1.152-0.973-1.729-2.232-1.729-3.744
		c0-2.123,0.828-3.707,2.556-4.787c1.512-1.008,3.672-1.548,6.479-1.584l4.464-0.072v-0.972c0-3.132-1.62-4.679-4.859-4.679
		c-1.368,0-2.484,0.252-3.348,0.827c-0.973,0.576-1.584,1.476-1.872,2.664l-2.844-0.216c0.396-1.944,1.368-3.42,2.88-4.355
		c1.367-0.864,3.132-1.297,5.363-1.297C716.357,11.846,718.302,12.53,719.598,13.934z M714.09,22.105
		c-4.175,0.072-6.263,1.439-6.263,4.139c0,0.864,0.324,1.549,1.044,2.124c0.72,0.54,1.655,0.828,2.808,0.828
		c1.764,0,3.312-0.576,4.679-1.728c1.332-1.116,2.017-2.412,2.017-3.852v-1.584L714.09,22.105z"/>
	<path class="st1" d="M729.139,4.756V30.96h-2.844V4.756H729.139z"/>
	<path class="st1" d="M738.102,5.943c0.433,0.359,0.648,0.863,0.648,1.512c0,0.611-0.216,1.115-0.648,1.548
		c-0.432,0.396-0.936,0.612-1.548,0.612c-0.611,0-1.115-0.217-1.548-0.612c-0.432-0.433-0.611-0.937-0.611-1.548
		c0-0.648,0.18-1.152,0.611-1.512c0.433-0.432,0.937-0.612,1.548-0.612C737.166,5.331,737.67,5.512,738.102,5.943z M737.994,12.35
		v18.61h-2.88V12.35H737.994z"/>
	<path class="st1" d="M748.361,12.35h4.607v2.412h-4.607v11.843c0,0.685,0.108,1.188,0.396,1.476
		c0.252,0.288,0.72,0.469,1.367,0.469h2.376v2.411h-2.808c-1.512,0-2.628-0.396-3.275-1.188c-0.612-0.719-0.9-1.764-0.9-3.167
		V14.762h-3.743V12.35h3.743V7.527l2.844-1.188V12.35z"/>
	<path class="st1" d="M757.254,12.35l5.688,14.688l5.507-14.688h3.168l-10.188,25.737h-3.131l3.203-7.56l-7.379-18.178H757.254z"/>
	<path class="st1" d="M235.205,65.943c0.432,0.359,0.648,0.863,0.648,1.512c0,0.611-0.216,1.115-0.648,1.548
		c-0.432,0.396-0.936,0.612-1.548,0.612s-1.116-0.217-1.548-0.612c-0.432-0.433-0.612-0.937-0.612-1.548
		c0-0.648,0.18-1.152,0.612-1.512c0.432-0.432,0.936-0.612,1.548-0.612S234.772,65.512,235.205,65.943z M235.097,72.35v18.61h-2.88
		V72.35H235.097z"/>
	<path class="st1" d="M256.155,79.514V90.96h-2.879v-11.23c0-3.636-1.656-5.436-4.896-5.436c-1.296,0-2.412,0.468-3.348,1.403
		c-1.008,1.008-1.548,2.34-1.656,4.032v11.23h-2.879V72.35h2.879v2.736c0.648-1.044,1.476-1.836,2.484-2.375
		c1.008-0.576,2.124-0.865,3.348-0.865C253.815,71.846,256.155,74.402,256.155,79.514z"/>
	<path class="st1" d="M265.588,72.35h4.607v2.412h-4.607v11.843c0,0.685,0.108,1.188,0.396,1.476
		c0.252,0.288,0.72,0.469,1.368,0.469h2.375v2.411h-2.808c-1.512,0-2.627-0.396-3.275-1.188c-0.612-0.719-0.9-1.764-0.9-3.167
		V74.762H259V72.35h3.744v-4.822l2.844-1.188V72.35z"/>
	<path class="st1" d="M288.375,74.727c1.583,1.835,2.375,4.139,2.375,6.947c0,2.771-0.792,5.074-2.34,6.875
		c-1.691,1.943-3.923,2.915-6.695,2.915c-2.808,0-5.003-0.972-6.659-2.915c-1.584-1.801-2.376-4.104-2.376-6.875
		c0-2.809,0.792-5.112,2.376-6.947c1.656-1.944,3.852-2.881,6.659-2.881C284.487,71.846,286.719,72.782,288.375,74.727z
		 M277.108,76.525c-1.008,1.368-1.476,3.061-1.476,5.148c0,2.051,0.468,3.742,1.476,5.111c1.08,1.512,2.627,2.268,4.607,2.268
		c1.943,0,3.491-0.756,4.643-2.268c0.972-1.369,1.476-3.096,1.476-5.111c0-2.088-0.504-3.78-1.476-5.148
		c-1.152-1.512-2.7-2.268-4.643-2.268C279.735,74.258,278.188,75.014,277.108,76.525z"/>
	<path class="st1" d="M320.702,77.642h-2.808c-0.252-1.151-0.72-2.016-1.439-2.52c-0.792-0.576-1.944-0.864-3.42-0.864
		c-1.296,0-2.304,0.217-3.023,0.721c-0.792,0.467-1.188,1.115-1.188,1.943c0,0.792,0.504,1.476,1.584,2.016
		c0.684,0.324,1.979,0.72,3.852,1.224c2.231,0.54,3.815,1.116,4.787,1.728c1.476,0.937,2.232,2.196,2.232,3.816
		c0,3.814-2.628,5.759-7.883,5.759c-4.896,0-7.559-2.159-7.991-6.443h2.808c0.216,1.476,0.756,2.521,1.548,3.168
		c0.792,0.575,1.979,0.864,3.563,0.864c3.312,0,5.003-1.08,5.003-3.168c0-1.044-0.612-1.836-1.764-2.412
		c-0.612-0.287-1.944-0.684-3.959-1.188c-2.196-0.54-3.744-1.08-4.607-1.656c-1.44-0.863-2.124-2.051-2.124-3.635
		s0.684-2.809,2.088-3.744c1.296-0.936,3.023-1.404,5.111-1.404C317.679,71.846,320.198,73.754,320.702,77.642z"/>
	<path class="st1" d="M329.631,72.35h4.607v2.412h-4.607v11.843c0,0.685,0.108,1.188,0.396,1.476
		c0.252,0.288,0.72,0.469,1.368,0.469h2.375v2.411h-2.808c-1.512,0-2.627-0.396-3.275-1.188c-0.612-0.719-0.9-1.764-0.9-3.167
		V74.762h-3.744V72.35h3.744v-4.822l2.844-1.188V72.35z"/>
	<path class="st1" d="M341.367,65.943c0.432,0.359,0.648,0.863,0.648,1.512c0,0.611-0.216,1.115-0.648,1.548
		c-0.432,0.396-0.936,0.612-1.548,0.612s-1.116-0.217-1.548-0.612c-0.432-0.433-0.612-0.937-0.612-1.548
		c0-0.648,0.18-1.152,0.612-1.512c0.432-0.432,0.936-0.612,1.548-0.612S340.935,65.512,341.367,65.943z M341.259,72.35v18.61h-2.88
		V72.35H341.259z"/>
	<path class="st1" d="M357.674,65.26v2.482h-3.203c-0.792,0-1.404,0.181-1.764,0.613c-0.36,0.396-0.54,1.043-0.54,1.943v2.051h8.387
		v-2.123c0-1.548,0.396-2.736,1.188-3.6c0.792-0.936,2.016-1.367,3.635-1.367h3.563v2.482h-3.239c-0.792,0-1.368,0.181-1.728,0.613
		c-0.396,0.396-0.576,1.043-0.576,1.943v2.051h5.291v2.412h-5.291V90.96h-2.844V74.762h-8.387V90.96h-2.88V74.762h-4.679V72.35
		h4.679v-2.123c0-1.584,0.396-2.771,1.188-3.636c0.828-0.899,2.052-1.331,3.635-1.331H357.674z"/>
	<path class="st1" d="M398.569,74.834c1.404,1.8,2.124,4.067,2.124,6.875c0,2.736-0.72,5.004-2.088,6.803
		c-1.512,1.944-3.563,2.952-6.228,2.952c-2.664,0-4.715-1.296-6.155-3.888v10.511h-2.879V72.35h2.699v3.061
		c1.332-2.376,3.384-3.564,6.192-3.564C394.897,71.846,397.021,72.818,398.569,74.834z M387.519,76.418
		c-0.936,1.296-1.404,3.023-1.404,5.111v0.359c0,2.16,0.504,3.888,1.584,5.22c1.008,1.296,2.339,1.979,4.068,1.979
		c2.016,0,3.527-0.72,4.571-2.088c0.936-1.295,1.403-3.059,1.403-5.291c0-2.195-0.468-3.959-1.332-5.256
		c-1.043-1.512-2.556-2.23-4.535-2.23C390.003,74.223,388.526,74.941,387.519,76.418z"/>
	<path class="st1" d="M418.441,73.934c1.08,1.225,1.655,2.916,1.655,5.076v11.95h-2.699v-3.132c-0.72,1.008-1.691,1.836-2.844,2.484
		c-1.368,0.756-2.916,1.151-4.644,1.151c-1.872,0-3.348-0.468-4.463-1.403c-1.152-0.973-1.729-2.232-1.729-3.744
		c0-2.123,0.828-3.707,2.556-4.787c1.512-1.008,3.672-1.548,6.479-1.584l4.464-0.072v-0.972c0-3.132-1.62-4.679-4.859-4.679
		c-1.368,0-2.484,0.252-3.348,0.827c-0.973,0.576-1.584,1.476-1.872,2.664l-2.844-0.216c0.396-1.944,1.368-3.42,2.88-4.355
		c1.367-0.864,3.132-1.297,5.363-1.297C415.201,71.846,417.146,72.53,418.441,73.934z M412.934,82.105
		c-4.175,0.072-6.263,1.439-6.263,4.139c0,0.864,0.324,1.549,1.044,2.124c0.72,0.54,1.655,0.828,2.808,0.828
		c1.764,0,3.312-0.576,4.679-1.728c1.332-1.116,2.017-2.412,2.017-3.852v-1.584L412.934,82.105z"/>
	<path class="st1" d="M428.486,65.943c0.432,0.359,0.647,0.863,0.647,1.512c0,0.611-0.216,1.115-0.647,1.548
		c-0.433,0.396-0.937,0.612-1.548,0.612c-0.612,0-1.116-0.217-1.548-0.612c-0.433-0.433-0.612-0.937-0.612-1.548
		c0-0.648,0.18-1.152,0.612-1.512c0.432-0.432,0.936-0.612,1.548-0.612C427.55,65.331,428.054,65.512,428.486,65.943z
		 M428.378,72.35v18.61h-2.88V72.35H428.378z"/>
	<path class="st1" d="M449.437,79.514V90.96h-2.88v-11.23c0-3.636-1.655-5.436-4.896-5.436c-1.296,0-2.411,0.468-3.348,1.403
		c-1.008,1.008-1.548,2.34-1.655,4.032v11.23h-2.88V72.35h2.88v2.736c0.647-1.044,1.476-1.836,2.483-2.375
		c1.008-0.576,2.124-0.865,3.348-0.865C447.097,71.846,449.437,74.402,449.437,79.514z"/>
	<path class="st1" d="M458.869,72.35h4.607v2.412h-4.607v11.843c0,0.685,0.108,1.188,0.396,1.476
		c0.252,0.288,0.72,0.469,1.367,0.469h2.376v2.411h-2.808c-1.512,0-2.628-0.396-3.275-1.188c-0.612-0.719-0.9-1.764-0.9-3.167
		V74.762h-3.743V72.35h3.743v-4.822l2.844-1.188V72.35z"/>
	<path class="st1" d="M470.605,65.943c0.432,0.359,0.647,0.863,0.647,1.512c0,0.611-0.216,1.115-0.647,1.548
		c-0.433,0.396-0.937,0.612-1.548,0.612c-0.612,0-1.116-0.217-1.548-0.612c-0.433-0.433-0.612-0.937-0.612-1.548
		c0-0.648,0.18-1.152,0.612-1.512c0.432-0.432,0.936-0.612,1.548-0.612C469.669,65.331,470.173,65.512,470.605,65.943z
		 M470.497,72.35v18.61h-2.88V72.35H470.497z"/>
	<path class="st1" d="M491.556,79.514V90.96h-2.88v-11.23c0-3.636-1.655-5.436-4.896-5.436c-1.296,0-2.411,0.468-3.348,1.403
		c-1.008,1.008-1.548,2.34-1.655,4.032v11.23h-2.88V72.35h2.88v2.736c0.647-1.044,1.476-1.836,2.483-2.375
		c1.008-0.576,2.124-0.865,3.348-0.865C489.216,71.846,491.556,74.402,491.556,79.514z"/>
	<path class="st1" d="M509.951,75.554V72.35h2.88v17.314c0,5.939-2.844,8.927-8.495,8.927c-2.52,0-4.464-0.504-5.759-1.512
		c-1.332-1.008-2.16-2.52-2.484-4.535h2.88c0.216,1.26,0.756,2.195,1.584,2.771c0.828,0.612,2.088,0.937,3.779,0.937
		c3.743,0,5.615-2.088,5.615-6.191v-3.275c-1.368,2.482-3.455,3.742-6.263,3.742c-2.592,0-4.644-0.899-6.155-2.663
		c-1.512-1.728-2.232-3.923-2.232-6.623c0-2.735,0.721-4.932,2.232-6.659c1.512-1.836,3.563-2.736,6.155-2.736
		C506.496,71.846,508.583,73.07,509.951,75.554z M499.765,76.238c-1.008,1.223-1.512,2.915-1.512,5.003
		c0,1.944,0.432,3.563,1.332,4.788c1.008,1.367,2.483,2.087,4.499,2.087c1.872,0,3.312-0.647,4.392-1.944
		c1.008-1.26,1.512-2.915,1.512-4.931c0-2.088-0.504-3.78-1.512-5.003c-1.08-1.368-2.52-2.016-4.355-2.016
		C502.248,74.223,500.809,74.87,499.765,76.238z"/>
	<path class="st1" d="M531.515,77.642h-2.808c-0.252-1.151-0.72-2.016-1.439-2.52c-0.792-0.576-1.944-0.864-3.42-0.864
		c-1.296,0-2.304,0.217-3.023,0.721c-0.792,0.467-1.188,1.115-1.188,1.943c0,0.792,0.504,1.476,1.584,2.016
		c0.685,0.324,1.979,0.72,3.852,1.224c2.231,0.54,3.815,1.116,4.787,1.728c1.477,0.937,2.232,2.196,2.232,3.816
		c0,3.814-2.628,5.759-7.883,5.759c-4.896,0-7.56-2.159-7.991-6.443h2.808c0.216,1.476,0.756,2.521,1.548,3.168
		c0.792,0.575,1.979,0.864,3.563,0.864c3.312,0,5.003-1.08,5.003-3.168c0-1.044-0.611-1.836-1.764-2.412
		c-0.611-0.287-1.943-0.684-3.959-1.188c-2.196-0.54-3.744-1.08-4.607-1.656c-1.44-0.863-2.124-2.051-2.124-3.635
		s0.684-2.809,2.088-3.744c1.296-0.936,3.023-1.404,5.111-1.404C528.491,71.846,531.011,73.754,531.515,77.642z"/>
	<path class="st1" d="M539.544,87.324c0.432,0.432,0.647,0.936,0.647,1.584c0,0.611-0.216,1.115-0.647,1.548
		c-0.433,0.433-0.973,0.647-1.548,0.647c-0.648,0-1.152-0.215-1.548-0.647c-0.433-0.433-0.648-0.937-0.648-1.548
		c0-0.648,0.216-1.152,0.648-1.584c0.396-0.432,0.899-0.648,1.548-0.648C538.571,86.676,539.111,86.893,539.544,87.324z"/>
	<path class="st1" d="M20.805,185.26v2.555H5.543v8.604h14.398v2.556H5.543v9.431h15.874v2.556H2.592v-25.7H20.805z"/>
	<path class="st1" d="M26.279,192.35l5.327,15.011l5.328-15.011h3.167l-7.055,18.61h-2.916l-7.019-18.61H26.279z"/>
	<path class="st1" d="M56.949,194.87c1.368,1.8,2.087,4.355,2.16,7.595H44.423c0.144,2.088,0.684,3.707,1.691,4.859
		c1.008,1.152,2.412,1.729,4.176,1.729c1.512,0,2.771-0.396,3.708-1.152c0.792-0.648,1.404-1.619,1.872-2.916h2.88
		c-0.432,1.801-1.26,3.24-2.52,4.392c-1.547,1.368-3.527,2.088-5.939,2.088c-2.664,0-4.823-0.899-6.407-2.628
		c-1.656-1.799-2.448-4.176-2.448-7.199c0-2.735,0.756-5.039,2.34-6.875c1.583-1.943,3.708-2.916,6.407-2.916
		C53.169,191.846,55.438,192.854,56.949,194.87z M46.258,195.878c-1.008,1.079-1.583,2.52-1.764,4.355h11.626
		c-0.36-3.995-2.339-5.976-5.867-5.976C48.598,194.258,47.266,194.798,46.258,195.878z"/>
	<path class="st1" d="M73.221,192.278v2.88c-0.936-0.288-1.872-0.396-2.772-0.396c-1.439,0-2.664,0.612-3.635,1.908
		c-1.008,1.224-1.476,2.699-1.476,4.428v9.862h-2.843v-18.61h2.843v3.24c0.504-1.08,1.152-1.943,1.944-2.556
		c0.972-0.792,2.088-1.188,3.384-1.188C71.673,191.846,72.537,191.99,73.221,192.278z"/>
	<path class="st1" d="M76.714,192.35l5.688,14.688l5.507-14.688h3.167L80.89,218.087h-3.132l3.204-7.56l-7.379-18.178H76.714z"/>
	<path class="st1" d="M142.598,194.834c1.404,1.8,2.124,4.067,2.124,6.875c0,2.736-0.72,5.004-2.088,6.803
		c-1.512,1.944-3.563,2.952-6.227,2.952s-4.715-1.296-6.155-3.888v10.511h-2.879V192.35h2.699v3.061
		c1.332-2.376,3.384-3.564,6.191-3.564C138.926,191.846,141.05,192.818,142.598,194.834z M131.547,196.418
		c-0.936,1.296-1.404,3.023-1.404,5.111v0.359c0,2.16,0.504,3.888,1.584,5.22c1.008,1.296,2.339,1.979,4.067,1.979
		c2.016,0,3.527-0.72,4.571-2.088c0.936-1.295,1.404-3.059,1.404-5.291c0-2.195-0.468-3.959-1.332-5.256
		c-1.043-1.512-2.556-2.23-4.535-2.23C134.031,194.223,132.555,194.941,131.547,196.418z"/>
	<path class="st1" d="M152.392,185.943c0.432,0.359,0.648,0.863,0.648,1.512c0,0.611-0.216,1.115-0.648,1.548
		c-0.432,0.396-0.936,0.612-1.548,0.612s-1.116-0.217-1.548-0.612c-0.432-0.433-0.612-0.937-0.612-1.548
		c0-0.648,0.18-1.152,0.612-1.512c0.432-0.432,0.936-0.612,1.548-0.612S151.959,185.512,152.392,185.943z M152.284,192.35v18.61
		h-2.88v-18.61H152.284z"/>
	<path class="st1" d="M172.118,194.87c1.368,1.8,2.087,4.355,2.16,7.595h-14.686c0.144,2.088,0.684,3.707,1.691,4.859
		c1.008,1.152,2.412,1.729,4.176,1.729c1.512,0,2.771-0.396,3.708-1.152c0.792-0.648,1.404-1.619,1.872-2.916h2.88
		c-0.432,1.801-1.26,3.24-2.52,4.392c-1.547,1.368-3.527,2.088-5.939,2.088c-2.664,0-4.823-0.899-6.407-2.628
		c-1.656-1.799-2.448-4.176-2.448-7.199c0-2.735,0.756-5.039,2.34-6.875c1.583-1.943,3.708-2.916,6.407-2.916
		C168.338,191.846,170.606,192.854,172.118,194.87z M161.427,195.878c-1.008,1.079-1.583,2.52-1.764,4.355h11.626
		c-0.36-3.995-2.339-5.976-5.867-5.976C163.767,194.258,162.435,194.798,161.427,195.878z"/>
	<path class="st1" d="M191.234,193.467c1.439,1.115,2.304,2.807,2.627,5.074h-2.844c-0.252-1.439-0.828-2.52-1.728-3.239
		c-0.936-0.72-2.124-1.044-3.6-1.044c-1.8,0-3.24,0.684-4.284,2.052c-1.008,1.332-1.512,3.132-1.512,5.399s0.468,4.067,1.476,5.363
		c0.972,1.296,2.412,1.98,4.283,1.98c3.167,0,5.003-1.62,5.436-4.824h2.879c-0.432,2.376-1.332,4.212-2.771,5.436
		c-1.404,1.188-3.24,1.8-5.543,1.8c-2.808,0-4.967-0.937-6.515-2.808c-1.476-1.764-2.196-4.067-2.196-6.911s0.72-5.147,2.196-6.947
		c1.584-1.979,3.78-2.952,6.551-2.952C187.994,191.846,189.83,192.387,191.234,193.467z"/>
	<path class="st1" d="M211.79,194.87c1.368,1.8,2.087,4.355,2.16,7.595h-14.686c0.144,2.088,0.684,3.707,1.691,4.859
		c1.008,1.152,2.412,1.729,4.176,1.729c1.512,0,2.771-0.396,3.708-1.152c0.792-0.648,1.404-1.619,1.872-2.916h2.88
		c-0.432,1.801-1.26,3.24-2.52,4.392c-1.548,1.368-3.527,2.088-5.939,2.088c-2.664,0-4.824-0.899-6.407-2.628
		c-1.656-1.799-2.448-4.176-2.448-7.199c0-2.735,0.756-5.039,2.34-6.875c1.583-1.943,3.708-2.916,6.407-2.916
		C208.01,191.846,210.278,192.854,211.79,194.87z M201.099,195.878c-1.008,1.079-1.583,2.52-1.764,4.355h11.626
		c-0.36-3.995-2.339-5.976-5.867-5.976C203.438,194.258,202.106,194.798,201.099,195.878z"/>
	<path class="st1" d="M266.192,194.727c1.583,1.835,2.375,4.139,2.375,6.947c0,2.771-0.792,5.074-2.34,6.875
		c-1.692,1.943-3.923,2.915-6.695,2.915c-2.808,0-5.003-0.972-6.659-2.915c-1.584-1.801-2.376-4.104-2.376-6.875
		c0-2.809,0.792-5.112,2.376-6.947c1.656-1.944,3.852-2.881,6.659-2.881C262.305,191.846,264.536,192.782,266.192,194.727z
		 M254.926,196.525c-1.008,1.368-1.476,3.061-1.476,5.148c0,2.051,0.468,3.742,1.476,5.111c1.08,1.512,2.627,2.268,4.607,2.268
		c1.943,0,3.491-0.756,4.643-2.268c0.972-1.369,1.476-3.096,1.476-5.111c0-2.088-0.504-3.78-1.476-5.148
		c-1.152-1.512-2.7-2.268-4.643-2.268C257.553,194.258,256.005,195.014,254.926,196.525z"/>
	<path class="st1" d="M283.329,185.26v2.482h-3.204c-0.792,0-1.404,0.181-1.764,0.613c-0.36,0.396-0.54,1.043-0.54,1.943v2.051
		h5.255v2.412h-5.255v16.198h-2.88v-16.198h-4.679v-2.412h4.679v-2.123c0-1.584,0.396-2.771,1.188-3.636
		c0.828-0.899,2.052-1.331,3.635-1.331H283.329z"/>
	<path class="st1" d="M333.626,193.934c1.08,1.225,1.656,2.916,1.656,5.076v11.95h-2.7v-3.132c-0.72,1.008-1.691,1.836-2.843,2.484
		c-1.368,0.756-2.916,1.151-4.644,1.151c-1.872,0-3.348-0.468-4.463-1.403c-1.152-0.973-1.728-2.232-1.728-3.744
		c0-2.123,0.828-3.707,2.556-4.787c1.512-1.008,3.672-1.548,6.479-1.584l4.463-0.072v-0.972c0-3.132-1.62-4.679-4.859-4.679
		c-1.368,0-2.484,0.252-3.348,0.827c-0.972,0.576-1.584,1.476-1.872,2.664l-2.843-0.216c0.396-1.944,1.368-3.42,2.879-4.355
		c1.368-0.864,3.132-1.297,5.363-1.297C330.387,191.846,332.331,192.53,333.626,193.934z M328.119,202.105
		c-4.175,0.072-6.263,1.439-6.263,4.139c0,0.864,0.324,1.549,1.044,2.124c0.72,0.54,1.656,0.828,2.808,0.828
		c1.764,0,3.312-0.576,4.679-1.728c1.332-1.116,2.016-2.412,2.016-3.852v-1.584L328.119,202.105z"/>
	<path class="st1" d="M350.475,192.278v2.88c-0.936-0.288-1.872-0.396-2.772-0.396c-1.439,0-2.664,0.612-3.635,1.908
		c-1.008,1.224-1.476,2.699-1.476,4.428v9.862h-2.843v-18.61h2.843v3.24c0.504-1.08,1.152-1.943,1.944-2.556
		c0.972-0.792,2.088-1.188,3.384-1.188C348.927,191.846,349.791,191.99,350.475,192.278z"/>
	<path class="st1" d="M357.855,192.35h4.607v2.412h-4.607v11.843c0,0.685,0.108,1.188,0.396,1.476
		c0.252,0.288,0.72,0.469,1.368,0.469h2.375v2.411h-2.808c-1.512,0-2.627-0.396-3.275-1.188c-0.612-0.719-0.9-1.764-0.9-3.167
		v-11.843h-3.744v-2.412h3.744v-4.822l2.844-1.188V192.35z"/>
	<path class="st1" d="M366.783,192.35l4.571,15.083l4.319-15.083h2.7l4.32,15.083l4.571-15.083h3.168l-6.335,18.61h-2.736
		l-4.319-14.974l-4.392,14.974h-2.7l-6.335-18.61H366.783z"/>
	<path class="st1" d="M407.821,194.727c1.584,1.835,2.376,4.139,2.376,6.947c0,2.771-0.792,5.074-2.34,6.875
		c-1.692,1.943-3.924,2.915-6.695,2.915c-2.808,0-5.003-0.972-6.659-2.915c-1.584-1.801-2.376-4.104-2.376-6.875
		c0-2.809,0.792-5.112,2.376-6.947c1.656-1.944,3.852-2.881,6.659-2.881C403.934,191.846,406.165,192.782,407.821,194.727z
		 M396.555,196.525c-1.008,1.368-1.476,3.061-1.476,5.148c0,2.051,0.468,3.742,1.476,5.111c1.08,1.512,2.628,2.268,4.607,2.268
		c1.943,0,3.491-0.756,4.644-2.268c0.972-1.369,1.476-3.096,1.476-5.111c0-2.088-0.504-3.78-1.476-5.148
		c-1.152-1.512-2.7-2.268-4.644-2.268C399.183,194.258,397.635,195.014,396.555,196.525z"/>
	<path class="st1" d="M424.67,192.278v2.88c-0.936-0.288-1.872-0.396-2.771-0.396c-1.439,0-2.664,0.612-3.636,1.908
		c-1.008,1.224-1.476,2.699-1.476,4.428v9.862h-2.844v-18.61h2.844v3.24c0.504-1.08,1.151-1.943,1.943-2.556
		c0.973-0.792,2.088-1.188,3.384-1.188C423.122,191.846,423.986,191.99,424.67,192.278z"/>
	<path class="st1" d="M429.963,184.756v16.233l9.322-8.64h3.815l-8.206,7.488l8.998,11.122h-3.707l-7.271-9.251l-2.951,2.664v6.587
		h-2.88v-26.204H429.963z"/>
	<path class="st1" d="M483.933,185.943c0.433,0.359,0.648,0.863,0.648,1.512c0,0.611-0.216,1.115-0.648,1.548
		c-0.432,0.396-0.936,0.612-1.548,0.612c-0.611,0-1.115-0.217-1.548-0.612c-0.432-0.433-0.611-0.937-0.611-1.548
		c0-0.648,0.18-1.152,0.611-1.512c0.433-0.432,0.937-0.612,1.548-0.612C482.997,185.331,483.501,185.512,483.933,185.943z
		 M483.825,192.35v18.61h-2.88v-18.61H483.825z"/>
	<path class="st1" d="M503.443,197.642h-2.808c-0.252-1.151-0.72-2.016-1.439-2.52c-0.792-0.576-1.944-0.864-3.42-0.864
		c-1.296,0-2.304,0.217-3.023,0.721c-0.792,0.467-1.188,1.115-1.188,1.943c0,0.792,0.504,1.476,1.584,2.016
		c0.685,0.324,1.979,0.72,3.852,1.224c2.231,0.54,3.815,1.116,4.787,1.728c1.477,0.937,2.232,2.196,2.232,3.816
		c0,3.814-2.628,5.759-7.883,5.759c-4.896,0-7.56-2.159-7.991-6.443h2.808c0.216,1.476,0.756,2.521,1.548,3.168
		c0.792,0.575,1.979,0.864,3.563,0.864c3.312,0,5.003-1.08,5.003-3.168c0-1.044-0.611-1.836-1.764-2.412
		c-0.611-0.287-1.943-0.684-3.959-1.188c-2.196-0.54-3.744-1.08-4.607-1.656c-1.44-0.863-2.124-2.051-2.124-3.635
		s0.684-2.809,2.088-3.744c1.296-0.936,3.023-1.404,5.111-1.404C500.42,191.846,502.939,193.754,503.443,197.642z"/>
	<path class="st1" d="M552.014,192.278v2.88c-0.936-0.288-1.872-0.396-2.771-0.396c-1.439,0-2.664,0.612-3.636,1.908
		c-1.008,1.224-1.476,2.699-1.476,4.428v9.862h-2.844v-18.61h2.844v3.24c0.504-1.08,1.151-1.943,1.943-2.556
		c0.973-0.792,2.088-1.188,3.384-1.188C550.466,191.846,551.33,191.99,552.014,192.278z"/>
	<path class="st1" d="M568.861,194.87c1.367,1.8,2.087,4.355,2.159,7.595h-14.686c0.144,2.088,0.684,3.707,1.691,4.859
		s2.412,1.729,4.176,1.729c1.512,0,2.771-0.396,3.707-1.152c0.792-0.648,1.404-1.619,1.872-2.916h2.88
		c-0.433,1.801-1.26,3.24-2.521,4.392c-1.548,1.368-3.527,2.088-5.938,2.088c-2.664,0-4.824-0.899-6.407-2.628
		c-1.656-1.799-2.448-4.176-2.448-7.199c0-2.735,0.756-5.039,2.34-6.875c1.584-1.943,3.708-2.916,6.407-2.916
		C565.081,191.846,567.35,192.854,568.861,194.87z M558.17,195.878c-1.008,1.079-1.583,2.52-1.764,4.355h11.627
		c-0.36-3.995-2.34-5.976-5.867-5.976C560.51,194.258,559.178,194.798,558.17,195.878z"/>
	<path class="st1" d="M587.977,193.467c1.439,1.115,2.304,2.807,2.628,5.074h-2.844c-0.252-1.439-0.828-2.52-1.728-3.239
		c-0.937-0.72-2.124-1.044-3.6-1.044c-1.8,0-3.24,0.684-4.284,2.052c-1.008,1.332-1.512,3.132-1.512,5.399s0.468,4.067,1.477,5.363
		c0.972,1.296,2.411,1.98,4.283,1.98c3.167,0,5.003-1.62,5.436-4.824h2.879c-0.432,2.376-1.331,4.212-2.771,5.436
		c-1.403,1.188-3.239,1.8-5.543,1.8c-2.808,0-4.968-0.937-6.516-2.808c-1.476-1.764-2.195-4.067-2.195-6.911s0.72-5.147,2.195-6.947
		c1.584-1.979,3.779-2.952,6.552-2.952C584.737,191.846,586.572,192.387,587.977,193.467z"/>
	<path class="st1" d="M604.825,192.278v2.88c-0.937-0.288-1.872-0.396-2.772-0.396c-1.439,0-2.663,0.612-3.635,1.908
		c-1.008,1.224-1.477,2.699-1.477,4.428v9.862h-2.843v-18.61h2.843v3.24c0.504-1.08,1.152-1.943,1.944-2.556
		c0.972-0.792,2.088-1.188,3.384-1.188C603.277,191.846,604.141,191.99,604.825,192.278z"/>
	<path class="st1" d="M621.672,194.87c1.368,1.8,2.088,4.355,2.16,7.595h-14.687c0.145,2.088,0.684,3.707,1.691,4.859
		c1.009,1.152,2.412,1.729,4.176,1.729c1.512,0,2.771-0.396,3.708-1.152c0.792-0.648,1.403-1.619,1.871-2.916h2.88
		c-0.432,1.801-1.26,3.24-2.52,4.392c-1.548,1.368-3.527,2.088-5.939,2.088c-2.663,0-4.823-0.899-6.407-2.628
		c-1.655-1.799-2.447-4.176-2.447-7.199c0-2.735,0.756-5.039,2.34-6.875c1.583-1.943,3.707-2.916,6.407-2.916
		C617.893,191.846,620.16,192.854,621.672,194.87z M610.981,195.878c-1.008,1.079-1.584,2.52-1.764,4.355h11.626
		c-0.359-3.995-2.339-5.976-5.867-5.976C613.321,194.258,611.989,194.798,610.981,195.878z"/>
	<path class="st1" d="M641.22,193.934c1.08,1.225,1.656,2.916,1.656,5.076v11.95h-2.7v-3.132c-0.72,1.008-1.691,1.836-2.843,2.484
		c-1.368,0.756-2.916,1.151-4.644,1.151c-1.872,0-3.348-0.468-4.464-1.403c-1.151-0.973-1.728-2.232-1.728-3.744
		c0-2.123,0.828-3.707,2.556-4.787c1.512-1.008,3.672-1.548,6.479-1.584l4.463-0.072v-0.972c0-3.132-1.62-4.679-4.859-4.679
		c-1.368,0-2.483,0.252-3.348,0.827c-0.972,0.576-1.584,1.476-1.872,2.664l-2.843-0.216c0.396-1.944,1.367-3.42,2.879-4.355
		c1.368-0.864,3.132-1.297,5.363-1.297C637.98,191.846,639.924,192.53,641.22,193.934z M635.713,202.105
		c-4.176,0.072-6.264,1.439-6.264,4.139c0,0.864,0.324,1.549,1.044,2.124c0.72,0.54,1.656,0.828,2.808,0.828
		c1.764,0,3.312-0.576,4.68-1.728c1.332-1.116,2.016-2.412,2.016-3.852v-1.584L635.713,202.105z"/>
	<path class="st1" d="M652.309,192.35h4.607v2.412h-4.607v11.843c0,0.685,0.108,1.188,0.396,1.476
		c0.252,0.288,0.72,0.469,1.367,0.469h2.376v2.411h-2.808c-1.512,0-2.628-0.396-3.275-1.188c-0.612-0.719-0.9-1.764-0.9-3.167
		v-11.843h-3.743v-2.412h3.743v-4.822l2.844-1.188V192.35z"/>
	<path class="st1" d="M674.556,194.87c1.367,1.8,2.087,4.355,2.159,7.595h-14.686c0.144,2.088,0.684,3.707,1.691,4.859
		s2.412,1.729,4.176,1.729c1.512,0,2.771-0.396,3.707-1.152c0.792-0.648,1.404-1.619,1.872-2.916h2.88
		c-0.433,1.801-1.26,3.24-2.521,4.392c-1.548,1.368-3.527,2.088-5.938,2.088c-2.664,0-4.824-0.899-6.407-2.628
		c-1.656-1.799-2.448-4.176-2.448-7.199c0-2.735,0.756-5.039,2.34-6.875c1.584-1.943,3.708-2.916,6.407-2.916
		C670.775,191.846,673.044,192.854,674.556,194.87z M663.864,195.878c-1.008,1.079-1.583,2.52-1.764,4.355h11.627
		c-0.36-3.995-2.34-5.976-5.867-5.976C666.204,194.258,664.872,194.798,663.864,195.878z"/>
	<path class="st1" d="M696.73,184.756v26.204h-2.699v-3.06c-1.296,2.375-3.384,3.563-6.191,3.563c-2.736,0-4.859-1.008-6.371-2.952
		c-1.404-1.799-2.088-4.104-2.088-6.91c0-2.736,0.684-4.968,2.088-6.768c1.512-2.016,3.563-2.988,6.227-2.988
		c2.664,0,4.716,1.297,6.155,3.924v-11.014H696.73z M683.7,196.382c-0.936,1.26-1.368,2.987-1.368,5.22
		c0,2.231,0.433,3.995,1.332,5.291c1.008,1.439,2.52,2.195,4.535,2.195c1.872,0,3.312-0.72,4.355-2.159
		c0.9-1.296,1.368-2.987,1.368-5.075v-0.36c0-2.159-0.54-3.923-1.548-5.255c-1.044-1.368-2.412-2.016-4.067-2.016
		C686.256,194.223,684.708,194.941,683.7,196.382z"/>
	<path class="st1" d="M737.959,184.756v11.014c1.439-2.627,3.491-3.924,6.155-3.924c2.627,0,4.715,0.973,6.227,2.988
		c1.368,1.8,2.088,4.031,2.088,6.768c0,2.807-0.72,5.111-2.088,6.91c-1.548,1.944-3.671,2.952-6.371,2.952
		c-2.879,0-4.931-1.188-6.191-3.563v3.06h-2.699v-26.204H737.959z M739.435,196.238c-1.08,1.332-1.584,3.096-1.584,5.255v0.36
		c0,2.088,0.468,3.779,1.404,5.075c1.008,1.439,2.483,2.159,4.355,2.159c2.016,0,3.527-0.756,4.535-2.195
		c0.864-1.296,1.332-3.06,1.332-5.291c0-2.232-0.468-3.96-1.404-5.22c-1.044-1.44-2.556-2.159-4.571-2.159
		C741.811,194.223,740.442,194.87,739.435,196.238z"/>
	<path class="st1" d="M757.255,192.35l5.688,14.688l5.508-14.688h3.167l-10.187,25.737h-3.132l3.204-7.56l-7.379-18.178H757.255z"/>
	<path class="st1" d="M5.111,244.756v10.654c0.648-1.188,1.512-2.088,2.592-2.699c1.008-0.576,2.124-0.865,3.383-0.865
		c2.16,0,3.852,0.613,5.003,1.908c1.152,1.26,1.728,3.096,1.728,5.472v11.734h-2.88v-11.303c0-1.728-0.432-3.06-1.224-3.995
		c-0.864-0.936-2.052-1.404-3.6-1.404c-1.44,0-2.627,0.576-3.563,1.729c-0.972,1.151-1.44,2.627-1.44,4.355v10.618H2.232v-26.204
		H5.111z"/>
	<path class="st1" d="M36.25,253.934c1.08,1.225,1.656,2.916,1.656,5.076v11.95h-2.7v-3.132c-0.72,1.008-1.691,1.836-2.843,2.484
		c-1.368,0.756-2.916,1.151-4.644,1.151c-1.872,0-3.348-0.468-4.463-1.403c-1.152-0.973-1.728-2.232-1.728-3.744
		c0-2.123,0.828-3.707,2.556-4.787c1.512-1.008,3.672-1.548,6.479-1.584l4.463-0.072v-0.972c0-3.132-1.62-4.679-4.859-4.679
		c-1.368,0-2.484,0.252-3.348,0.827c-0.972,0.576-1.584,1.476-1.872,2.664l-2.843-0.216c0.396-1.944,1.368-3.42,2.879-4.355
		c1.368-0.864,3.132-1.297,5.363-1.297C33.01,251.846,34.954,252.53,36.25,253.934z M30.743,262.105
		c-4.175,0.072-6.263,1.439-6.263,4.139c0,0.864,0.324,1.549,1.044,2.124c0.72,0.54,1.656,0.828,2.808,0.828
		c1.764,0,3.312-0.576,4.679-1.728c1.332-1.116,2.016-2.412,2.016-3.852v-1.584L30.743,262.105z"/>
	<path class="st1" d="M58.029,259.514v11.446H55.15v-11.23c0-3.636-1.656-5.436-4.896-5.436c-1.296,0-2.412,0.468-3.348,1.403
		c-1.008,1.008-1.548,2.34-1.656,4.032v11.23h-2.879v-18.61h2.879v2.736c0.648-1.044,1.476-1.836,2.484-2.375
		c1.008-0.576,2.124-0.865,3.347-0.865C55.689,251.846,58.029,254.402,58.029,259.514z"/>
	<path class="st1" d="M79.125,244.756v26.204h-2.7v-3.06c-1.296,2.375-3.384,3.563-6.191,3.563c-2.736,0-4.859-1.008-6.371-2.952
		c-1.404-1.799-2.088-4.104-2.088-6.91c0-2.736,0.684-4.968,2.088-6.768c1.512-2.016,3.563-2.988,6.227-2.988
		s4.715,1.297,6.155,3.924v-11.014H79.125z M66.094,256.382c-0.936,1.26-1.368,2.987-1.368,5.22c0,2.231,0.432,3.995,1.332,5.291
		c1.008,1.439,2.52,2.195,4.535,2.195c1.872,0,3.312-0.72,4.355-2.159c0.9-1.296,1.368-2.987,1.368-5.075v-0.36
		c0-2.159-0.54-3.923-1.548-5.255c-1.044-1.368-2.412-2.016-4.068-2.016C68.65,254.223,67.103,254.941,66.094,256.382z"/>
	<path class="st1" d="M101.337,260.413v2.448H83.159v-2.448H101.337z"/>
	<path class="st1" d="M122.001,244.756v26.204h-2.7v-3.06c-1.296,2.375-3.384,3.563-6.191,3.563c-2.736,0-4.859-1.008-6.371-2.952
		c-1.404-1.799-2.088-4.104-2.088-6.91c0-2.736,0.684-4.968,2.088-6.768c1.512-2.016,3.563-2.988,6.227-2.988
		s4.715,1.297,6.155,3.924v-11.014H122.001z M108.97,256.382c-0.936,1.26-1.368,2.987-1.368,5.22c0,2.231,0.432,3.995,1.332,5.291
		c1.008,1.439,2.52,2.195,4.535,2.195c1.872,0,3.312-0.72,4.355-2.159c0.9-1.296,1.368-2.987,1.368-5.075v-0.36
		c0-2.159-0.54-3.923-1.548-5.255c-1.044-1.368-2.412-2.016-4.068-2.016C111.526,254.223,109.979,254.941,108.97,256.382z"/>
	<path class="st1" d="M137.194,252.278v2.88c-0.936-0.288-1.872-0.396-2.772-0.396c-1.439,0-2.664,0.612-3.635,1.908
		c-1.008,1.224-1.476,2.699-1.476,4.428v9.862h-2.843v-18.61h2.843v3.24c0.504-1.08,1.152-1.943,1.944-2.556
		c0.972-0.792,2.088-1.188,3.384-1.188C135.646,251.846,136.51,251.99,137.194,252.278z"/>
	<path class="st1" d="M153.609,253.934c1.08,1.225,1.656,2.916,1.656,5.076v11.95h-2.7v-3.132c-0.72,1.008-1.691,1.836-2.843,2.484
		c-1.368,0.756-2.916,1.151-4.644,1.151c-1.872,0-3.348-0.468-4.463-1.403c-1.152-0.973-1.728-2.232-1.728-3.744
		c0-2.123,0.828-3.707,2.556-4.787c1.512-1.008,3.672-1.548,6.479-1.584l4.463-0.072v-0.972c0-3.132-1.62-4.679-4.859-4.679
		c-1.368,0-2.484,0.252-3.348,0.827c-0.972,0.576-1.584,1.476-1.872,2.664l-2.843-0.216c0.396-1.944,1.368-3.42,2.879-4.355
		c1.368-0.864,3.132-1.297,5.363-1.297C150.369,251.846,152.313,252.53,153.609,253.934z M148.102,262.105
		c-4.175,0.072-6.263,1.439-6.263,4.139c0,0.864,0.324,1.549,1.044,2.124c0.72,0.54,1.656,0.828,2.808,0.828
		c1.764,0,3.312-0.576,4.679-1.728c1.332-1.116,2.016-2.412,2.016-3.852v-1.584L148.102,262.105z"/>
	<path class="st1" d="M160.846,252.35l4.571,15.083l4.319-15.083h2.7l4.32,15.083l4.571-15.083h3.167l-6.335,18.61h-2.736
		l-4.319-14.974l-4.392,14.974h-2.7l-6.335-18.61H160.846z"/>
	<path class="st1" d="M190.833,245.943c0.432,0.359,0.648,0.863,0.648,1.512c0,0.611-0.216,1.115-0.648,1.548
		c-0.432,0.396-0.936,0.612-1.548,0.612s-1.116-0.217-1.548-0.612c-0.432-0.433-0.612-0.937-0.612-1.548
		c0-0.648,0.18-1.152,0.612-1.512c0.432-0.432,0.936-0.612,1.548-0.612S190.401,245.512,190.833,245.943z M190.726,252.35v18.61
		h-2.88v-18.61H190.726z"/>
	<path class="st1" d="M211.784,259.514v11.446h-2.879v-11.23c0-3.636-1.656-5.436-4.896-5.436c-1.296,0-2.412,0.468-3.348,1.403
		c-1.008,1.008-1.548,2.34-1.656,4.032v11.23h-2.879v-18.61h2.879v2.736c0.648-1.044,1.476-1.836,2.484-2.375
		c1.008-0.576,2.124-0.865,3.348-0.865C209.444,251.846,211.784,254.402,211.784,259.514z"/>
	<path class="st1" d="M230.18,255.554v-3.204h2.879v17.314c0,5.939-2.844,8.927-8.495,8.927c-2.52,0-4.464-0.504-5.759-1.512
		c-1.332-1.008-2.16-2.52-2.484-4.535h2.88c0.216,1.26,0.756,2.195,1.583,2.771c0.828,0.612,2.088,0.937,3.78,0.937
		c3.743,0,5.615-2.088,5.615-6.191v-3.275c-1.368,2.482-3.456,3.742-6.263,3.742c-2.592,0-4.644-0.899-6.155-2.663
		c-1.512-1.728-2.232-3.923-2.232-6.623c0-2.735,0.72-4.932,2.232-6.659c1.512-1.836,3.563-2.736,6.155-2.736
		C226.724,251.846,228.812,253.07,230.18,255.554z M219.993,256.238c-1.008,1.223-1.512,2.915-1.512,5.003
		c0,1.944,0.432,3.563,1.332,4.788c1.008,1.367,2.483,2.087,4.5,2.087c1.872,0,3.312-0.647,4.391-1.944
		c1.008-1.26,1.512-2.915,1.512-4.931c0-2.088-0.504-3.78-1.512-5.003c-1.08-1.368-2.52-2.016-4.355-2.016
		C222.477,254.223,221.037,254.87,219.993,256.238z"/>
	<path class="st1" d="M254.126,245.943c0.432,0.359,0.648,0.863,0.648,1.512c0,0.611-0.216,1.115-0.648,1.548
		c-0.432,0.396-0.936,0.612-1.548,0.612s-1.116-0.217-1.548-0.612c-0.432-0.433-0.612-0.937-0.612-1.548
		c0-0.648,0.18-1.152,0.612-1.512c0.432-0.432,0.936-0.612,1.548-0.612S253.694,245.512,254.126,245.943z M254.018,252.35v18.61
		h-2.88v-18.61H254.018z"/>
	<path class="st1" d="M275.076,259.514v11.446h-2.879v-11.23c0-3.636-1.656-5.436-4.896-5.436c-1.296,0-2.412,0.468-3.348,1.403
		c-1.008,1.008-1.548,2.34-1.656,4.032v11.23h-2.879v-18.61h2.879v2.736c0.648-1.044,1.476-1.836,2.484-2.375
		c1.008-0.576,2.124-0.865,3.347-0.865C272.736,251.846,275.076,254.402,275.076,259.514z"/>
	<path class="st1" d="M306.222,253.934c1.08,1.225,1.656,2.916,1.656,5.076v11.95h-2.7v-3.132c-0.72,1.008-1.691,1.836-2.843,2.484
		c-1.368,0.756-2.916,1.151-4.644,1.151c-1.872,0-3.348-0.468-4.463-1.403c-1.152-0.973-1.728-2.232-1.728-3.744
		c0-2.123,0.828-3.707,2.556-4.787c1.512-1.008,3.672-1.548,6.479-1.584l4.463-0.072v-0.972c0-3.132-1.62-4.679-4.859-4.679
		c-1.368,0-2.484,0.252-3.348,0.827c-0.972,0.576-1.584,1.476-1.872,2.664l-2.843-0.216c0.396-1.944,1.368-3.42,2.879-4.355
		c1.368-0.864,3.132-1.297,5.363-1.297C302.982,251.846,304.926,252.53,306.222,253.934z M300.714,262.105
		c-4.175,0.072-6.263,1.439-6.263,4.139c0,0.864,0.324,1.549,1.044,2.124c0.72,0.54,1.656,0.828,2.808,0.828
		c1.764,0,3.312-0.576,4.679-1.728c1.332-1.116,2.016-2.412,2.016-3.852v-1.584L300.714,262.105z"/>
	<path class="st1" d="M340.247,254.834c1.404,1.8,2.124,4.067,2.124,6.875c0,2.736-0.72,5.004-2.088,6.803
		c-1.512,1.944-3.563,2.952-6.227,2.952s-4.715-1.296-6.155-3.888v10.511h-2.879V252.35h2.699v3.061
		c1.332-2.376,3.384-3.564,6.191-3.564C336.575,251.846,338.699,252.818,340.247,254.834z M329.196,256.418
		c-0.936,1.296-1.404,3.023-1.404,5.111v0.359c0,2.16,0.504,3.888,1.584,5.22c1.008,1.296,2.339,1.979,4.067,1.979
		c2.016,0,3.527-0.72,4.571-2.088c0.936-1.295,1.404-3.059,1.404-5.291c0-2.195-0.468-3.959-1.332-5.256
		c-1.043-1.512-2.556-2.23-4.535-2.23C331.68,254.223,330.204,254.941,329.196,256.418z"/>
	<path class="st1" d="M360.551,254.87c1.368,1.8,2.087,4.355,2.16,7.595h-14.686c0.144,2.088,0.684,3.707,1.691,4.859
		c1.008,1.152,2.412,1.729,4.176,1.729c1.512,0,2.771-0.396,3.708-1.152c0.792-0.648,1.404-1.619,1.872-2.916h2.88
		c-0.432,1.801-1.26,3.24-2.52,4.392c-1.548,1.368-3.527,2.088-5.939,2.088c-2.664,0-4.824-0.899-6.407-2.628
		c-1.656-1.799-2.448-4.176-2.448-7.199c0-2.735,0.756-5.039,2.34-6.875c1.583-1.943,3.708-2.916,6.407-2.916
		C356.771,251.846,359.04,252.854,360.551,254.87z M349.86,255.878c-1.008,1.079-1.583,2.52-1.764,4.355h11.626
		c-0.36-3.995-2.339-5.976-5.867-5.976C352.2,254.258,350.868,254.798,349.86,255.878z"/>
	<path class="st1" d="M376.823,252.278v2.88c-0.936-0.288-1.872-0.396-2.772-0.396c-1.439,0-2.664,0.612-3.635,1.908
		c-1.008,1.224-1.476,2.699-1.476,4.428v9.862h-2.843v-18.61h2.843v3.24c0.504-1.08,1.152-1.943,1.944-2.556
		c0.972-0.792,2.088-1.188,3.384-1.188C375.275,251.846,376.139,251.99,376.823,252.278z"/>
	<path class="st1" d="M393.454,257.642h-2.808c-0.252-1.151-0.72-2.016-1.439-2.52c-0.792-0.576-1.944-0.864-3.42-0.864
		c-1.296,0-2.304,0.217-3.023,0.721c-0.792,0.467-1.188,1.115-1.188,1.943c0,0.792,0.504,1.476,1.584,2.016
		c0.684,0.324,1.979,0.72,3.852,1.224c2.231,0.54,3.816,1.116,4.788,1.728c1.476,0.937,2.231,2.196,2.231,3.816
		c0,3.814-2.628,5.759-7.883,5.759c-4.896,0-7.559-2.159-7.991-6.443h2.808c0.216,1.476,0.756,2.521,1.548,3.168
		c0.792,0.575,1.979,0.864,3.563,0.864c3.312,0,5.004-1.08,5.004-3.168c0-1.044-0.612-1.836-1.764-2.412
		c-0.612-0.287-1.944-0.684-3.959-1.188c-2.196-0.54-3.744-1.08-4.607-1.656c-1.44-0.863-2.124-2.051-2.124-3.635
		s0.684-2.809,2.088-3.744c1.296-0.936,3.023-1.404,5.111-1.404C390.431,251.846,392.95,253.754,393.454,257.642z"/>
	<path class="st1" d="M412.391,254.727c1.583,1.835,2.375,4.139,2.375,6.947c0,2.771-0.792,5.074-2.34,6.875
		c-1.691,1.943-3.923,2.915-6.694,2.915c-2.808,0-5.004-0.972-6.659-2.915c-1.584-1.801-2.376-4.104-2.376-6.875
		c0-2.809,0.792-5.112,2.376-6.947c1.655-1.944,3.852-2.881,6.659-2.881C408.503,251.846,410.734,252.782,412.391,254.727z
		 M401.124,256.525c-1.009,1.368-1.477,3.061-1.477,5.148c0,2.051,0.468,3.742,1.477,5.111c1.079,1.512,2.627,2.268,4.607,2.268
		c1.943,0,3.491-0.756,4.643-2.268c0.973-1.369,1.477-3.096,1.477-5.111c0-2.088-0.504-3.78-1.477-5.148
		c-1.151-1.512-2.699-2.268-4.643-2.268C403.751,254.258,402.203,255.014,401.124,256.525z"/>
	<path class="st1" d="M434.17,259.514v11.446h-2.88v-11.23c0-3.636-1.655-5.436-4.896-5.436c-1.296,0-2.411,0.468-3.348,1.403
		c-1.008,1.008-1.548,2.34-1.655,4.032v11.23h-2.88v-18.61h2.88v2.736c0.647-1.044,1.476-1.836,2.483-2.375
		c1.008-0.576,2.124-0.865,3.348-0.865C431.83,251.846,434.17,254.402,434.17,259.514z"/>
	<path class="st1" d="M452.638,253.934c1.08,1.225,1.655,2.916,1.655,5.076v11.95h-2.699v-3.132
		c-0.72,1.008-1.691,1.836-2.844,2.484c-1.368,0.756-2.916,1.151-4.644,1.151c-1.872,0-3.348-0.468-4.463-1.403
		c-1.152-0.973-1.729-2.232-1.729-3.744c0-2.123,0.828-3.707,2.556-4.787c1.512-1.008,3.672-1.548,6.479-1.584l4.464-0.072v-0.972
		c0-3.132-1.62-4.679-4.859-4.679c-1.368,0-2.484,0.252-3.348,0.827c-0.973,0.576-1.584,1.476-1.872,2.664l-2.844-0.216
		c0.396-1.944,1.368-3.42,2.88-4.355c1.367-0.864,3.132-1.297,5.363-1.297C449.397,251.846,451.342,252.53,452.638,253.934z
		 M447.13,262.105c-4.175,0.072-6.263,1.439-6.263,4.139c0,0.864,0.324,1.549,1.044,2.124c0.72,0.54,1.655,0.828,2.808,0.828
		c1.764,0,3.312-0.576,4.679-1.728c1.332-1.116,2.017-2.412,2.017-3.852v-1.584L447.13,262.105z"/>
	<path class="st1" d="M462.179,244.756v26.204h-2.844v-26.204H462.179z"/>
	<path class="st1" d="M494.114,257.642h-2.808c-0.252-1.151-0.72-2.016-1.439-2.52c-0.792-0.576-1.944-0.864-3.42-0.864
		c-1.296,0-2.304,0.217-3.023,0.721c-0.792,0.467-1.188,1.115-1.188,1.943c0,0.792,0.504,1.476,1.584,2.016
		c0.685,0.324,1.979,0.72,3.852,1.224c2.231,0.54,3.815,1.116,4.787,1.728c1.477,0.937,2.232,2.196,2.232,3.816
		c0,3.814-2.628,5.759-7.883,5.759c-4.896,0-7.56-2.159-7.991-6.443h2.808c0.216,1.476,0.756,2.521,1.548,3.168
		c0.792,0.575,1.979,0.864,3.563,0.864c3.312,0,5.003-1.08,5.003-3.168c0-1.044-0.611-1.836-1.764-2.412
		c-0.611-0.287-1.943-0.684-3.959-1.188c-2.196-0.54-3.744-1.08-4.607-1.656c-1.44-0.863-2.124-2.051-2.124-3.635
		s0.684-2.809,2.088-3.744c1.296-0.936,3.023-1.404,5.111-1.404C491.091,251.846,493.61,253.754,494.114,257.642z"/>
	<path class="st1" d="M503.043,252.35h4.607v2.412h-4.607v11.843c0,0.685,0.108,1.188,0.396,1.476
		c0.252,0.288,0.72,0.469,1.367,0.469h2.376v2.411h-2.808c-1.512,0-2.628-0.396-3.275-1.188c-0.612-0.719-0.9-1.764-0.9-3.167
		v-11.843h-3.743v-2.412h3.743v-4.822l2.844-1.188V252.35z"/>
	<path class="st1" d="M511.936,252.35l5.688,14.688l5.507-14.688h3.168l-10.188,25.737h-3.131l3.203-7.56l-7.379-18.178H511.936z"/>
	<path class="st1" d="M532.131,244.756v26.204h-2.844v-26.204H532.131z"/>
	<path class="st1" d="M551.604,254.87c1.368,1.8,2.088,4.355,2.16,7.595h-14.687c0.145,2.088,0.684,3.707,1.691,4.859
		c1.009,1.152,2.412,1.729,4.176,1.729c1.512,0,2.771-0.396,3.708-1.152c0.792-0.648,1.403-1.619,1.871-2.916h2.88
		c-0.432,1.801-1.26,3.24-2.52,4.392c-1.548,1.368-3.527,2.088-5.939,2.088c-2.663,0-4.823-0.899-6.407-2.628
		c-1.655-1.799-2.447-4.176-2.447-7.199c0-2.735,0.756-5.039,2.34-6.875c1.583-1.943,3.707-2.916,6.407-2.916
		C547.825,251.846,550.093,252.854,551.604,254.87z M540.914,255.878c-1.008,1.079-1.584,2.52-1.764,4.355h11.626
		c-0.359-3.995-2.339-5.976-5.867-5.976C543.254,254.258,541.922,254.798,540.914,255.878z"/>
	<path class="st1" d="M561.218,267.324c0.432,0.432,0.647,0.936,0.647,1.584c0,0.611-0.216,1.115-0.647,1.548
		c-0.433,0.433-0.973,0.647-1.548,0.647c-0.648,0-1.152-0.215-1.548-0.647c-0.433-0.433-0.648-0.937-0.648-1.548
		c0-0.648,0.216-1.152,0.648-1.584c0.396-0.432,0.899-0.648,1.548-0.648C560.245,266.676,560.785,266.893,561.218,267.324z"/>
	<path class="st1" d="M596.897,245.26v2.555h-14.254v8.639h13.498v2.557h-13.498v11.95h-2.952v-25.7H596.897z"/>
	<path class="st1" d="M615.078,254.727c1.583,1.835,2.375,4.139,2.375,6.947c0,2.771-0.792,5.074-2.34,6.875
		c-1.691,1.943-3.923,2.915-6.694,2.915c-2.808,0-5.004-0.972-6.659-2.915c-1.584-1.801-2.376-4.104-2.376-6.875
		c0-2.809,0.792-5.112,2.376-6.947c1.655-1.944,3.852-2.881,6.659-2.881C611.19,251.846,613.422,252.782,615.078,254.727z
		 M603.812,256.525c-1.009,1.368-1.477,3.061-1.477,5.148c0,2.051,0.468,3.742,1.477,5.111c1.079,1.512,2.627,2.268,4.607,2.268
		c1.943,0,3.491-0.756,4.643-2.268c0.973-1.369,1.477-3.096,1.477-5.111c0-2.088-0.504-3.78-1.477-5.148
		c-1.151-1.512-2.699-2.268-4.643-2.268C606.438,254.258,604.891,255.014,603.812,256.525z"/>
	<path class="st1" d="M631.926,252.278v2.88c-0.936-0.288-1.872-0.396-2.771-0.396c-1.439,0-2.664,0.612-3.636,1.908
		c-1.008,1.224-1.476,2.699-1.476,4.428v9.862h-2.844v-18.61h2.844v3.24c0.504-1.08,1.151-1.943,1.943-2.556
		c0.973-0.792,2.088-1.188,3.384-1.188C630.378,251.846,631.242,251.99,631.926,252.278z"/>
	<path class="st1" d="M661.451,254.87c1.367,1.8,2.087,4.355,2.159,7.595h-14.686c0.144,2.088,0.684,3.707,1.691,4.859
		s2.412,1.729,4.176,1.729c1.512,0,2.771-0.396,3.707-1.152c0.792-0.648,1.404-1.619,1.872-2.916h2.88
		c-0.433,1.801-1.26,3.24-2.521,4.392c-1.548,1.368-3.527,2.088-5.938,2.088c-2.664,0-4.824-0.899-6.407-2.628
		c-1.656-1.799-2.448-4.176-2.448-7.199c0-2.735,0.756-5.039,2.34-6.875c1.584-1.943,3.708-2.916,6.407-2.916
		C657.671,251.846,659.939,252.854,661.451,254.87z M650.76,255.878c-1.008,1.079-1.583,2.52-1.764,4.355h11.627
		c-0.36-3.995-2.34-5.976-5.867-5.976C653.1,254.258,651.768,254.798,650.76,255.878z"/>
	<path class="st1" d="M680.999,253.934c1.08,1.225,1.655,2.916,1.655,5.076v11.95h-2.699v-3.132
		c-0.72,1.008-1.691,1.836-2.844,2.484c-1.368,0.756-2.916,1.151-4.644,1.151c-1.872,0-3.348-0.468-4.463-1.403
		c-1.152-0.973-1.729-2.232-1.729-3.744c0-2.123,0.828-3.707,2.556-4.787c1.512-1.008,3.672-1.548,6.479-1.584l4.464-0.072v-0.972
		c0-3.132-1.62-4.679-4.859-4.679c-1.368,0-2.484,0.252-3.348,0.827c-0.973,0.576-1.584,1.476-1.872,2.664l-2.844-0.216
		c0.396-1.944,1.368-3.42,2.88-4.355c1.367-0.864,3.132-1.297,5.363-1.297C677.759,251.846,679.703,252.53,680.999,253.934z
		 M675.491,262.105c-4.175,0.072-6.263,1.439-6.263,4.139c0,0.864,0.324,1.549,1.044,2.124c0.72,0.54,1.655,0.828,2.808,0.828
		c1.764,0,3.312-0.576,4.679-1.728c1.332-1.116,2.017-2.412,2.017-3.852v-1.584L675.491,262.105z"/>
	<path class="st1" d="M700.69,253.467c1.439,1.115,2.304,2.807,2.628,5.074h-2.844c-0.252-1.439-0.828-2.52-1.728-3.239
		c-0.937-0.72-2.124-1.044-3.6-1.044c-1.8,0-3.24,0.684-4.284,2.052c-1.008,1.332-1.512,3.132-1.512,5.399s0.468,4.067,1.477,5.363
		c0.972,1.296,2.411,1.98,4.283,1.98c3.167,0,5.003-1.62,5.436-4.824h2.879c-0.432,2.376-1.331,4.212-2.771,5.436
		c-1.403,1.188-3.239,1.8-5.543,1.8c-2.808,0-4.968-0.937-6.516-2.808c-1.476-1.764-2.195-4.067-2.195-6.911s0.72-5.147,2.195-6.947
		c1.584-1.979,3.779-2.952,6.552-2.952C697.451,251.846,699.286,252.387,700.69,253.467z"/>
	<path class="st1" d="M709.691,244.756v10.654c0.648-1.188,1.512-2.088,2.592-2.699c1.008-0.576,2.124-0.865,3.384-0.865
		c2.159,0,3.852,0.613,5.003,1.908c1.152,1.26,1.729,3.096,1.729,5.472v11.734h-2.88v-11.303c0-1.728-0.432-3.06-1.224-3.995
		c-0.864-0.936-2.052-1.404-3.6-1.404c-1.44,0-2.628,0.576-3.563,1.729c-0.973,1.151-1.44,2.627-1.44,4.355v10.618h-2.879v-26.204
		H709.691z"/>
	<path class="st1" d="M754.48,254.727c1.583,1.835,2.375,4.139,2.375,6.947c0,2.771-0.792,5.074-2.34,6.875
		c-1.691,1.943-3.923,2.915-6.694,2.915c-2.808,0-5.004-0.972-6.659-2.915c-1.584-1.801-2.376-4.104-2.376-6.875
		c0-2.809,0.792-5.112,2.376-6.947c1.655-1.944,3.852-2.881,6.659-2.881C750.593,251.846,752.824,252.782,754.48,254.727z
		 M743.214,256.525c-1.009,1.368-1.477,3.061-1.477,5.148c0,2.051,0.468,3.742,1.477,5.111c1.079,1.512,2.627,2.268,4.607,2.268
		c1.943,0,3.491-0.756,4.643-2.268c0.973-1.369,1.477-3.096,1.477-5.111c0-2.088-0.504-3.78-1.477-5.148
		c-1.151-1.512-2.699-2.268-4.643-2.268C745.841,254.258,744.293,255.014,743.214,256.525z"/>
	<path class="st1" d="M771.616,245.26v2.482h-3.203c-0.792,0-1.404,0.181-1.765,0.613c-0.359,0.396-0.539,1.043-0.539,1.943v2.051
		h5.255v2.412h-5.255v16.198h-2.88v-16.198h-4.68v-2.412h4.68v-2.123c0-1.584,0.396-2.771,1.188-3.636
		c0.828-0.899,2.052-1.331,3.636-1.331H771.616z"/>
	<path class="st1" d="M7.199,312.35h4.607v2.412H7.199v11.843c0,0.685,0.108,1.188,0.396,1.476c0.252,0.288,0.72,0.469,1.368,0.469
		h2.375v2.411H8.531c-1.512,0-2.627-0.396-3.275-1.188c-0.612-0.719-0.9-1.764-0.9-3.167v-11.843H0.612v-2.412h3.744v-4.822
		l2.844-1.188V312.35z"/>
	<path class="st1" d="M17.891,304.756v10.654c0.648-1.188,1.512-2.088,2.592-2.699c1.008-0.576,2.124-0.865,3.383-0.865
		c2.16,0,3.852,0.613,5.003,1.908c1.152,1.26,1.728,3.096,1.728,5.472v11.734h-2.88v-11.303c0-1.728-0.432-3.06-1.224-3.995
		c-0.864-0.936-2.052-1.404-3.6-1.404c-1.44,0-2.628,0.576-3.563,1.729c-0.972,1.151-1.44,2.627-1.44,4.355v10.618h-2.879v-26.204
		H17.891z"/>
	<path class="st1" d="M49.462,314.87c1.368,1.8,2.087,4.355,2.16,7.595H36.936c0.144,2.088,0.684,3.707,1.691,4.859
		c1.008,1.152,2.412,1.729,4.176,1.729c1.512,0,2.771-0.396,3.708-1.152c0.792-0.648,1.404-1.619,1.872-2.916h2.88
		c-0.432,1.801-1.26,3.24-2.52,4.392c-1.547,1.368-3.527,2.088-5.939,2.088c-2.664,0-4.823-0.899-6.407-2.628
		c-1.656-1.799-2.448-4.176-2.448-7.199c0-2.735,0.756-5.039,2.34-6.875c1.583-1.943,3.708-2.916,6.407-2.916
		C45.682,311.846,47.95,312.854,49.462,314.87z M38.771,315.878c-1.008,1.079-1.583,2.52-1.764,4.355h11.626
		c-0.36-3.995-2.339-5.976-5.867-5.976C41.111,314.258,39.779,314.798,38.771,315.878z"/>
	<path class="st1" d="M68.973,315.374c0.72-1.224,1.584-2.124,2.592-2.663c0.9-0.576,1.98-0.865,3.276-0.865
		c1.943,0,3.491,0.613,4.715,1.836c1.152,1.26,1.764,2.952,1.764,5.076v12.202h-2.88v-11.734c0-1.655-0.36-2.88-1.043-3.672
		c-0.72-0.864-1.872-1.26-3.456-1.26c-1.224,0-2.268,0.433-3.06,1.368c-0.864,0.936-1.26,2.123-1.26,3.635v11.663h-2.879v-11.734
		c0-3.312-1.44-4.932-4.284-4.932c-1.332,0-2.412,0.504-3.275,1.584c-0.864,1.008-1.296,2.268-1.296,3.743v11.339h-2.879v-18.61
		h2.879v2.484c1.404-2.016,3.167-2.988,5.255-2.988C65.986,311.846,67.93,312.998,68.973,315.374z"/>
	<path class="st1" d="M90.286,327.685c0.468,0.647,0.72,1.476,0.72,2.52c0,1.584-0.468,2.987-1.404,4.212
		c-0.936,1.151-2.196,1.943-3.744,2.34v-1.765c0.936-0.323,1.728-0.864,2.304-1.583c0.54-0.756,0.792-1.549,0.792-2.412
		c-0.18,0.072-0.432,0.145-0.792,0.145c-0.612,0-1.116-0.217-1.548-0.648s-0.648-0.973-0.648-1.584c0-0.684,0.216-1.224,0.684-1.619
		c0.396-0.433,0.936-0.613,1.656-0.613C89.099,326.676,89.782,327,90.286,327.685z"/>
	<path class="st1" d="M113.747,305.26v25.7h-2.916v-25.7H113.747z"/>
	<path class="st1" d="M147.718,315.374c0.72-1.224,1.584-2.124,2.592-2.663c0.9-0.576,1.98-0.865,3.276-0.865
		c1.943,0,3.491,0.613,4.715,1.836c1.152,1.26,1.764,2.952,1.764,5.076v12.202h-2.88v-11.734c0-1.655-0.36-2.88-1.043-3.672
		c-0.72-0.864-1.872-1.26-3.456-1.26c-1.224,0-2.268,0.433-3.06,1.368c-0.864,0.936-1.26,2.123-1.26,3.635v11.663h-2.879v-11.734
		c0-3.312-1.44-4.932-4.284-4.932c-1.332,0-2.412,0.504-3.275,1.584c-0.864,1.008-1.296,2.268-1.296,3.743v11.339h-2.879v-18.61
		h2.879v2.484c1.404-2.016,3.167-2.988,5.255-2.988C144.73,311.846,146.674,312.998,147.718,315.374z"/>
	<path class="st1" d="M178.534,313.934c1.08,1.225,1.656,2.916,1.656,5.076v11.95h-2.7v-3.132c-0.72,1.008-1.691,1.836-2.843,2.484
		c-1.368,0.756-2.916,1.151-4.644,1.151c-1.872,0-3.348-0.468-4.463-1.403c-1.152-0.973-1.728-2.232-1.728-3.744
		c0-2.123,0.828-3.707,2.556-4.787c1.512-1.008,3.672-1.548,6.479-1.584l4.463-0.072v-0.972c0-3.132-1.62-4.679-4.859-4.679
		c-1.368,0-2.484,0.252-3.348,0.827c-0.972,0.576-1.584,1.476-1.872,2.664l-2.843-0.216c0.396-1.944,1.368-3.42,2.879-4.355
		c1.368-0.864,3.132-1.297,5.363-1.297C175.294,311.846,177.238,312.53,178.534,313.934z M173.026,322.105
		c-4.175,0.072-6.263,1.439-6.263,4.139c0,0.864,0.324,1.549,1.044,2.124c0.72,0.54,1.656,0.828,2.808,0.828
		c1.764,0,3.312-0.576,4.679-1.728c1.332-1.116,2.016-2.412,2.016-3.852v-1.584L173.026,322.105z"/>
	<path class="st1" d="M201.285,304.756v26.204h-2.7v-3.06c-1.296,2.375-3.384,3.563-6.191,3.563c-2.736,0-4.859-1.008-6.371-2.952
		c-1.404-1.799-2.088-4.104-2.088-6.91c0-2.736,0.684-4.968,2.088-6.768c1.512-2.016,3.563-2.988,6.227-2.988
		s4.715,1.297,6.155,3.924v-11.014H201.285z M188.254,316.382c-0.936,1.26-1.368,2.987-1.368,5.22c0,2.231,0.432,3.995,1.332,5.291
		c1.008,1.439,2.52,2.195,4.535,2.195c1.872,0,3.312-0.72,4.355-2.159c0.9-1.296,1.368-2.987,1.368-5.075v-0.36
		c0-2.159-0.54-3.923-1.548-5.255c-1.044-1.368-2.412-2.016-4.068-2.016C190.81,314.223,189.263,314.941,188.254,316.382z"/>
	<path class="st1" d="M220.186,314.87c1.368,1.8,2.087,4.355,2.16,7.595h-14.686c0.144,2.088,0.684,3.707,1.691,4.859
		c1.008,1.152,2.412,1.729,4.176,1.729c1.512,0,2.771-0.396,3.708-1.152c0.792-0.648,1.404-1.619,1.872-2.916h2.88
		c-0.432,1.801-1.26,3.24-2.52,4.392c-1.547,1.368-3.527,2.088-5.939,2.088c-2.664,0-4.823-0.899-6.407-2.628
		c-1.656-1.799-2.448-4.176-2.448-7.199c0-2.735,0.756-5.039,2.34-6.875c1.583-1.943,3.708-2.916,6.407-2.916
		C216.406,311.846,218.674,312.854,220.186,314.87z M209.495,315.878c-1.008,1.079-1.583,2.52-1.764,4.355h11.626
		c-0.36-3.995-2.339-5.976-5.867-5.976C211.834,314.258,210.502,314.798,209.495,315.878z"/>
	<path class="st1" d="M254.697,313.934c1.08,1.225,1.656,2.916,1.656,5.076v11.95h-2.7v-3.132c-0.72,1.008-1.691,1.836-2.843,2.484
		c-1.368,0.756-2.916,1.151-4.644,1.151c-1.872,0-3.348-0.468-4.463-1.403c-1.152-0.973-1.728-2.232-1.728-3.744
		c0-2.123,0.828-3.707,2.556-4.787c1.512-1.008,3.672-1.548,6.479-1.584l4.463-0.072v-0.972c0-3.132-1.62-4.679-4.859-4.679
		c-1.368,0-2.484,0.252-3.348,0.827c-0.972,0.576-1.584,1.476-1.872,2.664l-2.843-0.216c0.396-1.944,1.368-3.42,2.879-4.355
		c1.368-0.864,3.132-1.297,5.363-1.297C251.458,311.846,253.401,312.53,254.697,313.934z M249.19,322.105
		c-4.175,0.072-6.263,1.439-6.263,4.139c0,0.864,0.324,1.549,1.044,2.124c0.72,0.54,1.656,0.828,2.808,0.828
		c1.764,0,3.312-0.576,4.679-1.728c1.332-1.116,2.016-2.412,2.016-3.852v-1.584L249.19,322.105z"/>
	<path class="st1" d="M290,317.642h-2.808c-0.252-1.151-0.72-2.016-1.439-2.52c-0.792-0.576-1.944-0.864-3.42-0.864
		c-1.295,0-2.304,0.217-3.023,0.721c-0.792,0.467-1.188,1.115-1.188,1.943c0,0.792,0.504,1.476,1.584,2.016
		c0.684,0.324,1.979,0.72,3.852,1.224c2.231,0.54,3.815,1.116,4.787,1.728c1.476,0.937,2.232,2.196,2.232,3.816
		c0,3.814-2.627,5.759-7.883,5.759c-4.896,0-7.559-2.159-7.991-6.443h2.808c0.216,1.476,0.756,2.521,1.548,3.168
		c0.792,0.575,1.98,0.864,3.563,0.864c3.312,0,5.003-1.08,5.003-3.168c0-1.044-0.612-1.836-1.764-2.412
		c-0.612-0.287-1.944-0.684-3.959-1.188c-2.196-0.54-3.744-1.08-4.607-1.656c-1.44-0.863-2.124-2.051-2.124-3.635
		s0.684-2.809,2.088-3.744c1.296-0.936,3.023-1.404,5.111-1.404C286.977,311.846,289.497,313.754,290,317.642z"/>
	<path class="st1" d="M296.842,304.756v10.654c0.648-1.188,1.512-2.088,2.592-2.699c1.008-0.576,2.124-0.865,3.383-0.865
		c2.16,0,3.852,0.613,5.003,1.908c1.152,1.26,1.728,3.096,1.728,5.472v11.734h-2.88v-11.303c0-1.728-0.432-3.06-1.224-3.995
		c-0.864-0.936-2.052-1.404-3.6-1.404c-1.44,0-2.627,0.576-3.563,1.729c-0.972,1.151-1.44,2.627-1.44,4.355v10.618h-2.879v-26.204
		H296.842z"/>
	<path class="st1" d="M328.953,314.727c1.583,1.835,2.375,4.139,2.375,6.947c0,2.771-0.792,5.074-2.34,6.875
		c-1.691,1.943-3.923,2.915-6.695,2.915c-2.808,0-5.003-0.972-6.659-2.915c-1.584-1.801-2.376-4.104-2.376-6.875
		c0-2.809,0.792-5.112,2.376-6.947c1.656-1.944,3.852-2.881,6.659-2.881C325.065,311.846,327.297,312.782,328.953,314.727z
		 M317.686,316.525c-1.008,1.368-1.476,3.061-1.476,5.148c0,2.051,0.468,3.742,1.476,5.111c1.08,1.512,2.627,2.268,4.607,2.268
		c1.943,0,3.491-0.756,4.643-2.268c0.972-1.369,1.476-3.096,1.476-5.111c0-2.088-0.504-3.78-1.476-5.148
		c-1.152-1.512-2.7-2.268-4.643-2.268C320.313,314.258,318.766,315.014,317.686,316.525z"/>
	<path class="st1" d="M345.801,312.278v2.88c-0.936-0.288-1.872-0.396-2.772-0.396c-1.439,0-2.664,0.612-3.635,1.908
		c-1.008,1.224-1.476,2.699-1.476,4.428v9.862h-2.843v-18.61h2.843v3.24c0.504-1.08,1.152-1.943,1.944-2.556
		c0.972-0.792,2.088-1.188,3.384-1.188C344.253,311.846,345.117,311.99,345.801,312.278z"/>
	<path class="st1" d="M353.181,312.35h4.607v2.412h-4.607v11.843c0,0.685,0.108,1.188,0.396,1.476
		c0.252,0.288,0.72,0.469,1.368,0.469h2.375v2.411h-2.808c-1.512,0-2.627-0.396-3.275-1.188c-0.612-0.719-0.9-1.764-0.9-3.167
		v-11.843h-3.744v-2.412h3.744v-4.822l2.844-1.188V312.35z"/>
	<path class="st1" d="M390.176,317.642h-2.808c-0.252-1.151-0.72-2.016-1.439-2.52c-0.792-0.576-1.944-0.864-3.42-0.864
		c-1.296,0-2.304,0.217-3.023,0.721c-0.792,0.467-1.188,1.115-1.188,1.943c0,0.792,0.504,1.476,1.584,2.016
		c0.684,0.324,1.979,0.72,3.852,1.224c2.231,0.54,3.815,1.116,4.787,1.728c1.476,0.937,2.232,2.196,2.232,3.816
		c0,3.814-2.628,5.759-7.883,5.759c-4.896,0-7.559-2.159-7.991-6.443h2.808c0.216,1.476,0.756,2.521,1.548,3.168
		c0.792,0.575,1.979,0.864,3.563,0.864c3.312,0,5.003-1.08,5.003-3.168c0-1.044-0.612-1.836-1.764-2.412
		c-0.612-0.287-1.944-0.684-3.959-1.188c-2.196-0.54-3.744-1.08-4.607-1.656c-1.44-0.863-2.124-2.051-2.124-3.635
		s0.684-2.809,2.088-3.744c1.296-0.936,3.023-1.404,5.111-1.404C387.152,311.846,389.672,313.754,390.176,317.642z"/>
	<path class="st1" d="M399.105,312.35h4.607v2.412h-4.607v11.843c0,0.685,0.107,1.188,0.396,1.476
		c0.252,0.288,0.72,0.469,1.368,0.469h2.375v2.411h-2.808c-1.512,0-2.627-0.396-3.275-1.188c-0.611-0.719-0.899-1.764-0.899-3.167
		v-11.843h-3.744v-2.412h3.744v-4.822l2.844-1.188V312.35z"/>
	<path class="st1" d="M421.892,314.727c1.584,1.835,2.376,4.139,2.376,6.947c0,2.771-0.792,5.074-2.34,6.875
		c-1.692,1.943-3.924,2.915-6.695,2.915c-2.808,0-5.003-0.972-6.659-2.915c-1.584-1.801-2.376-4.104-2.376-6.875
		c0-2.809,0.792-5.112,2.376-6.947c1.656-1.944,3.852-2.881,6.659-2.881C418.004,311.846,420.235,312.782,421.892,314.727z
		 M410.625,316.525c-1.008,1.368-1.476,3.061-1.476,5.148c0,2.051,0.468,3.742,1.476,5.111c1.08,1.512,2.628,2.268,4.607,2.268
		c1.943,0,3.491-0.756,4.644-2.268c0.972-1.369,1.476-3.096,1.476-5.111c0-2.088-0.504-3.78-1.476-5.148
		c-1.152-1.512-2.7-2.268-4.644-2.268C413.253,314.258,411.705,315.014,410.625,316.525z"/>
	<path class="st1" d="M443.24,314.834c1.403,1.8,2.123,4.067,2.123,6.875c0,2.736-0.72,5.004-2.088,6.803
		c-1.512,1.944-3.563,2.952-6.227,2.952c-2.664,0-4.716-1.296-6.155-3.888v10.511h-2.88V312.35h2.699v3.061
		c1.332-2.376,3.384-3.564,6.191-3.564C439.568,311.846,441.692,312.818,443.24,314.834z M432.189,316.418
		c-0.937,1.296-1.404,3.023-1.404,5.111v0.359c0,2.16,0.504,3.888,1.584,5.22c1.008,1.296,2.34,1.979,4.067,1.979
		c2.016,0,3.527-0.72,4.571-2.088c0.937-1.295,1.404-3.059,1.404-5.291c0-2.195-0.468-3.959-1.332-5.256
		c-1.044-1.512-2.556-2.23-4.535-2.23C434.673,314.223,433.197,314.941,432.189,316.418z"/>
	<path class="st1" d="M466.855,320.413v2.448h-18.178v-2.448H466.855z"/>
	<path class="st1" d="M484.855,315.374c0.72-1.224,1.584-2.124,2.592-2.663c0.899-0.576,1.979-0.865,3.275-0.865
		c1.943,0,3.491,0.613,4.716,1.836c1.151,1.26,1.764,2.952,1.764,5.076v12.202h-2.88v-11.734c0-1.655-0.36-2.88-1.044-3.672
		c-0.72-0.864-1.872-1.26-3.455-1.26c-1.225,0-2.269,0.433-3.06,1.368c-0.864,0.936-1.261,2.123-1.261,3.635v11.663h-2.879v-11.734
		c0-3.312-1.44-4.932-4.284-4.932c-1.331,0-2.411,0.504-3.275,1.584c-0.863,1.008-1.296,2.268-1.296,3.743v11.339h-2.879v-18.61
		h2.879v2.484c1.404-2.016,3.168-2.988,5.256-2.988C481.868,311.846,483.812,312.998,484.855,315.374z"/>
	<path class="st1" d="M516.644,314.727c1.583,1.835,2.375,4.139,2.375,6.947c0,2.771-0.792,5.074-2.34,6.875
		c-1.691,1.943-3.923,2.915-6.694,2.915c-2.808,0-5.004-0.972-6.659-2.915c-1.584-1.801-2.376-4.104-2.376-6.875
		c0-2.809,0.792-5.112,2.376-6.947c1.655-1.944,3.852-2.881,6.659-2.881C512.756,311.846,514.987,312.782,516.644,314.727z
		 M505.377,316.525c-1.009,1.368-1.477,3.061-1.477,5.148c0,2.051,0.468,3.742,1.477,5.111c1.079,1.512,2.627,2.268,4.607,2.268
		c1.943,0,3.491-0.756,4.643-2.268c0.973-1.369,1.477-3.096,1.477-5.111c0-2.088-0.504-3.78-1.477-5.148
		c-1.151-1.512-2.699-2.268-4.643-2.268C508.004,314.258,506.456,315.014,505.377,316.525z"/>
	<path class="st1" d="M527.732,312.35h4.607v2.412h-4.607v11.843c0,0.685,0.107,1.188,0.396,1.476
		c0.252,0.288,0.72,0.469,1.368,0.469h2.375v2.411h-2.808c-1.512,0-2.627-0.396-3.275-1.188c-0.611-0.719-0.899-1.764-0.899-3.167
		v-11.843h-3.744v-2.412h3.744v-4.822l2.844-1.188V312.35z"/>
	<path class="st1" d="M539.468,305.943c0.433,0.359,0.648,0.863,0.648,1.512c0,0.611-0.216,1.115-0.648,1.548
		c-0.432,0.396-0.936,0.612-1.548,0.612c-0.611,0-1.115-0.217-1.548-0.612c-0.432-0.433-0.611-0.937-0.611-1.548
		c0-0.648,0.18-1.152,0.611-1.512c0.433-0.432,0.937-0.612,1.548-0.612C538.532,305.331,539.036,305.512,539.468,305.943z
		 M539.36,312.35v18.61h-2.88v-18.61H539.36z"/>
	<path class="st1" d="M559.734,314.727c1.584,1.835,2.376,4.139,2.376,6.947c0,2.771-0.792,5.074-2.34,6.875
		c-1.692,1.943-3.924,2.915-6.695,2.915c-2.808,0-5.003-0.972-6.659-2.915c-1.584-1.801-2.376-4.104-2.376-6.875
		c0-2.809,0.792-5.112,2.376-6.947c1.656-1.944,3.852-2.881,6.659-2.881C555.847,311.846,558.078,312.782,559.734,314.727z
		 M548.468,316.525c-1.008,1.368-1.476,3.061-1.476,5.148c0,2.051,0.468,3.742,1.476,5.111c1.08,1.512,2.628,2.268,4.607,2.268
		c1.943,0,3.491-0.756,4.644-2.268c0.972-1.369,1.476-3.096,1.476-5.111c0-2.088-0.504-3.78-1.476-5.148
		c-1.152-1.512-2.7-2.268-4.644-2.268C551.096,314.258,549.548,315.014,548.468,316.525z"/>
	<path class="st1" d="M581.515,319.514v11.446h-2.88v-11.23c0-3.636-1.655-5.436-4.896-5.436c-1.296,0-2.411,0.468-3.348,1.403
		c-1.008,1.008-1.548,2.34-1.655,4.032v11.23h-2.88v-18.61h2.88v2.736c0.647-1.044,1.476-1.836,2.483-2.375
		c1.008-0.576,2.124-0.865,3.348-0.865C579.175,311.846,581.515,314.402,581.515,319.514z"/>
	<path class="st1" d="M614.946,313.934c1.08,1.225,1.656,2.916,1.656,5.076v11.95h-2.7v-3.132c-0.72,1.008-1.691,1.836-2.843,2.484
		c-1.368,0.756-2.916,1.151-4.644,1.151c-1.872,0-3.348-0.468-4.464-1.403c-1.151-0.973-1.728-2.232-1.728-3.744
		c0-2.123,0.828-3.707,2.556-4.787c1.512-1.008,3.672-1.548,6.479-1.584l4.463-0.072v-0.972c0-3.132-1.62-4.679-4.859-4.679
		c-1.368,0-2.483,0.252-3.348,0.827c-0.972,0.576-1.584,1.476-1.872,2.664l-2.843-0.216c0.396-1.944,1.367-3.42,2.879-4.355
		c1.368-0.864,3.132-1.297,5.363-1.297C611.707,311.846,613.65,312.53,614.946,313.934z M609.439,322.105
		c-4.176,0.072-6.264,1.439-6.264,4.139c0,0.864,0.324,1.549,1.044,2.124c0.72,0.54,1.656,0.828,2.808,0.828
		c1.764,0,3.312-0.576,4.68-1.728c1.332-1.116,2.016-2.412,2.016-3.852v-1.584L609.439,322.105z"/>
	<path class="st1" d="M636.726,319.514v11.446h-2.879v-11.23c0-3.636-1.656-5.436-4.896-5.436c-1.296,0-2.412,0.468-3.348,1.403
		c-1.008,1.008-1.548,2.34-1.656,4.032v11.23h-2.879v-18.61h2.879v2.736c0.648-1.044,1.477-1.836,2.484-2.375
		c1.008-0.576,2.123-0.865,3.347-0.865C634.386,311.846,636.726,314.402,636.726,319.514z"/>
	<path class="st1" d="M645.115,305.943c0.432,0.359,0.647,0.863,0.647,1.512c0,0.611-0.216,1.115-0.647,1.548
		c-0.433,0.396-0.937,0.612-1.548,0.612c-0.612,0-1.116-0.217-1.548-0.612c-0.433-0.433-0.612-0.937-0.612-1.548
		c0-0.648,0.18-1.152,0.612-1.512c0.432-0.432,0.936-0.612,1.548-0.612C644.179,305.331,644.683,305.512,645.115,305.943z
		 M645.007,312.35v18.61h-2.88v-18.61H645.007z"/>
	<path class="st1" d="M664.373,315.374c0.721-1.224,1.584-2.124,2.592-2.663c0.9-0.576,1.98-0.865,3.276-0.865
		c1.943,0,3.491,0.613,4.715,1.836c1.152,1.26,1.764,2.952,1.764,5.076v12.202h-2.88v-11.734c0-1.655-0.359-2.88-1.043-3.672
		c-0.721-0.864-1.872-1.26-3.456-1.26c-1.224,0-2.268,0.433-3.06,1.368c-0.864,0.936-1.26,2.123-1.26,3.635v11.663h-2.88v-11.734
		c0-3.312-1.439-4.932-4.283-4.932c-1.332,0-2.412,0.504-3.275,1.584c-0.864,1.008-1.296,2.268-1.296,3.743v11.339h-2.88v-18.61
		h2.88v2.484c1.403-2.016,3.167-2.988,5.255-2.988C661.386,311.846,663.33,312.998,664.373,315.374z"/>
	<path class="st1" d="M695.189,313.934c1.08,1.225,1.655,2.916,1.655,5.076v11.95h-2.699v-3.132
		c-0.72,1.008-1.691,1.836-2.844,2.484c-1.368,0.756-2.916,1.151-4.644,1.151c-1.872,0-3.348-0.468-4.463-1.403
		c-1.152-0.973-1.729-2.232-1.729-3.744c0-2.123,0.828-3.707,2.556-4.787c1.512-1.008,3.672-1.548,6.479-1.584l4.464-0.072v-0.972
		c0-3.132-1.62-4.679-4.859-4.679c-1.368,0-2.484,0.252-3.348,0.827c-0.973,0.576-1.584,1.476-1.872,2.664l-2.844-0.216
		c0.396-1.944,1.368-3.42,2.88-4.355c1.367-0.864,3.132-1.297,5.363-1.297C691.949,311.846,693.894,312.53,695.189,313.934z
		 M689.682,322.105c-4.175,0.072-6.263,1.439-6.263,4.139c0,0.864,0.324,1.549,1.044,2.124c0.72,0.54,1.655,0.828,2.808,0.828
		c1.764,0,3.312-0.576,4.679-1.728c1.332-1.116,2.017-2.412,2.017-3.852v-1.584L689.682,322.105z"/>
	<path class="st1" d="M706.278,312.35h4.607v2.412h-4.607v11.843c0,0.685,0.107,1.188,0.396,1.476
		c0.252,0.288,0.72,0.469,1.368,0.469h2.375v2.411h-2.808c-1.512,0-2.627-0.396-3.275-1.188c-0.611-0.719-0.899-1.764-0.899-3.167
		v-11.843h-3.744v-2.412h3.744v-4.822l2.844-1.188V312.35z"/>
	<path class="st1" d="M718.014,305.943c0.433,0.359,0.648,0.863,0.648,1.512c0,0.611-0.216,1.115-0.648,1.548
		c-0.432,0.396-0.936,0.612-1.548,0.612c-0.611,0-1.115-0.217-1.548-0.612c-0.432-0.433-0.611-0.937-0.611-1.548
		c0-0.648,0.18-1.152,0.611-1.512c0.433-0.432,0.937-0.612,1.548-0.612C717.078,305.331,717.582,305.512,718.014,305.943z
		 M717.906,312.35v18.61h-2.88v-18.61H717.906z"/>
	<path class="st1" d="M738.28,314.727c1.584,1.835,2.376,4.139,2.376,6.947c0,2.771-0.792,5.074-2.34,6.875
		c-1.692,1.943-3.924,2.915-6.695,2.915c-2.808,0-5.003-0.972-6.659-2.915c-1.584-1.801-2.376-4.104-2.376-6.875
		c0-2.809,0.792-5.112,2.376-6.947c1.656-1.944,3.852-2.881,6.659-2.881C734.393,311.846,736.624,312.782,738.28,314.727z
		 M727.014,316.525c-1.008,1.368-1.476,3.061-1.476,5.148c0,2.051,0.468,3.742,1.476,5.111c1.08,1.512,2.628,2.268,4.607,2.268
		c1.943,0,3.491-0.756,4.644-2.268c0.972-1.369,1.476-3.096,1.476-5.111c0-2.088-0.504-3.78-1.476-5.148
		c-1.152-1.512-2.7-2.268-4.644-2.268C729.642,314.258,728.094,315.014,727.014,316.525z"/>
	<path class="st1" d="M760.061,319.514v11.446h-2.88v-11.23c0-3.636-1.655-5.436-4.896-5.436c-1.296,0-2.411,0.468-3.348,1.403
		c-1.008,1.008-1.548,2.34-1.655,4.032v11.23h-2.88v-18.61h2.88v2.736c0.647-1.044,1.476-1.836,2.483-2.375
		c1.008-0.576,2.124-0.865,3.348-0.865C757.721,311.846,760.061,314.402,760.061,319.514z"/>
	<path class="st1" d="M769.025,327.685c0.468,0.647,0.72,1.476,0.72,2.52c0,1.584-0.468,2.987-1.403,4.212
		c-0.937,1.151-2.196,1.943-3.744,2.34v-1.765c0.937-0.323,1.728-0.864,2.304-1.583c0.54-0.756,0.792-1.549,0.792-2.412
		c-0.18,0.072-0.432,0.145-0.792,0.145c-0.611,0-1.115-0.217-1.548-0.648c-0.432-0.432-0.647-0.973-0.647-1.584
		c0-0.684,0.216-1.224,0.684-1.619c0.396-0.433,0.936-0.613,1.656-0.613C767.838,326.676,768.521,327,769.025,327.685z"/>
	<path class="st1" d="M169.576,373.934c1.08,1.225,1.656,2.916,1.656,5.076v11.95h-2.7v-3.132c-0.72,1.008-1.691,1.836-2.843,2.484
		c-1.368,0.756-2.916,1.151-4.644,1.151c-1.872,0-3.348-0.468-4.463-1.403c-1.152-0.973-1.728-2.232-1.728-3.744
		c0-2.123,0.828-3.707,2.556-4.787c1.512-1.008,3.672-1.548,6.479-1.584l4.463-0.072v-0.972c0-3.132-1.62-4.679-4.859-4.679
		c-1.368,0-2.484,0.252-3.348,0.827c-0.972,0.576-1.584,1.476-1.872,2.664l-2.843-0.216c0.396-1.944,1.368-3.42,2.879-4.355
		c1.368-0.864,3.132-1.297,5.363-1.297C166.336,371.846,168.28,372.53,169.576,373.934z M164.069,382.105
		c-4.175,0.072-6.263,1.439-6.263,4.139c0,0.864,0.324,1.549,1.044,2.124c0.72,0.54,1.656,0.828,2.808,0.828
		c1.764,0,3.312-0.576,4.679-1.728c1.332-1.116,2.016-2.412,2.016-3.852v-1.584L164.069,382.105z"/>
	<path class="st1" d="M179.117,364.756v26.204h-2.844v-26.204H179.117z"/>
	<path class="st1" d="M198.375,377.642h-2.808c-0.252-1.151-0.72-2.016-1.439-2.52c-0.792-0.576-1.944-0.864-3.42-0.864
		c-1.296,0-2.304,0.217-3.023,0.721c-0.792,0.467-1.188,1.115-1.188,1.943c0,0.792,0.504,1.476,1.584,2.016
		c0.684,0.324,1.979,0.72,3.852,1.224c2.231,0.54,3.815,1.116,4.787,1.728c1.476,0.937,2.232,2.196,2.232,3.816
		c0,3.814-2.628,5.759-7.883,5.759c-4.896,0-7.559-2.159-7.991-6.443h2.808c0.216,1.476,0.756,2.521,1.548,3.168
		c0.792,0.575,1.979,0.864,3.563,0.864c3.312,0,5.003-1.08,5.003-3.168c0-1.044-0.612-1.836-1.764-2.412
		c-0.612-0.287-1.944-0.684-3.959-1.188c-2.196-0.54-3.744-1.08-4.607-1.656c-1.44-0.863-2.124-2.051-2.124-3.635
		s0.684-2.809,2.088-3.744c1.296-0.936,3.023-1.404,5.111-1.404C195.352,371.846,197.871,373.754,198.375,377.642z"/>
	<path class="st1" d="M217.311,374.727c1.583,1.835,2.375,4.139,2.375,6.947c0,2.771-0.792,5.074-2.34,6.875
		c-1.691,1.943-3.923,2.915-6.695,2.915c-2.808,0-5.003-0.972-6.659-2.915c-1.584-1.801-2.376-4.104-2.376-6.875
		c0-2.809,0.792-5.112,2.376-6.947c1.656-1.944,3.852-2.881,6.659-2.881C213.423,371.846,215.655,372.782,217.311,374.727z
		 M206.044,376.525c-1.008,1.368-1.476,3.061-1.476,5.148c0,2.051,0.468,3.742,1.476,5.111c1.08,1.512,2.627,2.268,4.607,2.268
		c1.943,0,3.491-0.756,4.643-2.268c0.972-1.369,1.476-3.096,1.476-5.111c0-2.088-0.504-3.78-1.476-5.148
		c-1.152-1.512-2.7-2.268-4.643-2.268C208.672,374.258,207.124,375.014,206.044,376.525z"/>
	<path class="st1" d="M240.388,372.35h4.607v2.412h-4.607v11.843c0,0.685,0.108,1.188,0.396,1.476
		c0.252,0.288,0.72,0.469,1.368,0.469h2.375v2.411h-2.808c-1.512,0-2.627-0.396-3.275-1.188c-0.612-0.719-0.9-1.764-0.9-3.167
		v-11.843h-3.744v-2.412h3.744v-4.822l2.844-1.188V372.35z"/>
	<path class="st1" d="M251.08,364.756v10.654c0.648-1.188,1.512-2.088,2.592-2.699c1.008-0.576,2.124-0.865,3.383-0.865
		c2.16,0,3.852,0.613,5.003,1.908c1.152,1.26,1.728,3.096,1.728,5.472v11.734h-2.88v-11.303c0-1.728-0.432-3.06-1.224-3.995
		c-0.864-0.936-2.052-1.404-3.6-1.404c-1.44,0-2.627,0.576-3.563,1.729c-0.972,1.151-1.44,2.627-1.44,4.355v10.618h-2.879v-26.204
		H251.08z"/>
	<path class="st1" d="M278.943,372.278v2.88c-0.936-0.288-1.872-0.396-2.772-0.396c-1.439,0-2.664,0.612-3.635,1.908
		c-1.008,1.224-1.476,2.699-1.476,4.428v9.862h-2.843v-18.61h2.843v3.24c0.504-1.08,1.152-1.943,1.944-2.556
		c0.972-0.792,2.088-1.188,3.384-1.188C277.396,371.846,278.259,371.99,278.943,372.278z"/>
	<path class="st1" d="M296.331,374.727c1.583,1.835,2.375,4.139,2.375,6.947c0,2.771-0.792,5.074-2.34,6.875
		c-1.691,1.943-3.923,2.915-6.695,2.915c-2.808,0-5.003-0.972-6.659-2.915c-1.584-1.801-2.376-4.104-2.376-6.875
		c0-2.809,0.792-5.112,2.376-6.947c1.656-1.944,3.852-2.881,6.659-2.881C292.443,371.846,294.675,372.782,296.331,374.727z
		 M285.064,376.525c-1.008,1.368-1.476,3.061-1.476,5.148c0,2.051,0.468,3.742,1.476,5.111c1.08,1.512,2.627,2.268,4.607,2.268
		c1.943,0,3.491-0.756,4.643-2.268c0.972-1.369,1.476-3.096,1.476-5.111c0-2.088-0.504-3.78-1.476-5.148
		c-1.152-1.512-2.7-2.268-4.643-2.268C287.691,374.258,286.144,375.014,285.064,376.525z"/>
	<path class="st1" d="M305.332,372.35v11.375c0,1.764,0.36,3.096,1.116,3.96s1.98,1.331,3.672,1.331
		c1.224,0,2.339-0.504,3.312-1.439c1.008-1.008,1.62-2.304,1.835-3.887v-11.34h2.88v18.61h-2.88v-2.88
		c-1.512,2.232-3.527,3.384-6.047,3.384c-4.536,0-6.767-2.556-6.767-7.595v-11.52H305.332z"/>
	<path class="st1" d="M336.543,375.554v-3.204h2.879v17.314c0,5.939-2.844,8.927-8.495,8.927c-2.52,0-4.464-0.504-5.759-1.512
		c-1.332-1.008-2.16-2.52-2.484-4.535h2.88c0.216,1.26,0.756,2.195,1.583,2.771c0.828,0.612,2.088,0.937,3.78,0.937
		c3.743,0,5.615-2.088,5.615-6.191v-3.275c-1.368,2.482-3.456,3.742-6.263,3.742c-2.592,0-4.644-0.899-6.155-2.663
		c-1.512-1.728-2.232-3.923-2.232-6.623c0-2.735,0.72-4.932,2.232-6.659c1.512-1.836,3.563-2.736,6.155-2.736
		C333.087,371.846,335.175,373.07,336.543,375.554z M326.356,376.238c-1.008,1.223-1.512,2.915-1.512,5.003
		c0,1.944,0.432,3.563,1.332,4.788c1.008,1.367,2.483,2.087,4.5,2.087c1.872,0,3.312-0.647,4.391-1.944
		c1.008-1.26,1.512-2.915,1.512-4.931c0-2.088-0.504-3.78-1.512-5.003c-1.08-1.368-2.52-2.016-4.355-2.016
		C328.84,374.223,327.4,374.87,326.356,376.238z"/>
	<path class="st1" d="M346.768,364.756v10.654c0.648-1.188,1.512-2.088,2.592-2.699c1.008-0.576,2.124-0.865,3.383-0.865
		c2.16,0,3.852,0.613,5.003,1.908c1.152,1.26,1.728,3.096,1.728,5.472v11.734h-2.88v-11.303c0-1.728-0.432-3.06-1.224-3.995
		c-0.864-0.936-2.052-1.404-3.6-1.404c-1.44,0-2.627,0.576-3.563,1.729c-0.972,1.151-1.44,2.627-1.44,4.355v10.618h-2.879v-26.204
		H346.768z"/>
	<path class="st1" d="M378.771,364.756v10.654c0.648-1.188,1.512-2.088,2.592-2.699c1.008-0.576,2.124-0.865,3.383-0.865
		c2.16,0,3.852,0.613,5.003,1.908c1.152,1.26,1.729,3.096,1.729,5.472v11.734h-2.88v-11.303c0-1.728-0.432-3.06-1.224-3.995
		c-0.864-0.936-2.052-1.404-3.6-1.404c-1.44,0-2.627,0.576-3.563,1.729c-0.972,1.151-1.44,2.627-1.44,4.355v10.618h-2.879v-26.204
		H378.771z"/>
	<path class="st1" d="M409.91,373.934c1.08,1.225,1.656,2.916,1.656,5.076v11.95h-2.7v-3.132c-0.72,1.008-1.691,1.836-2.843,2.484
		c-1.368,0.756-2.916,1.151-4.644,1.151c-1.872,0-3.348-0.468-4.464-1.403c-1.151-0.973-1.728-2.232-1.728-3.744
		c0-2.123,0.828-3.707,2.556-4.787c1.512-1.008,3.672-1.548,6.479-1.584l4.463-0.072v-0.972c0-3.132-1.62-4.679-4.859-4.679
		c-1.368,0-2.483,0.252-3.348,0.827c-0.972,0.576-1.584,1.476-1.872,2.664l-2.843-0.216c0.396-1.944,1.367-3.42,2.879-4.355
		c1.368-0.864,3.132-1.297,5.363-1.297C406.671,371.846,408.614,372.53,409.91,373.934z M404.403,382.105
		c-4.176,0.072-6.264,1.439-6.264,4.139c0,0.864,0.324,1.549,1.044,2.124c0.72,0.54,1.656,0.828,2.808,0.828
		c1.764,0,3.312-0.576,4.68-1.728c1.332-1.116,2.016-2.412,2.016-3.852v-1.584L404.403,382.105z"/>
	<path class="st1" d="M431.689,379.514v11.446h-2.879v-11.23c0-3.636-1.656-5.436-4.896-5.436c-1.296,0-2.412,0.468-3.348,1.403
		c-1.008,1.008-1.548,2.34-1.656,4.032v11.23h-2.879v-18.61h2.879v2.736c0.648-1.044,1.477-1.836,2.484-2.375
		c1.008-0.576,2.123-0.865,3.347-0.865C429.35,371.846,431.689,374.402,431.689,379.514z"/>
	<path class="st1" d="M452.785,364.756v26.204h-2.699v-3.06c-1.296,2.375-3.384,3.563-6.191,3.563c-2.736,0-4.859-1.008-6.371-2.952
		c-1.404-1.799-2.088-4.104-2.088-6.91c0-2.736,0.684-4.968,2.088-6.768c1.512-2.016,3.563-2.988,6.227-2.988
		c2.664,0,4.716,1.297,6.155,3.924v-11.014H452.785z M439.755,376.382c-0.936,1.26-1.368,2.987-1.368,5.22
		c0,2.231,0.433,3.995,1.332,5.291c1.008,1.439,2.52,2.195,4.535,2.195c1.872,0,3.312-0.72,4.355-2.159
		c0.9-1.296,1.368-2.987,1.368-5.075v-0.36c0-2.159-0.54-3.923-1.548-5.255c-1.044-1.368-2.412-2.016-4.067-2.016
		C442.311,374.223,440.763,374.941,439.755,376.382z"/>
	<path class="st1" d="M474.997,380.413v2.448h-18.178v-2.448H474.997z"/>
	<path class="st1" d="M495.661,364.756v26.204h-2.699v-3.06c-1.296,2.375-3.384,3.563-6.191,3.563c-2.736,0-4.859-1.008-6.371-2.952
		c-1.404-1.799-2.088-4.104-2.088-6.91c0-2.736,0.684-4.968,2.088-6.768c1.512-2.016,3.563-2.988,6.227-2.988
		c2.664,0,4.716,1.297,6.155,3.924v-11.014H495.661z M482.631,376.382c-0.936,1.26-1.368,2.987-1.368,5.22
		c0,2.231,0.433,3.995,1.332,5.291c1.008,1.439,2.52,2.195,4.535,2.195c1.872,0,3.312-0.72,4.355-2.159
		c0.9-1.296,1.368-2.987,1.368-5.075v-0.36c0-2.159-0.54-3.923-1.548-5.255c-1.044-1.368-2.412-2.016-4.067-2.016
		C485.187,374.223,483.639,374.941,482.631,376.382z"/>
	<path class="st1" d="M510.854,372.278v2.88c-0.937-0.288-1.872-0.396-2.772-0.396c-1.439,0-2.663,0.612-3.635,1.908
		c-1.008,1.224-1.477,2.699-1.477,4.428v9.862h-2.843v-18.61h2.843v3.24c0.504-1.08,1.152-1.943,1.944-2.556
		c0.972-0.792,2.088-1.188,3.384-1.188C509.307,371.846,510.17,371.99,510.854,372.278z"/>
	<path class="st1" d="M527.27,373.934c1.08,1.225,1.655,2.916,1.655,5.076v11.95h-2.699v-3.132c-0.72,1.008-1.691,1.836-2.844,2.484
		c-1.368,0.756-2.916,1.151-4.644,1.151c-1.872,0-3.348-0.468-4.463-1.403c-1.152-0.973-1.729-2.232-1.729-3.744
		c0-2.123,0.828-3.707,2.556-4.787c1.512-1.008,3.672-1.548,6.479-1.584l4.464-0.072v-0.972c0-3.132-1.62-4.679-4.859-4.679
		c-1.368,0-2.484,0.252-3.348,0.827c-0.973,0.576-1.584,1.476-1.872,2.664l-2.844-0.216c0.396-1.944,1.368-3.42,2.88-4.355
		c1.367-0.864,3.132-1.297,5.363-1.297C524.029,371.846,525.974,372.53,527.27,373.934z M521.762,382.105
		c-4.175,0.072-6.263,1.439-6.263,4.139c0,0.864,0.324,1.549,1.044,2.124c0.72,0.54,1.655,0.828,2.808,0.828
		c1.764,0,3.312-0.576,4.679-1.728c1.332-1.116,2.017-2.412,2.017-3.852v-1.584L521.762,382.105z"/>
	<path class="st1" d="M534.507,372.35l4.571,15.083l4.319-15.083h2.699l4.32,15.083l4.571-15.083h3.167l-6.335,18.61h-2.735
		l-4.319-14.974l-4.392,14.974h-2.7l-6.335-18.61H534.507z"/>
	<path class="st1" d="M564.494,365.943c0.432,0.359,0.647,0.863,0.647,1.512c0,0.611-0.216,1.115-0.647,1.548
		c-0.433,0.396-0.937,0.612-1.548,0.612c-0.612,0-1.116-0.217-1.548-0.612c-0.433-0.433-0.612-0.937-0.612-1.548
		c0-0.648,0.18-1.152,0.612-1.512c0.432-0.432,0.936-0.612,1.548-0.612C563.558,365.331,564.062,365.512,564.494,365.943z
		 M564.386,372.35v18.61h-2.88v-18.61H564.386z"/>
	<path class="st1" d="M585.444,379.514v11.446h-2.88v-11.23c0-3.636-1.655-5.436-4.896-5.436c-1.296,0-2.411,0.468-3.348,1.403
		c-1.008,1.008-1.548,2.34-1.655,4.032v11.23h-2.88v-18.61h2.88v2.736c0.647-1.044,1.476-1.836,2.483-2.375
		c1.008-0.576,2.124-0.865,3.348-0.865C583.104,371.846,585.444,374.402,585.444,379.514z"/>
	<path class="st1" d="M603.84,375.554v-3.204h2.88v17.314c0,5.939-2.844,8.927-8.495,8.927c-2.52,0-4.464-0.504-5.759-1.512
		c-1.332-1.008-2.16-2.52-2.484-4.535h2.88c0.216,1.26,0.756,2.195,1.584,2.771c0.828,0.612,2.088,0.937,3.779,0.937
		c3.743,0,5.615-2.088,5.615-6.191v-3.275c-1.368,2.482-3.455,3.742-6.263,3.742c-2.592,0-4.644-0.899-6.155-2.663
		c-1.512-1.728-2.232-3.923-2.232-6.623c0-2.735,0.721-4.932,2.232-6.659c1.512-1.836,3.563-2.736,6.155-2.736
		C600.385,371.846,602.472,373.07,603.84,375.554z M593.653,376.238c-1.008,1.223-1.512,2.915-1.512,5.003
		c0,1.944,0.432,3.563,1.332,4.788c1.008,1.367,2.483,2.087,4.499,2.087c1.872,0,3.312-0.647,4.392-1.944
		c1.008-1.26,1.512-2.915,1.512-4.931c0-2.088-0.504-3.78-1.512-5.003c-1.08-1.368-2.52-2.016-4.355-2.016
		C596.137,374.223,594.697,374.87,593.653,376.238z"/>
	<path class="st1" d="M615.253,387.324c0.432,0.432,0.647,0.936,0.647,1.584c0,0.611-0.216,1.115-0.647,1.548
		c-0.433,0.433-0.973,0.647-1.548,0.647c-0.648,0-1.152-0.215-1.548-0.647c-0.433-0.433-0.648-0.937-0.648-1.548
		c0-0.648,0.216-1.152,0.648-1.584c0.396-0.432,0.899-0.648,1.548-0.648C614.28,386.676,614.82,386.893,615.253,387.324z"/>
</g>
</svg>