<!-- Generator: Adobe Illustrator 22.0.1, SVG Export Plug-In  -->
<svg version="1.1"
	 xmlns="http://www.w3.org/2000/svg" xmlns:xlink="http://www.w3.org/1999/xlink" xmlns:a="http://ns.adobe.com/AdobeSVGViewerExtensions/3.0/"
	 x="0px" y="0px" width="163.633px" height="163.633px" viewBox="0 0 163.633 163.633"
	 style="enable-background:new 0 0 163.633 163.633;" xml:space="preserve">
<style type="text/css">
	.st0{fill:none;stroke:#F6F6F6;stroke-width:3;stroke-linecap:round;stroke-miterlimit:10;}
	.st1{fill:#F6F6F6;stroke:#F6F6F6;stroke-width:3;stroke-linecap:round;stroke-miterlimit:10;}
	.st2{fill:#F6F6F6;stroke:#F6F6F6;stroke-miterlimit:10;}
	.st3{fill:#F6F6F6;stroke:#F6F6F6;stroke-width:3;stroke-linecap:round;stroke-linejoin:round;stroke-miterlimit:10;}
</style>
<defs>
</defs>
<g>
	<circle class="st0" cx="81.817" cy="81.817" r="80.317"/>
	<g>
		<path class="st1" d="M33.243,97.606c5.796,0,6.478,9.205,0,9.205S27.448,97.606,33.243,97.606z"/>
		<path class="st1" d="M111.825,23.856c5.796,0,6.478,9.205,0,9.205C105.347,33.061,106.029,23.856,111.825,23.856z"/>
		<path class="st1" d="M82.817,129.994c5.796,0,6.478,9.205,0,9.205C76.339,139.199,77.021,129.994,82.817,129.994z"/>
		<path class="st1" d="M140.295,84.992c5.796,0,6.478,9.205,0,9.205S134.499,84.992,140.295,84.992z"/>
		<line class="st1" x1="28.637" y1="86.696" x2="54.04" y2="86.696"/>
		<line class="st1" x1="46.88" y1="75.431" x2="57.35" y2="77.15"/>
		<line class="st1" x1="34.948" y1="53.967" x2="57.35" y2="64.877"/>
		<line class="st1" x1="57.35" y1="51.24" x2="64.95" y2="61.127"/>
		<line class="st1" x1="64.95" y1="33.061" x2="73.132" y2="59.422"/>
		<line class="st1" x1="78.211" y1="44.762" x2="78.211" y2="53.967"/>
		<line class="st1" x1="92.565" y1="28.459" x2="85.746" y2="51.24"/>
		<line class="st1" x1="96.4" y1="46.242" x2="92.565" y2="56.183"/>
		<line class="st1" x1="110.208" y1="41.608" x2="98.446" y2="59.422"/>
		<line class="st1" x1="114.555" y1="57.717" x2="106.117" y2="63.087"/>
		<line class="st1" x1="125.038" y1="67.689" x2="106.117" y2="74.338"/>
		<line class="st1" x1="113.276" y1="86.696" x2="122.737" y2="89.594"/>
		<line class="st1" x1="104.327" y1="96.072" x2="121.203" y2="111.158"/>
		<line class="st1" x1="101.514" y1="105.618" x2="107.219" y2="112.692"/>
		<line class="st1" x1="92.565" y1="108.09" x2="99.98" y2="129.994"/>
		<line class="st1" x1="82.817" y1="111.158" x2="82.817" y2="120.107"/>
		<line class="st1" x1="73.132" y1="108.09" x2="67.762" y2="132.125"/>
		<polygon class="st2" points="82.118,63.982 86.555,73.036 96.762,70.2 92.072,79.799 100.505,84.962 90.435,87.653 91.312,98.124 
			83.236,91.361 75.382,99.652 76.473,87.653 65.129,86.416 73.855,79.799 68.183,70.2 78.188,74.126 		"/>
		<line class="st3" x1="82.817" y1="81.817" x2="34.948" y2="126.799"/>
	</g>
</g>
</svg>