<!-- Generator: Adobe Illustrator 22.0.1, SVG Export Plug-In  -->
<svg version="1.1"
	 xmlns="http://www.w3.org/2000/svg" xmlns:xlink="http://www.w3.org/1999/xlink" xmlns:a="http://ns.adobe.com/AdobeSVGViewerExtensions/3.0/"
	 x="0px" y="0px" width="729.448px" height="333.033px" viewBox="0 0 729.448 333.033"
	 style="enable-background:new 0 0 729.448 333.033;" xml:space="preserve">
<style type="text/css">
	.st0{fill:none;}
	.st1{fill:#575756;}
	.st2{font-family:'PingFangTC-Regular-B5pc-H';}
	.st3{font-size:36px;}
	.st4{letter-spacing:-1;}
</style>
<defs>
</defs>
<g>
	<rect x="0" y="4.752" class="st0" width="717.462" height="328.281"/>
	<path class="st1" d="M18.07,6.734c1.728,1.368,2.7,3.42,2.952,6.119h-2.916c-0.324-1.871-1.044-3.239-2.16-4.139
		c-1.152-0.937-2.771-1.368-4.859-1.368c-1.908,0-3.383,0.288-4.463,0.936c-1.224,0.721-1.835,1.8-1.835,3.276
		c0,1.295,0.72,2.339,2.195,3.131c0.648,0.36,2.232,0.9,4.716,1.62c3.383,1.008,5.615,1.836,6.695,2.483
		c2.124,1.296,3.204,3.096,3.204,5.436c0,2.231-0.9,4.031-2.7,5.327c-1.8,1.26-4.211,1.908-7.271,1.908
		c-3.023,0-5.399-0.648-7.127-1.944c-2.016-1.548-3.132-3.887-3.348-7.055h2.916c0.252,2.231,1.044,3.888,2.34,4.932
		c1.188,0.936,2.916,1.439,5.219,1.439c2.088,0,3.815-0.396,5.111-1.188s1.944-1.872,1.944-3.24c0-1.619-0.864-2.879-2.556-3.779
		c-0.72-0.432-2.556-1.044-5.436-1.872c-3.095-0.936-5.075-1.655-5.903-2.087c-1.98-1.152-2.952-2.808-2.952-4.968
		c0-2.231,0.936-3.995,2.843-5.22c1.692-1.151,3.888-1.728,6.551-1.728C14.11,4.755,16.414,5.403,18.07,6.734z"/>
	<path class="st1" d="M28.907,5.942c0.432,0.36,0.648,0.864,0.648,1.513c0,0.611-0.216,1.115-0.648,1.548
		c-0.432,0.396-0.936,0.611-1.548,0.611s-1.116-0.216-1.548-0.611c-0.432-0.433-0.612-0.937-0.612-1.548
		c0-0.648,0.18-1.152,0.612-1.513c0.432-0.432,0.936-0.611,1.548-0.611S28.475,5.511,28.907,5.942z M28.799,12.35v18.61h-2.88V12.35
		H28.799z"/>
	<path class="st1" d="M48.165,15.374c0.72-1.225,1.584-2.124,2.592-2.664c0.9-0.576,1.98-0.864,3.276-0.864
		c1.943,0,3.491,0.612,4.715,1.836c1.152,1.26,1.764,2.952,1.764,5.075V30.96h-2.88V19.226c0-1.656-0.36-2.88-1.043-3.672
		c-0.72-0.864-1.872-1.26-3.456-1.26c-1.224,0-2.268,0.432-3.06,1.368c-0.864,0.936-1.26,2.123-1.26,3.635V30.96h-2.879V19.226
		c0-3.312-1.44-4.932-4.284-4.932c-1.332,0-2.412,0.504-3.275,1.584c-0.864,1.008-1.296,2.268-1.296,3.743V30.96h-2.879V12.35h2.879
		v2.484c1.404-2.016,3.167-2.988,5.255-2.988C45.178,11.846,47.122,12.998,48.165,15.374z"/>
	<path class="st1" d="M80.205,14.834c1.404,1.8,2.124,4.067,2.124,6.875c0,2.735-0.72,5.003-2.088,6.803
		c-1.512,1.944-3.563,2.952-6.227,2.952s-4.715-1.296-6.155-3.888v10.511h-2.879V12.35h2.699v3.061
		c1.332-2.376,3.384-3.564,6.191-3.564C76.533,11.846,78.657,12.818,80.205,14.834z M69.154,16.418
		c-0.936,1.296-1.404,3.023-1.404,5.111v0.359c0,2.16,0.504,3.888,1.584,5.22c1.008,1.296,2.339,1.979,4.067,1.979
		c2.016,0,3.527-0.72,4.571-2.088c0.936-1.296,1.404-3.06,1.404-5.291c0-2.196-0.468-3.96-1.332-5.256
		c-1.043-1.512-2.556-2.231-4.535-2.231C71.638,14.222,70.162,14.941,69.154,16.418z"/>
	<path class="st1" d="M89.495,4.755V30.96h-2.844V4.755H89.495z"/>
	<path class="st1" d="M108.969,14.87c1.368,1.8,2.087,4.355,2.16,7.595H96.442c0.144,2.088,0.684,3.707,1.691,4.859
		c1.008,1.151,2.412,1.728,4.176,1.728c1.512,0,2.771-0.396,3.708-1.151c0.792-0.648,1.404-1.62,1.872-2.916h2.88
		c-0.432,1.8-1.26,3.239-2.52,4.392c-1.548,1.368-3.527,2.088-5.939,2.088c-2.664,0-4.824-0.9-6.407-2.628
		c-1.656-1.8-2.448-4.176-2.448-7.199c0-2.735,0.756-5.039,2.34-6.875c1.583-1.943,3.708-2.916,6.407-2.916
		C105.189,11.846,107.457,12.854,108.969,14.87z M98.278,15.878c-1.008,1.079-1.583,2.52-1.764,4.355h11.626
		c-0.36-3.996-2.339-5.976-5.867-5.976C100.618,14.258,99.286,14.798,98.278,15.878z"/>
	<path class="st1" d="M140.72,17.642h-2.807c-0.252-1.152-0.72-2.016-1.439-2.52c-0.792-0.576-1.944-0.864-3.42-0.864
		c-1.296,0-2.304,0.216-3.023,0.72c-0.792,0.468-1.188,1.116-1.188,1.944c0,0.792,0.504,1.476,1.584,2.016
		c0.684,0.323,1.979,0.72,3.852,1.224c2.231,0.54,3.815,1.116,4.787,1.728c1.476,0.937,2.231,2.196,2.231,3.815
		c0,3.815-2.627,5.76-7.882,5.76c-4.896,0-7.559-2.16-7.991-6.443h2.808c0.216,1.476,0.756,2.52,1.548,3.168
		c0.792,0.575,1.979,0.863,3.563,0.863c3.312,0,5.003-1.08,5.003-3.167c0-1.044-0.612-1.836-1.764-2.412
		c-0.612-0.288-1.944-0.684-3.959-1.188c-2.196-0.54-3.744-1.08-4.607-1.656c-1.44-0.864-2.124-2.052-2.124-3.636
		c0-1.583,0.684-2.808,2.088-3.743c1.296-0.936,3.023-1.404,5.111-1.404C137.697,11.846,140.216,13.754,140.72,17.642z"/>
	<path class="st1" d="M149.649,12.35h4.607v2.412h-4.607v11.843c0,0.684,0.107,1.188,0.396,1.476
		c0.252,0.288,0.72,0.468,1.368,0.468h2.375v2.412h-2.808c-1.512,0-2.627-0.396-3.275-1.188c-0.611-0.72-0.899-1.764-0.899-3.167
		V14.762h-3.744V12.35h3.744V7.526l2.844-1.188V12.35z"/>
	<path class="st1" d="M171.896,14.87c1.368,1.8,2.088,4.355,2.16,7.595h-14.687c0.145,2.088,0.684,3.707,1.691,4.859
		c1.009,1.151,2.412,1.728,4.176,1.728c1.512,0,2.771-0.396,3.708-1.151c0.792-0.648,1.403-1.62,1.871-2.916h2.88
		c-0.432,1.8-1.26,3.239-2.52,4.392c-1.548,1.368-3.527,2.088-5.939,2.088c-2.663,0-4.823-0.9-6.407-2.628
		c-1.655-1.8-2.447-4.176-2.447-7.199c0-2.735,0.756-5.039,2.34-6.875c1.583-1.943,3.707-2.916,6.407-2.916
		C168.116,11.846,170.384,12.854,171.896,14.87z M161.205,15.878c-1.008,1.079-1.584,2.52-1.764,4.355h11.626
		c-0.359-3.996-2.339-5.976-5.867-5.976C163.545,14.258,162.213,14.798,161.205,15.878z"/>
	<path class="st1" d="M192.667,14.834c1.404,1.8,2.124,4.067,2.124,6.875c0,2.735-0.72,5.003-2.088,6.803
		c-1.512,1.944-3.563,2.952-6.228,2.952c-2.663,0-4.715-1.296-6.155-3.888v10.511h-2.879V12.35h2.699v3.061
		c1.332-2.376,3.384-3.564,6.191-3.564C188.995,11.846,191.119,12.818,192.667,14.834z M181.616,16.418
		c-0.936,1.296-1.403,3.023-1.403,5.111v0.359c0,2.16,0.504,3.888,1.584,5.22c1.008,1.296,2.339,1.979,4.067,1.979
		c2.016,0,3.527-0.72,4.571-2.088c0.936-1.296,1.403-3.06,1.403-5.291c0-2.196-0.468-3.96-1.332-5.256
		c-1.043-1.512-2.556-2.231-4.535-2.231C184.101,14.222,182.624,14.941,181.616,16.418z"/>
	<path class="st1" d="M212.755,17.642h-2.808c-0.252-1.152-0.72-2.016-1.439-2.52c-0.792-0.576-1.944-0.864-3.42-0.864
		c-1.296,0-2.304,0.216-3.023,0.72c-0.792,0.468-1.188,1.116-1.188,1.944c0,0.792,0.504,1.476,1.584,2.016
		c0.685,0.323,1.979,0.72,3.852,1.224c2.231,0.54,3.815,1.116,4.787,1.728c1.477,0.937,2.232,2.196,2.232,3.815
		c0,3.815-2.628,5.76-7.883,5.76c-4.896,0-7.56-2.16-7.991-6.443h2.808c0.216,1.476,0.756,2.52,1.548,3.168
		c0.792,0.575,1.979,0.863,3.563,0.863c3.312,0,5.003-1.08,5.003-3.167c0-1.044-0.611-1.836-1.764-2.412
		c-0.611-0.288-1.943-0.684-3.959-1.188c-2.196-0.54-3.744-1.08-4.607-1.656c-1.44-0.864-2.124-2.052-2.124-3.636
		c0-1.583,0.684-2.808,2.088-3.743c1.296-0.936,3.023-1.404,5.111-1.404C209.731,11.846,212.251,13.754,212.755,17.642z"/>
	<path class="st1" d="M229.82,12.35l4.571,15.083l4.319-15.083h2.699l4.32,15.083l4.571-15.083h3.167l-6.335,18.61h-2.735
		l-4.319-14.975l-4.392,14.975h-2.7l-6.335-18.61H229.82z"/>
	<path class="st1" d="M259.808,5.942c0.432,0.36,0.647,0.864,0.647,1.513c0,0.611-0.216,1.115-0.647,1.548
		c-0.433,0.396-0.937,0.611-1.548,0.611c-0.612,0-1.116-0.216-1.548-0.611c-0.433-0.433-0.612-0.937-0.612-1.548
		c0-0.648,0.18-1.152,0.612-1.513c0.432-0.432,0.936-0.611,1.548-0.611C258.871,5.331,259.375,5.511,259.808,5.942z M259.699,12.35
		v18.61h-2.88V12.35H259.699z"/>
	<path class="st1" d="M268.52,4.755V30.96h-2.844V4.755H268.52z"/>
	<path class="st1" d="M276.979,4.755V30.96h-2.844V4.755H276.979z"/>
	<path class="st1" d="M310.637,4.755V30.96h-2.7V27.9c-1.296,2.375-3.384,3.563-6.191,3.563c-2.735,0-4.859-1.008-6.371-2.952
		c-1.403-1.8-2.088-4.104-2.088-6.911c0-2.735,0.685-4.967,2.088-6.767c1.512-2.016,3.563-2.988,6.228-2.988
		c2.663,0,4.715,1.296,6.155,3.924V4.755H310.637z M297.605,16.382c-0.936,1.26-1.367,2.987-1.367,5.219
		c0,2.232,0.432,3.996,1.332,5.292c1.008,1.439,2.52,2.195,4.535,2.195c1.872,0,3.312-0.72,4.355-2.159
		c0.899-1.296,1.368-2.988,1.368-5.076v-0.359c0-2.16-0.54-3.924-1.548-5.256c-1.044-1.367-2.412-2.016-4.068-2.016
		C300.161,14.222,298.614,14.941,297.605,16.382z"/>
	<path class="st1" d="M330.076,14.726c1.584,1.836,2.376,4.14,2.376,6.947c0,2.771-0.792,5.075-2.34,6.875
		c-1.692,1.944-3.924,2.916-6.695,2.916c-2.808,0-5.003-0.972-6.659-2.916c-1.584-1.8-2.376-4.104-2.376-6.875
		c0-2.808,0.792-5.111,2.376-6.947c1.656-1.943,3.852-2.88,6.659-2.88C326.188,11.846,328.42,12.782,330.076,14.726z M318.81,16.525
		c-1.008,1.368-1.476,3.06-1.476,5.147c0,2.052,0.468,3.743,1.476,5.111c1.08,1.512,2.628,2.268,4.607,2.268
		c1.943,0,3.491-0.756,4.644-2.268c0.972-1.368,1.476-3.096,1.476-5.111c0-2.088-0.504-3.779-1.476-5.147
		c-1.152-1.512-2.7-2.268-4.644-2.268C321.438,14.258,319.89,15.014,318.81,16.525z"/>
	<path class="st1" d="M340.266,27.324c0.432,0.432,0.647,0.936,0.647,1.584c0,0.611-0.216,1.115-0.647,1.548
		c-0.433,0.432-0.973,0.647-1.548,0.647c-0.648,0-1.152-0.216-1.548-0.647c-0.433-0.433-0.648-0.937-0.648-1.548
		c0-0.648,0.216-1.152,0.648-1.584c0.396-0.432,0.899-0.648,1.548-0.648C339.293,26.676,339.833,26.893,340.266,27.324z"/>
	<path class="st1" d="M11.807,65.259c4.067,0,7.127,1.152,9.215,3.527c1.908,2.16,2.879,5.292,2.879,9.323
		c0,3.959-1.044,7.091-3.096,9.323c-2.16,2.339-5.255,3.527-9.287,3.527H2.592V65.259H11.807z M5.543,88.404h5.471
		c3.348,0,5.867-0.9,7.559-2.664c1.584-1.728,2.412-4.283,2.412-7.631c0-3.456-0.756-6.012-2.232-7.667
		c-1.583-1.764-4.031-2.628-7.415-2.628H5.543V88.404z"/>
	<path class="st1" d="M42.622,74.726c1.583,1.836,2.375,4.14,2.375,6.947c0,2.771-0.792,5.075-2.34,6.875
		c-1.692,1.944-3.923,2.916-6.695,2.916c-2.808,0-5.003-0.972-6.659-2.916c-1.584-1.8-2.376-4.104-2.376-6.875
		c0-2.808,0.792-5.111,2.376-6.947c1.656-1.943,3.852-2.88,6.659-2.88C38.734,71.846,40.965,72.782,42.622,74.726z M31.355,76.525
		c-1.008,1.368-1.476,3.06-1.476,5.147c0,2.052,0.468,3.743,1.476,5.111c1.08,1.512,2.627,2.268,4.607,2.268
		c1.943,0,3.491-0.756,4.643-2.268c0.972-1.368,1.476-3.096,1.476-5.111c0-2.088-0.504-3.779-1.476-5.147
		c-1.152-1.512-2.7-2.268-4.643-2.268C33.982,74.258,32.435,75.014,31.355,76.525z"/>
	<path class="st1" d="M49.859,72.35l4.571,15.083L58.75,72.35h2.7l4.32,15.083L70.34,72.35h3.167l-6.335,18.61h-2.736l-4.319-14.975
		L55.726,90.96h-2.7l-6.335-18.61H49.859z"/>
	<path class="st1" d="M91.581,79.513V90.96h-2.879v-11.23c0-3.636-1.656-5.436-4.896-5.436c-1.296,0-2.412,0.468-3.348,1.403
		c-1.008,1.008-1.548,2.34-1.656,4.032v11.23h-2.879V72.35h2.879v2.736c0.648-1.044,1.476-1.836,2.484-2.376
		c1.008-0.576,2.124-0.864,3.347-0.864C89.241,71.846,91.581,74.401,91.581,79.513z"/>
	<path class="st1" d="M99.466,64.755V90.96h-2.844V64.755H99.466z"/>
	<path class="st1" d="M119.48,74.726c1.583,1.836,2.375,4.14,2.375,6.947c0,2.771-0.792,5.075-2.34,6.875
		c-1.692,1.944-3.923,2.916-6.695,2.916c-2.808,0-5.003-0.972-6.659-2.916c-1.584-1.8-2.376-4.104-2.376-6.875
		c0-2.808,0.792-5.111,2.376-6.947c1.656-1.943,3.852-2.88,6.659-2.88C115.592,71.846,117.824,72.782,119.48,74.726z
		 M108.213,76.525c-1.008,1.368-1.476,3.06-1.476,5.147c0,2.052,0.468,3.743,1.476,5.111c1.08,1.512,2.627,2.268,4.607,2.268
		c1.943,0,3.491-0.756,4.643-2.268c0.972-1.368,1.476-3.096,1.476-5.111c0-2.088-0.504-3.779-1.476-5.147
		c-1.152-1.512-2.7-2.268-4.643-2.268C110.841,74.258,109.293,75.014,108.213,76.525z"/>
	<path class="st1" d="M139.604,73.934c1.08,1.224,1.655,2.916,1.655,5.075V90.96h-2.699v-3.132c-0.72,1.008-1.691,1.836-2.843,2.483
		c-1.368,0.756-2.916,1.152-4.644,1.152c-1.872,0-3.348-0.468-4.463-1.404c-1.152-0.972-1.728-2.231-1.728-3.743
		c0-2.124,0.828-3.708,2.556-4.787c1.512-1.008,3.672-1.548,6.479-1.584l4.463-0.072v-0.972c0-3.132-1.62-4.68-4.859-4.68
		c-1.368,0-2.484,0.252-3.348,0.828c-0.972,0.576-1.584,1.476-1.872,2.664l-2.843-0.217c0.396-1.943,1.368-3.419,2.879-4.355
		c1.368-0.863,3.132-1.296,5.363-1.296C136.364,71.846,138.308,72.53,139.604,73.934z M134.096,82.104
		c-4.175,0.072-6.263,1.44-6.263,4.14c0,0.864,0.324,1.548,1.044,2.124c0.72,0.54,1.656,0.828,2.808,0.828
		c1.764,0,3.312-0.576,4.679-1.729c1.332-1.115,2.016-2.411,2.016-3.852v-1.583L134.096,82.104z"/>
	<path class="st1" d="M162.354,64.755V90.96h-2.699V87.9c-1.296,2.375-3.384,3.563-6.191,3.563c-2.736,0-4.859-1.008-6.371-2.952
		c-1.404-1.8-2.088-4.104-2.088-6.911c0-2.735,0.684-4.967,2.088-6.767c1.512-2.016,3.563-2.988,6.227-2.988
		c2.664,0,4.716,1.296,6.155,3.924V64.755H162.354z M149.324,76.382c-0.936,1.26-1.368,2.987-1.368,5.219
		c0,2.232,0.433,3.996,1.332,5.292c1.008,1.439,2.52,2.195,4.535,2.195c1.872,0,3.312-0.72,4.355-2.159
		c0.9-1.296,1.368-2.988,1.368-5.076v-0.359c0-2.16-0.54-3.924-1.548-5.256c-1.044-1.367-2.412-2.016-4.067-2.016
		C151.88,74.222,150.332,74.941,149.324,76.382z"/>
	<path class="st1" d="M182.165,72.35h4.607v2.412h-4.607v11.843c0,0.684,0.108,1.188,0.396,1.476
		c0.252,0.288,0.72,0.468,1.367,0.468h2.376v2.412h-2.808c-1.512,0-2.628-0.396-3.275-1.188c-0.612-0.72-0.9-1.764-0.9-3.167V74.762
		h-3.743V72.35h3.743v-4.823l2.844-1.188V72.35z"/>
	<path class="st1" d="M192.857,64.755V75.41c0.647-1.188,1.512-2.088,2.592-2.7c1.008-0.576,2.123-0.864,3.383-0.864
		c2.16,0,3.852,0.612,5.004,1.908c1.151,1.26,1.728,3.096,1.728,5.472V90.96h-2.88V79.657c0-1.728-0.432-3.06-1.224-3.995
		c-0.863-0.937-2.052-1.404-3.6-1.404c-1.439,0-2.628,0.576-3.563,1.728c-0.972,1.152-1.439,2.628-1.439,4.355V90.96h-2.88V64.755
		H192.857z"/>
	<path class="st1" d="M224.428,74.87c1.368,1.8,2.088,4.355,2.16,7.595h-14.687c0.145,2.088,0.684,3.707,1.691,4.859
		c1.009,1.151,2.412,1.728,4.176,1.728c1.512,0,2.771-0.396,3.708-1.151c0.792-0.648,1.403-1.62,1.871-2.916h2.88
		c-0.432,1.8-1.26,3.239-2.52,4.392c-1.548,1.368-3.527,2.088-5.939,2.088c-2.663,0-4.823-0.9-6.407-2.628
		c-1.655-1.8-2.447-4.176-2.447-7.199c0-2.735,0.756-5.039,2.34-6.875c1.583-1.943,3.707-2.916,6.407-2.916
		C220.648,71.846,222.916,72.854,224.428,74.87z M213.737,75.878c-1.008,1.079-1.584,2.52-1.764,4.355H223.6
		c-0.359-3.996-2.339-5.976-5.867-5.976C216.077,74.258,214.745,74.798,213.737,75.878z"/>
	<path class="st1" d="M245.632,79.513V90.96h-2.88v-11.23c0-3.636-1.655-5.436-4.896-5.436c-1.296,0-2.411,0.468-3.348,1.403
		c-1.008,1.008-1.548,2.34-1.655,4.032v11.23h-2.88V72.35h2.88v2.736c0.647-1.044,1.476-1.836,2.483-2.376
		c1.008-0.576,2.124-0.864,3.348-0.864C243.292,71.846,245.632,74.401,245.632,79.513z"/>
	<path class="st1" d="M275.448,74.726c1.584,1.836,2.376,4.14,2.376,6.947c0,2.771-0.792,5.075-2.34,6.875
		c-1.692,1.944-3.924,2.916-6.695,2.916c-2.808,0-5.003-0.972-6.659-2.916c-1.584-1.8-2.376-4.104-2.376-6.875
		c0-2.808,0.792-5.111,2.376-6.947c1.656-1.943,3.852-2.88,6.659-2.88C271.561,71.846,273.792,72.782,275.448,74.726z
		 M264.182,76.525c-1.008,1.368-1.476,3.06-1.476,5.147c0,2.052,0.468,3.743,1.476,5.111c1.08,1.512,2.628,2.268,4.607,2.268
		c1.943,0,3.491-0.756,4.644-2.268c0.972-1.368,1.476-3.096,1.476-5.111c0-2.088-0.504-3.779-1.476-5.147
		c-1.152-1.512-2.7-2.268-4.644-2.268C266.81,74.258,265.262,75.014,264.182,76.525z"/>
	<path class="st1" d="M296.796,74.834c1.404,1.8,2.124,4.067,2.124,6.875c0,2.735-0.72,5.003-2.088,6.803
		c-1.512,1.944-3.563,2.952-6.228,2.952c-2.663,0-4.715-1.296-6.155-3.888v10.511h-2.879V72.35h2.699v3.061
		c1.332-2.376,3.384-3.564,6.191-3.564C293.124,71.846,295.248,72.818,296.796,74.834z M285.745,76.418
		c-0.936,1.296-1.403,3.023-1.403,5.111v0.359c0,2.16,0.504,3.888,1.584,5.22c1.008,1.296,2.339,1.979,4.067,1.979
		c2.016,0,3.527-0.72,4.571-2.088c0.936-1.296,1.403-3.06,1.403-5.291c0-2.196-0.468-3.96-1.332-5.256
		c-1.043-1.512-2.556-2.231-4.535-2.231C288.229,74.222,286.753,74.941,285.745,76.418z"/>
	<path class="st1" d="M317.1,74.87c1.368,1.8,2.088,4.355,2.16,7.595h-14.687c0.145,2.088,0.684,3.707,1.691,4.859
		c1.009,1.151,2.412,1.728,4.176,1.728c1.512,0,2.771-0.396,3.708-1.151c0.792-0.648,1.403-1.62,1.871-2.916h2.88
		c-0.432,1.8-1.26,3.239-2.52,4.392c-1.548,1.368-3.527,2.088-5.939,2.088c-2.663,0-4.823-0.9-6.407-2.628
		c-1.655-1.8-2.447-4.176-2.447-7.199c0-2.735,0.756-5.039,2.34-6.875c1.583-1.943,3.707-2.916,6.407-2.916
		C313.32,71.846,315.588,72.854,317.1,74.87z M306.409,75.878c-1.008,1.079-1.584,2.52-1.764,4.355h11.626
		c-0.359-3.996-2.339-5.976-5.867-5.976C308.749,74.258,307.417,74.798,306.409,75.878z"/>
	<path class="st1" d="M338.303,79.513V90.96h-2.879v-11.23c0-3.636-1.656-5.436-4.896-5.436c-1.296,0-2.412,0.468-3.348,1.403
		c-1.008,1.008-1.548,2.34-1.656,4.032v11.23h-2.879V72.35h2.879v2.736c0.648-1.044,1.477-1.836,2.484-2.376
		c1.008-0.576,2.123-0.864,3.347-0.864C335.963,71.846,338.303,74.401,338.303,79.513z"/>
	<path class="st1" d="M358.113,72.35h4.607v2.412h-4.607v11.843c0,0.684,0.107,1.188,0.396,1.476
		c0.252,0.288,0.72,0.468,1.368,0.468h2.375v2.412h-2.808c-1.512,0-2.627-0.396-3.275-1.188c-0.611-0.72-0.899-1.764-0.899-3.167
		V74.762h-3.744V72.35h3.744v-4.823l2.844-1.188V72.35z"/>
	<path class="st1" d="M368.805,64.755V75.41c0.648-1.188,1.512-2.088,2.592-2.7c1.008-0.576,2.124-0.864,3.384-0.864
		c2.159,0,3.852,0.612,5.003,1.908c1.152,1.26,1.729,3.096,1.729,5.472V90.96h-2.88V79.657c0-1.728-0.432-3.06-1.224-3.995
		c-0.864-0.937-2.052-1.404-3.6-1.404c-1.44,0-2.628,0.576-3.563,1.728c-0.973,1.152-1.44,2.628-1.44,4.355V90.96h-2.879V64.755
		H368.805z"/>
	<path class="st1" d="M400.376,74.87c1.367,1.8,2.087,4.355,2.159,7.595H387.85c0.144,2.088,0.684,3.707,1.691,4.859
		c1.008,1.151,2.412,1.728,4.176,1.728c1.512,0,2.771-0.396,3.707-1.151c0.792-0.648,1.404-1.62,1.872-2.916h2.88
		c-0.433,1.8-1.26,3.239-2.521,4.392c-1.548,1.368-3.527,2.088-5.938,2.088c-2.664,0-4.824-0.9-6.407-2.628
		c-1.656-1.8-2.448-4.176-2.448-7.199c0-2.735,0.756-5.039,2.34-6.875c1.584-1.943,3.708-2.916,6.407-2.916
		C396.596,71.846,398.864,72.854,400.376,74.87z M389.685,75.878c-1.008,1.079-1.583,2.52-1.764,4.355h11.627
		c-0.36-3.996-2.34-5.976-5.867-5.976C392.024,74.258,390.692,74.798,389.685,75.878z"/>
	<path class="st1" d="M430.3,73.934c1.08,1.224,1.656,2.916,1.656,5.075V90.96h-2.7v-3.132c-0.72,1.008-1.691,1.836-2.843,2.483
		c-1.368,0.756-2.916,1.152-4.644,1.152c-1.872,0-3.348-0.468-4.464-1.404c-1.151-0.972-1.728-2.231-1.728-3.743
		c0-2.124,0.828-3.708,2.556-4.787c1.512-1.008,3.672-1.548,6.479-1.584l4.463-0.072v-0.972c0-3.132-1.62-4.68-4.859-4.68
		c-1.368,0-2.483,0.252-3.348,0.828c-0.972,0.576-1.584,1.476-1.872,2.664l-2.843-0.217c0.396-1.943,1.367-3.419,2.879-4.355
		c1.368-0.863,3.132-1.296,5.363-1.296C427.061,71.846,429.004,72.53,430.3,73.934z M424.793,82.104
		c-4.176,0.072-6.264,1.44-6.264,4.14c0,0.864,0.324,1.548,1.044,2.124c0.72,0.54,1.656,0.828,2.808,0.828
		c1.764,0,3.312-0.576,4.68-1.729c1.332-1.115,2.016-2.411,2.016-3.852v-1.583L424.793,82.104z"/>
	<path class="st1" d="M451.647,74.834c1.404,1.8,2.124,4.067,2.124,6.875c0,2.735-0.72,5.003-2.088,6.803
		c-1.512,1.944-3.563,2.952-6.228,2.952c-2.663,0-4.715-1.296-6.155-3.888v10.511h-2.879V72.35h2.699v3.061
		c1.332-2.376,3.384-3.564,6.191-3.564C447.976,71.846,450.1,72.818,451.647,74.834z M440.597,76.418
		c-0.936,1.296-1.403,3.023-1.403,5.111v0.359c0,2.16,0.504,3.888,1.584,5.22c1.008,1.296,2.339,1.979,4.067,1.979
		c2.016,0,3.527-0.72,4.571-2.088c0.936-1.296,1.403-3.06,1.403-5.291c0-2.196-0.468-3.96-1.332-5.256
		c-1.043-1.512-2.556-2.231-4.535-2.231C443.081,74.222,441.604,74.941,440.597,76.418z"/>
	<path class="st1" d="M472.743,74.834c1.404,1.8,2.124,4.067,2.124,6.875c0,2.735-0.72,5.003-2.088,6.803
		c-1.512,1.944-3.563,2.952-6.228,2.952c-2.663,0-4.715-1.296-6.155-3.888v10.511h-2.879V72.35h2.699v3.061
		c1.332-2.376,3.384-3.564,6.191-3.564C469.071,71.846,471.195,72.818,472.743,74.834z M461.692,76.418
		c-0.936,1.296-1.403,3.023-1.403,5.111v0.359c0,2.16,0.504,3.888,1.584,5.22c1.008,1.296,2.339,1.979,4.067,1.979
		c2.016,0,3.527-0.72,4.571-2.088c0.936-1.296,1.403-3.06,1.403-5.291c0-2.196-0.468-3.96-1.332-5.256
		c-1.043-1.512-2.556-2.231-4.535-2.231C464.177,74.222,462.7,74.941,461.692,76.418z"/>
	<path class="st1" d="M503.964,74.726c1.583,1.836,2.375,4.14,2.375,6.947c0,2.771-0.792,5.075-2.34,6.875
		c-1.691,1.944-3.923,2.916-6.694,2.916c-2.808,0-5.004-0.972-6.659-2.916c-1.584-1.8-2.376-4.104-2.376-6.875
		c0-2.808,0.792-5.111,2.376-6.947c1.655-1.943,3.852-2.88,6.659-2.88C500.076,71.846,502.308,72.782,503.964,74.726z
		 M492.697,76.525c-1.009,1.368-1.477,3.06-1.477,5.147c0,2.052,0.468,3.743,1.477,5.111c1.079,1.512,2.627,2.268,4.607,2.268
		c1.943,0,3.491-0.756,4.643-2.268c0.973-1.368,1.477-3.096,1.477-5.111c0-2.088-0.504-3.779-1.477-5.147
		c-1.151-1.512-2.699-2.268-4.643-2.268C495.324,74.258,493.776,75.014,492.697,76.525z"/>
	<path class="st1" d="M525.743,79.513V90.96h-2.879v-11.23c0-3.636-1.656-5.436-4.896-5.436c-1.296,0-2.412,0.468-3.348,1.403
		c-1.008,1.008-1.548,2.34-1.656,4.032v11.23h-2.879V72.35h2.879v2.736c0.648-1.044,1.477-1.836,2.484-2.376
		c1.008-0.576,2.123-0.864,3.347-0.864C523.403,71.846,525.743,74.401,525.743,79.513z"/>
	<path class="st1" d="M554.588,73.934c1.08,1.224,1.656,2.916,1.656,5.075V90.96h-2.7v-3.132c-0.72,1.008-1.691,1.836-2.843,2.483
		c-1.368,0.756-2.916,1.152-4.644,1.152c-1.872,0-3.348-0.468-4.464-1.404c-1.151-0.972-1.728-2.231-1.728-3.743
		c0-2.124,0.828-3.708,2.556-4.787c1.512-1.008,3.672-1.548,6.479-1.584l4.463-0.072v-0.972c0-3.132-1.62-4.68-4.859-4.68
		c-1.368,0-2.483,0.252-3.348,0.828c-0.972,0.576-1.584,1.476-1.872,2.664l-2.843-0.217c0.396-1.943,1.367-3.419,2.879-4.355
		c1.368-0.863,3.132-1.296,5.363-1.296C551.349,71.846,553.292,72.53,554.588,73.934z M549.081,82.104
		c-4.176,0.072-6.264,1.44-6.264,4.14c0,0.864,0.324,1.548,1.044,2.124c0.72,0.54,1.656,0.828,2.808,0.828
		c1.764,0,3.312-0.576,4.68-1.729c1.332-1.115,2.016-2.411,2.016-3.852v-1.583L549.081,82.104z"/>
	<path class="st1" d="M576.367,79.513V90.96h-2.879v-11.23c0-3.636-1.656-5.436-4.896-5.436c-1.296,0-2.412,0.468-3.348,1.403
		c-1.008,1.008-1.548,2.34-1.656,4.032v11.23h-2.879V72.35h2.879v2.736c0.648-1.044,1.477-1.836,2.484-2.376
		c1.008-0.576,2.123-0.864,3.347-0.864C574.027,71.846,576.367,74.401,576.367,79.513z"/>
	<path class="st1" d="M581.913,72.35l5.688,14.687l5.507-14.687h3.168l-10.188,25.737h-3.131l3.203-7.56l-7.379-18.178H581.913z"/>
	<path class="st1" d="M623.031,75.374c0.721-1.225,1.584-2.124,2.592-2.664c0.9-0.576,1.98-0.864,3.276-0.864
		c1.943,0,3.491,0.612,4.715,1.836c1.152,1.26,1.764,2.952,1.764,5.075V90.96h-2.88V79.226c0-1.656-0.359-2.88-1.043-3.672
		c-0.721-0.864-1.872-1.26-3.456-1.26c-1.224,0-2.268,0.432-3.06,1.368c-0.864,0.936-1.26,2.123-1.26,3.635V90.96h-2.88V79.226
		c0-3.312-1.439-4.932-4.283-4.932c-1.332,0-2.412,0.504-3.275,1.584c-0.864,1.008-1.296,2.268-1.296,3.743V90.96h-2.88V72.35h2.88
		v2.484c1.403-2.016,3.167-2.988,5.255-2.988C620.044,71.846,621.988,72.998,623.031,75.374z"/>
	<path class="st1" d="M654.819,74.726c1.584,1.836,2.376,4.14,2.376,6.947c0,2.771-0.792,5.075-2.34,6.875
		c-1.692,1.944-3.924,2.916-6.695,2.916c-2.808,0-5.003-0.972-6.659-2.916c-1.584-1.8-2.376-4.104-2.376-6.875
		c0-2.808,0.792-5.111,2.376-6.947c1.656-1.943,3.852-2.88,6.659-2.88C650.932,71.846,653.163,72.782,654.819,74.726z
		 M643.553,76.525c-1.008,1.368-1.476,3.06-1.476,5.147c0,2.052,0.468,3.743,1.476,5.111c1.08,1.512,2.628,2.268,4.607,2.268
		c1.943,0,3.491-0.756,4.644-2.268c0.972-1.368,1.476-3.096,1.476-5.111c0-2.088-0.504-3.779-1.476-5.147
		c-1.152-1.512-2.7-2.268-4.644-2.268C646.181,74.258,644.633,75.014,643.553,76.525z"/>
	<path class="st1" d="M663.82,64.755V75.77c1.44-2.628,3.492-3.924,6.155-3.924c2.628,0,4.716,0.973,6.228,2.988
		c1.368,1.8,2.088,4.031,2.088,6.767c0,2.808-0.72,5.111-2.088,6.911c-1.548,1.944-3.672,2.952-6.371,2.952
		c-2.88,0-4.932-1.188-6.191-3.563v3.06h-2.699V64.755H663.82z M665.297,76.237c-1.08,1.332-1.584,3.096-1.584,5.256v0.359
		c0,2.088,0.468,3.78,1.403,5.076c1.008,1.439,2.484,2.159,4.355,2.159c2.016,0,3.527-0.756,4.535-2.195
		c0.864-1.296,1.332-3.06,1.332-5.292c0-2.231-0.468-3.959-1.403-5.219c-1.044-1.44-2.556-2.16-4.571-2.16
		C667.672,74.222,666.305,74.87,665.297,76.237z"/>
	<path class="st1" d="M685.96,65.942c0.433,0.36,0.648,0.864,0.648,1.513c0,0.611-0.216,1.115-0.648,1.548
		c-0.432,0.396-0.936,0.611-1.548,0.611c-0.611,0-1.115-0.216-1.548-0.611c-0.432-0.433-0.611-0.937-0.611-1.548
		c0-0.648,0.18-1.152,0.611-1.513c0.433-0.432,0.937-0.611,1.548-0.611C685.024,65.331,685.528,65.511,685.96,65.942z
		 M685.853,72.35v18.61h-2.88V72.35H685.853z"/>
	<path class="st1" d="M694.672,64.755V90.96h-2.844V64.755H694.672z"/>
	<path class="st1" d="M714.146,74.87c1.367,1.8,2.087,4.355,2.159,7.595H701.62c0.144,2.088,0.684,3.707,1.691,4.859
		c1.008,1.151,2.412,1.728,4.176,1.728c1.512,0,2.771-0.396,3.707-1.151c0.792-0.648,1.404-1.62,1.872-2.916h2.88
		c-0.433,1.8-1.26,3.239-2.521,4.392c-1.548,1.368-3.527,2.088-5.938,2.088c-2.664,0-4.824-0.9-6.407-2.628
		c-1.656-1.8-2.448-4.176-2.448-7.199c0-2.735,0.756-5.039,2.34-6.875c1.584-1.943,3.708-2.916,6.407-2.916
		C710.366,71.846,712.635,72.854,714.146,74.87z M703.455,75.878c-1.008,1.079-1.583,2.52-1.764,4.355h11.627
		c-0.36-3.996-2.34-5.976-5.867-5.976C705.795,74.258,704.463,74.798,703.455,75.878z"/>
	<path class="st1" d="M18.862,124.755v26.205h-2.7v-3.06c-1.296,2.375-3.384,3.563-6.191,3.563c-2.736,0-4.859-1.008-6.371-2.952
		c-1.404-1.8-2.088-4.104-2.088-6.911c0-2.735,0.684-4.967,2.088-6.767c1.512-2.016,3.563-2.988,6.227-2.988
		s4.715,1.296,6.155,3.924v-11.015H18.862z M5.831,136.382c-0.936,1.26-1.368,2.987-1.368,5.219c0,2.232,0.432,3.996,1.332,5.292
		c1.008,1.439,2.52,2.195,4.535,2.195c1.872,0,3.312-0.72,4.355-2.159c0.9-1.296,1.368-2.988,1.368-5.076v-0.359
		c0-2.16-0.54-3.924-1.548-5.256c-1.044-1.367-2.412-2.016-4.068-2.016C8.387,134.222,6.839,134.941,5.831,136.382z"/>
	<path class="st1" d="M37.762,134.87c1.368,1.8,2.087,4.355,2.16,7.595H25.236c0.144,2.088,0.684,3.707,1.691,4.859
		c1.008,1.151,2.412,1.728,4.176,1.728c1.512,0,2.771-0.396,3.708-1.151c0.792-0.648,1.404-1.62,1.872-2.916h2.88
		c-0.432,1.8-1.26,3.239-2.52,4.392c-1.547,1.368-3.527,2.088-5.939,2.088c-2.664,0-4.823-0.9-6.407-2.628
		c-1.656-1.8-2.448-4.176-2.448-7.199c0-2.735,0.756-5.039,2.34-6.875c1.583-1.943,3.708-2.916,6.407-2.916
		C33.982,131.846,36.25,132.854,37.762,134.87z M27.071,135.878c-1.008,1.079-1.583,2.52-1.764,4.355h11.626
		c-0.36-3.996-2.339-5.976-5.867-5.976C29.411,134.258,28.079,134.798,27.071,135.878z"/>
	<path class="st1" d="M44.423,132.35l5.327,15.011l5.328-15.011h3.167l-7.055,18.61h-2.916l-7.019-18.61H44.423z"/>
	<path class="st1" d="M64.583,125.942c0.432,0.36,0.648,0.864,0.648,1.513c0,0.611-0.216,1.115-0.648,1.548
		c-0.432,0.396-0.936,0.611-1.548,0.611s-1.116-0.216-1.548-0.611c-0.432-0.433-0.612-0.937-0.612-1.548
		c0-0.648,0.18-1.152,0.612-1.513c0.432-0.432,0.936-0.611,1.548-0.611S64.15,125.511,64.583,125.942z M64.475,132.35v18.61h-2.88
		v-18.61H64.475z"/>
	<path class="st1" d="M83.445,133.466c1.439,1.116,2.304,2.808,2.627,5.075h-2.844c-0.252-1.439-0.828-2.52-1.728-3.239
		c-0.936-0.72-2.124-1.044-3.6-1.044c-1.8,0-3.24,0.684-4.284,2.052c-1.008,1.332-1.512,3.132-1.512,5.399s0.468,4.067,1.476,5.363
		c0.972,1.296,2.412,1.979,4.283,1.979c3.167,0,5.003-1.619,5.436-4.823h2.879c-0.432,2.376-1.332,4.212-2.771,5.436
		c-1.404,1.188-3.24,1.8-5.543,1.8c-2.808,0-4.967-0.937-6.515-2.808c-1.476-1.764-2.196-4.067-2.196-6.911s0.72-5.147,2.196-6.947
		c1.584-1.979,3.78-2.952,6.551-2.952C80.206,131.846,82.042,132.386,83.445,133.466z"/>
	<path class="st1" d="M104.001,134.87c1.368,1.8,2.087,4.355,2.16,7.595H91.475c0.144,2.088,0.684,3.707,1.691,4.859
		c1.008,1.151,2.412,1.728,4.176,1.728c1.512,0,2.771-0.396,3.708-1.151c0.792-0.648,1.404-1.62,1.872-2.916h2.88
		c-0.432,1.8-1.26,3.239-2.52,4.392c-1.548,1.368-3.527,2.088-5.939,2.088c-2.664,0-4.824-0.9-6.407-2.628
		c-1.656-1.8-2.448-4.176-2.448-7.199c0-2.735,0.756-5.039,2.34-6.875c1.583-1.943,3.708-2.916,6.407-2.916
		C100.221,131.846,102.489,132.854,104.001,134.87z M93.31,135.878c-1.008,1.079-1.583,2.52-1.764,4.355h11.626
		c-0.36-3.996-2.339-5.976-5.867-5.976C95.65,134.258,94.318,134.798,93.31,135.878z"/>
	<path class="st1" d="M123.765,137.642h-2.808c-0.252-1.152-0.72-2.016-1.439-2.52c-0.792-0.576-1.944-0.864-3.42-0.864
		c-1.295,0-2.304,0.216-3.023,0.72c-0.792,0.468-1.188,1.116-1.188,1.944c0,0.792,0.504,1.476,1.584,2.016
		c0.684,0.323,1.979,0.72,3.852,1.224c2.231,0.54,3.815,1.116,4.787,1.728c1.476,0.937,2.232,2.196,2.232,3.815
		c0,3.815-2.627,5.76-7.883,5.76c-4.896,0-7.559-2.16-7.991-6.443h2.808c0.216,1.476,0.756,2.52,1.548,3.168
		c0.792,0.575,1.98,0.863,3.563,0.863c3.312,0,5.003-1.08,5.003-3.167c0-1.044-0.612-1.836-1.764-2.412
		c-0.612-0.288-1.944-0.684-3.959-1.188c-2.196-0.54-3.744-1.08-4.607-1.656c-1.44-0.864-2.124-2.052-2.124-3.636
		c0-1.583,0.684-2.808,2.088-3.743c1.296-0.936,3.023-1.404,5.111-1.404C120.741,131.846,123.261,133.754,123.765,137.642z"/>
	<path class="st1" d="M153.077,133.934c1.08,1.224,1.656,2.916,1.656,5.075v11.951h-2.7v-3.132c-0.72,1.008-1.691,1.836-2.843,2.483
		c-1.368,0.756-2.916,1.152-4.644,1.152c-1.872,0-3.348-0.468-4.463-1.404c-1.152-0.972-1.728-2.231-1.728-3.743
		c0-2.124,0.828-3.708,2.556-4.787c1.512-1.008,3.672-1.548,6.479-1.584l4.463-0.072v-0.972c0-3.132-1.62-4.68-4.859-4.68
		c-1.368,0-2.483,0.252-3.348,0.828c-0.972,0.576-1.584,1.476-1.872,2.664l-2.843-0.217c0.396-1.943,1.368-3.419,2.879-4.355
		c1.368-0.863,3.132-1.296,5.363-1.296C149.838,131.846,151.781,132.53,153.077,133.934z M147.57,142.104
		c-4.176,0.072-6.264,1.44-6.264,4.14c0,0.864,0.324,1.548,1.044,2.124c0.72,0.54,1.656,0.828,2.808,0.828
		c1.764,0,3.312-0.576,4.68-1.729c1.332-1.115,2.016-2.411,2.016-3.852v-1.583L147.57,142.104z"/>
	<path class="st1" d="M174.856,139.513v11.447h-2.879v-11.23c0-3.636-1.656-5.436-4.896-5.436c-1.296,0-2.412,0.468-3.348,1.403
		c-1.008,1.008-1.548,2.34-1.656,4.032v11.23h-2.879v-18.61h2.879v2.736c0.648-1.044,1.477-1.836,2.484-2.376
		c1.008-0.576,2.123-0.864,3.347-0.864C172.517,131.846,174.856,134.401,174.856,139.513z"/>
	<path class="st1" d="M195.952,124.755v26.205h-2.699v-3.06c-1.296,2.375-3.384,3.563-6.191,3.563c-2.736,0-4.859-1.008-6.371-2.952
		c-1.404-1.8-2.088-4.104-2.088-6.911c0-2.735,0.684-4.967,2.088-6.767c1.512-2.016,3.563-2.988,6.227-2.988
		c2.664,0,4.716,1.296,6.155,3.924v-11.015H195.952z M182.922,136.382c-0.936,1.26-1.368,2.987-1.368,5.219
		c0,2.232,0.433,3.996,1.332,5.292c1.008,1.439,2.52,2.195,4.535,2.195c1.872,0,3.312-0.72,4.355-2.159
		c0.9-1.296,1.368-2.988,1.368-5.076v-0.359c0-2.16-0.54-3.924-1.548-5.256c-1.044-1.367-2.412-2.016-4.067-2.016
		C185.478,134.222,183.93,134.941,182.922,136.382z"/>
	<path class="st1" d="M225.77,133.934c1.08,1.224,1.655,2.916,1.655,5.075v11.951h-2.699v-3.132
		c-0.72,1.008-1.691,1.836-2.844,2.483c-1.368,0.756-2.916,1.152-4.644,1.152c-1.872,0-3.348-0.468-4.463-1.404
		c-1.152-0.972-1.729-2.231-1.729-3.743c0-2.124,0.828-3.708,2.556-4.787c1.512-1.008,3.672-1.548,6.479-1.584l4.464-0.072v-0.972
		c0-3.132-1.62-4.68-4.859-4.68c-1.368,0-2.484,0.252-3.348,0.828c-0.973,0.576-1.584,1.476-1.872,2.664l-2.844-0.217
		c0.396-1.943,1.368-3.419,2.88-4.355c1.367-0.863,3.132-1.296,5.363-1.296C222.529,131.846,224.474,132.53,225.77,133.934z
		 M220.262,142.104c-4.175,0.072-6.263,1.44-6.263,4.14c0,0.864,0.324,1.548,1.044,2.124c0.72,0.54,1.655,0.828,2.808,0.828
		c1.764,0,3.312-0.576,4.679-1.729c1.332-1.115,2.017-2.411,2.017-3.852v-1.583L220.262,142.104z"/>
	<path class="st1" d="M235.814,125.942c0.432,0.36,0.647,0.864,0.647,1.513c0,0.611-0.216,1.115-0.647,1.548
		c-0.433,0.396-0.937,0.611-1.548,0.611c-0.612,0-1.116-0.216-1.548-0.611c-0.433-0.433-0.612-0.937-0.612-1.548
		c0-0.648,0.18-1.152,0.612-1.513c0.432-0.432,0.936-0.611,1.548-0.611C234.878,125.331,235.382,125.511,235.814,125.942z
		 M235.706,132.35v18.61h-2.88v-18.61H235.706z"/>
	<path class="st1" d="M255.072,135.374c0.721-1.225,1.584-2.124,2.592-2.664c0.9-0.576,1.98-0.864,3.276-0.864
		c1.943,0,3.491,0.612,4.715,1.836c1.152,1.26,1.764,2.952,1.764,5.075v12.203h-2.88v-11.734c0-1.656-0.359-2.88-1.043-3.672
		c-0.721-0.864-1.872-1.26-3.456-1.26c-1.224,0-2.268,0.432-3.06,1.368c-0.864,0.936-1.26,2.123-1.26,3.635v11.663h-2.88v-11.734
		c0-3.312-1.439-4.932-4.283-4.932c-1.332,0-2.412,0.504-3.275,1.584c-0.864,1.008-1.296,2.268-1.296,3.743v11.339h-2.88v-18.61
		h2.88v2.484c1.403-2.016,3.167-2.988,5.255-2.988C252.085,131.846,254.029,132.998,255.072,135.374z"/>
	<path class="st1" d="M288.203,132.35h4.607v2.412h-4.607v11.843c0,0.684,0.107,1.188,0.396,1.476
		c0.252,0.288,0.72,0.468,1.368,0.468h2.375v2.412h-2.808c-1.512,0-2.627-0.396-3.275-1.188c-0.611-0.72-0.899-1.764-0.899-3.167
		v-11.843h-3.744v-2.412h3.744v-4.823l2.844-1.188V132.35z"/>
	<path class="st1" d="M298.895,124.755v10.655c0.648-1.188,1.512-2.088,2.592-2.7c1.008-0.576,2.124-0.864,3.384-0.864
		c2.159,0,3.852,0.612,5.003,1.908c1.152,1.26,1.729,3.096,1.729,5.472v11.734h-2.88v-11.303c0-1.728-0.432-3.06-1.224-3.995
		c-0.864-0.937-2.052-1.404-3.6-1.404c-1.44,0-2.628,0.576-3.563,1.728c-0.973,1.152-1.44,2.628-1.44,4.355v10.619h-2.879v-26.205
		H298.895z"/>
	<path class="st1" d="M330.466,134.87c1.367,1.8,2.087,4.355,2.159,7.595h-14.686c0.144,2.088,0.684,3.707,1.691,4.859
		c1.008,1.151,2.412,1.728,4.176,1.728c1.512,0,2.771-0.396,3.707-1.151c0.792-0.648,1.404-1.62,1.872-2.916h2.88
		c-0.433,1.8-1.26,3.239-2.521,4.392c-1.548,1.368-3.527,2.088-5.938,2.088c-2.664,0-4.824-0.9-6.407-2.628
		c-1.656-1.8-2.448-4.176-2.448-7.199c0-2.735,0.756-5.039,2.34-6.875c1.584-1.943,3.708-2.916,6.407-2.916
		C326.686,131.846,328.954,132.854,330.466,134.87z M319.774,135.878c-1.008,1.079-1.583,2.52-1.764,4.355h11.627
		c-0.36-3.996-2.34-5.976-5.867-5.976C322.114,134.258,320.782,134.798,319.774,135.878z"/>
	<path class="st1" d="M360.93,133.466c1.439,1.116,2.304,2.808,2.628,5.075h-2.844c-0.252-1.439-0.828-2.52-1.728-3.239
		c-0.937-0.72-2.124-1.044-3.6-1.044c-1.8,0-3.24,0.684-4.284,2.052c-1.008,1.332-1.512,3.132-1.512,5.399s0.468,4.067,1.477,5.363
		c0.972,1.296,2.411,1.979,4.283,1.979c3.167,0,5.003-1.619,5.436-4.823h2.879c-0.432,2.376-1.331,4.212-2.771,5.436
		c-1.403,1.188-3.239,1.8-5.543,1.8c-2.808,0-4.968-0.937-6.516-2.808c-1.476-1.764-2.195-4.067-2.195-6.911s0.72-5.147,2.195-6.947
		c1.584-1.979,3.779-2.952,6.552-2.952C357.69,131.846,359.525,132.386,360.93,133.466z"/>
	<path class="st1" d="M381.054,133.934c1.08,1.224,1.655,2.916,1.655,5.075v11.951h-2.699v-3.132
		c-0.72,1.008-1.691,1.836-2.844,2.483c-1.368,0.756-2.916,1.152-4.644,1.152c-1.872,0-3.348-0.468-4.463-1.404
		c-1.152-0.972-1.729-2.231-1.729-3.743c0-2.124,0.828-3.708,2.556-4.787c1.512-1.008,3.672-1.548,6.479-1.584l4.464-0.072v-0.972
		c0-3.132-1.62-4.68-4.859-4.68c-1.368,0-2.484,0.252-3.348,0.828c-0.973,0.576-1.584,1.476-1.872,2.664l-2.844-0.217
		c0.396-1.943,1.368-3.419,2.88-4.355c1.367-0.863,3.132-1.296,5.363-1.296C377.813,131.846,379.758,132.53,381.054,133.934z
		 M375.546,142.104c-4.175,0.072-6.263,1.44-6.263,4.14c0,0.864,0.324,1.548,1.044,2.124c0.72,0.54,1.655,0.828,2.808,0.828
		c1.764,0,3.312-0.576,4.679-1.729c1.332-1.115,2.017-2.411,2.017-3.852v-1.583L375.546,142.104z"/>
	<path class="st1" d="M401.141,135.374c0.721-1.225,1.584-2.124,2.592-2.664c0.9-0.576,1.98-0.864,3.276-0.864
		c1.943,0,3.491,0.612,4.715,1.836c1.152,1.26,1.764,2.952,1.764,5.075v12.203h-2.88v-11.734c0-1.656-0.359-2.88-1.043-3.672
		c-0.721-0.864-1.872-1.26-3.456-1.26c-1.224,0-2.268,0.432-3.06,1.368c-0.864,0.936-1.26,2.123-1.26,3.635v11.663h-2.88v-11.734
		c0-3.312-1.439-4.932-4.283-4.932c-1.332,0-2.412,0.504-3.275,1.584c-0.864,1.008-1.296,2.268-1.296,3.743v11.339h-2.88v-18.61
		h2.88v2.484c1.403-2.016,3.167-2.988,5.255-2.988C398.153,131.846,400.098,132.998,401.141,135.374z"/>
	<path class="st1" d="M432.389,134.87c1.368,1.8,2.088,4.355,2.16,7.595h-14.687c0.145,2.088,0.684,3.707,1.691,4.859
		c1.009,1.151,2.412,1.728,4.176,1.728c1.512,0,2.771-0.396,3.708-1.151c0.792-0.648,1.403-1.62,1.871-2.916h2.88
		c-0.432,1.8-1.26,3.239-2.52,4.392c-1.548,1.368-3.527,2.088-5.939,2.088c-2.663,0-4.823-0.9-6.407-2.628
		c-1.655-1.8-2.447-4.176-2.447-7.199c0-2.735,0.756-5.039,2.34-6.875c1.583-1.943,3.707-2.916,6.407-2.916
		C428.609,131.846,430.877,132.854,432.389,134.87z M421.698,135.878c-1.008,1.079-1.584,2.52-1.764,4.355h11.626
		c-0.359-3.996-2.339-5.976-5.867-5.976C424.038,134.258,422.706,134.798,421.698,135.878z"/>
	<path class="st1" d="M448.661,132.278v2.879c-0.937-0.287-1.872-0.396-2.772-0.396c-1.439,0-2.663,0.612-3.635,1.908
		c-1.008,1.224-1.477,2.699-1.477,4.427v9.863h-2.843v-18.61h2.843v3.24c0.504-1.08,1.152-1.944,1.944-2.556
		c0.972-0.792,2.088-1.188,3.384-1.188C447.113,131.846,447.977,131.99,448.661,132.278z"/>
	<path class="st1" d="M465.076,133.934c1.08,1.224,1.655,2.916,1.655,5.075v11.951h-2.699v-3.132
		c-0.72,1.008-1.691,1.836-2.844,2.483c-1.368,0.756-2.916,1.152-4.644,1.152c-1.872,0-3.348-0.468-4.463-1.404
		c-1.152-0.972-1.729-2.231-1.729-3.743c0-2.124,0.828-3.708,2.556-4.787c1.512-1.008,3.672-1.548,6.479-1.584l4.464-0.072v-0.972
		c0-3.132-1.62-4.68-4.859-4.68c-1.368,0-2.484,0.252-3.348,0.828c-0.973,0.576-1.584,1.476-1.872,2.664l-2.844-0.217
		c0.396-1.943,1.368-3.419,2.88-4.355c1.367-0.863,3.132-1.296,5.363-1.296C461.836,131.846,463.78,132.53,465.076,133.934z
		 M459.568,142.104c-4.175,0.072-6.263,1.44-6.263,4.14c0,0.864,0.324,1.548,1.044,2.124c0.72,0.54,1.655,0.828,2.808,0.828
		c1.764,0,3.312-0.576,4.679-1.729c1.332-1.115,2.017-2.411,2.017-3.852v-1.583L459.568,142.104z"/>
	<path class="st1" d="M493.273,132.278v2.879c-0.937-0.287-1.872-0.396-2.772-0.396c-1.439,0-2.663,0.612-3.635,1.908
		c-1.008,1.224-1.477,2.699-1.477,4.427v9.863h-2.843v-18.61h2.843v3.24c0.504-1.08,1.152-1.944,1.944-2.556
		c0.972-0.792,2.088-1.188,3.384-1.188C491.726,131.846,492.589,131.99,493.273,132.278z"/>
	<path class="st1" d="M499.609,125.942c0.433,0.36,0.648,0.864,0.648,1.513c0,0.611-0.216,1.115-0.648,1.548
		c-0.432,0.396-0.936,0.611-1.548,0.611c-0.611,0-1.115-0.216-1.548-0.611c-0.432-0.433-0.611-0.937-0.611-1.548
		c0-0.648,0.18-1.152,0.611-1.513c0.433-0.432,0.937-0.611,1.548-0.611C498.674,125.331,499.178,125.511,499.609,125.942z
		 M499.502,132.35v18.61h-2.88v-18.61H499.502z"/>
	<path class="st1" d="M518.832,135.554v-3.204h2.88v17.314c0,5.939-2.844,8.927-8.495,8.927c-2.52,0-4.464-0.504-5.759-1.512
		c-1.332-1.008-2.16-2.52-2.484-4.535h2.88c0.216,1.26,0.756,2.195,1.584,2.771c0.828,0.611,2.088,0.936,3.779,0.936
		c3.743,0,5.615-2.088,5.615-6.191v-3.275c-1.368,2.483-3.455,3.743-6.263,3.743c-2.592,0-4.644-0.899-6.155-2.663
		c-1.512-1.728-2.232-3.924-2.232-6.623c0-2.736,0.721-4.932,2.232-6.659c1.512-1.836,3.563-2.736,6.155-2.736
		C515.377,131.846,517.464,133.07,518.832,135.554z M508.646,136.237c-1.008,1.224-1.512,2.916-1.512,5.004
		c0,1.943,0.432,3.563,1.332,4.787c1.008,1.368,2.483,2.088,4.499,2.088c1.872,0,3.312-0.648,4.392-1.944
		c1.008-1.26,1.512-2.915,1.512-4.931c0-2.088-0.504-3.78-1.512-5.004c-1.08-1.367-2.52-2.016-4.355-2.016
		C511.129,134.222,509.689,134.87,508.646,136.237z"/>
	<path class="st1" d="M529.057,124.755v10.655c0.648-1.188,1.512-2.088,2.592-2.7c1.008-0.576,2.124-0.864,3.384-0.864
		c2.159,0,3.852,0.612,5.003,1.908c1.152,1.26,1.729,3.096,1.729,5.472v11.734h-2.88v-11.303c0-1.728-0.432-3.06-1.224-3.995
		c-0.864-0.937-2.052-1.404-3.6-1.404c-1.44,0-2.628,0.576-3.563,1.728c-0.973,1.152-1.44,2.628-1.44,4.355v10.619h-2.879v-26.205
		H529.057z"/>
	<path class="st1" d="M551.161,132.35h4.607v2.412h-4.607v11.843c0,0.684,0.107,1.188,0.396,1.476
		c0.252,0.288,0.72,0.468,1.368,0.468h2.375v2.412h-2.808c-1.512,0-2.627-0.396-3.275-1.188c-0.611-0.72-0.899-1.764-0.899-3.167
		v-11.843h-3.744v-2.412h3.744v-4.823l2.844-1.188V132.35z"/>
	<path class="st1" d="M584.324,133.934c1.08,1.224,1.656,2.916,1.656,5.075v11.951h-2.7v-3.132c-0.72,1.008-1.691,1.836-2.843,2.483
		c-1.368,0.756-2.916,1.152-4.644,1.152c-1.872,0-3.348-0.468-4.464-1.404c-1.151-0.972-1.728-2.231-1.728-3.743
		c0-2.124,0.828-3.708,2.556-4.787c1.512-1.008,3.672-1.548,6.479-1.584l4.463-0.072v-0.972c0-3.132-1.62-4.68-4.859-4.68
		c-1.368,0-2.483,0.252-3.348,0.828c-0.972,0.576-1.584,1.476-1.872,2.664l-2.843-0.217c0.396-1.943,1.367-3.419,2.879-4.355
		c1.368-0.863,3.132-1.296,5.363-1.296C581.085,131.846,583.028,132.53,584.324,133.934z M578.817,142.104
		c-4.176,0.072-6.264,1.44-6.264,4.14c0,0.864,0.324,1.548,1.044,2.124c0.72,0.54,1.656,0.828,2.808,0.828
		c1.764,0,3.312-0.576,4.68-1.729c1.332-1.115,2.016-2.411,2.016-3.852v-1.583L578.817,142.104z"/>
	<path class="st1" d="M595.413,132.35h4.607v2.412h-4.607v11.843c0,0.684,0.108,1.188,0.396,1.476
		c0.252,0.288,0.72,0.468,1.367,0.468h2.376v2.412h-2.808c-1.512,0-2.628-0.396-3.275-1.188c-0.612-0.72-0.9-1.764-0.9-3.167
		v-11.843h-3.743v-2.412h3.743v-4.823l2.844-1.188V132.35z"/>
	<path class="st1" d="M629.801,134.834c1.403,1.8,2.123,4.067,2.123,6.875c0,2.735-0.72,5.003-2.088,6.803
		c-1.512,1.944-3.563,2.952-6.227,2.952c-2.664,0-4.716-1.296-6.155-3.888v10.511h-2.88V132.35h2.699v3.061
		c1.332-2.376,3.384-3.564,6.191-3.564C626.129,131.846,628.253,132.818,629.801,134.834z M618.75,136.418
		c-0.937,1.296-1.404,3.023-1.404,5.111v0.359c0,2.16,0.504,3.888,1.584,5.22c1.008,1.296,2.34,1.979,4.067,1.979
		c2.016,0,3.527-0.72,4.571-2.088c0.937-1.296,1.404-3.06,1.404-5.291c0-2.196-0.468-3.96-1.332-5.256
		c-1.044-1.512-2.556-2.231-4.535-2.231C621.233,134.222,619.758,134.941,618.75,136.418z"/>
	<path class="st1" d="M649.672,133.934c1.08,1.224,1.656,2.916,1.656,5.075v11.951h-2.7v-3.132c-0.72,1.008-1.691,1.836-2.843,2.483
		c-1.368,0.756-2.916,1.152-4.644,1.152c-1.872,0-3.348-0.468-4.464-1.404c-1.151-0.972-1.728-2.231-1.728-3.743
		c0-2.124,0.828-3.708,2.556-4.787c1.512-1.008,3.672-1.548,6.479-1.584l4.463-0.072v-0.972c0-3.132-1.62-4.68-4.859-4.68
		c-1.368,0-2.483,0.252-3.348,0.828c-0.972,0.576-1.584,1.476-1.872,2.664l-2.843-0.217c0.396-1.943,1.367-3.419,2.879-4.355
		c1.368-0.863,3.132-1.296,5.363-1.296C646.433,131.846,648.376,132.53,649.672,133.934z M644.165,142.104
		c-4.176,0.072-6.264,1.44-6.264,4.14c0,0.864,0.324,1.548,1.044,2.124c0.72,0.54,1.656,0.828,2.808,0.828
		c1.764,0,3.312-0.576,4.68-1.729c1.332-1.115,2.016-2.411,2.016-3.852v-1.583L644.165,142.104z"/>
	<path class="st1" d="M659.717,125.942c0.433,0.36,0.648,0.864,0.648,1.513c0,0.611-0.216,1.115-0.648,1.548
		c-0.432,0.396-0.936,0.611-1.548,0.611c-0.611,0-1.115-0.216-1.548-0.611c-0.432-0.433-0.611-0.937-0.611-1.548
		c0-0.648,0.18-1.152,0.611-1.513c0.433-0.432,0.937-0.611,1.548-0.611C658.781,125.331,659.285,125.511,659.717,125.942z
		 M659.609,132.35v18.61h-2.88v-18.61H659.609z"/>
	<path class="st1" d="M680.667,139.513v11.447h-2.879v-11.23c0-3.636-1.656-5.436-4.896-5.436c-1.296,0-2.412,0.468-3.348,1.403
		c-1.008,1.008-1.548,2.34-1.656,4.032v11.23h-2.879v-18.61h2.879v2.736c0.648-1.044,1.477-1.836,2.484-2.376
		c1.008-0.576,2.123-0.864,3.347-0.864C678.327,131.846,680.667,134.401,680.667,139.513z"/>
	<path class="st1" d="M690.101,132.35h4.607v2.412h-4.607v11.843c0,0.684,0.107,1.188,0.396,1.476
		c0.252,0.288,0.72,0.468,1.368,0.468h2.375v2.412h-2.808c-1.512,0-2.627-0.396-3.275-1.188c-0.611-0.72-0.899-1.764-0.899-3.167
		v-11.843h-3.744v-2.412h3.744v-4.823l2.844-1.188V132.35z"/>
	<path class="st1" d="M715.658,140.413v2.447H697.48v-2.447H715.658z"/>
	<path class="st1" d="M6.155,185.942c0.432,0.36,0.648,0.864,0.648,1.513c0,0.611-0.216,1.115-0.648,1.548
		c-0.432,0.396-0.936,0.611-1.548,0.611s-1.116-0.216-1.548-0.611c-0.432-0.433-0.612-0.937-0.612-1.548
		c0-0.648,0.18-1.152,0.612-1.513c0.432-0.432,0.936-0.611,1.548-0.611S5.723,185.511,6.155,185.942z M6.047,192.35v18.61h-2.88
		v-18.61H6.047z"/>
	<path class="st1" d="M27.105,199.513v11.447h-2.879v-11.23c0-3.636-1.656-5.436-4.896-5.436c-1.296,0-2.412,0.468-3.348,1.403
		c-1.008,1.008-1.548,2.34-1.656,4.032v11.23h-2.879v-18.61h2.879v2.736c0.648-1.044,1.476-1.836,2.484-2.376
		c1.008-0.576,2.124-0.864,3.348-0.864C24.766,191.846,27.105,194.401,27.105,199.513z"/>
	<path class="st1" d="M45.501,195.554v-3.204h2.879v17.314c0,5.939-2.844,8.927-8.495,8.927c-2.52,0-4.464-0.504-5.759-1.512
		c-1.332-1.008-2.16-2.52-2.484-4.535h2.88c0.216,1.26,0.756,2.195,1.583,2.771c0.828,0.611,2.088,0.936,3.78,0.936
		c3.743,0,5.615-2.088,5.615-6.191v-3.275c-1.368,2.483-3.456,3.743-6.263,3.743c-2.592,0-4.644-0.899-6.155-2.663
		c-1.512-1.728-2.232-3.924-2.232-6.623c0-2.736,0.72-4.932,2.232-6.659c1.512-1.836,3.563-2.736,6.155-2.736
		C42.046,191.846,44.133,193.07,45.501,195.554z M35.314,196.237c-1.008,1.224-1.512,2.916-1.512,5.004
		c0,1.943,0.432,3.563,1.332,4.787c1.008,1.368,2.483,2.088,4.5,2.088c1.872,0,3.312-0.648,4.391-1.944
		c1.008-1.26,1.512-2.915,1.512-4.931c0-2.088-0.504-3.78-1.512-5.004c-1.08-1.367-2.52-2.016-4.355-2.016
		C37.798,194.222,36.358,194.87,35.314,196.237z"/>
	<path class="st1" d="M67.064,197.642h-2.808c-0.252-1.152-0.72-2.016-1.439-2.52c-0.792-0.576-1.944-0.864-3.42-0.864
		c-1.295,0-2.304,0.216-3.023,0.72c-0.792,0.468-1.188,1.116-1.188,1.944c0,0.792,0.504,1.476,1.584,2.016
		c0.684,0.323,1.979,0.72,3.852,1.224c2.231,0.54,3.815,1.116,4.787,1.728c1.476,0.937,2.232,2.196,2.232,3.815
		c0,3.815-2.627,5.76-7.883,5.76c-4.896,0-7.559-2.16-7.991-6.443h2.808c0.216,1.476,0.756,2.52,1.548,3.168
		c0.792,0.575,1.98,0.863,3.563,0.863c3.312,0,5.003-1.08,5.003-3.167c0-1.044-0.612-1.836-1.764-2.412
		c-0.612-0.288-1.944-0.684-3.959-1.188c-2.196-0.54-3.744-1.08-4.607-1.656c-1.44-0.864-2.124-2.052-2.124-3.636
		c0-1.583,0.684-2.808,2.088-3.743c1.296-0.936,3.023-1.404,5.111-1.404C64.041,191.846,66.561,193.754,67.064,197.642z"/>
	<path class="st1" d="M86.938,185.942c0.432,0.36,0.648,0.864,0.648,1.513c0,0.611-0.216,1.115-0.648,1.548
		c-0.432,0.396-0.936,0.611-1.548,0.611s-1.116-0.216-1.548-0.611c-0.432-0.433-0.612-0.937-0.612-1.548
		c0-0.648,0.18-1.152,0.612-1.513c0.432-0.432,0.936-0.611,1.548-0.611S86.505,185.511,86.938,185.942z M86.83,192.35v18.61h-2.88
		v-18.61H86.83z"/>
	<path class="st1" d="M107.888,199.513v11.447h-2.879v-11.23c0-3.636-1.656-5.436-4.896-5.436c-1.296,0-2.412,0.468-3.348,1.403
		c-1.008,1.008-1.548,2.34-1.656,4.032v11.23H92.23v-18.61h2.879v2.736c0.648-1.044,1.476-1.836,2.484-2.376
		c1.008-0.576,2.124-0.864,3.348-0.864C105.548,191.846,107.888,194.401,107.888,199.513z"/>
	<path class="st1" d="M129.309,192.35h4.607v2.412h-4.607v11.843c0,0.684,0.108,1.188,0.396,1.476
		c0.252,0.288,0.72,0.468,1.368,0.468h2.375v2.412h-2.808c-1.512,0-2.627-0.396-3.275-1.188c-0.612-0.72-0.9-1.764-0.9-3.167
		v-11.843h-3.744v-2.412h3.744v-4.823l2.844-1.188V192.35z"/>
	<path class="st1" d="M140,184.755v10.655c0.648-1.188,1.511-2.088,2.591-2.7c1.008-0.576,2.124-0.864,3.384-0.864
		c2.159,0,3.852,0.612,5.003,1.908c1.152,1.26,1.729,3.096,1.729,5.472v11.734h-2.88v-11.303c0-1.728-0.432-3.06-1.224-3.995
		c-0.864-0.937-2.052-1.404-3.6-1.404c-1.44,0-2.628,0.576-3.563,1.728c-0.972,1.152-1.44,2.628-1.44,4.355v10.619h-2.879v-26.205
		H140z"/>
	<path class="st1" d="M171.571,194.87c1.367,1.8,2.087,4.355,2.159,7.595h-14.686c0.144,2.088,0.684,3.707,1.691,4.859
		c1.008,1.151,2.412,1.728,4.176,1.728c1.512,0,2.771-0.396,3.707-1.151c0.792-0.648,1.404-1.62,1.872-2.916h2.88
		c-0.433,1.8-1.26,3.239-2.521,4.392c-1.548,1.368-3.527,2.088-5.938,2.088c-2.664,0-4.824-0.9-6.407-2.628
		c-1.656-1.8-2.448-4.176-2.448-7.199c0-2.735,0.756-5.039,2.34-6.875c1.584-1.943,3.708-2.916,6.407-2.916
		C167.791,191.846,170.06,192.854,171.571,194.87z M160.88,195.878c-1.008,1.079-1.583,2.52-1.764,4.355h11.627
		c-0.36-3.996-2.34-5.976-5.867-5.976C163.22,194.258,161.888,194.798,160.88,195.878z"/>
	<path class="st1" d="M203.035,195.554v-3.204h2.879v17.314c0,5.939-2.844,8.927-8.494,8.927c-2.521,0-4.464-0.504-5.76-1.512
		c-1.332-1.008-2.16-2.52-2.483-4.535h2.879c0.217,1.26,0.757,2.195,1.584,2.771c0.828,0.611,2.088,0.936,3.78,0.936
		c3.743,0,5.615-2.088,5.615-6.191v-3.275c-1.368,2.483-3.456,3.743-6.264,3.743c-2.592,0-4.644-0.899-6.155-2.663
		c-1.512-1.728-2.231-3.924-2.231-6.623c0-2.736,0.72-4.932,2.231-6.659c1.512-1.836,3.563-2.736,6.155-2.736
		C199.579,191.846,201.667,193.07,203.035,195.554z M192.848,196.237c-1.008,1.224-1.512,2.916-1.512,5.004
		c0,1.943,0.433,3.563,1.332,4.787c1.008,1.368,2.483,2.088,4.5,2.088c1.871,0,3.312-0.648,4.391-1.944
		c1.008-1.26,1.512-2.915,1.512-4.931c0-2.088-0.504-3.78-1.512-5.004c-1.079-1.367-2.52-2.016-4.355-2.016
		C195.332,194.222,193.892,194.87,192.848,196.237z"/>
	<path class="st1" d="M224.382,193.934c1.08,1.224,1.656,2.916,1.656,5.075v11.951h-2.7v-3.132c-0.72,1.008-1.691,1.836-2.843,2.483
		c-1.368,0.756-2.916,1.152-4.644,1.152c-1.872,0-3.348-0.468-4.464-1.404c-1.151-0.972-1.728-2.231-1.728-3.743
		c0-2.124,0.828-3.708,2.556-4.787c1.512-1.008,3.672-1.548,6.479-1.584l4.463-0.072v-0.972c0-3.132-1.62-4.68-4.859-4.68
		c-1.368,0-2.483,0.252-3.348,0.828c-0.972,0.576-1.584,1.476-1.872,2.664l-2.843-0.217c0.396-1.943,1.367-3.419,2.879-4.355
		c1.368-0.863,3.132-1.296,5.363-1.296C221.143,191.846,223.086,192.53,224.382,193.934z M218.875,202.104
		c-4.176,0.072-6.264,1.44-6.264,4.14c0,0.864,0.324,1.548,1.044,2.124c0.72,0.54,1.656,0.828,2.808,0.828
		c1.764,0,3.312-0.576,4.68-1.729c1.332-1.115,2.016-2.411,2.016-3.852v-1.583L218.875,202.104z"/>
	<path class="st1" d="M233.923,184.755v26.205h-2.844v-26.205H233.923z"/>
	<path class="st1" d="M242.383,184.755v26.205h-2.844v-26.205H242.383z"/>
	<path class="st1" d="M261.856,194.87c1.368,1.8,2.088,4.355,2.16,7.595H249.33c0.145,2.088,0.684,3.707,1.691,4.859
		c1.009,1.151,2.412,1.728,4.176,1.728c1.512,0,2.771-0.396,3.708-1.151c0.792-0.648,1.403-1.62,1.871-2.916h2.88
		c-0.432,1.8-1.26,3.239-2.52,4.392c-1.548,1.368-3.527,2.088-5.939,2.088c-2.663,0-4.823-0.9-6.407-2.628
		c-1.655-1.8-2.447-4.176-2.447-7.199c0-2.735,0.756-5.039,2.34-6.875c1.583-1.943,3.707-2.916,6.407-2.916
		C258.077,191.846,260.345,192.854,261.856,194.87z M251.166,195.878c-1.008,1.079-1.584,2.52-1.764,4.355h11.626
		c-0.359-3.996-2.339-5.976-5.867-5.976C253.506,194.258,252.174,194.798,251.166,195.878z"/>
	<path class="st1" d="M278.129,192.278v2.879c-0.937-0.287-1.872-0.396-2.772-0.396c-1.439,0-2.663,0.612-3.635,1.908
		c-1.008,1.224-1.477,2.699-1.477,4.427v9.863h-2.843v-18.61h2.843v3.24c0.504-1.08,1.152-1.944,1.944-2.556
		c0.972-0.792,2.088-1.188,3.384-1.188C276.581,191.846,277.444,191.99,278.129,192.278z"/>
	<path class="st1" d="M281.621,192.35l5.688,14.687l5.508-14.687h3.167l-10.187,25.737h-3.132l3.204-7.56l-7.379-18.178H281.621z"/>
	<path class="st1" d="M302.896,207.685c0.468,0.647,0.72,1.476,0.72,2.52c0,1.584-0.468,2.987-1.403,4.211
		c-0.937,1.152-2.196,1.944-3.744,2.34v-1.764c0.937-0.324,1.728-0.864,2.304-1.584c0.54-0.756,0.792-1.548,0.792-2.411
		c-0.18,0.071-0.432,0.144-0.792,0.144c-0.611,0-1.115-0.216-1.548-0.647c-0.432-0.433-0.647-0.973-0.647-1.584
		c0-0.685,0.216-1.224,0.684-1.62c0.396-0.432,0.936-0.612,1.656-0.612C301.709,206.676,302.393,207,302.896,207.685z"/>
	<path class="st1" d="M333.854,195.374c0.721-1.225,1.584-2.124,2.592-2.664c0.9-0.576,1.98-0.864,3.276-0.864
		c1.943,0,3.491,0.612,4.715,1.836c1.152,1.26,1.764,2.952,1.764,5.075v12.203h-2.88v-11.734c0-1.656-0.359-2.88-1.043-3.672
		c-0.721-0.864-1.872-1.26-3.456-1.26c-1.224,0-2.268,0.432-3.06,1.368c-0.864,0.936-1.26,2.123-1.26,3.635v11.663h-2.88v-11.734
		c0-3.312-1.439-4.932-4.283-4.932c-1.332,0-2.412,0.504-3.275,1.584c-0.864,1.008-1.296,2.268-1.296,3.743v11.339h-2.88v-18.61
		h2.88v2.484c1.403-2.016,3.167-2.988,5.255-2.988C330.867,191.846,332.812,192.998,333.854,195.374z"/>
	<path class="st1" d="M364.671,193.934c1.08,1.224,1.655,2.916,1.655,5.075v11.951h-2.699v-3.132
		c-0.72,1.008-1.691,1.836-2.844,2.483c-1.368,0.756-2.916,1.152-4.644,1.152c-1.872,0-3.348-0.468-4.463-1.404
		c-1.152-0.972-1.729-2.231-1.729-3.743c0-2.124,0.828-3.708,2.556-4.787c1.512-1.008,3.672-1.548,6.479-1.584l4.464-0.072v-0.972
		c0-3.132-1.62-4.68-4.859-4.68c-1.368,0-2.484,0.252-3.348,0.828c-0.973,0.576-1.584,1.476-1.872,2.664l-2.844-0.217
		c0.396-1.943,1.368-3.419,2.88-4.355c1.367-0.863,3.132-1.296,5.363-1.296C361.431,191.846,363.375,192.53,364.671,193.934z
		 M359.163,202.104c-4.175,0.072-6.263,1.44-6.263,4.14c0,0.864,0.324,1.548,1.044,2.124c0.72,0.54,1.655,0.828,2.808,0.828
		c1.764,0,3.312-0.576,4.679-1.729c1.332-1.115,2.017-2.411,2.017-3.852v-1.583L359.163,202.104z"/>
	<path class="st1" d="M384.723,195.554v-3.204h2.879v17.314c0,5.939-2.844,8.927-8.494,8.927c-2.521,0-4.464-0.504-5.76-1.512
		c-1.332-1.008-2.16-2.52-2.483-4.535h2.879c0.217,1.26,0.757,2.195,1.584,2.771c0.828,0.611,2.088,0.936,3.78,0.936
		c3.743,0,5.615-2.088,5.615-6.191v-3.275c-1.368,2.483-3.456,3.743-6.264,3.743c-2.592,0-4.644-0.899-6.155-2.663
		c-1.512-1.728-2.231-3.924-2.231-6.623c0-2.736,0.72-4.932,2.231-6.659c1.512-1.836,3.563-2.736,6.155-2.736
		C381.267,191.846,383.354,193.07,384.723,195.554z M374.535,196.237c-1.008,1.224-1.512,2.916-1.512,5.004
		c0,1.943,0.433,3.563,1.332,4.787c1.008,1.368,2.483,2.088,4.5,2.088c1.871,0,3.312-0.648,4.391-1.944
		c1.008-1.26,1.512-2.915,1.512-4.931c0-2.088-0.504-3.78-1.512-5.004c-1.079-1.367-2.52-2.016-4.355-2.016
		C377.02,194.222,375.579,194.87,374.535,196.237z"/>
	<path class="st1" d="M395.991,185.942c0.432,0.36,0.647,0.864,0.647,1.513c0,0.611-0.216,1.115-0.647,1.548
		c-0.433,0.396-0.937,0.611-1.548,0.611c-0.612,0-1.116-0.216-1.548-0.611c-0.433-0.433-0.612-0.937-0.612-1.548
		c0-0.648,0.18-1.152,0.612-1.513c0.432-0.432,0.936-0.611,1.548-0.611C395.055,185.331,395.559,185.511,395.991,185.942z
		 M395.883,192.35v18.61h-2.88v-18.61H395.883z"/>
	<path class="st1" d="M414.854,193.466c1.439,1.116,2.304,2.808,2.628,5.075h-2.844c-0.252-1.439-0.828-2.52-1.728-3.239
		c-0.937-0.72-2.124-1.044-3.6-1.044c-1.8,0-3.24,0.684-4.284,2.052c-1.008,1.332-1.512,3.132-1.512,5.399s0.468,4.067,1.477,5.363
		c0.972,1.296,2.411,1.979,4.283,1.979c3.167,0,5.003-1.619,5.436-4.823h2.879c-0.432,2.376-1.331,4.212-2.771,5.436
		c-1.403,1.188-3.239,1.8-5.543,1.8c-2.808,0-4.968-0.937-6.516-2.808c-1.476-1.764-2.195-4.067-2.195-6.911s0.72-5.147,2.195-6.947
		c1.584-1.979,3.779-2.952,6.552-2.952C411.614,191.846,413.449,192.386,414.854,193.466z"/>
	<path class="st1" d="M435.843,184.755v10.655c0.647-1.188,1.512-2.088,2.592-2.7c1.008-0.576,2.123-0.864,3.383-0.864
		c2.16,0,3.852,0.612,5.004,1.908c1.151,1.26,1.728,3.096,1.728,5.472v11.734h-2.88v-11.303c0-1.728-0.432-3.06-1.224-3.995
		c-0.863-0.937-2.052-1.404-3.6-1.404c-1.439,0-2.628,0.576-3.563,1.728c-0.972,1.152-1.439,2.628-1.439,4.355v10.619h-2.88v-26.205
		H435.843z"/>
	<path class="st1" d="M466.981,193.934c1.08,1.224,1.655,2.916,1.655,5.075v11.951h-2.699v-3.132
		c-0.72,1.008-1.691,1.836-2.844,2.483c-1.368,0.756-2.916,1.152-4.644,1.152c-1.872,0-3.348-0.468-4.463-1.404
		c-1.152-0.972-1.729-2.231-1.729-3.743c0-2.124,0.828-3.708,2.556-4.787c1.512-1.008,3.672-1.548,6.479-1.584l4.464-0.072v-0.972
		c0-3.132-1.62-4.68-4.859-4.68c-1.368,0-2.484,0.252-3.348,0.828c-0.973,0.576-1.584,1.476-1.872,2.664l-2.844-0.217
		c0.396-1.943,1.368-3.419,2.88-4.355c1.367-0.863,3.132-1.296,5.363-1.296C463.741,191.846,465.686,192.53,466.981,193.934z
		 M461.474,202.104c-4.175,0.072-6.263,1.44-6.263,4.14c0,0.864,0.324,1.548,1.044,2.124c0.72,0.54,1.655,0.828,2.808,0.828
		c1.764,0,3.312-0.576,4.679-1.729c1.332-1.115,2.017-2.411,2.017-3.852v-1.583L461.474,202.104z"/>
	<path class="st1" d="M488.329,194.834c1.403,1.8,2.123,4.067,2.123,6.875c0,2.735-0.72,5.003-2.088,6.803
		c-1.512,1.944-3.563,2.952-6.227,2.952c-2.664,0-4.716-1.296-6.155-3.888v10.511h-2.88V192.35h2.699v3.061
		c1.332-2.376,3.384-3.564,6.191-3.564C484.657,191.846,486.781,192.818,488.329,194.834z M477.278,196.418
		c-0.937,1.296-1.404,3.023-1.404,5.111v0.359c0,2.16,0.504,3.888,1.584,5.22c1.008,1.296,2.34,1.979,4.067,1.979
		c2.016,0,3.527-0.72,4.571-2.088c0.937-1.296,1.404-3.06,1.404-5.291c0-2.196-0.468-3.96-1.332-5.256
		c-1.044-1.512-2.556-2.231-4.535-2.231C479.762,194.222,478.286,194.941,477.278,196.418z"/>
	<path class="st1" d="M509.425,194.834c1.404,1.8,2.124,4.067,2.124,6.875c0,2.735-0.72,5.003-2.088,6.803
		c-1.512,1.944-3.563,2.952-6.228,2.952c-2.663,0-4.715-1.296-6.155-3.888v10.511h-2.879V192.35h2.699v3.061
		c1.332-2.376,3.384-3.564,6.191-3.564C505.753,191.846,507.877,192.818,509.425,194.834z M498.374,196.418
		c-0.936,1.296-1.403,3.023-1.403,5.111v0.359c0,2.16,0.504,3.888,1.584,5.22c1.008,1.296,2.339,1.979,4.067,1.979
		c2.016,0,3.527-0.72,4.571-2.088c0.936-1.296,1.403-3.06,1.403-5.291c0-2.196-0.468-3.96-1.332-5.256
		c-1.043-1.512-2.556-2.231-4.535-2.231C500.858,194.222,499.382,194.941,498.374,196.418z"/>
	<path class="st1" d="M529.729,194.87c1.368,1.8,2.088,4.355,2.16,7.595h-14.687c0.145,2.088,0.684,3.707,1.691,4.859
		c1.009,1.151,2.412,1.728,4.176,1.728c1.512,0,2.771-0.396,3.708-1.151c0.792-0.648,1.403-1.62,1.871-2.916h2.88
		c-0.432,1.8-1.26,3.239-2.52,4.392c-1.548,1.368-3.527,2.088-5.939,2.088c-2.663,0-4.823-0.9-6.407-2.628
		c-1.655-1.8-2.447-4.176-2.447-7.199c0-2.735,0.756-5.039,2.34-6.875c1.583-1.943,3.707-2.916,6.407-2.916
		C525.949,191.846,528.217,192.854,529.729,194.87z M519.038,195.878c-1.008,1.079-1.584,2.52-1.764,4.355H528.9
		c-0.359-3.996-2.339-5.976-5.867-5.976C521.378,194.258,520.046,194.798,519.038,195.878z"/>
	<path class="st1" d="M550.932,199.513v11.447h-2.879v-11.23c0-3.636-1.656-5.436-4.896-5.436c-1.296,0-2.412,0.468-3.348,1.403
		c-1.008,1.008-1.548,2.34-1.656,4.032v11.23h-2.879v-18.61h2.879v2.736c0.648-1.044,1.477-1.836,2.484-2.376
		c1.008-0.576,2.123-0.864,3.347-0.864C548.592,191.846,550.932,194.401,550.932,199.513z"/>
	<path class="st1" d="M569.615,197.642h-2.808c-0.252-1.152-0.72-2.016-1.439-2.52c-0.792-0.576-1.943-0.864-3.42-0.864
		c-1.296,0-2.304,0.216-3.023,0.72c-0.792,0.468-1.188,1.116-1.188,1.944c0,0.792,0.504,1.476,1.584,2.016
		c0.684,0.323,1.979,0.72,3.852,1.224c2.231,0.54,3.815,1.116,4.787,1.728c1.476,0.937,2.231,2.196,2.231,3.815
		c0,3.815-2.628,5.76-7.883,5.76c-4.896,0-7.559-2.16-7.991-6.443h2.808c0.216,1.476,0.756,2.52,1.548,3.168
		c0.792,0.575,1.979,0.863,3.563,0.863c3.312,0,5.004-1.08,5.004-3.167c0-1.044-0.612-1.836-1.764-2.412
		c-0.612-0.288-1.944-0.684-3.96-1.188c-2.195-0.54-3.743-1.08-4.607-1.656c-1.439-0.864-2.124-2.052-2.124-3.636
		c0-1.583,0.685-2.808,2.088-3.743c1.296-0.936,3.023-1.404,5.111-1.404C566.592,191.846,569.111,193.754,569.615,197.642z"/>
	<path class="st1" d="M577.645,207.324c0.432,0.432,0.648,0.936,0.648,1.584c0,0.611-0.217,1.115-0.648,1.548
		c-0.432,0.432-0.972,0.647-1.548,0.647c-0.647,0-1.151-0.216-1.548-0.647c-0.432-0.433-0.647-0.937-0.647-1.548
		c0-0.648,0.216-1.152,0.647-1.584c0.396-0.432,0.9-0.648,1.548-0.648C576.673,206.676,577.213,206.893,577.645,207.324z"/>
</g>
</svg>