<!-- Generator: Adobe Illustrator 22.0.1, SVG Export Plug-In  -->
<svg version="1.1"
	 xmlns="http://www.w3.org/2000/svg" xmlns:xlink="http://www.w3.org/1999/xlink" xmlns:a="http://ns.adobe.com/AdobeSVGViewerExtensions/3.0/"
	 x="0px" y="0px" width="1375.812px" height="144.144px" viewBox="0 0 1375.812 144.144"
	 style="enable-background:new 0 0 1375.812 144.144;" xml:space="preserve">
<style type="text/css">
	.st0{fill:#FFFFFF;}
	.st1{font-family:'PingFangTC-Semibold-B5pc-H';}
	.st2{font-size:132px;}
</style>
<defs>
</defs>
<g>
	<path class="st0" d="M79.202,19.27v13.2H48.313v81.05H32.869V32.47H1.98v-13.2H79.202z"/>
	<path class="st0" d="M104.147,17.421v36.961c2.508-3.828,5.676-6.6,9.372-8.448c3.3-1.716,7.128-2.508,11.484-2.508
		c8.316,0,14.521,2.376,18.613,7.26c3.828,4.62,5.808,11.484,5.808,20.593v42.241h-15.048V73.919c0-5.808-1.188-10.296-3.432-13.333
		c-2.64-3.3-6.468-4.884-11.617-4.884c-4.752,0-8.448,1.848-11.088,5.544c-2.772,3.696-4.092,8.316-4.092,14.125v38.149H89.099
		V17.421H104.147z"/>
	<path class="st0" d="M220.044,54.778c5.412,6.864,8.185,16.5,8.185,28.777h-51.085c0.528,6.336,2.244,11.22,5.148,14.521
		c2.904,3.3,7.128,5.016,12.541,5.016c4.62,0,8.316-1.056,11.22-3.168c2.244-1.716,4.224-4.488,6.072-8.316h15.048
		c-1.584,6.336-4.752,11.749-9.504,15.973c-6.072,5.148-13.596,7.788-22.705,7.788c-10.164,0-18.216-3.168-24.157-9.373
		c-6.336-6.468-9.504-15.312-9.504-26.665c0-10.164,2.904-18.612,8.977-25.477c5.808-6.997,13.86-10.429,24.024-10.429
		C205.523,43.426,214.104,47.122,220.044,54.778z M182.951,59.926c-2.772,2.772-4.62,6.864-5.544,12.276h35.113
		c-1.32-11.088-7.26-16.5-17.821-16.5C189.683,55.702,185.855,57.022,182.951,59.926z"/>
	<path class="st0" d="M319.833,19.27c15.312,0,26.797,4.224,34.717,12.672c7.524,7.92,11.353,19.404,11.353,34.453
		c0,14.917-3.828,26.401-11.353,34.453c-7.92,8.448-19.404,12.672-34.717,12.672h-34.453V19.27H319.833z M300.824,100.32h16.104
		c11.749,0,20.329-2.772,25.741-8.185c5.279-5.544,7.92-14.124,7.92-25.741c0-11.88-2.641-20.592-7.92-25.873
		c-5.412-5.412-13.993-8.052-25.741-8.052h-16.104V100.32z"/>
	<path class="st0" d="M433.879,54.778c5.412,6.864,8.184,16.5,8.184,28.777h-51.085c0.527,6.336,2.244,11.22,5.147,14.521
		c2.904,3.3,7.129,5.016,12.541,5.016c4.62,0,8.316-1.056,11.22-3.168c2.244-1.716,4.225-4.488,6.072-8.316h15.049
		c-1.584,6.336-4.752,11.749-9.504,15.973c-6.072,5.148-13.597,7.788-22.705,7.788c-10.164,0-18.217-3.168-24.156-9.373
		c-6.337-6.468-9.505-15.312-9.505-26.665c0-10.164,2.904-18.612,8.977-25.477c5.808-6.997,13.86-10.429,24.024-10.429
		C419.359,43.426,427.939,47.122,433.879,54.778z M396.786,59.926c-2.771,2.772-4.62,6.864-5.544,12.276h35.113
		c-1.32-11.088-7.261-16.5-17.82-16.5C403.518,55.702,399.69,57.022,396.786,59.926z"/>
	<path class="st0" d="M495.257,19.27v12.672h-12.408c-1.98,0-3.433,0.528-4.488,1.584c-1.056,1.056-1.452,2.64-1.452,4.884v6.864
		h17.425V57.55h-17.425v55.97h-15.048V57.55H446.68V45.274h15.181v-7.26c0-5.808,1.584-10.428,4.884-13.728
		c3.168-3.432,7.92-5.016,13.992-5.016H495.257z"/>
	<path class="st0" d="M544.624,45.142V60.19c-3.432-1.056-6.6-1.452-9.768-1.452c-3.96,0-7.524,1.452-10.692,4.62
		c-3.696,3.564-5.412,8.185-5.412,13.993v36.169h-14.917V45.274h14.917v9.769c1.848-3.432,3.96-6.072,6.468-7.92
		c3.036-2.508,6.601-3.696,10.824-3.696C539.344,43.426,542.248,43.954,544.624,45.142z"/>
	<path class="st0" d="M609.832,53.59c6.204,6.732,9.372,15.312,9.372,25.873c0,10.428-3.168,19.009-9.24,25.609
		c-6.336,6.864-14.784,10.296-25.08,10.296c-10.429,0-18.745-3.432-25.081-10.296c-6.204-6.6-9.24-15.181-9.24-25.609
		c0-10.56,3.036-19.141,9.372-25.873c6.204-6.864,14.521-10.165,24.949-10.165C595.179,43.426,603.496,46.726,609.832,53.59z
		 M570.363,63.095c-2.904,4.224-4.356,9.768-4.356,16.368c0,6.601,1.452,12.013,4.356,16.237c3.432,4.884,8.184,7.392,14.521,7.392
		c6.204,0,11.088-2.508,14.52-7.392c2.904-4.356,4.488-9.769,4.488-16.237c0-6.6-1.584-12.144-4.488-16.368
		c-3.432-5.016-8.315-7.393-14.52-7.393C578.546,55.702,573.794,58.079,570.363,63.095z"/>
	<path class="st0" d="M687.577,65.075h-14.652c-1.056-3.432-2.64-5.94-4.752-7.26c-2.244-1.452-5.676-2.112-10.297-2.112
		c-3.96,0-6.996,0.528-8.976,1.716c-2.376,1.188-3.433,3.036-3.433,5.676c0,2.112,1.717,4.092,5.412,5.676
		c2.244,0.924,6.732,2.244,13.597,3.96c7.656,1.848,13.465,3.96,17.16,6.468c5.412,3.432,8.184,8.316,8.184,14.388
		c0,14.521-10.295,21.781-30.756,21.781c-19.009,0-29.173-8.052-30.625-24.025h14.652c0.792,4.356,2.376,7.392,4.62,9.24
		c2.244,1.584,5.809,2.508,10.824,2.508c10.561,0,15.841-2.904,15.841-8.448c0-3.168-1.98-5.676-5.94-7.524
		c-2.112-1.056-6.6-2.244-13.464-3.828c-8.053-1.848-13.729-3.828-17.028-5.94c-5.28-3.3-7.921-7.92-7.921-13.86
		c0-6.336,2.508-11.22,7.788-14.652c5.148-3.696,11.881-5.413,20.329-5.413C676.093,43.426,685.994,50.554,687.577,65.075z"/>
	<path class="st0" d="M723.084,45.274h15.181v12.409h-15.181v38.545c0,1.584,0.265,2.772,1.057,3.696
		c0.792,0.792,1.848,1.188,3.432,1.188h8.977v12.408h-11.484c-5.94,0-10.297-1.584-13.068-4.752
		c-2.641-2.904-3.96-6.997-3.96-12.541V57.683H695.76V45.274h12.276v-15.84l15.048-6.204V45.274z"/>
	<path class="st0" d="M804.265,54.778c5.412,6.864,8.184,16.5,8.184,28.777h-51.085c0.527,6.336,2.244,11.22,5.147,14.521
		c2.904,3.3,7.129,5.016,12.541,5.016c4.62,0,8.316-1.056,11.22-3.168c2.244-1.716,4.225-4.488,6.072-8.316h15.049
		c-1.584,6.336-4.752,11.749-9.504,15.973c-6.072,5.148-13.597,7.788-22.705,7.788c-10.164,0-18.217-3.168-24.156-9.373
		c-6.337-6.468-9.505-15.312-9.505-26.665c0-10.164,2.904-18.612,8.977-25.477c5.808-6.997,13.86-10.429,24.024-10.429
		C789.744,43.426,798.324,47.122,804.265,54.778z M767.171,59.926c-2.771,2.772-4.62,6.864-5.544,12.276h35.113
		c-1.32-11.088-7.261-16.5-17.82-16.5C773.903,55.702,770.075,57.022,767.171,59.926z"/>
	<path class="st0" d="M887.951,17.421v96.099h-13.992v-7.26c-4.752,6.072-11.616,9.108-20.593,9.108
		c-10.164,0-18.084-3.564-23.761-10.692c-5.28-6.6-7.92-15.181-7.92-25.609c0-10.032,2.508-18.348,7.788-24.949
		c5.544-7.128,13.332-10.692,23.101-10.692c7.92,0,14.652,3.696,20.329,11.221V17.421H887.951z M841.222,62.303
		c-2.771,3.828-4.092,9.372-4.092,16.764c0,7.393,1.188,13.068,3.828,17.029c3.036,4.752,7.92,7.128,14.652,7.128
		c5.809,0,10.429-2.376,13.597-6.996c2.771-4.224,4.224-9.768,4.224-16.369v-1.056c0-7.26-1.848-13.068-5.28-17.292
		c-3.168-3.96-7.26-5.94-12.012-5.94C849.274,55.57,844.39,57.814,841.222,62.303z"/>
	<path class="st0" d="M1018.63,25.474c6.731,5.28,10.956,13.068,12.672,23.628h-15.576c-1.32-6.072-4.225-10.56-8.448-13.596
		c-4.356-3.036-10.164-4.488-17.293-4.488c-8.844,0-15.84,2.904-20.988,8.977c-5.676,6.336-8.448,15.18-8.448,26.796
		c0,11.088,2.508,19.669,7.524,25.609c5.412,6.336,13.86,9.504,25.345,9.504c4.488,0,8.712-0.528,12.672-1.584
		c3.696-1.056,6.996-2.508,10.165-4.356V76.559h-24.949V63.358h40.394v39.865c-5.017,3.96-10.692,6.864-17.161,8.977
		c-6.864,2.112-14.388,3.168-22.836,3.168c-15.049,0-26.665-4.752-34.981-14.256c-7.788-8.844-11.616-20.329-11.616-34.321
		c0-14.124,3.828-25.741,11.616-34.849c8.185-9.769,19.272-14.521,33.265-14.521C1002.129,17.421,1011.634,20.062,1018.63,25.474z"
		/>
	<path class="st0" d="M1100.864,50.95c4.224,4.356,6.336,10.692,6.336,19.009v43.561h-13.992v-8.976
		c-2.641,3.432-5.94,5.94-9.769,7.788c-4.356,1.98-9.504,3.036-15.444,3.036c-7.128,0-12.673-1.848-16.765-5.412
		c-4.224-3.696-6.336-8.316-6.336-13.993c0-7.656,2.904-13.596,8.977-17.688c5.544-3.96,13.332-6.072,23.364-6.336l14.916-0.396
		v-2.64c0-8.977-4.884-13.333-14.652-13.333c-4.224,0-7.523,0.66-10.032,2.244c-2.904,1.716-4.884,4.356-5.676,7.92l-14.917-1.188
		c1.452-7.524,5.148-13.068,11.089-16.5c5.016-3.168,11.88-4.62,20.593-4.62C1088.588,43.426,1096.112,45.934,1100.864,50.95z
		 M1078.291,82.763c-12.012,0.264-17.952,4.488-17.952,12.672c0,2.376,0.924,4.356,3.036,5.94c2.112,1.584,4.752,2.508,8.052,2.508
		c5.809,0,10.692-1.716,14.652-5.016c3.961-3.432,6.072-7.788,6.072-13.068v-3.432L1078.291,82.763z"/>
	<path class="st0" d="M1139.406,17.421v96.099h-15.049V17.421H1139.406z"/>
	<path class="st0" d="M1172.934,17.421v96.099h-15.049V17.421H1172.934z"/>
	<path class="st0" d="M1244.875,54.778c5.412,6.864,8.184,16.5,8.184,28.777h-51.085c0.527,6.336,2.244,11.22,5.147,14.521
		c2.904,3.3,7.129,5.016,12.541,5.016c4.62,0,8.316-1.056,11.22-3.168c2.244-1.716,4.225-4.488,6.072-8.316h15.049
		c-1.584,6.336-4.752,11.749-9.504,15.973c-6.072,5.148-13.597,7.788-22.705,7.788c-10.164,0-18.217-3.168-24.156-9.373
		c-6.337-6.468-9.505-15.312-9.505-26.665c0-10.164,2.904-18.612,8.977-25.477c5.808-6.997,13.86-10.429,24.024-10.429
		C1230.354,43.426,1238.935,47.122,1244.875,54.778z M1207.781,59.926c-2.771,2.772-4.62,6.864-5.544,12.276h35.113
		c-1.32-11.088-7.261-16.5-17.82-16.5C1214.514,55.702,1210.686,57.022,1207.781,59.926z"/>
	<path class="st0" d="M1305.724,45.142V60.19c-3.432-1.056-6.6-1.452-9.768-1.452c-3.96,0-7.524,1.452-10.692,4.62
		c-3.696,3.564-5.412,8.185-5.412,13.993v36.169h-14.917V45.274h14.917v9.769c1.848-3.432,3.96-6.072,6.468-7.92
		c3.036-2.508,6.601-3.696,10.824-3.696C1300.444,43.426,1303.348,43.954,1305.724,45.142z"/>
	<path class="st0" d="M1323.41,45.274l18.085,48.578l17.292-48.578h16.369l-36.962,94.383h-16.104l12.013-27.721l-27.061-66.662
		H1323.41z"/>
</g>
</svg>