<!-- Generator: Adobe Illustrator 22.0.1, SVG Export Plug-In  -->
<svg version="1.1"
	 xmlns="http://www.w3.org/2000/svg" xmlns:xlink="http://www.w3.org/1999/xlink" xmlns:a="http://ns.adobe.com/AdobeSVGViewerExtensions/3.0/"
	 x="0px" y="0px" width="734.349px" height="149.06px" viewBox="0 0 734.349 149.06"
	 style="enable-background:new 0 0 734.349 149.06;" xml:space="preserve">
<style type="text/css">
	.st0{fill:#575756;}
	.st1{font-family:'PingFangTC-Medium-B5pc-H';}
	.st2{font-size:55px;}
</style>
<defs>
</defs>
<g>
	<path class="st0" d="M9.844,8.035v24.417c0,3.52,0.77,6.104,2.419,7.809c1.65,1.705,4.235,2.584,7.809,2.584
		c3.52,0,6.104-0.88,7.754-2.584c1.595-1.705,2.42-4.29,2.42-7.809V8.035h5.994v24.307c0,5.114-1.43,9.019-4.234,11.713
		c-2.805,2.64-6.764,4.015-11.934,4.015c-5.224,0-9.184-1.32-11.934-3.959C5.279,41.36,3.85,37.456,3.85,32.342V8.035H9.844z"/>
	<path class="st0" d="M68.416,29.757V47.3h-5.829V30.252c0-4.839-2.255-7.259-6.654-7.259c-1.65,0-3.135,0.55-4.344,1.76
		c-1.32,1.32-2.145,3.134-2.365,5.444V47.3h-5.83V18.869h5.83v3.52c1.1-1.43,2.365-2.475,3.794-3.189c1.43-0.77,3.024-1.1,4.784-1.1
		C64.841,18.099,68.416,21.948,68.416,29.757z"/>
	<path class="st0" d="M81.562,7.265V47.3h-5.829V7.265H81.562z"/>
	<path class="st0" d="M112.25,22.388c2.53,2.805,3.849,6.379,3.849,10.724c0,4.29-1.265,7.864-3.794,10.613
		c-2.64,2.86-6.104,4.345-10.394,4.345s-7.754-1.485-10.394-4.345c-2.53-2.75-3.794-6.324-3.794-10.613
		c0-4.345,1.265-7.919,3.85-10.724c2.584-2.86,6.049-4.29,10.338-4.29S109.666,19.528,112.25,22.388z M95.643,26.073
		c-1.32,1.814-1.925,4.179-1.925,7.039c0,2.859,0.605,5.169,1.925,6.984c1.485,2.09,3.575,3.189,6.269,3.189
		c2.695,0,4.785-1.1,6.324-3.189c1.32-1.87,1.98-4.179,1.98-6.984c0-2.86-0.66-5.225-1.98-7.039c-1.54-2.145-3.629-3.19-6.324-3.19
		C99.217,22.883,97.127,23.928,95.643,26.073z"/>
	<path class="st0" d="M143.05,20.573c2.199,1.76,3.629,4.399,4.179,7.919h-5.773c-0.386-1.925-1.155-3.354-2.365-4.234
		c-1.21-0.935-2.805-1.375-4.785-1.375c-2.419,0-4.289,0.88-5.664,2.695c-1.43,1.76-2.09,4.29-2.09,7.479s0.66,5.719,2.035,7.534
		c1.265,1.76,3.135,2.694,5.665,2.694c4.344,0,6.764-2.2,7.314-6.489h5.774c-0.66,3.794-2.145,6.654-4.345,8.524
		c-2.199,1.814-5.169,2.75-8.799,2.75c-4.344,0-7.699-1.43-10.119-4.29c-2.365-2.75-3.52-6.269-3.52-10.668
		c0-4.29,1.155-7.809,3.464-10.559c2.475-2.97,5.884-4.455,10.284-4.455C137.936,18.099,140.85,18.924,143.05,20.573z"/>
	<path class="st0" d="M158.177,7.265v23.317l12.318-11.713h7.533l-12.593,11.713L179.129,47.3h-7.479l-10.229-12.979l-3.244,3.025
		V47.3h-5.829V7.265H158.177z"/>
	<path class="st0" d="M209.381,18.869h6.488v4.839h-6.488v16.498c0,0.77,0.165,1.32,0.494,1.705c0.33,0.33,0.825,0.55,1.54,0.55
		h3.739V47.3h-4.674c-2.42,0-4.234-0.66-5.334-1.925c-1.101-1.21-1.596-2.915-1.596-5.169V23.708h-5.279v-4.839h5.279v-6.764
		l5.83-2.42V18.869z"/>
	<path class="st0" d="M226.375,7.265v15.618c1.045-1.649,2.365-2.915,3.96-3.684c1.43-0.77,3.024-1.1,4.839-1.1
		c3.41,0,5.994,0.99,7.754,3.024c1.65,1.925,2.475,4.785,2.475,8.524V47.3h-5.829V30.637c0-2.53-0.55-4.399-1.54-5.719
		c-1.1-1.375-2.805-2.035-5.004-2.035c-1.979,0-3.574,0.77-4.784,2.365c-1.265,1.595-1.87,3.63-1.87,6.104V47.3h-5.829V7.265
		H226.375z"/>
	<path class="st0" d="M274.663,22.828c2.2,2.859,3.354,6.819,3.41,11.878h-21.558c0.22,2.75,0.935,4.894,2.255,6.379
		c1.319,1.43,3.135,2.2,5.444,2.2c2.034,0,3.685-0.495,4.949-1.43c0.99-0.77,1.814-2.035,2.585-3.685h5.829
		c-0.66,2.64-1.925,4.895-3.904,6.654c-2.475,2.145-5.609,3.245-9.404,3.245c-4.18,0-7.534-1.32-9.953-3.905
		c-2.64-2.75-3.96-6.434-3.96-11.108c0-4.234,1.21-7.754,3.739-10.613c2.42-2.915,5.774-4.345,9.954-4.345
		C268.668,18.099,272.244,19.639,274.663,22.828z M258.99,24.808c-1.21,1.265-2.034,3.08-2.364,5.5h15.343
		c-0.55-4.949-3.135-7.424-7.754-7.424C262.014,22.883,260.31,23.488,258.99,24.808z"/>
	<path class="st0" d="M331.036,8.035v5.114h-13.088V47.3h-5.939v-34.15h-13.144V8.035H331.036z"/>
	<path class="st0" d="M342.259,8.585c0.77,0.715,1.154,1.65,1.154,2.805s-0.439,2.09-1.21,2.859c-0.77,0.715-1.76,1.1-2.859,1.1
		c-1.154,0-2.09-0.385-2.859-1.1c-0.77-0.77-1.155-1.76-1.155-2.859c0-1.155,0.386-2.09,1.155-2.805c0.77-0.77,1.705-1.1,2.859-1.1
		C340.5,7.485,341.489,7.815,342.259,8.585z M342.259,18.869V47.3h-5.829V18.869H342.259z"/>
	<path class="st0" d="M372.727,22.883c1.265-1.76,2.64-3.024,4.069-3.739c1.32-0.715,2.915-1.045,4.84-1.045
		c2.914,0,5.334,0.935,7.259,2.915c1.87,1.925,2.859,4.455,2.859,7.644V47.3h-5.829V29.647c0-2.31-0.495-4.014-1.484-5.059
		c-0.99-1.1-2.64-1.595-4.84-1.595c-1.649,0-2.97,0.605-4.069,1.814c-1.1,1.21-1.649,2.915-1.649,5.004V47.3h-5.829V29.702
		c0-4.509-1.98-6.709-5.83-6.709c-1.869,0-3.409,0.715-4.509,2.145c-1.21,1.375-1.76,3.08-1.76,5.06V47.3h-5.829V18.869h5.829v3.134
		c2.31-2.64,4.949-3.904,7.809-3.904C367.943,18.099,370.967,19.693,372.727,22.883z"/>
	<path class="st0" d="M421.016,22.828c2.2,2.859,3.355,6.819,3.41,11.878h-21.558c0.221,2.75,0.936,4.894,2.255,6.379
		c1.32,1.43,3.135,2.2,5.444,2.2c2.035,0,3.685-0.495,4.949-1.43c0.99-0.77,1.815-2.035,2.585-3.685h5.829
		c-0.66,2.64-1.925,4.895-3.904,6.654c-2.475,2.145-5.609,3.245-9.404,3.245c-4.179,0-7.533-1.32-9.953-3.905
		c-2.64-2.75-3.96-6.434-3.96-11.108c0-4.234,1.21-7.754,3.74-10.613c2.419-2.915,5.773-4.345,9.953-4.345
		C415.022,18.099,418.597,19.639,421.016,22.828z M405.343,24.808c-1.209,1.265-2.034,3.08-2.364,5.5h15.343
		c-0.55-4.949-3.135-7.424-7.754-7.424C408.369,22.883,406.664,23.488,405.343,24.808z"/>
	<path class="st0" d="M21.777,97.035c3.849,0,6.819,0.88,9.019,2.75c2.09,1.76,3.135,4.125,3.135,7.149c0,2.2-0.55,4.069-1.65,5.609
		c-1.1,1.43-2.584,2.53-4.564,3.245c2.584,0.495,4.564,1.54,5.884,3.134c1.32,1.595,1.979,3.74,1.979,6.379
		c0,3.959-1.375,6.819-4.069,8.689c-2.31,1.54-5.554,2.31-9.733,2.31H3.85V97.035H21.777z M9.844,113.698h10.338
		c2.75,0,4.729-0.495,5.939-1.43c1.21-0.99,1.815-2.53,1.815-4.62c0-1.979-0.605-3.409-1.815-4.289
		c-1.21-0.935-3.189-1.375-5.829-1.375H9.844V113.698z M9.844,131.351h11.108c2.53,0,4.509-0.44,5.939-1.21
		c1.76-1.045,2.694-2.695,2.694-4.949c0-2.31-0.715-4.015-2.09-5.06c-1.375-1.045-3.52-1.54-6.379-1.54H9.844V131.351z"/>
	<path class="st0" d="M57.967,107.813v5.829c-1.43-0.439-2.805-0.604-4.124-0.604c-1.76,0-3.355,0.715-4.729,2.145
		c-1.485,1.54-2.2,3.575-2.2,6.049V136.3h-5.83v-28.431h5.83v4.29c0.715-1.54,1.65-2.695,2.75-3.465
		c1.32-1.1,2.859-1.595,4.619-1.595C55.712,107.099,56.977,107.319,57.967,107.813z"/>
	<path class="st0" d="M68.583,97.585c0.77,0.715,1.155,1.65,1.155,2.805s-0.44,2.09-1.21,2.859c-0.77,0.715-1.76,1.1-2.86,1.1
		c-1.155,0-2.089-0.385-2.859-1.1c-0.77-0.77-1.155-1.76-1.155-2.859c0-1.155,0.385-2.09,1.155-2.805c0.77-0.77,1.705-1.1,2.859-1.1
		S67.813,96.815,68.583,97.585z M68.583,107.869V136.3h-5.829v-28.431H68.583z"/>
	<path class="st0" d="M101.471,118.757V136.3h-5.829v-17.048c0-4.839-2.255-7.259-6.654-7.259c-1.65,0-3.135,0.55-4.344,1.76
		c-1.32,1.32-2.145,3.134-2.365,5.444V136.3h-5.829v-28.431h5.829v3.52c1.1-1.43,2.365-2.475,3.794-3.189
		c1.43-0.77,3.024-1.1,4.784-1.1C97.896,107.099,101.471,110.948,101.471,118.757z"/>
	<path class="st0" d="M128.641,111.663v-3.794h5.829v26.562c0,9.019-4.455,13.528-13.253,13.528c-3.959,0-6.984-0.77-9.074-2.254
		c-2.09-1.54-3.354-3.85-3.904-6.984h5.829c0.33,1.649,0.99,2.859,2.09,3.574c1.045,0.66,2.75,1.045,5.059,1.045
		c4.95,0,7.424-2.695,7.424-8.029v-4.399c-2.09,3.134-4.95,4.729-8.689,4.729c-3.85,0-6.984-1.319-9.349-3.904
		c-2.42-2.584-3.575-5.994-3.575-10.284s1.155-7.699,3.575-10.338c2.365-2.695,5.499-4.015,9.349-4.015
		C123.691,107.099,126.551,108.583,128.641,111.663z M115.112,114.413c-1.43,1.65-2.09,4.015-2.09,7.039
		c0,2.75,0.55,4.95,1.65,6.544c1.265,1.87,3.299,2.859,6.159,2.859c2.475,0,4.399-0.825,5.829-2.475
		c1.32-1.705,2.035-4.015,2.035-6.929c0-2.969-0.715-5.334-2.035-7.039c-1.43-1.76-3.354-2.584-5.829-2.584
		S116.432,112.653,115.112,114.413z"/>
	<path class="st0" d="M176.216,97.035c9.349,0,14.022,3.959,14.022,11.933c0,8.029-4.729,12.043-14.133,12.043h-10.174V136.3h-5.994
		V97.035H176.216z M165.932,115.897h9.789c2.97,0,5.114-0.55,6.489-1.65c1.319-1.1,2.034-2.859,2.034-5.279
		c0-2.419-0.715-4.179-2.09-5.169c-1.374-1.1-3.52-1.65-6.434-1.65h-9.789V115.897z"/>
	<path class="st0" d="M217.299,110.233c1.705,1.814,2.585,4.454,2.585,7.919V136.3h-5.39v-4.015c-1.1,1.43-2.475,2.585-4.124,3.41
		c-1.87,0.88-4.069,1.375-6.6,1.375c-2.969,0-5.279-0.77-6.929-2.255c-1.814-1.485-2.694-3.41-2.694-5.774
		c0-3.19,1.265-5.665,3.794-7.369c2.31-1.65,5.609-2.475,9.789-2.585l6.379-0.165v-1.155c0-3.959-2.145-5.939-6.434-5.939
		c-1.815,0-3.3,0.33-4.399,0.99c-1.32,0.77-2.146,1.925-2.475,3.52l-5.774-0.495c0.604-3.08,2.145-5.39,4.564-6.819
		c2.09-1.32,4.949-1.925,8.469-1.925C212.241,107.099,215.32,108.144,217.299,110.233z M208.116,123.321
		c-5.334,0.11-7.974,1.98-7.974,5.5c0,1.1,0.439,1.98,1.375,2.695c0.88,0.715,2.09,1.1,3.574,1.1c2.475,0,4.564-0.77,6.324-2.255
		c1.76-1.484,2.694-3.354,2.694-5.554v-1.649L208.116,123.321z"/>
	<path class="st0" d="M233.582,97.585c0.77,0.715,1.154,1.65,1.154,2.805s-0.439,2.09-1.21,2.859c-0.77,0.715-1.76,1.1-2.859,1.1
		c-1.155,0-2.09-0.385-2.859-1.1c-0.771-0.77-1.155-1.76-1.155-2.859c0-1.155,0.385-2.09,1.155-2.805c0.77-0.77,1.704-1.1,2.859-1.1
		S232.811,96.815,233.582,97.585z M233.582,107.869V136.3h-5.83v-28.431H233.582z"/>
	<path class="st0" d="M266.468,118.757V136.3h-5.829v-17.048c0-4.839-2.255-7.259-6.654-7.259c-1.649,0-3.135,0.55-4.344,1.76
		c-1.32,1.32-2.146,3.134-2.365,5.444V136.3h-5.829v-28.431h5.829v3.52c1.1-1.43,2.365-2.475,3.795-3.189
		c1.43-0.77,3.024-1.1,4.784-1.1C262.894,107.099,266.468,110.948,266.468,118.757z"/>
	<path class="st0" d="M281.76,107.869h6.488v4.839h-6.488v16.498c0,0.77,0.165,1.32,0.494,1.705c0.33,0.33,0.825,0.55,1.54,0.55
		h3.739v4.839h-4.674c-2.42,0-4.234-0.66-5.334-1.925c-1.101-1.21-1.596-2.915-1.596-5.169v-16.498h-5.279v-4.839h5.279v-6.764
		l5.83-2.42V107.869z"/>
	<path class="st0" d="M299.964,97.585c0.77,0.715,1.155,1.65,1.155,2.805s-0.44,2.09-1.21,2.859c-0.771,0.715-1.76,1.1-2.86,1.1
		c-1.154,0-2.089-0.385-2.859-1.1c-0.77-0.77-1.154-1.76-1.154-2.859c0-1.155,0.385-2.09,1.154-2.805
		c0.771-0.77,1.705-1.1,2.859-1.1C298.205,96.485,299.195,96.815,299.964,97.585z M299.964,107.869V136.3h-5.829v-28.431H299.964z"
		/>
	<path class="st0" d="M332.852,118.757V136.3h-5.829v-17.048c0-4.839-2.255-7.259-6.654-7.259c-1.65,0-3.135,0.55-4.345,1.76
		c-1.319,1.32-2.145,3.134-2.364,5.444V136.3h-5.829v-28.431h5.829v3.52c1.1-1.43,2.364-2.475,3.794-3.189
		c1.43-0.77,3.024-1.1,4.784-1.1C329.278,107.099,332.852,110.948,332.852,118.757z"/>
	<path class="st0" d="M360.021,111.663v-3.794h5.829v26.562c0,9.019-4.454,13.528-13.253,13.528c-3.959,0-6.984-0.77-9.073-2.254
		c-2.09-1.54-3.355-3.85-3.905-6.984h5.829c0.33,1.649,0.99,2.859,2.09,3.574c1.045,0.66,2.75,1.045,5.06,1.045
		c4.949,0,7.424-2.695,7.424-8.029v-4.399c-2.09,3.134-4.949,4.729-8.688,4.729c-3.85,0-6.984-1.319-9.349-3.904
		c-2.42-2.584-3.575-5.994-3.575-10.284s1.155-7.699,3.575-10.338c2.364-2.695,5.499-4.015,9.349-4.015
		C355.072,107.099,357.931,108.583,360.021,111.663z M346.493,114.413c-1.43,1.65-2.089,4.015-2.089,7.039
		c0,2.75,0.55,4.95,1.649,6.544c1.265,1.87,3.3,2.859,6.159,2.859c2.475,0,4.399-0.825,5.829-2.475
		c1.32-1.705,2.035-4.015,2.035-6.929c0-2.969-0.715-5.334-2.035-7.039c-1.43-1.76-3.354-2.584-5.829-2.584
		S347.813,112.653,346.493,114.413z"/>
	<path class="st0" d="M395.167,116.062h-5.664c-0.44-1.54-1.101-2.584-2.035-3.189c-0.99-0.66-2.529-0.99-4.51-0.99
		c-1.76,0-3.079,0.22-3.959,0.77c-1.045,0.55-1.54,1.43-1.54,2.53c0,0.99,0.771,1.815,2.31,2.53c0.99,0.44,2.86,0.99,5.72,1.705
		c3.244,0.77,5.664,1.705,7.204,2.695c2.255,1.43,3.409,3.41,3.409,5.939c0,5.994-4.234,9.019-12.648,9.019
		c-7.809,0-11.988-3.354-12.648-9.954h5.72c0.33,1.925,1.045,3.299,2.034,4.069c0.99,0.715,2.53,1.1,4.729,1.1
		c4.51,0,6.819-1.32,6.819-3.849c0-1.375-0.88-2.475-2.529-3.245c-0.88-0.44-2.805-0.99-5.72-1.65
		c-3.354-0.77-5.719-1.595-7.039-2.475c-2.199-1.375-3.3-3.3-3.3-5.719c0-2.585,1.045-4.62,3.19-6.049
		c2.145-1.485,4.949-2.2,8.358-2.2C390.437,107.099,394.506,110.068,395.167,116.062z"/>
	<path class="st0" d="M437.846,97.035c3.85,0,6.818,0.88,9.019,2.75c2.09,1.76,3.135,4.125,3.135,7.149c0,2.2-0.55,4.069-1.65,5.609
		c-1.1,1.43-2.584,2.53-4.563,3.245c2.584,0.495,4.563,1.54,5.884,3.134c1.319,1.595,1.979,3.74,1.979,6.379
		c0,3.959-1.375,6.819-4.069,8.689c-2.31,1.54-5.554,2.31-9.733,2.31h-17.928V97.035H437.846z M425.913,113.698h10.339
		c2.749,0,4.729-0.495,5.938-1.43c1.21-0.99,1.815-2.53,1.815-4.62c0-1.979-0.605-3.409-1.815-4.289
		c-1.209-0.935-3.189-1.375-5.829-1.375h-10.448V113.698z M425.913,131.351h11.108c2.529,0,4.51-0.44,5.939-1.21
		c1.76-1.045,2.694-2.695,2.694-4.949c0-2.31-0.715-4.015-2.09-5.06s-3.52-1.54-6.379-1.54h-11.273V131.351z"/>
	<path class="st0" d="M479.206,110.233c1.705,1.814,2.585,4.454,2.585,7.919V136.3h-5.39v-4.015c-1.1,1.43-2.475,2.585-4.124,3.41
		c-1.87,0.88-4.069,1.375-6.6,1.375c-2.97,0-5.279-0.77-6.929-2.255c-1.814-1.485-2.695-3.41-2.695-5.774
		c0-3.19,1.266-5.665,3.795-7.369c2.31-1.65,5.609-2.475,9.789-2.585l6.379-0.165v-1.155c0-3.959-2.145-5.939-6.435-5.939
		c-1.814,0-3.299,0.33-4.399,0.99c-1.319,0.77-2.145,1.925-2.475,3.52l-5.773-0.495c0.604-3.08,2.145-5.39,4.563-6.819
		c2.09-1.32,4.95-1.925,8.47-1.925C474.146,107.099,477.226,108.144,479.206,110.233z M470.022,123.321
		c-5.334,0.11-7.974,1.98-7.974,5.5c0,1.1,0.439,1.98,1.374,2.695c0.88,0.715,2.09,1.1,3.575,1.1c2.475,0,4.564-0.77,6.324-2.255
		c1.76-1.484,2.694-3.354,2.694-5.554v-1.649L470.022,123.321z"/>
	<path class="st0" d="M509.839,109.573c2.2,1.76,3.63,4.399,4.18,7.919h-5.774c-0.385-1.925-1.154-3.354-2.364-4.234
		c-1.21-0.935-2.805-1.375-4.784-1.375c-2.42,0-4.29,0.88-5.665,2.695c-1.43,1.76-2.089,4.29-2.089,7.479s0.659,5.719,2.034,7.534
		c1.265,1.76,3.135,2.694,5.664,2.694c4.345,0,6.765-2.2,7.314-6.489h5.774c-0.66,3.794-2.145,6.654-4.345,8.524
		c-2.2,1.814-5.169,2.75-8.799,2.75c-4.345,0-7.699-1.43-10.118-4.29c-2.365-2.75-3.52-6.269-3.52-10.668
		c0-4.29,1.154-7.809,3.464-10.559c2.475-2.97,5.885-4.455,10.284-4.455C504.725,107.099,507.64,107.924,509.839,109.573z"/>
	<path class="st0" d="M524.966,96.265v23.317l12.318-11.713h7.534l-12.594,11.713l13.693,16.718h-7.479l-10.229-12.979l-3.244,3.025
		v9.954h-5.829V96.265H524.966z"/>
	<path class="st0" d="M576.17,107.869h6.489v4.839h-6.489v16.498c0,0.77,0.165,1.32,0.495,1.705c0.329,0.33,0.824,0.55,1.539,0.55
		h3.74v4.839h-4.675c-2.42,0-4.234-0.66-5.334-1.925c-1.1-1.21-1.595-2.915-1.595-5.169v-16.498h-5.279v-4.839h5.279v-6.764
		l5.829-2.42V107.869z"/>
	<path class="st0" d="M610.763,111.388c2.529,2.805,3.85,6.379,3.85,10.724c0,4.29-1.265,7.864-3.795,10.613
		c-2.64,2.86-6.104,4.345-10.394,4.345s-7.754-1.485-10.394-4.345c-2.529-2.75-3.794-6.324-3.794-10.613
		c0-4.345,1.265-7.919,3.849-10.724c2.585-2.86,6.05-4.29,10.339-4.29S608.178,108.528,610.763,111.388z M594.155,115.073
		c-1.319,1.814-1.924,4.179-1.924,7.039c0,2.859,0.604,5.169,1.924,6.984c1.485,2.09,3.575,3.189,6.27,3.189s4.784-1.1,6.324-3.189
		c1.32-1.87,1.979-4.179,1.979-6.984c0-2.86-0.659-5.225-1.979-7.039c-1.54-2.145-3.63-3.19-6.324-3.19
		S595.64,112.928,594.155,115.073z"/>
	<path class="st0" d="M644.974,97.035v34.15h21.611v5.114h-27.551V97.035H644.974z"/>
	<path class="st0" d="M678.029,97.585c0.77,0.715,1.154,1.65,1.154,2.805s-0.439,2.09-1.21,2.859c-0.77,0.715-1.76,1.1-2.859,1.1
		c-1.154,0-2.09-0.385-2.859-1.1c-0.77-0.77-1.155-1.76-1.155-2.859c0-1.155,0.386-2.09,1.155-2.805c0.77-0.77,1.705-1.1,2.859-1.1
		C676.269,96.485,677.258,96.815,678.029,97.585z M678.029,107.869V136.3H672.2v-28.431H678.029z"/>
	<path class="st0" d="M703.051,97.035v4.949h-5.114c-0.935,0-1.649,0.22-2.09,0.715c-0.439,0.44-0.659,1.21-0.659,2.255v2.915h7.479
		v4.784h-7.479V136.3h-5.774v-23.647h-6.544v-4.784h6.544v-3.08c0-2.42,0.659-4.345,1.979-5.664c1.32-1.43,3.189-2.09,5.719-2.09
		H703.051z"/>
	<path class="st0" d="M729.286,111.828c2.2,2.859,3.355,6.819,3.41,11.878h-21.558c0.221,2.75,0.936,4.894,2.255,6.379
		c1.32,1.43,3.135,2.2,5.444,2.2c2.035,0,3.685-0.495,4.949-1.43c0.99-0.77,1.815-2.035,2.585-3.685h5.829
		c-0.66,2.64-1.925,4.895-3.904,6.654c-2.475,2.145-5.609,3.245-9.404,3.245c-4.179,0-7.533-1.32-9.953-3.905
		c-2.64-2.75-3.96-6.434-3.96-11.108c0-4.234,1.21-7.754,3.74-10.613c2.419-2.915,5.773-4.345,9.953-4.345
		C723.292,107.099,726.867,108.639,729.286,111.828z M713.613,113.808c-1.209,1.265-2.034,3.08-2.364,5.5h15.343
		c-0.55-4.949-3.135-7.424-7.754-7.424C716.638,111.883,714.933,112.488,713.613,113.808z"/>
</g>
</svg>