<!-- Generator: Adobe Illustrator 22.0.1, SVG Export Plug-In  -->
<svg version="1.1"
	 xmlns="http://www.w3.org/2000/svg" xmlns:xlink="http://www.w3.org/1999/xlink" xmlns:a="http://ns.adobe.com/AdobeSVGViewerExtensions/3.0/"
	 x="0px" y="0px" width="868.436px" height="60.06px" viewBox="0 0 868.436 60.06"
	 style="enable-background:new 0 0 868.436 60.06;" xml:space="preserve">
<style type="text/css">
	.st0{fill:#F6F6F6;}
	.st1{font-family:'PingFangTC-Medium-B5pc-H';}
	.st2{font-size:55px;}
</style>
<defs>
</defs>
<g>
	<path class="st0" d="M30.521,30.637v4.839H2.749v-4.839H30.521z"/>
	<path class="st0" d="M61.488,8.035l20.072,29.201h0.22V8.035h5.994V47.3h-5.829L61.653,17.769h-0.221V47.3h-5.994V8.035H61.488z"/>
	<path class="st0" d="M118.41,22.388c2.529,2.805,3.85,6.379,3.85,10.724c0,4.29-1.265,7.864-3.795,10.613
		c-2.64,2.86-6.104,4.345-10.394,4.345s-7.754-1.485-10.394-4.345c-2.53-2.75-3.794-6.324-3.794-10.613
		c0-4.345,1.264-7.919,3.85-10.724c2.584-2.86,6.049-4.29,10.338-4.29S115.825,19.528,118.41,22.388z M101.802,26.073
		c-1.319,1.814-1.924,4.179-1.924,7.039c0,2.859,0.604,5.169,1.924,6.984c1.485,2.09,3.575,3.189,6.27,3.189
		c2.695,0,4.785-1.1,6.324-3.189c1.32-1.87,1.98-4.179,1.98-6.984c0-2.86-0.66-5.225-1.98-7.039c-1.539-2.145-3.629-3.19-6.324-3.19
		C105.377,22.883,103.287,23.928,101.802,26.073z"/>
	<path class="st0" d="M152.621,8.035v34.15h21.612V47.3h-27.551V8.035H152.621z"/>
	<path class="st0" d="M185.676,8.585c0.77,0.715,1.155,1.65,1.155,2.805s-0.44,2.09-1.211,2.859c-0.77,0.715-1.76,1.1-2.859,1.1
		c-1.154,0-2.09-0.385-2.859-1.1c-0.77-0.77-1.154-1.76-1.154-2.859c0-1.155,0.385-2.09,1.154-2.805c0.77-0.77,1.705-1.1,2.859-1.1
		C183.916,7.485,184.905,7.815,185.676,8.585z M185.676,18.869V47.3h-5.829V18.869H185.676z"/>
	<path class="st0" d="M216.144,22.883c1.265-1.76,2.639-3.024,4.069-3.739c1.319-0.715,2.915-1.045,4.839-1.045
		c2.915,0,5.334,0.935,7.26,2.915c1.869,1.925,2.859,4.455,2.859,7.644V47.3h-5.83V29.647c0-2.31-0.494-4.014-1.484-5.059
		c-0.99-1.1-2.64-1.595-4.839-1.595c-1.649,0-2.97,0.605-4.069,1.814c-1.1,1.21-1.65,2.915-1.65,5.004V47.3h-5.829V29.702
		c0-4.509-1.979-6.709-5.829-6.709c-1.869,0-3.41,0.715-4.51,2.145c-1.209,1.375-1.76,3.08-1.76,5.06V47.3h-5.829V18.869h5.829
		v3.134c2.311-2.64,4.949-3.904,7.81-3.904C211.358,18.099,214.384,19.693,216.144,22.883z"/>
	<path class="st0" d="M248.815,8.585c0.77,0.715,1.154,1.65,1.154,2.805s-0.439,2.09-1.209,2.859c-0.771,0.715-1.76,1.1-2.86,1.1
		c-1.155,0-2.089-0.385-2.859-1.1c-0.771-0.77-1.155-1.76-1.155-2.859c0-1.155,0.385-2.09,1.155-2.805
		c0.771-0.77,1.704-1.1,2.859-1.1S248.046,7.815,248.815,8.585z M248.815,18.869V47.3h-5.83V18.869H248.815z"/>
	<path class="st0" d="M265.315,18.869h6.488v4.839h-6.488v16.498c0,0.77,0.164,1.32,0.494,1.705c0.33,0.33,0.825,0.55,1.54,0.55
		h3.739V47.3h-4.674c-2.42,0-4.234-0.66-5.335-1.925c-1.1-1.21-1.595-2.915-1.595-5.169V23.708h-5.279v-4.839h5.279v-6.764
		l5.83-2.42V18.869z"/>
	<path class="st0" d="M299.192,27.062h-5.664c-0.44-1.54-1.1-2.584-2.035-3.189c-0.99-0.66-2.529-0.99-4.51-0.99
		c-1.76,0-3.079,0.22-3.959,0.77c-1.045,0.55-1.54,1.43-1.54,2.53c0,0.99,0.771,1.815,2.31,2.53c0.99,0.44,2.859,0.99,5.72,1.705
		c3.244,0.77,5.664,1.705,7.204,2.695c2.254,1.43,3.409,3.41,3.409,5.939c0,5.994-4.234,9.019-12.648,9.019
		c-7.809,0-11.988-3.354-12.647-9.954h5.719c0.33,1.925,1.045,3.299,2.035,4.069c0.989,0.715,2.529,1.1,4.729,1.1
		c4.51,0,6.819-1.32,6.819-3.849c0-1.375-0.88-2.475-2.53-3.245c-0.879-0.44-2.804-0.99-5.719-1.65
		c-3.354-0.77-5.719-1.595-7.039-2.475c-2.199-1.375-3.299-3.3-3.299-5.719c0-2.585,1.045-4.62,3.189-6.049
		c2.145-1.485,4.949-2.2,8.358-2.2C294.463,18.099,298.532,21.068,299.192,27.062z"/>
	<path class="st0" d="M312.888,41.141c0.881,1.21,1.32,2.695,1.32,4.564c0,2.805-0.824,5.224-2.42,7.314
		c-1.649,2.09-3.85,3.52-6.599,4.29v-3.41c1.43-0.55,2.694-1.375,3.685-2.584c0.935-1.265,1.43-2.53,1.43-3.85
		c-0.33,0.11-0.77,0.165-1.375,0.165c-1.1,0-2.09-0.385-2.859-1.155c-0.77-0.77-1.154-1.76-1.154-2.915
		c0-1.265,0.385-2.255,1.264-3.025c0.771-0.77,1.815-1.1,3.135-1.1C310.743,39.436,311.898,39.986,312.888,41.141z"/>
	<path class="st0" d="M370.414,13.094c3.3,3.685,4.949,8.579,4.949,14.628c0,5.994-1.649,10.833-4.949,14.573
		c-3.465,3.85-8.194,5.774-14.134,5.774c-5.994,0-10.723-1.98-14.133-5.83c-3.299-3.739-4.895-8.579-4.895-14.518
		c0-5.995,1.596-10.834,4.895-14.573c3.41-3.959,8.139-5.884,14.133-5.884C362.22,7.265,366.949,9.19,370.414,13.094z
		 M346.548,16.779c-2.2,2.695-3.301,6.324-3.301,10.944c0,4.564,1.101,8.194,3.301,10.888c2.309,2.75,5.554,4.18,9.732,4.18
		c4.18,0,7.425-1.375,9.68-4.07c2.199-2.64,3.354-6.324,3.354-10.998c0-4.729-1.154-8.414-3.354-11.109
		c-2.255-2.75-5.5-4.069-9.68-4.069C352.102,12.544,348.856,13.919,346.548,16.779z"/>
	<path class="st0" d="M405.89,29.757V47.3h-5.829V30.252c0-4.839-2.255-7.259-6.654-7.259c-1.649,0-3.135,0.55-4.345,1.76
		c-1.319,1.32-2.145,3.134-2.364,5.444V47.3h-5.829V18.869h5.829v3.52c1.1-1.43,2.364-2.475,3.794-3.189
		c1.43-0.77,3.025-1.1,4.785-1.1C402.315,18.099,405.89,21.948,405.89,29.757z"/>
	<path class="st0" d="M419.036,7.265V47.3h-5.828V7.265H419.036z"/>
	<path class="st0" d="M429.597,18.869l7.81,20.732l7.479-20.732h6.379l-15.453,39.32h-6.215l4.949-11.549l-11.273-27.771H429.597z"
		/>
	<path class="st0" d="M479.756,8.035V47.3h-5.938V8.035H479.756z"/>
	<path class="st0" d="M509.618,22.883c1.266-1.76,2.641-3.024,4.07-3.739c1.32-0.715,2.914-1.045,4.84-1.045
		c2.914,0,5.334,0.935,7.258,2.915c1.87,1.925,2.86,4.455,2.86,7.644V47.3h-5.829V29.647c0-2.31-0.495-4.014-1.485-5.059
		c-0.989-1.1-2.64-1.595-4.839-1.595c-1.65,0-2.97,0.605-4.07,1.814c-1.1,1.21-1.649,2.915-1.649,5.004V47.3h-5.829V29.702
		c0-4.509-1.979-6.709-5.829-6.709c-1.87,0-3.409,0.715-4.509,2.145c-1.211,1.375-1.76,3.08-1.76,5.06V47.3h-5.83V18.869h5.83v3.134
		c2.309-2.64,4.949-3.904,7.809-3.904C504.835,18.099,507.858,19.693,509.618,22.883z"/>
	<path class="st0" d="M557.304,21.233c1.705,1.814,2.585,4.454,2.585,7.919V47.3h-5.39v-4.015c-1.1,1.43-2.475,2.585-4.125,3.41
		c-1.869,0.88-4.068,1.375-6.599,1.375c-2.97,0-5.279-0.77-6.929-2.255c-1.814-1.485-2.695-3.41-2.695-5.774
		c0-3.19,1.266-5.665,3.795-7.369c2.31-1.65,5.609-2.475,9.789-2.585l6.379-0.165v-1.155c0-3.959-2.145-5.939-6.434-5.939
		c-1.815,0-3.301,0.33-4.4,0.99c-1.319,0.77-2.145,1.925-2.475,3.52l-5.773-0.495c0.604-3.08,2.145-5.39,4.564-6.819
		c2.09-1.32,4.949-1.925,8.469-1.925C552.245,18.099,555.324,19.144,557.304,21.233z M548.12,34.321
		c-5.334,0.11-7.975,1.98-7.975,5.5c0,1.1,0.44,1.98,1.375,2.695c0.881,0.715,2.09,1.1,3.574,1.1c2.476,0,4.564-0.77,6.324-2.255
		c1.76-1.484,2.695-3.354,2.695-5.554v-1.649L548.12,34.321z"/>
	<path class="st0" d="M587.059,22.663v-3.794h5.829V45.43c0,9.019-4.455,13.528-13.254,13.528c-3.959,0-6.983-0.77-9.073-2.254
		c-2.09-1.54-3.354-3.85-3.904-6.984h5.829c0.33,1.649,0.99,2.859,2.09,3.574c1.045,0.66,2.75,1.045,5.059,1.045
		c4.95,0,7.425-2.695,7.425-8.029v-4.399c-2.09,3.134-4.95,4.729-8.688,4.729c-3.85,0-6.984-1.319-9.35-3.904
		c-2.42-2.584-3.574-5.994-3.574-10.284s1.154-7.699,3.574-10.338c2.365-2.695,5.5-4.015,9.35-4.015
		C582.108,18.099,584.969,19.583,587.059,22.663z M573.53,25.413c-1.43,1.65-2.09,4.015-2.09,7.039c0,2.75,0.55,4.95,1.65,6.544
		c1.264,1.87,3.299,2.859,6.158,2.859c2.475,0,4.4-0.825,5.83-2.475c1.319-1.705,2.034-4.015,2.034-6.929
		c0-2.969-0.715-5.334-2.034-7.039c-1.43-1.76-3.355-2.584-5.83-2.584S574.851,23.653,573.53,25.413z"/>
	<path class="st0" d="M606.53,8.585c0.77,0.715,1.154,1.65,1.154,2.805s-0.439,2.09-1.209,2.859c-0.771,0.715-1.76,1.1-2.86,1.1
		c-1.155,0-2.089-0.385-2.859-1.1c-0.771-0.77-1.155-1.76-1.155-2.859c0-1.155,0.385-2.09,1.155-2.805
		c0.771-0.77,1.704-1.1,2.859-1.1S605.761,7.815,606.53,8.585z M606.53,18.869V47.3h-5.83V18.869H606.53z"/>
	<path class="st0" d="M639.417,29.757V47.3h-5.828V30.252c0-4.839-2.256-7.259-6.654-7.259c-1.65,0-3.135,0.55-4.345,1.76
		c-1.319,1.32-2.146,3.134-2.364,5.444V47.3h-5.83V18.869h5.83v3.52c1.1-1.43,2.364-2.475,3.794-3.189
		c1.43-0.77,3.024-1.1,4.784-1.1C635.843,18.099,639.417,21.948,639.417,29.757z"/>
	<path class="st0" d="M668.127,21.233c1.705,1.814,2.585,4.454,2.585,7.919V47.3h-5.39v-4.015c-1.1,1.43-2.475,2.585-4.124,3.41
		c-1.87,0.88-4.07,1.375-6.6,1.375c-2.969,0-5.279-0.77-6.929-2.255c-1.815-1.485-2.694-3.41-2.694-5.774
		c0-3.19,1.264-5.665,3.794-7.369c2.31-1.65,5.609-2.475,9.788-2.585l6.38-0.165v-1.155c0-3.959-2.145-5.939-6.435-5.939
		c-1.814,0-3.299,0.33-4.398,0.99c-1.32,0.77-2.146,1.925-2.475,3.52l-5.775-0.495c0.605-3.08,2.145-5.39,4.564-6.819
		c2.09-1.32,4.949-1.925,8.469-1.925C663.067,18.099,666.147,19.144,668.127,21.233z M658.943,34.321
		c-5.335,0.11-7.974,1.98-7.974,5.5c0,1.1,0.439,1.98,1.375,2.695c0.879,0.715,2.089,1.1,3.574,1.1c2.475,0,4.564-0.77,6.324-2.255
		c1.76-1.484,2.694-3.354,2.694-5.554v-1.649L658.943,34.321z"/>
	<path class="st0" d="M686.003,18.869h6.489v4.839h-6.489v16.498c0,0.77,0.165,1.32,0.495,1.705c0.33,0.33,0.825,0.55,1.54,0.55
		h3.739V47.3h-4.675c-2.419,0-4.234-0.66-5.334-1.925c-1.1-1.21-1.595-2.915-1.595-5.169V23.708h-5.279v-4.839h5.279v-6.764
		l5.829-2.42V18.869z"/>
	<path class="st0" d="M704.208,8.585c0.77,0.715,1.154,1.65,1.154,2.805s-0.439,2.09-1.209,2.859c-0.771,0.715-1.76,1.1-2.86,1.1
		c-1.155,0-2.089-0.385-2.859-1.1c-0.771-0.77-1.155-1.76-1.155-2.859c0-1.155,0.385-2.09,1.155-2.805
		c0.771-0.77,1.704-1.1,2.859-1.1S703.438,7.815,704.208,8.585z M704.208,18.869V47.3h-5.83V18.869H704.208z"/>
	<path class="st0" d="M735.5,22.388c2.529,2.805,3.85,6.379,3.85,10.724c0,4.29-1.265,7.864-3.795,10.613
		c-2.64,2.86-6.104,4.345-10.394,4.345s-7.754-1.485-10.394-4.345c-2.53-2.75-3.794-6.324-3.794-10.613
		c0-4.345,1.264-7.919,3.85-10.724c2.584-2.86,6.049-4.29,10.338-4.29S732.915,19.528,735.5,22.388z M718.892,26.073
		c-1.319,1.814-1.924,4.179-1.924,7.039c0,2.859,0.604,5.169,1.924,6.984c1.485,2.09,3.575,3.189,6.27,3.189
		c2.695,0,4.785-1.1,6.324-3.189c1.32-1.87,1.98-4.179,1.98-6.984c0-2.86-0.66-5.225-1.98-7.039c-1.539-2.145-3.629-3.19-6.324-3.19
		C722.467,22.883,720.377,23.928,718.892,26.073z"/>
	<path class="st0" d="M769.929,29.757V47.3H764.1V30.252c0-4.839-2.255-7.259-6.653-7.259c-1.65,0-3.135,0.55-4.345,1.76
		c-1.319,1.32-2.146,3.134-2.364,5.444V47.3h-5.83V18.869h5.83v3.52c1.1-1.43,2.364-2.475,3.794-3.189
		c1.43-0.77,3.024-1.1,4.784-1.1C766.354,18.099,769.929,21.948,769.929,29.757z"/>
	<path class="st0" d="M799.299,27.062h-5.664c-0.44-1.54-1.101-2.584-2.035-3.189c-0.99-0.66-2.529-0.99-4.51-0.99
		c-1.76,0-3.079,0.22-3.959,0.77c-1.045,0.55-1.54,1.43-1.54,2.53c0,0.99,0.771,1.815,2.31,2.53c0.99,0.44,2.86,0.99,5.72,1.705
		c3.244,0.77,5.664,1.705,7.204,2.695c2.255,1.43,3.409,3.41,3.409,5.939c0,5.994-4.234,9.019-12.648,9.019
		c-7.809,0-11.988-3.354-12.648-9.954h5.72c0.33,1.925,1.045,3.299,2.034,4.069c0.99,0.715,2.53,1.1,4.729,1.1
		c4.51,0,6.819-1.32,6.819-3.849c0-1.375-0.88-2.475-2.529-3.245c-0.88-0.44-2.805-0.99-5.72-1.65
		c-3.354-0.77-5.719-1.595-7.039-2.475c-2.199-1.375-3.3-3.3-3.3-5.719c0-2.585,1.045-4.62,3.19-6.049
		c2.145-1.485,4.949-2.2,8.358-2.2C794.569,18.099,798.639,21.068,799.299,27.062z"/>
	<path class="st0" d="M812.28,40.591c0.77,0.77,1.21,1.76,1.21,2.97c0,1.1-0.44,2.089-1.21,2.915c-0.825,0.715-1.814,1.1-2.914,1.1
		c-1.21,0-2.146-0.385-2.86-1.1c-0.824-0.825-1.21-1.815-1.21-2.915c0-1.21,0.386-2.2,1.21-2.97c0.715-0.77,1.65-1.155,2.86-1.155
		C810.466,39.436,811.455,39.821,812.28,40.591z"/>
	<path class="st0" d="M865.681,30.637v4.839H837.91v-4.839H865.681z"/>
</g>
</svg>