<!-- Generator: Adobe Illustrator 22.0.1, SVG Export Plug-In  -->
<svg version="1.1"
	 xmlns="http://www.w3.org/2000/svg" xmlns:xlink="http://www.w3.org/1999/xlink" xmlns:a="http://ns.adobe.com/AdobeSVGViewerExtensions/3.0/"
	 x="0px" y="0px" width="666.042px" height="149.061px" viewBox="0 0 666.042 149.061"
	 style="enable-background:new 0 0 666.042 149.061;" xml:space="preserve">
<style type="text/css">
	.st0{fill:#F6F6F6;}
	.st1{font-family:'PingFangTC-Medium-B5pc-H';}
	.st2{font-size:55px;}
</style>
<defs>
</defs>
<g>
	<path class="st0" d="M131.559,8.035l7.644,30.576h0.22l8.029-30.576h6.27l8.028,30.576h0.221l7.644-30.576h6.764l-11.328,39.266
		h-6.379L150.696,17h-0.221l-7.974,30.301h-6.435L124.794,8.035H131.559z"/>
	<path class="st0" d="M185.788,7.266v15.617c1.045-1.648,2.364-2.914,3.959-3.684c1.43-0.77,3.024-1.1,4.84-1.1
		c3.409,0,5.994,0.989,7.754,3.023c1.649,1.926,2.475,4.785,2.475,8.524v17.653h-5.829V30.638c0-2.53-0.55-4.399-1.54-5.72
		c-1.1-1.375-2.805-2.035-5.005-2.035c-1.979,0-3.574,0.771-4.784,2.365c-1.265,1.596-1.869,3.63-1.869,6.104v15.948h-5.829V7.266
		H185.788z"/>
	<path class="st0" d="M214.718,18.869l7.81,20.732l7.479-20.732h6.379l-15.452,39.32h-6.215l4.949-11.549l-11.273-27.771H214.718z"
		/>
	<path class="st0" d="M265.317,8.586c0.77,0.715,1.154,1.649,1.154,2.805c0,1.154-0.439,2.09-1.21,2.859
		c-0.77,0.715-1.76,1.1-2.859,1.1c-1.155,0-2.09-0.385-2.859-1.1c-0.771-0.77-1.155-1.76-1.155-2.859
		c0-1.155,0.385-2.09,1.155-2.805c0.77-0.771,1.704-1.1,2.859-1.1S264.547,7.815,265.317,8.586z M265.317,18.869v28.432h-5.83
		V18.869H265.317z"/>
	<path class="st0" d="M295.895,27.062h-5.664c-0.44-1.539-1.1-2.584-2.035-3.189c-0.989-0.66-2.529-0.99-4.509-0.99
		c-1.76,0-3.08,0.221-3.96,0.771c-1.045,0.55-1.54,1.431-1.54,2.53c0,0.989,0.771,1.814,2.311,2.529
		c0.989,0.439,2.859,0.99,5.719,1.705c3.245,0.77,5.664,1.705,7.204,2.694c2.255,1.43,3.409,3.409,3.409,5.938
		c0,5.994-4.234,9.02-12.647,9.02c-7.81,0-11.989-3.354-12.648-9.953h5.719c0.33,1.924,1.045,3.299,2.035,4.068
		c0.989,0.715,2.529,1.1,4.729,1.1c4.509,0,6.818-1.319,6.818-3.849c0-1.375-0.88-2.476-2.529-3.245
		c-0.88-0.439-2.805-0.99-5.72-1.649c-3.354-0.771-5.719-1.595-7.039-2.475c-2.199-1.375-3.299-3.3-3.299-5.72
		c0-2.584,1.045-4.619,3.189-6.049c2.145-1.484,4.949-2.199,8.358-2.199C291.165,18.1,295.234,21.068,295.895,27.062z"/>
	<path class="st0" d="M327.136,8.586c0.77,0.715,1.155,1.649,1.155,2.805c0,1.154-0.44,2.09-1.21,2.859
		c-0.771,0.715-1.76,1.1-2.86,1.1c-1.154,0-2.089-0.385-2.859-1.1c-0.77-0.77-1.154-1.76-1.154-2.859
		c0-1.155,0.385-2.09,1.154-2.805c0.771-0.771,1.705-1.1,2.859-1.1C325.376,7.486,326.366,7.815,327.136,8.586z M327.136,18.869
		v28.432h-5.829V18.869H327.136z"/>
	<path class="st0" d="M343.636,18.869h6.488v4.84h-6.488v16.497c0,0.771,0.165,1.319,0.494,1.705c0.33,0.329,0.825,0.55,1.54,0.55
		h3.739v4.84h-4.674c-2.42,0-4.234-0.66-5.334-1.926c-1.101-1.209-1.596-2.914-1.596-5.169V23.709h-5.279v-4.84h5.279v-6.764
		l5.83-2.42V18.869z"/>
	<path class="st0" d="M394.508,20.574c2.199,1.76,3.629,4.398,4.179,7.918h-5.773c-0.386-1.924-1.155-3.354-2.365-4.234
		c-1.21-0.934-2.805-1.375-4.784-1.375c-2.42,0-4.289,0.881-5.664,2.695c-1.43,1.76-2.09,4.289-2.09,7.479s0.66,5.72,2.034,7.535
		c1.266,1.76,3.135,2.693,5.665,2.693c4.344,0,6.764-2.199,7.313-6.488h5.774c-0.66,3.795-2.145,6.654-4.345,8.523
		c-2.199,1.814-5.169,2.75-8.799,2.75c-4.344,0-7.698-1.43-10.118-4.289c-2.365-2.75-3.52-6.27-3.52-10.669
		c0-4.29,1.154-7.81,3.464-10.559c2.476-2.97,5.885-4.454,10.284-4.454C389.394,18.1,392.308,18.924,394.508,20.574z"/>
	<path class="st0" d="M425.857,21.234c1.705,1.814,2.585,4.453,2.585,7.918v18.148h-5.39v-4.016c-1.1,1.431-2.475,2.586-4.125,3.41
		c-1.869,0.88-4.069,1.375-6.599,1.375c-2.97,0-5.279-0.77-6.929-2.255c-1.815-1.485-2.695-3.409-2.695-5.774
		c0-3.189,1.265-5.664,3.795-7.369c2.31-1.649,5.609-2.475,9.788-2.584l6.38-0.166v-1.154c0-3.959-2.145-5.939-6.435-5.939
		c-1.814,0-3.3,0.33-4.399,0.99c-1.319,0.77-2.145,1.925-2.475,3.52l-5.774-0.494c0.605-3.08,2.145-5.391,4.564-6.82
		c2.09-1.319,4.949-1.924,8.469-1.924C420.798,18.1,423.878,19.145,425.857,21.234z M416.674,34.322
		c-5.335,0.109-7.975,1.979-7.975,5.499c0,1.101,0.44,1.979,1.375,2.694c0.88,0.715,2.09,1.1,3.574,1.1
		c2.476,0,4.564-0.77,6.324-2.254s2.695-3.355,2.695-5.555v-1.649L416.674,34.322z"/>
	<path class="st0" d="M441.588,7.266v40.035h-5.829V7.266H441.588z"/>
	<path class="st0" d="M455.338,7.266v40.035h-5.829V7.266H455.338z"/>
	<path class="st0" d="M485.256,22.828c2.2,2.859,3.354,6.819,3.41,11.879h-21.558c0.22,2.75,0.935,4.895,2.255,6.379
		c1.319,1.43,3.135,2.199,5.444,2.199c2.034,0,3.685-0.494,4.949-1.43c0.99-0.77,1.814-2.034,2.585-3.684h5.829
		c-0.66,2.639-1.925,4.895-3.904,6.654c-2.475,2.145-5.609,3.244-9.404,3.244c-4.18,0-7.534-1.32-9.953-3.904
		c-2.64-2.75-3.96-6.435-3.96-11.109c0-4.234,1.21-7.754,3.739-10.613c2.42-2.914,5.774-4.344,9.954-4.344
		C479.262,18.1,482.837,19.639,485.256,22.828z M469.583,24.809c-1.21,1.265-2.034,3.079-2.364,5.499h15.343
		c-0.55-4.949-3.135-7.425-7.754-7.425C472.607,22.883,470.903,23.488,469.583,24.809z"/>
	<path class="st0" d="M519.905,7.266v40.035h-5.444v-3.41c-1.979,2.75-4.949,4.18-8.799,4.18c-4.18,0-7.479-1.484-9.844-4.455
		c-2.199-2.749-3.3-6.324-3.3-10.668c0-4.18,1.045-7.645,3.245-10.394c2.31-2.97,5.554-4.454,9.623-4.454
		c3.465,0,6.38,1.649,8.689,5.004V7.266H519.905z M500.328,25.743c-1.21,1.649-1.815,4.069-1.815,7.204s0.55,5.555,1.705,7.314
		c1.32,2.034,3.465,3.079,6.324,3.079c2.529,0,4.454-1.045,5.884-3.024c1.21-1.814,1.815-4.125,1.815-6.984v-0.494
		c0-3.08-0.771-5.555-2.2-7.425c-1.43-1.76-3.189-2.585-5.334-2.585C503.848,22.828,501.702,23.764,500.328,25.743z"/>
	<path class="st0" d="M15.343,93.736c-1.484,0.494-2.694,1.375-3.629,2.639c-0.99,1.211-1.485,2.475-1.43,3.795
		c0.22-0.164,0.659-0.22,1.319-0.22c1.1,0,2.035,0.385,2.805,1.155c0.771,0.77,1.21,1.76,1.21,2.969c0,1.211-0.439,2.2-1.21,2.971
		c-0.825,0.77-1.869,1.154-3.135,1.154c-1.484,0-2.64-0.605-3.52-1.814c-0.989-1.155-1.43-2.641-1.43-4.455
		c0-2.859,0.771-5.279,2.42-7.369s3.85-3.52,6.599-4.234V93.736z M28.156,93.736c-1.539,0.494-2.749,1.375-3.739,2.639
		c-0.99,1.211-1.43,2.475-1.375,3.795c0.275-0.164,0.715-0.22,1.32-0.22c1.1,0,2.09,0.385,2.859,1.155
		c0.77,0.77,1.155,1.76,1.155,2.969c0,1.211-0.44,2.2-1.21,2.971c-0.825,0.77-1.87,1.154-3.135,1.154
		c-1.485,0-2.694-0.605-3.574-1.814c-0.936-1.155-1.375-2.641-1.375-4.455c0-2.859,0.824-5.279,2.475-7.369
		c1.595-2.09,3.794-3.52,6.599-4.234V93.736z"/>
	<path class="st0" d="M65.775,97.035v5.115H52.688v34.15h-5.939v-34.15H33.604v-5.115H65.775z"/>
	<path class="st0" d="M75.789,96.266v15.617c1.045-1.648,2.364-2.914,3.959-3.684c1.43-0.77,3.024-1.1,4.84-1.1
		c3.409,0,5.994,0.989,7.754,3.023c1.649,1.926,2.475,4.785,2.475,8.524v17.653h-5.829v-16.663c0-2.53-0.55-4.399-1.54-5.72
		c-1.1-1.375-2.805-2.035-5.005-2.035c-1.979,0-3.574,0.771-4.784,2.365c-1.265,1.596-1.869,3.63-1.869,6.104v15.948H69.96V96.266
		H75.789z"/>
	<path class="st0" d="M124.076,111.828c2.199,2.859,3.354,6.819,3.409,11.879h-21.557c0.22,2.75,0.935,4.895,2.254,6.379
		c1.32,1.43,3.135,2.199,5.444,2.199c2.035,0,3.685-0.494,4.95-1.43c0.989-0.77,1.814-2.034,2.584-3.684h5.829
		c-0.659,2.639-1.925,4.895-3.904,6.654c-2.475,2.145-5.609,3.244-9.403,3.244c-4.18,0-7.534-1.32-9.954-3.904
		c-2.64-2.75-3.959-6.435-3.959-11.109c0-4.234,1.21-7.754,3.739-10.613c2.42-2.914,5.774-4.344,9.953-4.344
		C118.082,107.1,121.656,108.639,124.076,111.828z M108.403,113.809c-1.21,1.265-2.035,3.079-2.365,5.499h15.343
		c-0.55-4.949-3.134-7.425-7.754-7.425C111.428,111.883,109.723,112.488,108.403,113.809z"/>
	<path class="st0" d="M165.601,97.035c6.324,0,11.109,1.76,14.408,5.334c3.08,3.301,4.62,8.084,4.62,14.299
		c0,6.159-1.596,10.943-4.729,14.354c-3.3,3.52-8.084,5.279-14.408,5.279h-14.188V97.035H165.601z M157.297,131.186h7.095
		c4.949,0,8.634-1.209,10.943-3.574c2.255-2.365,3.409-5.994,3.409-10.943c0-5.06-1.154-8.689-3.354-10.998
		c-2.31-2.365-5.939-3.52-10.889-3.52h-7.204V131.186z"/>
	<path class="st0" d="M212.845,111.828c2.2,2.859,3.354,6.819,3.41,11.879h-21.558c0.22,2.75,0.935,4.895,2.255,6.379
		c1.319,1.43,3.135,2.199,5.444,2.199c2.034,0,3.685-0.494,4.949-1.43c0.99-0.77,1.814-2.034,2.585-3.684h5.829
		c-0.66,2.639-1.925,4.895-3.904,6.654c-2.475,2.145-5.609,3.244-9.404,3.244c-4.18,0-7.534-1.32-9.953-3.904
		c-2.64-2.75-3.96-6.435-3.96-11.109c0-4.234,1.21-7.754,3.739-10.613c2.42-2.914,5.774-4.344,9.954-4.344
		C206.851,107.1,210.426,108.639,212.845,111.828z M197.172,113.809c-1.21,1.265-2.034,3.079-2.364,5.499h15.343
		c-0.55-4.949-3.135-7.425-7.754-7.425C200.196,111.883,198.492,112.488,197.172,113.809z"/>
	<path class="st0" d="M238.365,97.035v4.949h-5.114c-0.935,0-1.649,0.221-2.09,0.715c-0.439,0.44-0.66,1.211-0.66,2.256v2.914h7.479
		v4.784h-7.479v23.647h-5.773v-23.647h-6.545v-4.784h6.545v-3.08c0-2.42,0.659-4.344,1.979-5.664c1.319-1.43,3.189-2.09,5.719-2.09
		H238.365z"/>
	<path class="st0" d="M258.825,107.814v5.828c-1.43-0.439-2.805-0.604-4.124-0.604c-1.76,0-3.355,0.715-4.729,2.145
		c-1.485,1.539-2.2,3.574-2.2,6.049v15.068h-5.829v-28.432h5.829v4.289c0.715-1.539,1.65-2.694,2.75-3.465
		c1.319-1.1,2.859-1.594,4.619-1.594C256.57,107.1,257.835,107.319,258.825,107.814z"/>
	<path class="st0" d="M285.829,111.389c2.53,2.805,3.85,6.379,3.85,10.724c0,4.29-1.265,7.864-3.795,10.613
		c-2.64,2.86-6.104,4.345-10.394,4.345c-4.289,0-7.754-1.484-10.394-4.345c-2.529-2.749-3.794-6.323-3.794-10.613
		c0-4.345,1.265-7.919,3.85-10.724c2.584-2.859,6.049-4.289,10.338-4.289C279.78,107.1,283.244,108.529,285.829,111.389z
		 M269.222,115.073c-1.32,1.814-1.925,4.179-1.925,7.039c0,2.859,0.604,5.169,1.925,6.983c1.484,2.09,3.574,3.189,6.269,3.189
		c2.695,0,4.785-1.1,6.324-3.189c1.32-1.869,1.98-4.179,1.98-6.983c0-2.86-0.66-5.225-1.98-7.039
		c-1.539-2.146-3.629-3.19-6.324-3.19C272.796,111.883,270.706,112.928,269.222,115.073z"/>
	<path class="st0" d="M317.948,116.062h-5.664c-0.44-1.539-1.1-2.584-2.035-3.189c-0.989-0.66-2.529-0.99-4.509-0.99
		c-1.76,0-3.08,0.221-3.96,0.771c-1.045,0.55-1.54,1.431-1.54,2.53c0,0.989,0.771,1.814,2.311,2.529
		c0.989,0.439,2.859,0.99,5.719,1.705c3.245,0.77,5.664,1.705,7.204,2.694c2.255,1.43,3.409,3.409,3.409,5.938
		c0,5.994-4.234,9.02-12.647,9.02c-7.81,0-11.989-3.354-12.648-9.953h5.719c0.33,1.924,1.045,3.299,2.035,4.068
		c0.989,0.715,2.529,1.1,4.729,1.1c4.509,0,6.818-1.319,6.818-3.849c0-1.375-0.88-2.476-2.529-3.245
		c-0.88-0.439-2.805-0.99-5.72-1.649c-3.354-0.771-5.719-1.595-7.039-2.475c-2.199-1.375-3.299-3.3-3.299-5.72
		c0-2.584,1.045-4.619,3.189-6.049c2.145-1.484,4.949-2.199,8.358-2.199C313.219,107.1,317.288,110.068,317.948,116.062z"/>
	<path class="st0" d="M332.47,107.869h6.489v4.84h-6.489v16.497c0,0.771,0.165,1.319,0.495,1.705c0.33,0.329,0.825,0.55,1.54,0.55
		h3.739v4.84h-4.675c-2.419,0-4.234-0.66-5.334-1.926c-1.1-1.209-1.595-2.914-1.595-5.169v-16.497h-5.279v-4.84h5.279v-6.764
		l5.829-2.42V107.869z"/>
	<path class="st0" d="M366.292,111.828c2.199,2.859,3.354,6.819,3.409,11.879h-21.557c0.22,2.75,0.935,4.895,2.254,6.379
		c1.32,1.43,3.135,2.199,5.444,2.199c2.035,0,3.685-0.494,4.95-1.43c0.989-0.77,1.814-2.034,2.584-3.684h5.829
		c-0.659,2.639-1.925,4.895-3.904,6.654c-2.475,2.145-5.609,3.244-9.403,3.244c-4.18,0-7.534-1.32-9.954-3.904
		c-2.64-2.75-3.959-6.435-3.959-11.109c0-4.234,1.21-7.754,3.739-10.613c2.42-2.914,5.774-4.344,9.953-4.344
		C360.298,107.1,363.872,108.639,366.292,111.828z M350.619,113.809c-1.21,1.265-2.035,3.079-2.365,5.499h15.343
		c-0.55-4.949-3.134-7.425-7.754-7.425C353.644,111.883,351.938,112.488,350.619,113.809z"/>
	<path class="st0" d="M400.941,96.266v40.035h-5.444v-3.41c-1.979,2.75-4.949,4.18-8.799,4.18c-4.18,0-7.479-1.484-9.844-4.455
		c-2.199-2.749-3.3-6.324-3.3-10.668c0-4.18,1.045-7.645,3.245-10.394c2.31-2.97,5.554-4.454,9.623-4.454
		c3.465,0,6.38,1.649,8.689,5.004V96.266H400.941z M381.364,114.743c-1.21,1.649-1.815,4.069-1.815,7.204s0.55,5.555,1.705,7.314
		c1.32,2.034,3.465,3.079,6.324,3.079c2.529,0,4.454-1.045,5.884-3.024c1.21-1.814,1.815-4.125,1.815-6.984v-0.494
		c0-3.08-0.771-5.555-2.2-7.425c-1.43-1.76-3.189-2.585-5.334-2.585C384.884,111.828,382.738,112.764,381.364,114.743z"/>
	<path class="st0" d="M455.28,99.676c2.805,2.199,4.564,5.443,5.279,9.844h-6.05c-0.55-2.641-1.76-4.62-3.629-5.939
		c-1.87-1.375-4.399-2.035-7.479-2.035c-3.794,0-6.819,1.265-9.073,3.904c-2.42,2.75-3.575,6.545-3.575,11.384
		c0,4.729,1.045,8.358,3.245,10.888c2.31,2.75,5.939,4.125,10.833,4.125c1.925,0,3.74-0.275,5.444-0.715
		c1.65-0.439,3.08-1.1,4.399-1.925v-8.524h-10.833v-5.113h16.827v16.498c-2.034,1.594-4.399,2.805-7.094,3.684
		c-2.859,0.881-5.994,1.32-9.403,1.32c-6.27,0-11.109-1.98-14.573-5.939c-3.245-3.685-4.84-8.469-4.84-14.298
		c0-5.884,1.595-10.724,4.84-14.519c3.409-4.068,8.028-6.049,13.803-6.049C448.406,96.266,452.365,97.365,455.28,99.676z"/>
	<path class="st0" d="M489.381,110.234c1.705,1.814,2.585,4.453,2.585,7.918v18.148h-5.39v-4.016c-1.1,1.431-2.475,2.586-4.125,3.41
		c-1.869,0.88-4.069,1.375-6.599,1.375c-2.97,0-5.279-0.77-6.929-2.255c-1.815-1.485-2.695-3.409-2.695-5.774
		c0-3.189,1.265-5.664,3.795-7.369c2.31-1.649,5.609-2.475,9.788-2.584l6.38-0.166v-1.154c0-3.959-2.145-5.939-6.435-5.939
		c-1.814,0-3.3,0.33-4.399,0.99c-1.319,0.77-2.145,1.925-2.475,3.52l-5.774-0.494c0.605-3.08,2.145-5.391,4.564-6.82
		c2.09-1.319,4.949-1.924,8.469-1.924C484.321,107.1,487.401,108.145,489.381,110.234z M480.197,123.322
		c-5.335,0.109-7.975,1.979-7.975,5.499c0,1.101,0.44,1.979,1.375,2.694c0.88,0.715,2.09,1.1,3.574,1.1
		c2.476,0,4.564-0.77,6.324-2.254s2.695-3.355,2.695-5.555v-1.649L480.197,123.322z"/>
	<path class="st0" d="M505.112,96.266v40.035h-5.829V96.266H505.112z"/>
	<path class="st0" d="M518.862,96.266v40.035h-5.829V96.266H518.862z"/>
	<path class="st0" d="M548.78,111.828c2.199,2.859,3.354,6.819,3.409,11.879h-21.557c0.22,2.75,0.935,4.895,2.254,6.379
		c1.32,1.43,3.135,2.199,5.444,2.199c2.035,0,3.685-0.494,4.95-1.43c0.989-0.77,1.814-2.034,2.584-3.684h5.829
		c-0.659,2.639-1.925,4.895-3.904,6.654c-2.475,2.145-5.609,3.244-9.403,3.244c-4.18,0-7.534-1.32-9.954-3.904
		c-2.64-2.75-3.959-6.435-3.959-11.109c0-4.234,1.21-7.754,3.739-10.613c2.42-2.914,5.774-4.344,9.953-4.344
		C542.786,107.1,546.36,108.639,548.78,111.828z M533.107,113.809c-1.21,1.265-2.035,3.079-2.365,5.499h15.343
		c-0.55-4.949-3.134-7.425-7.754-7.425C536.132,111.883,534.427,112.488,533.107,113.809z"/>
	<path class="st0" d="M574.025,107.814v5.828c-1.43-0.439-2.805-0.604-4.124-0.604c-1.76,0-3.355,0.715-4.729,2.145
		c-1.485,1.539-2.2,3.574-2.2,6.049v15.068h-5.829v-28.432h5.829v4.289c0.715-1.539,1.65-2.694,2.75-3.465
		c1.319-1.1,2.859-1.594,4.619-1.594C571.771,107.1,573.035,107.319,574.025,107.814z"/>
	<path class="st0" d="M580.902,107.869l7.809,20.732l7.479-20.732h6.379l-15.453,39.32h-6.214l4.949-11.549l-11.273-27.771H580.902z
		"/>
	<path class="st0" d="M614.946,92.031c0.935,1.154,1.43,2.695,1.43,4.564c0,2.75-0.825,5.225-2.475,7.314
		c-1.65,2.09-3.85,3.464-6.6,4.234v-3.41c1.485-0.494,2.694-1.375,3.685-2.584c0.99-1.266,1.43-2.53,1.43-3.85
		c-0.274,0.109-0.715,0.22-1.319,0.22c-1.101,0-2.035-0.44-2.805-1.21c-0.825-0.77-1.21-1.705-1.21-2.914
		c0-1.211,0.385-2.2,1.154-2.971c0.825-0.77,1.87-1.154,3.19-1.154C612.856,90.271,614.066,90.821,614.946,92.031z M627.759,92.031
		c0.88,1.154,1.375,2.695,1.375,4.564c0,2.75-0.825,5.225-2.42,7.314c-1.649,2.09-3.849,3.464-6.599,4.234v-3.41
		c1.43-0.494,2.694-1.375,3.685-2.584c0.935-1.266,1.375-2.53,1.375-3.85c-0.275,0.109-0.715,0.22-1.32,0.22
		c-1.1,0-2.09-0.44-2.859-1.21s-1.155-1.705-1.155-2.914c0-1.211,0.386-2.2,1.266-2.971c0.77-0.77,1.814-1.154,3.134-1.154
		C625.669,90.271,626.824,90.821,627.759,92.031z"/>
	<path class="st0" d="M660.044,99.18c2.145,1.926,3.245,4.564,3.245,7.865c0,2.693-0.715,4.949-2.035,6.709
		c-0.495,0.604-2.035,2.034-4.675,4.289c-0.989,0.879-1.76,1.814-2.254,2.805c-0.605,1.1-0.88,2.31-0.88,3.684v0.936h-5.885v-0.936
		c0-2.034,0.33-3.794,1.045-5.224c0.77-1.54,2.859-3.794,6.27-6.819l0.935-1.045c0.99-1.265,1.484-2.584,1.484-4.014
		c0-1.926-0.55-3.41-1.595-4.51c-1.1-1.1-2.64-1.65-4.619-1.65c-2.475,0-4.289,0.771-5.39,2.311
		c-0.989,1.319-1.484,3.244-1.484,5.664h-5.829c0-4.015,1.154-7.149,3.52-9.459c2.31-2.365,5.499-3.52,9.514-3.52
		C654.984,96.266,657.845,97.201,660.044,99.18z M653.39,129.536c0.771,0.715,1.155,1.649,1.155,2.805s-0.385,2.09-1.155,2.86
		c-0.824,0.715-1.814,1.1-2.914,1.1c-1.155,0-2.09-0.385-2.805-1.155c-0.825-0.771-1.21-1.704-1.21-2.805
		c0-1.155,0.385-2.09,1.21-2.805c0.715-0.771,1.649-1.1,2.805-1.1C651.63,128.437,652.62,128.766,653.39,129.536z"/>
</g>
</svg>