<!-- Generator: Adobe Illustrator 22.0.1, SVG Export Plug-In  -->
<svg version="1.1"
	 xmlns="http://www.w3.org/2000/svg" xmlns:xlink="http://www.w3.org/1999/xlink" xmlns:a="http://ns.adobe.com/AdobeSVGViewerExtensions/3.0/"
	 x="0px" y="0px" width="629.357px" height="132.06px" viewBox="0 0 629.357 132.06"
	 style="enable-background:new 0 0 629.357 132.06;" xml:space="preserve">
<style type="text/css">
	.st0{fill:#575756;}
	.st1{font-family:'PingFangTC-Medium-B5pc-H';}
	.st2{font-size:55px;}
</style>
<defs>
</defs>
<g>
	<path class="st0" d="M32.061,8.035v5.114H9.844v11.438h20.897v5.114H9.844v12.483h23.152V47.3H3.85V8.035H32.061z"/>
	<path class="st0" d="M60.606,21.233c1.705,1.814,2.584,4.454,2.584,7.919V47.3h-5.389v-4.015c-1.1,1.43-2.475,2.585-4.125,3.409
		c-1.87,0.88-4.069,1.375-6.599,1.375c-2.969,0-5.279-0.77-6.929-2.255c-1.815-1.484-2.695-3.409-2.695-5.773
		c0-3.19,1.265-5.665,3.794-7.369c2.31-1.65,5.609-2.475,9.789-2.585l6.379-0.165v-1.155c0-3.959-2.145-5.938-6.434-5.938
		c-1.815,0-3.3,0.33-4.399,0.989c-1.32,0.771-2.145,1.925-2.475,3.52l-5.774-0.494c0.605-3.08,2.145-5.39,4.564-6.819
		c2.09-1.32,4.949-1.925,8.469-1.925C55.547,18.099,58.626,19.144,60.606,21.233z M51.422,34.321
		c-5.334,0.11-7.974,1.979-7.974,5.499c0,1.101,0.44,1.98,1.375,2.695c0.88,0.715,2.09,1.1,3.574,1.1
		c2.475,0,4.564-0.771,6.324-2.255s2.695-3.354,2.695-5.555v-1.649L51.422,34.321z"/>
	<path class="st0" d="M92.561,27.062h-5.665c-0.44-1.54-1.1-2.585-2.035-3.189c-0.99-0.66-2.53-0.99-4.509-0.99
		c-1.76,0-3.08,0.22-3.959,0.77c-1.045,0.551-1.54,1.431-1.54,2.53c0,0.989,0.77,1.814,2.31,2.529c0.99,0.44,2.859,0.99,5.719,1.705
		c3.244,0.77,5.664,1.705,7.204,2.694c2.254,1.43,3.409,3.41,3.409,5.939c0,5.994-4.234,9.019-12.648,9.019
		c-7.809,0-11.988-3.354-12.648-9.953h5.719c0.33,1.925,1.045,3.299,2.035,4.069c0.99,0.715,2.53,1.1,4.729,1.1
		c4.509,0,6.819-1.32,6.819-3.85c0-1.375-0.88-2.475-2.53-3.244c-0.88-0.44-2.804-0.99-5.719-1.65
		c-3.354-0.77-5.719-1.595-7.039-2.475c-2.2-1.375-3.299-3.3-3.299-5.719c0-2.585,1.045-4.62,3.189-6.05
		c2.145-1.484,4.949-2.199,8.359-2.199C87.831,18.099,91.9,21.068,92.561,27.062z"/>
	<path class="st0" d="M101.747,18.868l7.809,20.732l7.479-20.732h6.379l-15.453,39.32h-6.214l4.949-11.549L95.423,18.868H101.747z"
		/>
	<path class="st0" d="M153.941,18.868h6.488v4.84h-6.488v16.497c0,0.771,0.164,1.32,0.494,1.705c0.33,0.33,0.825,0.55,1.54,0.55
		h3.739v4.84h-4.674c-2.42,0-4.234-0.66-5.335-1.925c-1.1-1.21-1.595-2.915-1.595-5.17V23.708h-5.279v-4.84h5.279v-6.764l5.83-2.42
		V18.868z"/>
	<path class="st0" d="M188.533,22.388c2.529,2.805,3.85,6.379,3.85,10.724c0,4.29-1.265,7.864-3.795,10.613
		c-2.64,2.86-6.104,4.345-10.394,4.345c-4.289,0-7.754-1.484-10.394-4.345c-2.529-2.749-3.794-6.323-3.794-10.613
		c0-4.345,1.265-7.919,3.85-10.724c2.584-2.859,6.049-4.289,10.338-4.289C182.484,18.099,185.948,19.528,188.533,22.388z
		 M171.926,26.072c-1.32,1.814-1.925,4.18-1.925,7.039s0.604,5.17,1.925,6.984c1.484,2.09,3.574,3.189,6.269,3.189
		c2.695,0,4.785-1.1,6.324-3.189c1.32-1.87,1.98-4.18,1.98-6.984c0-2.859-0.66-5.225-1.98-7.039
		c-1.539-2.145-3.629-3.189-6.324-3.189C175.5,22.883,173.41,23.928,171.926,26.072z"/>
	<path class="st0" d="M243.477,8.035v5.114H222.8v11.438h19.522v5.114H222.8V47.3h-5.994V8.035H243.477z"/>
	<path class="st0" d="M254.039,18.868v17.323c0,2.419,0.495,4.179,1.54,5.279c0.989,1.1,2.64,1.704,4.895,1.704
		c1.539,0,2.914-0.659,4.234-1.869c1.319-1.265,2.255-2.97,2.749-5.06V18.868h5.829V47.3h-5.829v-3.85
		c-2.419,3.079-5.389,4.619-8.964,4.619c-6.874,0-10.283-3.85-10.283-11.493V18.868H254.039z"/>
	<path class="st0" d="M304.967,29.757V47.3h-5.829V30.252c0-4.84-2.255-7.259-6.654-7.259c-1.65,0-3.135,0.55-4.345,1.76
		c-1.319,1.319-2.145,3.134-2.364,5.444V47.3h-5.83V18.868h5.83v3.52c1.1-1.43,2.364-2.475,3.794-3.189
		c1.43-0.77,3.024-1.1,4.784-1.1C301.392,18.099,304.967,21.948,304.967,29.757z"/>
	<path class="st0" d="M333.016,20.573c2.2,1.76,3.63,4.399,4.18,7.919h-5.774c-0.385-1.925-1.154-3.354-2.364-4.234
		c-1.21-0.935-2.805-1.375-4.784-1.375c-2.42,0-4.29,0.88-5.664,2.694c-1.43,1.76-2.09,4.29-2.09,7.479s0.66,5.719,2.034,7.534
		c1.266,1.76,3.135,2.694,5.665,2.694c4.344,0,6.764-2.2,7.313-6.489h5.774c-0.66,3.795-2.146,6.654-4.345,8.524
		c-2.199,1.814-5.169,2.749-8.799,2.749c-4.344,0-7.699-1.43-10.118-4.289c-2.365-2.75-3.52-6.27-3.52-10.669
		c0-4.289,1.154-7.809,3.464-10.559c2.475-2.97,5.885-4.454,10.284-4.454C327.901,18.099,330.816,18.924,333.016,20.573z"/>
	<path class="st0" d="M350.948,18.868h6.489v4.84h-6.489v16.497c0,0.771,0.165,1.32,0.495,1.705c0.33,0.33,0.824,0.55,1.539,0.55
		h3.74v4.84h-4.675c-2.42,0-4.234-0.66-5.334-1.925c-1.101-1.21-1.595-2.915-1.595-5.17V23.708h-5.279v-4.84h5.279v-6.764
		l5.829-2.42V18.868z"/>
	<path class="st0" d="M369.152,8.585c0.77,0.715,1.154,1.649,1.154,2.805c0,1.154-0.439,2.09-1.21,2.859
		c-0.77,0.715-1.76,1.1-2.859,1.1c-1.154,0-2.09-0.385-2.859-1.1c-0.77-0.77-1.155-1.76-1.155-2.859c0-1.155,0.386-2.09,1.155-2.805
		c0.77-0.771,1.705-1.1,2.859-1.1C367.393,7.485,368.382,7.814,369.152,8.585z M369.152,18.868V47.3h-5.829V18.868H369.152z"/>
	<path class="st0" d="M400.444,22.388c2.529,2.805,3.85,6.379,3.85,10.724c0,4.29-1.265,7.864-3.795,10.613
		c-2.64,2.86-6.104,4.345-10.394,4.345s-7.754-1.484-10.394-4.345c-2.529-2.749-3.794-6.323-3.794-10.613
		c0-4.345,1.265-7.919,3.849-10.724c2.585-2.859,6.05-4.289,10.339-4.289S397.859,19.528,400.444,22.388z M383.836,26.072
		c-1.319,1.814-1.924,4.18-1.924,7.039s0.604,5.17,1.924,6.984c1.485,2.09,3.575,3.189,6.27,3.189s4.784-1.1,6.324-3.189
		c1.32-1.87,1.979-4.18,1.979-6.984c0-2.859-0.659-5.225-1.979-7.039c-1.54-2.145-3.63-3.189-6.324-3.189
		S385.321,23.928,383.836,26.072z"/>
	<path class="st0" d="M434.874,29.757V47.3h-5.829V30.252c0-4.84-2.255-7.259-6.654-7.259c-1.649,0-3.135,0.55-4.345,1.76
		c-1.319,1.319-2.145,3.134-2.364,5.444V47.3h-5.829V18.868h5.829v3.52c1.1-1.43,2.364-2.475,3.794-3.189
		c1.431-0.77,3.025-1.1,4.785-1.1C431.3,18.099,434.874,21.948,434.874,29.757z"/>
	<path class="st0" d="M32.996,80.035v5.114H19.907v34.15h-5.939v-34.15H0.825v-5.114H32.996z"/>
	<path class="st0" d="M43.009,79.265v15.618c1.045-1.649,2.365-2.915,3.959-3.685c1.43-0.77,3.024-1.1,4.839-1.1
		c3.409,0,5.994,0.989,7.754,3.024c1.65,1.925,2.475,4.784,2.475,8.523V119.3h-5.829v-16.663c0-2.529-0.55-4.399-1.54-5.719
		c-1.1-1.375-2.805-2.035-5.004-2.035c-1.979,0-3.574,0.77-4.784,2.364c-1.265,1.596-1.87,3.63-1.87,6.104V119.3H37.18V79.265
		H43.009z"/>
	<path class="st0" d="M85.521,90.813v5.829c-1.43-0.439-2.805-0.604-4.124-0.604c-1.76,0-3.355,0.715-4.729,2.145
		c-1.485,1.54-2.2,3.574-2.2,6.049V119.3h-5.83V90.868h5.83v4.29c0.715-1.54,1.65-2.695,2.75-3.465
		c1.32-1.1,2.859-1.595,4.619-1.595C83.267,90.099,84.532,90.318,85.521,90.813z"/>
	<path class="st0" d="M112.525,94.388c2.529,2.805,3.85,6.379,3.85,10.724c0,4.29-1.265,7.864-3.795,10.613
		c-2.64,2.86-6.104,4.345-10.394,4.345c-4.289,0-7.754-1.484-10.394-4.345c-2.53-2.749-3.794-6.323-3.794-10.613
		c0-4.345,1.265-7.919,3.85-10.724c2.584-2.859,6.049-4.289,10.338-4.289C106.476,90.099,109.94,91.528,112.525,94.388z
		 M95.917,98.072c-1.32,1.814-1.925,4.18-1.925,7.039s0.605,5.17,1.925,6.984c1.485,2.09,3.575,3.189,6.269,3.189
		c2.695,0,4.785-1.1,6.324-3.189c1.32-1.87,1.98-4.18,1.98-6.984c0-2.859-0.66-5.225-1.98-7.039
		c-1.54-2.145-3.629-3.189-6.324-3.189C99.492,94.883,97.402,95.928,95.917,98.072z"/>
	<path class="st0" d="M127.762,90.868v17.323c0,2.419,0.495,4.179,1.54,5.279c0.99,1.1,2.64,1.704,4.895,1.704
		c1.54,0,2.915-0.659,4.234-1.869c1.32-1.265,2.255-2.97,2.75-5.06V90.868h5.829V119.3h-5.829v-3.85
		c-2.42,3.079-5.39,4.619-8.964,4.619c-6.874,0-10.284-3.85-10.284-11.493V90.868H127.762z"/>
	<path class="st0" d="M174.181,94.663v-3.795h5.829v26.562c0,9.019-4.455,13.528-13.254,13.528c-3.959,0-6.983-0.77-9.073-2.255
		c-2.09-1.54-3.354-3.85-3.904-6.983h5.829c0.33,1.649,0.989,2.859,2.09,3.574c1.045,0.66,2.749,1.045,5.059,1.045
		c4.949,0,7.425-2.695,7.425-8.029v-4.399c-2.09,3.135-4.95,4.729-8.689,4.729c-3.85,0-6.984-1.319-9.349-3.904
		c-2.42-2.585-3.574-5.994-3.574-10.284c0-4.289,1.154-7.698,3.574-10.338c2.364-2.695,5.499-4.015,9.349-4.015
		C169.23,90.099,172.091,91.583,174.181,94.663z M160.652,97.412c-1.43,1.65-2.09,4.015-2.09,7.039c0,2.75,0.55,4.95,1.649,6.545
		c1.265,1.869,3.3,2.859,6.159,2.859c2.475,0,4.399-0.825,5.829-2.475c1.32-1.705,2.035-4.015,2.035-6.93
		c0-2.969-0.715-5.334-2.035-7.039c-1.43-1.76-3.354-2.584-5.829-2.584S161.972,95.652,160.652,97.412z"/>
	<path class="st0" d="M192.442,79.265v15.618c1.045-1.649,2.364-2.915,3.959-3.685c1.43-0.77,3.024-1.1,4.84-1.1
		c3.409,0,5.994,0.989,7.754,3.024c1.649,1.925,2.475,4.784,2.475,8.523V119.3h-5.829v-16.663c0-2.529-0.551-4.399-1.54-5.719
		c-1.1-1.375-2.805-2.035-5.005-2.035c-1.979,0-3.574,0.77-4.784,2.364c-1.265,1.596-1.869,3.63-1.869,6.104V119.3h-5.83V79.265
		H192.442z"/>
	<path class="st0" d="M244.03,80.035l13.693,31.455h0.165l13.639-31.455h7.094V119.3h-5.994V91.253h-0.22L260.363,119.3h-5.169
		L243.15,91.253h-0.22V119.3h-5.994V80.035H244.03z"/>
	<path class="st0" d="M309.203,94.388c2.529,2.805,3.85,6.379,3.85,10.724c0,4.29-1.265,7.864-3.795,10.613
		c-2.64,2.86-6.104,4.345-10.394,4.345c-4.289,0-7.754-1.484-10.394-4.345c-2.529-2.749-3.794-6.323-3.794-10.613
		c0-4.345,1.265-7.919,3.85-10.724c2.584-2.859,6.049-4.289,10.338-4.289C303.154,90.099,306.618,91.528,309.203,94.388z
		 M292.596,98.072c-1.32,1.814-1.925,4.18-1.925,7.039s0.604,5.17,1.925,6.984c1.484,2.09,3.574,3.189,6.269,3.189
		c2.695,0,4.785-1.1,6.324-3.189c1.32-1.87,1.98-4.18,1.98-6.984c0-2.859-0.66-5.225-1.98-7.039
		c-1.539-2.145-3.629-3.189-6.324-3.189C296.17,94.883,294.08,95.928,292.596,98.072z"/>
	<path class="st0" d="M324.44,79.265v15.838c2.31-3.354,5.169-5.004,8.688-5.004c4.069,0,7.259,1.484,9.623,4.454
		c2.146,2.75,3.245,6.214,3.245,10.394c0,4.345-1.1,7.919-3.3,10.669c-2.42,2.97-5.664,4.454-9.844,4.454
		c-3.904,0-6.818-1.43-8.799-4.18v3.41h-5.444V79.265H324.44z M326.529,97.412c-1.539,1.87-2.254,4.345-2.254,7.425v0.494
		c0,2.86,0.604,5.17,1.814,6.984c1.375,1.979,3.354,3.024,5.884,3.024c2.859,0,4.949-1.045,6.324-3.079
		c1.1-1.76,1.705-4.18,1.705-7.314s-0.605-5.554-1.815-7.204c-1.374-1.979-3.52-2.914-6.379-2.914
		C329.609,94.828,327.85,95.652,326.529,97.412z"/>
	<path class="st0" d="M358.539,80.585c0.77,0.715,1.154,1.649,1.154,2.805c0,1.154-0.439,2.09-1.21,2.859
		c-0.77,0.715-1.76,1.1-2.859,1.1c-1.154,0-2.09-0.385-2.859-1.1c-0.77-0.77-1.155-1.76-1.155-2.859c0-1.155,0.386-2.09,1.155-2.805
		c0.77-0.771,1.705-1.1,2.859-1.1C356.779,79.485,357.769,79.814,358.539,80.585z M358.539,90.868V119.3h-5.829V90.868H358.539z"/>
	<path class="st0" d="M372.895,79.265V119.3h-5.83V79.265H372.895z"/>
	<path class="st0" d="M402.812,94.828c2.199,2.859,3.354,6.818,3.409,11.878h-21.558c0.221,2.75,0.936,4.895,2.255,6.379
		c1.32,1.431,3.135,2.2,5.444,2.2c2.035,0,3.685-0.495,4.949-1.43c0.99-0.771,1.815-2.035,2.585-3.685h5.829
		c-0.66,2.64-1.925,4.895-3.904,6.654c-2.475,2.145-5.609,3.244-9.404,3.244c-4.179,0-7.533-1.319-9.953-3.904
		c-2.64-2.75-3.96-6.435-3.96-11.108c0-4.234,1.21-7.754,3.74-10.613c2.419-2.915,5.773-4.345,9.953-4.345
		C396.817,90.099,400.393,91.639,402.812,94.828z M387.139,96.808c-1.209,1.265-2.034,3.079-2.364,5.499h15.343
		c-0.55-4.949-3.135-7.424-7.754-7.424C390.164,94.883,388.459,95.487,387.139,96.808z"/>
	<path class="st0" d="M444.337,80.035c6.324,0,11.108,1.76,14.408,5.334c3.079,3.3,4.619,8.084,4.619,14.298
		c0,6.159-1.595,10.943-4.729,14.354c-3.299,3.52-8.084,5.279-14.408,5.279h-14.188V80.035H444.337z M436.033,114.186h7.094
		c4.949,0,8.634-1.21,10.943-3.575c2.255-2.364,3.41-5.994,3.41-10.943c0-5.06-1.155-8.688-3.354-10.998
		c-2.31-2.365-5.939-3.52-10.889-3.52h-7.204V114.186z"/>
	<path class="st0" d="M491.58,94.828c2.2,2.859,3.355,6.818,3.41,11.878h-21.558c0.221,2.75,0.936,4.895,2.255,6.379
		c1.32,1.431,3.135,2.2,5.444,2.2c2.035,0,3.685-0.495,4.949-1.43c0.99-0.771,1.815-2.035,2.585-3.685h5.829
		c-0.66,2.64-1.925,4.895-3.904,6.654c-2.475,2.145-5.609,3.244-9.404,3.244c-4.179,0-7.533-1.319-9.953-3.904
		c-2.64-2.75-3.96-6.435-3.96-11.108c0-4.234,1.21-7.754,3.74-10.613c2.419-2.915,5.773-4.345,9.953-4.345
		C485.586,90.099,489.161,91.639,491.58,94.828z M475.907,96.808c-1.209,1.265-2.034,3.079-2.364,5.499h15.343
		c-0.55-4.949-3.135-7.424-7.754-7.424C478.933,94.883,477.228,95.487,475.907,96.808z"/>
	<path class="st0" d="M503.244,90.868l7.148,21.173l7.149-21.173h6.324L513.308,119.3h-5.829L496.92,90.868H503.244z"/>
	<path class="st0" d="M534.483,80.585c0.77,0.715,1.154,1.649,1.154,2.805c0,1.154-0.439,2.09-1.21,2.859
		c-0.77,0.715-1.76,1.1-2.859,1.1c-1.154,0-2.09-0.385-2.859-1.1c-0.77-0.77-1.155-1.76-1.155-2.859c0-1.155,0.386-2.09,1.155-2.805
		c0.77-0.771,1.705-1.1,2.859-1.1C532.724,79.485,533.713,79.814,534.483,80.585z M534.483,90.868V119.3h-5.829V90.868H534.483z"/>
	<path class="st0" d="M563.74,92.573c2.2,1.76,3.63,4.399,4.18,7.919h-5.774c-0.385-1.925-1.154-3.354-2.364-4.234
		c-1.21-0.935-2.805-1.375-4.784-1.375c-2.42,0-4.29,0.88-5.665,2.694c-1.43,1.76-2.089,4.29-2.089,7.479s0.659,5.719,2.034,7.534
		c1.265,1.76,3.135,2.694,5.664,2.694c4.345,0,6.765-2.2,7.314-6.489h5.774c-0.66,3.795-2.146,6.654-4.345,8.524
		c-2.199,1.814-5.169,2.749-8.799,2.749c-4.345,0-7.699-1.43-10.119-4.289c-2.364-2.75-3.52-6.27-3.52-10.669
		c0-4.289,1.155-7.809,3.465-10.559c2.475-2.97,5.885-4.454,10.284-4.454C558.626,90.099,561.541,90.924,563.74,92.573z"/>
	<path class="st0" d="M595.695,94.828c2.199,2.859,3.354,6.818,3.409,11.878h-21.558c0.221,2.75,0.936,4.895,2.255,6.379
		c1.32,1.431,3.135,2.2,5.444,2.2c2.035,0,3.685-0.495,4.949-1.43c0.99-0.771,1.815-2.035,2.585-3.685h5.829
		c-0.66,2.64-1.925,4.895-3.904,6.654c-2.475,2.145-5.609,3.244-9.404,3.244c-4.179,0-7.533-1.319-9.953-3.904
		c-2.64-2.75-3.96-6.435-3.96-11.108c0-4.234,1.21-7.754,3.74-10.613c2.419-2.915,5.773-4.345,9.953-4.345
		C589.7,90.099,593.275,91.639,595.695,94.828z M580.021,96.808c-1.209,1.265-2.034,3.079-2.364,5.499H593
		c-0.55-4.949-3.135-7.424-7.754-7.424C583.047,94.883,581.342,95.487,580.021,96.808z"/>
	<path class="st0" d="M626.771,99.062h-5.664c-0.44-1.54-1.101-2.585-2.035-3.189c-0.99-0.66-2.529-0.99-4.51-0.99
		c-1.76,0-3.079,0.22-3.959,0.77c-1.045,0.551-1.54,1.431-1.54,2.53c0,0.989,0.771,1.814,2.31,2.529c0.99,0.44,2.86,0.99,5.72,1.705
		c3.244,0.77,5.664,1.705,7.204,2.694c2.255,1.43,3.409,3.41,3.409,5.939c0,5.994-4.234,9.019-12.648,9.019
		c-7.809,0-11.988-3.354-12.648-9.953h5.72c0.33,1.925,1.045,3.299,2.034,4.069c0.99,0.715,2.53,1.1,4.729,1.1
		c4.51,0,6.819-1.32,6.819-3.85c0-1.375-0.88-2.475-2.529-3.244c-0.88-0.44-2.805-0.99-5.72-1.65
		c-3.354-0.77-5.719-1.595-7.039-2.475c-2.199-1.375-3.3-3.3-3.3-5.719c0-2.585,1.045-4.62,3.19-6.05
		c2.145-1.484,4.949-2.199,8.358-2.199C622.041,90.099,626.11,93.068,626.771,99.062z"/>
</g>
</svg>