<!-- Generator: Adobe Illustrator 22.0.1, SVG Export Plug-In  -->
<svg version="1.1"
	 xmlns="http://www.w3.org/2000/svg" xmlns:xlink="http://www.w3.org/1999/xlink" xmlns:a="http://ns.adobe.com/AdobeSVGViewerExtensions/3.0/"
	 x="0px" y="0px" width="385.436px" height="60.06px" viewBox="0 0 385.436 60.06"
	 style="enable-background:new 0 0 385.436 60.06;" xml:space="preserve">
<style type="text/css">
	.st0{fill:#575756;}
	.st1{font-family:'PingFangTC-Medium-B5pc-H';}
	.st2{font-size:55px;}
</style>
<defs>
</defs>
<g>
	<path class="st0" d="M21.227,8.035c3.959,0,7.149,0.88,9.459,2.694c2.419,1.98,3.629,4.785,3.629,8.524c0,2.09-0.55,3.905-1.65,5.5
		c-1.265,1.76-2.969,2.915-5.114,3.464v0.11c3.52,0.77,5.444,3.08,5.884,6.929l0.66,6.269c0.22,2.42,0.99,4.345,2.31,5.774h-6.489
		c-0.935-1.21-1.485-2.97-1.705-5.169l-0.495-4.894c-0.22-2.2-0.935-3.74-2.09-4.729c-1.209-0.99-2.915-1.43-5.169-1.43H9.844V47.3
		H3.85V8.035H21.227z M9.844,25.963h10.613c2.64,0,4.62-0.605,5.939-1.705c1.265-1.1,1.925-2.694,1.925-4.784
		c0-2.2-0.66-3.794-1.87-4.785c-1.32-1.044-3.3-1.54-6.049-1.54H9.844V25.963z"/>
	<path class="st0" d="M47.188,18.869v17.323c0,2.419,0.495,4.179,1.54,5.279c0.99,1.1,2.64,1.705,4.895,1.705
		c1.54,0,2.915-0.66,4.234-1.87c1.32-1.265,2.255-2.97,2.75-5.06V18.869h5.83V47.3h-5.83v-3.85c-2.419,3.08-5.389,4.62-8.964,4.62
		c-6.874,0-10.284-3.85-10.284-11.494V18.869H47.188z"/>
	<path class="st0" d="M79.583,7.265V47.3h-5.829V7.265H79.583z"/>
	<path class="st0" d="M109.5,22.828c2.2,2.859,3.354,6.819,3.41,11.878H91.353c0.22,2.75,0.935,4.894,2.254,6.379
		c1.32,1.43,3.135,2.2,5.444,2.2c2.035,0,3.685-0.495,4.949-1.43c0.99-0.77,1.815-2.035,2.585-3.685h5.829
		c-0.66,2.64-1.925,4.895-3.904,6.654c-2.475,2.145-5.609,3.245-9.404,3.245c-4.18,0-7.534-1.32-9.954-3.905
		c-2.64-2.75-3.959-6.434-3.959-11.108c0-4.234,1.209-7.754,3.739-10.613c2.42-2.915,5.774-4.345,9.954-4.345
		C103.506,18.099,107.081,19.639,109.5,22.828z M93.828,24.808c-1.21,1.265-2.035,3.08-2.365,5.5h15.343
		c-0.55-4.949-3.134-7.424-7.754-7.424C96.852,22.883,95.147,23.488,93.828,24.808z"/>
	<path class="st0" d="M145.085,30.637v4.839h-27.771v-4.839H145.085z"/>
	<path class="st0" d="M172.53,20.573c2.2,1.76,3.63,4.399,4.18,7.919h-5.774c-0.385-1.925-1.155-3.354-2.364-4.234
		c-1.21-0.935-2.805-1.375-4.785-1.375c-2.419,0-4.289,0.88-5.664,2.695c-1.43,1.76-2.09,4.29-2.09,7.479s0.66,5.719,2.035,7.534
		c1.265,1.76,3.135,2.694,5.664,2.694c4.345,0,6.764-2.2,7.314-6.489h5.773c-0.659,3.794-2.145,6.654-4.344,8.524
		c-2.2,1.814-5.17,2.75-8.799,2.75c-4.345,0-7.699-1.43-10.119-4.29c-2.364-2.75-3.52-6.269-3.52-10.668
		c0-4.29,1.155-7.809,3.465-10.559c2.475-2.97,5.884-4.455,10.283-4.455C167.416,18.099,170.331,18.924,172.53,20.573z"/>
	<path class="st0" d="M187.657,7.265v15.618c1.045-1.649,2.365-2.915,3.96-3.684c1.43-0.77,3.024-1.1,4.839-1.1
		c3.409,0,5.994,0.99,7.754,3.024c1.65,1.925,2.475,4.785,2.475,8.524V47.3h-5.829V30.637c0-2.53-0.55-4.399-1.54-5.719
		c-1.1-1.375-2.805-2.035-5.004-2.035c-1.979,0-3.574,0.77-4.784,2.365c-1.265,1.595-1.87,3.63-1.87,6.104V47.3h-5.829V7.265
		H187.657z"/>
	<path class="st0" d="M235.34,21.233c1.704,1.814,2.584,4.454,2.584,7.919V47.3h-5.389v-4.015c-1.1,1.43-2.475,2.585-4.125,3.41
		c-1.869,0.88-4.069,1.375-6.599,1.375c-2.97,0-5.279-0.77-6.929-2.255c-1.815-1.485-2.695-3.41-2.695-5.774
		c0-3.19,1.265-5.665,3.795-7.369c2.31-1.65,5.609-2.475,9.788-2.585l6.38-0.165v-1.155c0-3.959-2.146-5.939-6.435-5.939
		c-1.814,0-3.3,0.33-4.399,0.99c-1.319,0.77-2.145,1.925-2.475,3.52l-5.774-0.495c0.605-3.08,2.145-5.39,4.564-6.819
		c2.09-1.32,4.949-1.925,8.469-1.925C230.28,18.099,233.36,19.144,235.34,21.233z M226.156,34.321c-5.335,0.11-7.975,1.98-7.975,5.5
		c0,1.1,0.44,1.98,1.375,2.695c0.88,0.715,2.09,1.1,3.574,1.1c2.475,0,4.564-0.77,6.324-2.255c1.76-1.484,2.695-3.354,2.695-5.554
		v-1.649L226.156,34.321z"/>
	<path class="st0" d="M269.604,29.757V47.3h-5.829V30.252c0-4.839-2.255-7.259-6.654-7.259c-1.649,0-3.135,0.55-4.344,1.76
		c-1.32,1.32-2.146,3.134-2.365,5.444V47.3h-5.829V18.869h5.829v3.52c1.1-1.43,2.365-2.475,3.795-3.189
		c1.43-0.77,3.024-1.1,4.784-1.1C266.029,18.099,269.604,21.948,269.604,29.757z"/>
	<path class="st0" d="M296.773,22.663v-3.794h5.829V45.43c0,9.019-4.454,13.528-13.253,13.528c-3.96,0-6.984-0.77-9.074-2.254
		c-2.09-1.54-3.354-3.85-3.904-6.984h5.829c0.33,1.649,0.99,2.859,2.09,3.574c1.045,0.66,2.75,1.045,5.06,1.045
		c4.949,0,7.424-2.695,7.424-8.029v-4.399c-2.09,3.134-4.949,4.729-8.688,4.729c-3.85,0-6.984-1.319-9.349-3.904
		c-2.42-2.584-3.575-5.994-3.575-10.284s1.155-7.699,3.575-10.338c2.364-2.695,5.499-4.015,9.349-4.015
		C291.824,18.099,294.684,19.583,296.773,22.663z M283.245,25.413c-1.43,1.65-2.09,4.015-2.09,7.039c0,2.75,0.55,4.95,1.65,6.544
		c1.265,1.87,3.299,2.859,6.159,2.859c2.475,0,4.399-0.825,5.829-2.475c1.319-1.705,2.034-4.015,2.034-6.929
		c0-2.969-0.715-5.334-2.034-7.039c-1.43-1.76-3.354-2.584-5.829-2.584S284.565,23.653,283.245,25.413z"/>
	<path class="st0" d="M316.245,8.585c0.77,0.715,1.155,1.65,1.155,2.805s-0.44,2.09-1.21,2.859c-0.771,0.715-1.76,1.1-2.86,1.1
		c-1.154,0-2.089-0.385-2.859-1.1c-0.77-0.77-1.154-1.76-1.154-2.859c0-1.155,0.385-2.09,1.154-2.805
		c0.771-0.77,1.705-1.1,2.859-1.1C314.485,7.485,315.476,7.815,316.245,8.585z M316.245,18.869V47.3h-5.829V18.869H316.245z"/>
	<path class="st0" d="M349.132,29.757V47.3h-5.829V30.252c0-4.839-2.254-7.259-6.654-7.259c-1.649,0-3.134,0.55-4.344,1.76
		c-1.32,1.32-2.145,3.134-2.365,5.444V47.3h-5.829V18.869h5.829v3.52c1.101-1.43,2.365-2.475,3.795-3.189
		c1.43-0.77,3.024-1.1,4.784-1.1C345.558,18.099,349.132,21.948,349.132,29.757z"/>
	<path class="st0" d="M376.302,22.663v-3.794h5.829V45.43c0,9.019-4.454,13.528-13.253,13.528c-3.959,0-6.984-0.77-9.073-2.254
		c-2.09-1.54-3.355-3.85-3.905-6.984h5.829c0.33,1.649,0.99,2.859,2.09,3.574c1.045,0.66,2.75,1.045,5.06,1.045
		c4.949,0,7.424-2.695,7.424-8.029v-4.399c-2.09,3.134-4.949,4.729-8.688,4.729c-3.85,0-6.984-1.319-9.349-3.904
		c-2.42-2.584-3.575-5.994-3.575-10.284s1.155-7.699,3.575-10.338c2.364-2.695,5.499-4.015,9.349-4.015
		C371.353,18.099,374.212,19.583,376.302,22.663z M362.773,25.413c-1.43,1.65-2.089,4.015-2.089,7.039c0,2.75,0.55,4.95,1.649,6.544
		c1.265,1.87,3.3,2.859,6.159,2.859c2.475,0,4.399-0.825,5.829-2.475c1.32-1.705,2.035-4.015,2.035-6.929
		c0-2.969-0.715-5.334-2.035-7.039c-1.43-1.76-3.354-2.584-5.829-2.584S364.094,23.653,362.773,25.413z"/>
</g>
</svg>