<!-- Generator: Adobe Illustrator 22.0.1, SVG Export Plug-In  -->
<svg version="1.1"
	 xmlns="http://www.w3.org/2000/svg" xmlns:xlink="http://www.w3.org/1999/xlink" xmlns:a="http://ns.adobe.com/AdobeSVGViewerExtensions/3.0/"
	 x="0px" y="0px" width="726.435px" height="462.758px" viewBox="0 0 726.435 462.758"
	 style="enable-background:new 0 0 726.435 462.758;" xml:space="preserve">
<style type="text/css">
	.st0{fill:none;}
	.st1{fill:#F6F6F6;}
	.st2{font-family:'PingFangTC-Regular-B5pc-H';}
	.st3{font-size:36px;}
</style>
<defs>
</defs>
<g>
	<rect x="0" y="4.752" class="st0" width="726.434" height="458.007"/>
	<path class="st1" d="M26.91,5.26v25.7h-2.916V5.26H26.91z"/>
	<path class="st1" d="M45.917,15.374c0.72-1.224,1.584-2.124,2.592-2.663c0.9-0.576,1.98-0.865,3.276-0.865
		c1.943,0,3.491,0.613,4.715,1.836c1.152,1.26,1.764,2.952,1.764,5.076V30.96h-2.88V19.226c0-1.655-0.36-2.88-1.043-3.672
		c-0.72-0.864-1.872-1.26-3.456-1.26c-1.224,0-2.268,0.433-3.06,1.368c-0.864,0.936-1.26,2.123-1.26,3.635V30.96h-2.879V19.226
		c0-3.312-1.44-4.932-4.284-4.932c-1.332,0-2.412,0.504-3.275,1.584c-0.864,1.008-1.296,2.268-1.296,3.743V30.96h-2.879V12.35h2.879
		v2.484c1.404-2.016,3.167-2.988,5.255-2.988C42.929,11.846,44.873,12.998,45.917,15.374z"/>
	<path class="st1" d="M76.732,13.934c1.08,1.225,1.656,2.916,1.656,5.076v11.95h-2.7v-3.132c-0.72,1.008-1.691,1.836-2.843,2.484
		c-1.368,0.756-2.916,1.151-4.644,1.151c-1.872,0-3.348-0.468-4.463-1.403c-1.152-0.973-1.728-2.232-1.728-3.744
		c0-2.123,0.828-3.707,2.556-4.787c1.512-1.008,3.672-1.548,6.479-1.584l4.463-0.072v-0.972c0-3.132-1.62-4.679-4.859-4.679
		c-1.368,0-2.484,0.252-3.348,0.827c-0.972,0.576-1.584,1.476-1.872,2.663l-2.843-0.215c0.396-1.944,1.368-3.42,2.879-4.355
		c1.368-0.864,3.132-1.297,5.363-1.297C73.493,11.846,75.437,12.53,76.732,13.934z M71.225,22.105
		c-4.175,0.072-6.263,1.439-6.263,4.139c0,0.864,0.324,1.549,1.044,2.124c0.72,0.54,1.656,0.828,2.808,0.828
		c1.764,0,3.312-0.576,4.679-1.728c1.332-1.116,2.016-2.412,2.016-3.852v-1.584L71.225,22.105z"/>
	<path class="st1" d="M96.784,15.554V12.35h2.879v17.314c0,5.939-2.844,8.927-8.495,8.927c-2.52,0-4.464-0.504-5.759-1.512
		c-1.332-1.008-2.16-2.52-2.484-4.535h2.88c0.216,1.26,0.756,2.195,1.583,2.771c0.828,0.612,2.088,0.937,3.78,0.937
		c3.743,0,5.615-2.088,5.615-6.191v-3.275c-1.368,2.482-3.456,3.742-6.263,3.742c-2.592,0-4.644-0.899-6.155-2.663
		c-1.512-1.728-2.232-3.923-2.232-6.623c0-2.735,0.72-4.932,2.232-6.659c1.512-1.836,3.563-2.736,6.155-2.736
		C93.329,11.846,95.416,13.07,96.784,15.554z M86.597,16.238c-1.008,1.223-1.512,2.915-1.512,5.003c0,1.944,0.432,3.563,1.332,4.788
		c1.008,1.367,2.483,2.087,4.5,2.087c1.872,0,3.312-0.647,4.391-1.944c1.008-1.26,1.512-2.915,1.512-4.931
		c0-2.088-0.504-3.78-1.512-5.003c-1.08-1.368-2.52-2.016-4.355-2.016C89.081,14.223,87.641,14.87,86.597,16.238z"/>
	<path class="st1" d="M118.563,14.87c1.368,1.8,2.087,4.355,2.16,7.595h-14.686c0.144,2.088,0.684,3.707,1.691,4.859
		c1.008,1.152,2.412,1.729,4.176,1.729c1.512,0,2.771-0.396,3.708-1.152c0.792-0.648,1.404-1.619,1.872-2.916h2.88
		c-0.432,1.801-1.26,3.24-2.52,4.392c-1.547,1.368-3.527,2.088-5.939,2.088c-2.664,0-4.823-0.899-6.407-2.628
		c-1.656-1.799-2.448-4.176-2.448-7.199c0-2.735,0.756-5.039,2.34-6.875c1.583-1.943,3.708-2.916,6.407-2.916
		C114.784,11.846,117.052,12.854,118.563,14.87z M107.873,15.878c-1.008,1.079-1.583,2.52-1.764,4.355h11.626
		c-0.36-3.995-2.339-5.976-5.867-5.976C110.212,14.258,108.88,14.798,107.873,15.878z"/>
	<path class="st1" d="M138.327,17.642h-2.808c-0.252-1.151-0.72-2.016-1.439-2.52c-0.792-0.576-1.944-0.864-3.42-0.864
		c-1.295,0-2.304,0.217-3.023,0.721c-0.792,0.467-1.188,1.115-1.188,1.943c0,0.791,0.504,1.476,1.584,2.016
		c0.684,0.324,1.979,0.72,3.852,1.224c2.231,0.54,3.815,1.116,4.787,1.728c1.476,0.937,2.232,2.196,2.232,3.816
		c0,3.814-2.627,5.759-7.883,5.759c-4.896,0-7.559-2.159-7.991-6.443h2.808c0.216,1.476,0.756,2.521,1.548,3.168
		c0.792,0.575,1.98,0.864,3.563,0.864c3.312,0,5.003-1.08,5.003-3.168c0-1.044-0.612-1.836-1.764-2.412
		c-0.612-0.287-1.944-0.684-3.959-1.188c-2.196-0.54-3.744-1.08-4.607-1.656c-1.44-0.863-2.124-2.051-2.124-3.635
		s0.684-2.809,2.088-3.744c1.296-0.936,3.023-1.404,5.111-1.404C135.303,11.846,137.823,13.754,138.327,17.642z"/>
	<path class="st1" d="M155.392,12.35l4.571,15.083l4.319-15.083h2.7l4.32,15.083l4.571-15.083h3.167l-6.335,18.61h-2.736
		l-4.319-14.974l-4.392,14.974h-2.7l-6.335-18.61H155.392z"/>
	<path class="st1" d="M195.89,14.87c1.368,1.8,2.087,4.355,2.16,7.595h-14.686c0.144,2.088,0.684,3.707,1.691,4.859
		c1.008,1.152,2.412,1.729,4.176,1.729c1.512,0,2.771-0.396,3.708-1.152c0.792-0.648,1.404-1.619,1.872-2.916h2.88
		c-0.432,1.801-1.26,3.24-2.52,4.392c-1.548,1.368-3.527,2.088-5.939,2.088c-2.664,0-4.824-0.899-6.407-2.628
		c-1.656-1.799-2.448-4.176-2.448-7.199c0-2.735,0.756-5.039,2.34-6.875c1.583-1.943,3.708-2.916,6.407-2.916
		C192.11,11.846,194.378,12.854,195.89,14.87z M185.199,15.878c-1.008,1.079-1.583,2.52-1.764,4.355h11.626
		c-0.36-3.995-2.339-5.976-5.867-5.976C187.539,14.258,186.207,14.798,185.199,15.878z"/>
	<path class="st1" d="M227.642,17.642h-2.808c-0.252-1.151-0.72-2.016-1.439-2.52c-0.792-0.576-1.944-0.864-3.42-0.864
		c-1.296,0-2.304,0.217-3.023,0.721c-0.792,0.467-1.188,1.115-1.188,1.943c0,0.791,0.504,1.476,1.584,2.016
		c0.684,0.324,1.979,0.72,3.852,1.224c2.231,0.54,3.815,1.116,4.787,1.728c1.476,0.937,2.232,2.196,2.232,3.816
		c0,3.814-2.628,5.759-7.883,5.759c-4.896,0-7.559-2.159-7.991-6.443h2.808c0.216,1.476,0.756,2.521,1.548,3.168
		c0.792,0.575,1.979,0.864,3.563,0.864c3.312,0,5.003-1.08,5.003-3.168c0-1.044-0.612-1.836-1.764-2.412
		c-0.612-0.287-1.944-0.684-3.959-1.188c-2.196-0.54-3.744-1.08-4.607-1.656c-1.44-0.863-2.124-2.051-2.124-3.635
		s0.684-2.809,2.088-3.744c1.296-0.936,3.023-1.404,5.111-1.404C224.618,11.846,227.138,13.754,227.642,17.642z"/>
	<path class="st1" d="M246.038,14.87c1.368,1.8,2.087,4.355,2.16,7.595h-14.686c0.144,2.088,0.684,3.707,1.691,4.859
		c1.008,1.152,2.412,1.729,4.176,1.729c1.512,0,2.771-0.396,3.708-1.152c0.792-0.648,1.404-1.619,1.872-2.916h2.88
		c-0.432,1.801-1.26,3.24-2.52,4.392c-1.548,1.368-3.527,2.088-5.939,2.088c-2.664,0-4.824-0.899-6.407-2.628
		c-1.656-1.799-2.448-4.176-2.448-7.199c0-2.735,0.756-5.039,2.34-6.875c1.583-1.943,3.708-2.916,6.407-2.916
		C242.258,11.846,244.526,12.854,246.038,14.87z M235.347,15.878c-1.008,1.079-1.583,2.52-1.764,4.355h11.626
		c-0.36-3.995-2.339-5.976-5.867-5.976C237.687,14.258,236.354,14.798,235.347,15.878z"/>
	<path class="st1" d="M266.018,14.87c1.368,1.8,2.087,4.355,2.16,7.595h-14.686c0.144,2.088,0.684,3.707,1.691,4.859
		c1.008,1.152,2.412,1.729,4.176,1.729c1.512,0,2.771-0.396,3.708-1.152c0.792-0.648,1.404-1.619,1.872-2.916h2.88
		c-0.432,1.801-1.26,3.24-2.52,4.392c-1.547,1.368-3.527,2.088-5.939,2.088c-2.664,0-4.823-0.899-6.407-2.628
		c-1.656-1.799-2.448-4.176-2.448-7.199c0-2.735,0.756-5.039,2.34-6.875c1.583-1.943,3.708-2.916,6.407-2.916
		C262.238,11.846,264.506,12.854,266.018,14.87z M255.327,15.878c-1.008,1.079-1.583,2.52-1.764,4.355h11.626
		c-0.36-3.995-2.339-5.976-5.867-5.976C257.667,14.258,256.334,14.798,255.327,15.878z"/>
	<path class="st1" d="M287.474,5.943c0.432,0.359,0.648,0.863,0.648,1.512c0,0.611-0.216,1.115-0.648,1.548
		c-0.432,0.396-0.936,0.612-1.548,0.612s-1.116-0.217-1.548-0.612c-0.432-0.433-0.612-0.937-0.612-1.548
		c0-0.648,0.18-1.152,0.612-1.512c0.432-0.432,0.936-0.612,1.548-0.612S287.042,5.512,287.474,5.943z M287.366,12.35v18.61h-2.88
		V12.35H287.366z"/>
	<path class="st1" d="M308.424,19.514V30.96h-2.879v-11.23c0-3.636-1.656-5.436-4.896-5.436c-1.296,0-2.412,0.468-3.348,1.403
		c-1.008,1.008-1.548,2.34-1.656,4.032v11.23h-2.879V12.35h2.879v2.736c0.648-1.044,1.476-1.836,2.484-2.375
		c1.008-0.576,2.124-0.865,3.348-0.865C306.085,11.846,308.424,14.402,308.424,19.514z"/>
	<path class="st1" d="M340.104,14.834c1.404,1.8,2.124,4.067,2.124,6.875c0,2.736-0.72,5.004-2.088,6.803
		c-1.512,1.944-3.563,2.952-6.227,2.952s-4.715-1.296-6.155-3.888v10.511h-2.879V12.35h2.699v3.061
		c1.332-2.376,3.384-3.564,6.191-3.564C336.432,11.846,338.556,12.818,340.104,14.834z M329.053,16.418
		c-0.936,1.295-1.404,3.023-1.404,5.111v0.359c0,2.16,0.504,3.889,1.584,5.22c1.008,1.296,2.339,1.979,4.067,1.979
		c2.016,0,3.527-0.72,4.571-2.088c0.936-1.295,1.404-3.059,1.404-5.291c0-2.195-0.468-3.959-1.332-5.256
		c-1.043-1.512-2.556-2.23-4.535-2.23C331.537,14.223,330.061,14.941,329.053,16.418z"/>
	<path class="st1" d="M359.976,13.934c1.08,1.225,1.656,2.916,1.656,5.076v11.95h-2.7v-3.132c-0.72,1.008-1.691,1.836-2.843,2.484
		c-1.368,0.756-2.916,1.151-4.644,1.151c-1.872,0-3.348-0.468-4.463-1.403c-1.152-0.973-1.728-2.232-1.728-3.744
		c0-2.123,0.828-3.707,2.556-4.787c1.512-1.008,3.672-1.548,6.479-1.584l4.463-0.072v-0.972c0-3.132-1.62-4.679-4.859-4.679
		c-1.368,0-2.484,0.252-3.348,0.827c-0.972,0.576-1.584,1.476-1.872,2.663l-2.843-0.215c0.396-1.944,1.368-3.42,2.879-4.355
		c1.368-0.864,3.132-1.297,5.363-1.297C356.736,11.846,358.68,12.53,359.976,13.934z M354.469,22.105
		c-4.175,0.072-6.263,1.439-6.263,4.139c0,0.864,0.324,1.549,1.044,2.124c0.72,0.54,1.656,0.828,2.808,0.828
		c1.764,0,3.312-0.576,4.679-1.728c1.332-1.116,2.016-2.412,2.016-3.852v-1.584L354.469,22.105z"/>
	<path class="st1" d="M370.021,5.943c0.433,0.359,0.648,0.863,0.648,1.512c0,0.611-0.216,1.115-0.648,1.548
		c-0.432,0.396-0.936,0.612-1.548,0.612c-0.611,0-1.115-0.217-1.548-0.612c-0.432-0.433-0.612-0.937-0.612-1.548
		c0-0.648,0.18-1.152,0.612-1.512c0.433-0.432,0.937-0.612,1.548-0.612C369.085,5.331,369.589,5.512,370.021,5.943z M369.914,12.35
		v18.61h-2.88V12.35H369.914z"/>
	<path class="st1" d="M390.971,19.514V30.96h-2.879v-11.23c0-3.636-1.656-5.436-4.896-5.436c-1.296,0-2.412,0.468-3.348,1.403
		c-1.008,1.008-1.548,2.34-1.656,4.032v11.23h-2.879V12.35h2.879v2.736c0.648-1.044,1.477-1.836,2.484-2.375
		c1.008-0.576,2.123-0.865,3.348-0.865C388.632,11.846,390.971,14.402,390.971,19.514z"/>
	<path class="st1" d="M400.405,12.35h4.607v2.412h-4.607v11.843c0,0.685,0.107,1.188,0.396,1.476
		c0.252,0.288,0.72,0.469,1.368,0.469h2.375v2.411h-2.808c-1.512,0-2.627-0.396-3.275-1.188c-0.611-0.719-0.899-1.764-0.899-3.167
		V14.762h-3.744V12.35h3.744V7.527l2.844-1.188V12.35z"/>
	<path class="st1" d="M412.14,5.943c0.433,0.359,0.648,0.863,0.648,1.512c0,0.611-0.216,1.115-0.648,1.548
		c-0.432,0.396-0.936,0.612-1.548,0.612c-0.611,0-1.115-0.217-1.548-0.612c-0.432-0.433-0.611-0.937-0.611-1.548
		c0-0.648,0.18-1.152,0.611-1.512c0.433-0.432,0.937-0.612,1.548-0.612C411.205,5.331,411.708,5.512,412.14,5.943z M412.033,12.35
		v18.61h-2.88V12.35H412.033z"/>
	<path class="st1" d="M433.09,19.514V30.96h-2.879v-11.23c0-3.636-1.656-5.436-4.896-5.436c-1.296,0-2.412,0.468-3.348,1.403
		c-1.008,1.008-1.548,2.34-1.656,4.032v11.23h-2.879V12.35h2.879v2.736c0.648-1.044,1.477-1.836,2.484-2.375
		c1.008-0.576,2.123-0.865,3.348-0.865C430.751,11.846,433.09,14.402,433.09,19.514z"/>
	<path class="st1" d="M451.487,15.554V12.35h2.879v17.314c0,5.939-2.844,8.927-8.494,8.927c-2.521,0-4.464-0.504-5.76-1.512
		c-1.332-1.008-2.16-2.52-2.483-4.535h2.88c0.216,1.26,0.756,2.195,1.583,2.771c0.828,0.612,2.088,0.937,3.78,0.937
		c3.743,0,5.615-2.088,5.615-6.191v-3.275c-1.368,2.482-3.456,3.742-6.264,3.742c-2.592,0-4.644-0.899-6.155-2.663
		c-1.512-1.728-2.231-3.923-2.231-6.623c0-2.735,0.72-4.932,2.231-6.659c1.512-1.836,3.563-2.736,6.155-2.736
		C448.031,11.846,450.119,13.07,451.487,15.554z M441.299,16.238c-1.008,1.223-1.512,2.915-1.512,5.003
		c0,1.944,0.433,3.563,1.332,4.788c1.008,1.367,2.483,2.087,4.5,2.087c1.871,0,3.312-0.647,4.391-1.944
		c1.008-1.26,1.512-2.915,1.512-4.931c0-2.088-0.504-3.78-1.512-5.003c-1.079-1.368-2.52-2.016-4.355-2.016
		C443.784,14.223,442.343,14.87,441.299,16.238z"/>
	<path class="st1" d="M473.049,17.642h-2.808c-0.252-1.151-0.72-2.016-1.439-2.52c-0.792-0.576-1.943-0.864-3.42-0.864
		c-1.295,0-2.304,0.217-3.023,0.721c-0.792,0.467-1.188,1.115-1.188,1.943c0,0.791,0.504,1.476,1.584,2.016
		c0.684,0.324,1.979,0.72,3.852,1.224c2.231,0.54,3.815,1.116,4.787,1.728c1.476,0.937,2.231,2.196,2.231,3.816
		c0,3.814-2.627,5.759-7.883,5.759c-4.896,0-7.559-2.159-7.991-6.443h2.808c0.216,1.476,0.756,2.521,1.548,3.168
		c0.792,0.575,1.98,0.864,3.563,0.864c3.312,0,5.004-1.08,5.004-3.168c0-1.044-0.612-1.836-1.764-2.412
		c-0.612-0.287-1.944-0.684-3.96-1.188c-2.195-0.54-3.743-1.08-4.607-1.656c-1.439-0.863-2.124-2.051-2.124-3.635
		s0.685-2.809,2.088-3.744c1.296-0.936,3.023-1.404,5.111-1.404C470.026,11.846,472.545,13.754,473.049,17.642z"/>
	<path class="st1" d="M503.001,13.934c1.08,1.225,1.655,2.916,1.655,5.076v11.95h-2.699v-3.132c-0.72,1.008-1.691,1.836-2.844,2.484
		c-1.368,0.756-2.916,1.151-4.644,1.151c-1.872,0-3.348-0.468-4.463-1.403c-1.152-0.973-1.729-2.232-1.729-3.744
		c0-2.123,0.828-3.707,2.556-4.787c1.512-1.008,3.672-1.548,6.479-1.584l4.464-0.072v-0.972c0-3.132-1.62-4.679-4.859-4.679
		c-1.368,0-2.484,0.252-3.348,0.827c-0.973,0.576-1.584,1.476-1.872,2.663l-2.844-0.215c0.396-1.944,1.368-3.42,2.88-4.355
		c1.368-0.864,3.132-1.297,5.363-1.297C499.761,11.846,501.706,12.53,503.001,13.934z M497.494,22.105
		c-4.175,0.072-6.263,1.439-6.263,4.139c0,0.864,0.324,1.549,1.044,2.124c0.72,0.54,1.655,0.828,2.808,0.828
		c1.764,0,3.312-0.576,4.679-1.728c1.332-1.116,2.017-2.412,2.017-3.852v-1.584L497.494,22.105z"/>
	<path class="st1" d="M519.849,12.278v2.88c-0.936-0.288-1.872-0.396-2.771-0.396c-1.439,0-2.664,0.612-3.636,1.908
		c-1.008,1.224-1.476,2.699-1.476,4.428v9.862h-2.844V12.35h2.844v3.24c0.504-1.08,1.151-1.943,1.943-2.556
		c0.973-0.792,2.088-1.188,3.384-1.188C518.301,11.846,519.166,11.99,519.849,12.278z"/>
	<path class="st1" d="M536.697,14.87c1.367,1.8,2.087,4.355,2.159,7.595H524.17c0.144,2.088,0.684,3.707,1.691,4.859
		s2.412,1.729,4.176,1.729c1.512,0,2.771-0.396,3.707-1.152c0.792-0.648,1.404-1.619,1.872-2.916h2.88
		c-0.433,1.801-1.26,3.24-2.521,4.392c-1.547,1.368-3.527,2.088-5.938,2.088c-2.664,0-4.823-0.899-6.407-2.628
		c-1.656-1.799-2.448-4.176-2.448-7.199c0-2.735,0.756-5.039,2.34-6.875c1.584-1.943,3.708-2.916,6.407-2.916
		C532.917,11.846,535.185,12.854,536.697,14.87z M526.005,15.878c-1.008,1.079-1.583,2.52-1.764,4.355h11.627
		c-0.36-3.995-2.34-5.976-5.867-5.976C528.345,14.258,527.013,14.798,526.005,15.878z"/>
	<path class="st1" d="M568.232,13.934c1.08,1.225,1.655,2.916,1.655,5.076v11.95h-2.699v-3.132c-0.72,1.008-1.691,1.836-2.844,2.484
		c-1.368,0.756-2.916,1.151-4.644,1.151c-1.872,0-3.348-0.468-4.463-1.403c-1.152-0.973-1.729-2.232-1.729-3.744
		c0-2.123,0.828-3.707,2.556-4.787c1.512-1.008,3.672-1.548,6.479-1.584l4.464-0.072v-0.972c0-3.132-1.62-4.679-4.859-4.679
		c-1.368,0-2.484,0.252-3.348,0.827c-0.973,0.576-1.584,1.476-1.872,2.663l-2.844-0.215c0.396-1.944,1.368-3.42,2.88-4.355
		c1.368-0.864,3.132-1.297,5.363-1.297C564.992,11.846,566.936,12.53,568.232,13.934z M562.724,22.105
		c-4.175,0.072-6.263,1.439-6.263,4.139c0,0.864,0.324,1.549,1.044,2.124c0.72,0.54,1.655,0.828,2.808,0.828
		c1.764,0,3.312-0.576,4.679-1.728c1.332-1.116,2.017-2.412,2.017-3.852v-1.584L562.724,22.105z"/>
	<path class="st1" d="M577.773,4.756V30.96h-2.844V4.756H577.773z"/>
	<path class="st1" d="M583.928,12.35l4.571,15.083l4.319-15.083h2.7l4.319,15.083l4.571-15.083h3.168l-6.335,18.61h-2.736
		l-4.319-14.974l-4.392,14.974h-2.699l-6.335-18.61H583.928z"/>
	<path class="st1" d="M623.995,13.934c1.08,1.225,1.655,2.916,1.655,5.076v11.95h-2.699v-3.132c-0.72,1.008-1.691,1.836-2.844,2.484
		c-1.368,0.756-2.916,1.151-4.644,1.151c-1.872,0-3.348-0.468-4.463-1.403c-1.152-0.973-1.729-2.232-1.729-3.744
		c0-2.123,0.828-3.707,2.556-4.787c1.512-1.008,3.672-1.548,6.479-1.584l4.464-0.072v-0.972c0-3.132-1.62-4.679-4.859-4.679
		c-1.368,0-2.484,0.252-3.348,0.827c-0.973,0.576-1.584,1.476-1.872,2.663l-2.844-0.215c0.396-1.944,1.368-3.42,2.88-4.355
		c1.368-0.864,3.132-1.297,5.363-1.297C620.754,11.846,622.699,12.53,623.995,13.934z M618.487,22.105
		c-4.175,0.072-6.263,1.439-6.263,4.139c0,0.864,0.324,1.549,1.044,2.124c0.72,0.54,1.655,0.828,2.808,0.828
		c1.764,0,3.312-0.576,4.679-1.728c1.332-1.116,2.017-2.412,2.017-3.852v-1.584L618.487,22.105z"/>
	<path class="st1" d="M631.196,12.35l5.688,14.688l5.507-14.688h3.168l-10.187,25.737h-3.132l3.203-7.56l-7.379-18.178H631.196z"/>
	<path class="st1" d="M662.189,17.642h-2.808c-0.252-1.151-0.72-2.016-1.439-2.52c-0.792-0.576-1.943-0.864-3.42-0.864
		c-1.295,0-2.304,0.217-3.023,0.721c-0.792,0.467-1.188,1.115-1.188,1.943c0,0.791,0.504,1.476,1.584,2.016
		c0.684,0.324,1.979,0.72,3.852,1.224c2.231,0.54,3.815,1.116,4.787,1.728c1.476,0.937,2.231,2.196,2.231,3.816
		c0,3.814-2.627,5.759-7.883,5.759c-4.896,0-7.559-2.159-7.991-6.443h2.808c0.216,1.476,0.756,2.521,1.548,3.168
		c0.792,0.575,1.98,0.864,3.563,0.864c3.312,0,5.004-1.08,5.004-3.168c0-1.044-0.612-1.836-1.764-2.412
		c-0.612-0.287-1.944-0.684-3.96-1.188c-2.195-0.54-3.743-1.08-4.607-1.656c-1.439-0.863-2.124-2.051-2.124-3.635
		s0.685-2.809,2.088-3.744c1.296-0.936,3.023-1.404,5.111-1.404C659.166,11.846,661.685,13.754,662.189,17.642z"/>
	<path class="st1" d="M682.062,5.943c0.433,0.359,0.648,0.863,0.648,1.512c0,0.611-0.216,1.115-0.648,1.548
		c-0.432,0.396-0.936,0.612-1.548,0.612c-0.611,0-1.115-0.217-1.548-0.612c-0.432-0.433-0.611-0.937-0.611-1.548
		c0-0.648,0.18-1.152,0.611-1.512c0.433-0.432,0.937-0.612,1.548-0.612C681.126,5.331,681.63,5.512,682.062,5.943z M681.955,12.35
		v18.61h-2.88V12.35H681.955z"/>
	<path class="st1" d="M703.012,19.514V30.96h-2.879v-11.23c0-3.636-1.656-5.436-4.896-5.436c-1.296,0-2.412,0.468-3.348,1.403
		c-1.008,1.008-1.548,2.34-1.656,4.032v11.23h-2.879V12.35h2.879v2.736c0.648-1.044,1.477-1.836,2.484-2.375
		c1.008-0.576,2.123-0.865,3.348-0.865C700.673,11.846,703.012,14.402,703.012,19.514z"/>
	<path class="st1" d="M63.465,77.642h-2.808c-0.252-1.151-0.72-2.016-1.439-2.52c-0.792-0.576-1.944-0.864-3.42-0.864
		c-1.295,0-2.304,0.217-3.023,0.721c-0.792,0.467-1.188,1.115-1.188,1.943c0,0.791,0.504,1.476,1.584,2.016
		c0.684,0.324,1.979,0.72,3.852,1.224c2.231,0.54,3.815,1.116,4.787,1.728c1.476,0.937,2.232,2.196,2.232,3.816
		c0,3.814-2.627,5.759-7.883,5.759c-4.896,0-7.559-2.159-7.991-6.443h2.808c0.216,1.476,0.756,2.521,1.548,3.168
		c0.792,0.575,1.98,0.864,3.563,0.864c3.312,0,5.003-1.08,5.003-3.168c0-1.044-0.612-1.836-1.764-2.412
		c-0.612-0.287-1.944-0.684-3.959-1.188c-2.196-0.54-3.744-1.08-4.607-1.656c-1.44-0.863-2.124-2.051-2.124-3.635
		s0.684-2.809,2.088-3.744c1.296-0.936,3.023-1.404,5.111-1.404C60.442,71.846,62.961,73.754,63.465,77.642z"/>
	<path class="st1" d="M72.395,72.35h4.607v2.412h-4.607v11.843c0,0.685,0.108,1.188,0.396,1.476c0.252,0.288,0.72,0.469,1.368,0.469
		h2.375v2.411h-2.808c-1.512,0-2.627-0.396-3.275-1.188c-0.612-0.719-0.9-1.764-0.9-3.167V74.762h-3.744V72.35h3.744v-4.822
		l2.844-1.188V72.35z"/>
	<path class="st1" d="M95.181,74.727c1.583,1.836,2.375,4.139,2.375,6.947c0,2.771-0.792,5.074-2.34,6.875
		c-1.691,1.943-3.923,2.915-6.695,2.915c-2.808,0-5.003-0.972-6.659-2.915c-1.584-1.801-2.376-4.104-2.376-6.875
		c0-2.809,0.792-5.111,2.376-6.947c1.656-1.944,3.852-2.881,6.659-2.881C91.293,71.846,93.525,72.782,95.181,74.727z M83.915,76.525
		c-1.008,1.368-1.476,3.061-1.476,5.148c0,2.051,0.468,3.742,1.476,5.111c1.08,1.512,2.627,2.268,4.607,2.268
		c1.943,0,3.491-0.756,4.643-2.268c0.972-1.369,1.476-3.096,1.476-5.111c0-2.088-0.504-3.78-1.476-5.148
		c-1.152-1.512-2.7-2.268-4.643-2.268C86.542,74.258,84.994,75.014,83.915,76.525z"/>
	<path class="st1" d="M116.529,74.834c1.404,1.8,2.124,4.067,2.124,6.875c0,2.736-0.72,5.004-2.088,6.803
		c-1.512,1.944-3.563,2.952-6.227,2.952s-4.715-1.296-6.155-3.888v10.511h-2.879V72.35h2.699v3.061
		c1.332-2.376,3.384-3.564,6.191-3.564C112.857,71.846,114.981,72.818,116.529,74.834z M105.479,76.418
		c-0.936,1.295-1.404,3.023-1.404,5.111v0.359c0,2.16,0.504,3.889,1.584,5.22c1.008,1.296,2.339,1.979,4.067,1.979
		c2.016,0,3.527-0.72,4.571-2.088c0.936-1.295,1.404-3.059,1.404-5.291c0-2.195-0.468-3.959-1.332-5.256
		c-1.043-1.512-2.556-2.23-4.535-2.23C107.962,74.223,106.486,74.941,105.479,76.418z"/>
	<path class="st1" d="M148.353,75.374c0.72-1.224,1.584-2.124,2.592-2.663c0.9-0.576,1.98-0.865,3.276-0.865
		c1.943,0,3.491,0.613,4.715,1.836c1.152,1.26,1.764,2.952,1.764,5.076V90.96h-2.88V79.226c0-1.655-0.36-2.88-1.043-3.672
		c-0.72-0.864-1.872-1.26-3.456-1.26c-1.224,0-2.268,0.433-3.06,1.368c-0.864,0.936-1.26,2.123-1.26,3.635V90.96h-2.879V79.226
		c0-3.312-1.44-4.932-4.284-4.932c-1.332,0-2.412,0.504-3.275,1.584c-0.864,1.008-1.296,2.268-1.296,3.743V90.96h-2.879V72.35h2.879
		v2.484c1.404-2.016,3.167-2.988,5.255-2.988C145.365,71.846,147.309,72.998,148.353,75.374z"/>
	<path class="st1" d="M180.141,74.727c1.583,1.836,2.375,4.139,2.375,6.947c0,2.771-0.792,5.074-2.34,6.875
		c-1.692,1.943-3.923,2.915-6.695,2.915c-2.808,0-5.003-0.972-6.659-2.915c-1.584-1.801-2.376-4.104-2.376-6.875
		c0-2.809,0.792-5.111,2.376-6.947c1.656-1.944,3.852-2.881,6.659-2.881C176.253,71.846,178.484,72.782,180.141,74.727z
		 M168.874,76.525c-1.008,1.368-1.476,3.061-1.476,5.148c0,2.051,0.468,3.742,1.476,5.111c1.08,1.512,2.627,2.268,4.607,2.268
		c1.943,0,3.491-0.756,4.643-2.268c0.972-1.369,1.476-3.096,1.476-5.111c0-2.088-0.504-3.78-1.476-5.148
		c-1.152-1.512-2.7-2.268-4.643-2.268C171.501,74.258,169.954,75.014,168.874,76.525z"/>
	<path class="st1" d="M191.229,72.35h4.607v2.412h-4.607v11.843c0,0.685,0.108,1.188,0.396,1.476
		c0.252,0.288,0.72,0.469,1.368,0.469h2.375v2.411h-2.808c-1.512,0-2.627-0.396-3.275-1.188c-0.612-0.719-0.9-1.764-0.9-3.167
		V74.762h-3.744V72.35h3.744v-4.822l2.844-1.188V72.35z"/>
	<path class="st1" d="M202.965,65.943c0.432,0.359,0.648,0.863,0.648,1.512c0,0.611-0.216,1.115-0.648,1.548
		c-0.432,0.396-0.936,0.612-1.548,0.612s-1.116-0.217-1.548-0.612c-0.432-0.433-0.612-0.937-0.612-1.548
		c0-0.648,0.18-1.152,0.612-1.512c0.432-0.432,0.936-0.612,1.548-0.612S202.533,65.512,202.965,65.943z M202.857,72.35v18.61h-2.88
		V72.35H202.857z"/>
	<path class="st1" d="M223.232,74.727c1.583,1.836,2.375,4.139,2.375,6.947c0,2.771-0.792,5.074-2.34,6.875
		c-1.691,1.943-3.923,2.915-6.695,2.915c-2.808,0-5.003-0.972-6.659-2.915c-1.584-1.801-2.376-4.104-2.376-6.875
		c0-2.809,0.792-5.111,2.376-6.947c1.656-1.944,3.852-2.881,6.659-2.881C219.344,71.846,221.576,72.782,223.232,74.727z
		 M211.965,76.525c-1.008,1.368-1.476,3.061-1.476,5.148c0,2.051,0.468,3.742,1.476,5.111c1.08,1.512,2.627,2.268,4.607,2.268
		c1.943,0,3.491-0.756,4.643-2.268c0.972-1.369,1.476-3.096,1.476-5.111c0-2.088-0.504-3.78-1.476-5.148
		c-1.152-1.512-2.7-2.268-4.643-2.268C214.593,74.258,213.045,75.014,211.965,76.525z"/>
	<path class="st1" d="M245.012,79.514V90.96h-2.879v-11.23c0-3.636-1.656-5.436-4.896-5.436c-1.296,0-2.412,0.468-3.348,1.403
		c-1.008,1.008-1.548,2.34-1.656,4.032v11.23h-2.879V72.35h2.879v2.736c0.648-1.044,1.476-1.836,2.484-2.375
		c1.008-0.576,2.124-0.865,3.347-0.865C242.672,71.846,245.012,74.402,245.012,79.514z"/>
	<path class="st1" d="M263.695,77.642h-2.808c-0.252-1.151-0.72-2.016-1.439-2.52c-0.792-0.576-1.944-0.864-3.42-0.864
		c-1.296,0-2.304,0.217-3.023,0.721c-0.792,0.467-1.188,1.115-1.188,1.943c0,0.791,0.504,1.476,1.584,2.016
		c0.684,0.324,1.979,0.72,3.852,1.224c2.231,0.54,3.815,1.116,4.787,1.728c1.476,0.937,2.232,2.196,2.232,3.816
		c0,3.814-2.628,5.759-7.883,5.759c-4.896,0-7.559-2.159-7.991-6.443h2.808c0.216,1.476,0.756,2.521,1.548,3.168
		c0.792,0.575,1.979,0.864,3.563,0.864c3.312,0,5.003-1.08,5.003-3.168c0-1.044-0.612-1.836-1.764-2.412
		c-0.612-0.287-1.944-0.684-3.959-1.188c-2.196-0.54-3.744-1.08-4.607-1.656c-1.44-0.863-2.124-2.051-2.124-3.635
		s0.684-2.809,2.088-3.744c1.296-0.936,3.023-1.404,5.111-1.404C260.672,71.846,263.191,73.754,263.695,77.642z"/>
	<path class="st1" d="M272.156,87.685c0.468,0.647,0.72,1.476,0.72,2.52c0,1.584-0.468,2.987-1.404,4.212
		c-0.936,1.151-2.196,1.943-3.744,2.34v-1.764c0.936-0.324,1.728-0.865,2.304-1.584c0.54-0.756,0.792-1.549,0.792-2.412
		c-0.18,0.072-0.432,0.145-0.792,0.145c-0.612,0-1.116-0.217-1.548-0.648s-0.648-0.973-0.648-1.584c0-0.684,0.216-1.224,0.684-1.619
		c0.396-0.433,0.936-0.613,1.656-0.613C270.969,86.676,271.652,87,272.156,87.685z"/>
	<path class="st1" d="M292.568,64.756V90.96h-2.844V64.756H292.568z"/>
	<path class="st1" d="M301.532,65.943c0.432,0.359,0.648,0.863,0.648,1.512c0,0.611-0.216,1.115-0.648,1.548
		c-0.432,0.396-0.936,0.612-1.548,0.612s-1.116-0.217-1.548-0.612c-0.432-0.433-0.612-0.937-0.612-1.548
		c0-0.648,0.18-1.152,0.612-1.512c0.432-0.432,0.936-0.612,1.548-0.612S301.1,65.512,301.532,65.943z M301.424,72.35v18.61h-2.88
		V72.35H301.424z"/>
	<path class="st1" d="M309.704,64.756v16.233l9.323-8.64h3.815l-8.207,7.488l8.999,11.122h-3.708l-7.271-9.251l-2.952,2.664v6.587
		h-2.879V64.756H309.704z"/>
	<path class="st1" d="M340.302,74.87c1.368,1.8,2.087,4.355,2.16,7.595h-14.686c0.144,2.088,0.684,3.707,1.691,4.859
		c1.008,1.152,2.412,1.729,4.176,1.729c1.512,0,2.771-0.396,3.708-1.152c0.792-0.648,1.404-1.619,1.872-2.916h2.88
		c-0.432,1.801-1.26,3.24-2.52,4.392c-1.547,1.368-3.527,2.088-5.939,2.088c-2.664,0-4.823-0.899-6.407-2.628
		c-1.656-1.799-2.448-4.176-2.448-7.199c0-2.735,0.756-5.039,2.34-6.875c1.583-1.943,3.708-2.916,6.407-2.916
		C336.522,71.846,338.79,72.854,340.302,74.87z M329.611,75.878c-1.008,1.079-1.583,2.52-1.764,4.355h11.626
		c-0.36-3.995-2.339-5.976-5.867-5.976C331.951,74.258,330.619,74.798,329.611,75.878z"/>
	<path class="st1" d="M371.837,73.934c1.08,1.225,1.655,2.916,1.655,5.076v11.95h-2.699v-3.132c-0.72,1.008-1.691,1.836-2.844,2.484
		c-1.368,0.756-2.916,1.151-4.644,1.151c-1.872,0-3.348-0.468-4.463-1.403c-1.152-0.973-1.728-2.232-1.728-3.744
		c0-2.123,0.828-3.707,2.556-4.787c1.512-1.008,3.672-1.548,6.479-1.584l4.464-0.072v-0.972c0-3.132-1.62-4.679-4.86-4.679
		c-1.368,0-2.484,0.252-3.348,0.827c-0.972,0.576-1.584,1.476-1.872,2.663l-2.843-0.215c0.396-1.944,1.368-3.42,2.879-4.355
		c1.368-0.864,3.132-1.297,5.363-1.297C368.597,71.846,370.542,72.53,371.837,73.934z M366.33,82.105
		c-4.175,0.072-6.263,1.439-6.263,4.139c0,0.864,0.324,1.549,1.044,2.124c0.72,0.54,1.656,0.828,2.808,0.828
		c1.764,0,3.312-0.576,4.679-1.728c1.332-1.116,2.017-2.412,2.017-3.852v-1.584L366.33,82.105z"/>
	<path class="st1" d="M400.961,65.26v2.482h-3.204c-0.792,0-1.403,0.181-1.764,0.613c-0.36,0.396-0.54,1.043-0.54,1.943v2.051h5.255
		v2.412h-5.255V90.96h-2.88V74.762h-4.679V72.35h4.679v-2.123c0-1.584,0.396-2.771,1.188-3.636c0.827-0.899,2.052-1.331,3.635-1.331
		H400.961z"/>
	<path class="st1" d="M414.1,72.278v2.88c-0.936-0.288-1.872-0.396-2.771-0.396c-1.439,0-2.664,0.612-3.636,1.908
		c-1.008,1.224-1.476,2.699-1.476,4.428v9.862h-2.844V72.35h2.844v3.24c0.504-1.08,1.151-1.943,1.943-2.556
		c0.973-0.792,2.088-1.188,3.384-1.188C412.552,71.846,413.417,71.99,414.1,72.278z"/>
	<path class="st1" d="M430.948,74.87c1.367,1.8,2.087,4.355,2.159,7.595h-14.686c0.144,2.088,0.684,3.707,1.691,4.859
		s2.412,1.729,4.176,1.729c1.512,0,2.771-0.396,3.707-1.152c0.792-0.648,1.404-1.619,1.872-2.916h2.88
		c-0.433,1.801-1.26,3.24-2.521,4.392c-1.547,1.368-3.527,2.088-5.938,2.088c-2.664,0-4.823-0.899-6.407-2.628
		c-1.656-1.799-2.448-4.176-2.448-7.199c0-2.735,0.756-5.039,2.34-6.875c1.584-1.943,3.708-2.916,6.407-2.916
		C427.167,71.846,429.436,72.854,430.948,74.87z M420.256,75.878c-1.008,1.079-1.583,2.52-1.764,4.355h11.627
		c-0.36-3.995-2.34-5.976-5.867-5.976C422.596,74.258,421.264,74.798,420.256,75.878z"/>
	<path class="st1" d="M450.927,74.87c1.367,1.8,2.087,4.355,2.159,7.595h-14.686c0.144,2.088,0.684,3.707,1.691,4.859
		s2.412,1.729,4.176,1.729c1.512,0,2.771-0.396,3.707-1.152c0.792-0.648,1.404-1.619,1.872-2.916h2.88
		c-0.433,1.801-1.26,3.24-2.521,4.392c-1.547,1.368-3.527,2.088-5.938,2.088c-2.664,0-4.823-0.899-6.407-2.628
		c-1.656-1.799-2.448-4.176-2.448-7.199c0-2.735,0.756-5.039,2.34-6.875c1.584-1.943,3.708-2.916,6.407-2.916
		C447.147,71.846,449.416,72.854,450.927,74.87z M440.236,75.878c-1.008,1.079-1.583,2.52-1.764,4.355h11.627
		c-0.36-3.995-2.34-5.976-5.867-5.976C442.576,74.258,441.244,74.798,440.236,75.878z"/>
	<path class="st1" d="M470.294,72.35v2.017l-11.41,14.183h11.986v2.411h-15.73v-2.088l11.375-14.11H455.5V72.35H470.294z"/>
	<path class="st1" d="M477.928,65.943c0.432,0.359,0.647,0.863,0.647,1.512c0,0.611-0.216,1.115-0.647,1.548
		c-0.433,0.396-0.937,0.612-1.548,0.612c-0.612,0-1.116-0.217-1.548-0.612c-0.433-0.433-0.612-0.937-0.612-1.548
		c0-0.648,0.18-1.152,0.612-1.512c0.432-0.432,0.936-0.612,1.548-0.612C476.992,65.331,477.496,65.512,477.928,65.943z
		 M477.82,72.35v18.61h-2.88V72.35H477.82z"/>
	<path class="st1" d="M498.878,79.514V90.96h-2.88v-11.23c0-3.636-1.655-5.436-4.896-5.436c-1.296,0-2.411,0.468-3.348,1.403
		c-1.008,1.008-1.548,2.34-1.655,4.032v11.23h-2.88V72.35h2.88v2.736c0.647-1.044,1.476-1.836,2.483-2.375
		c1.008-0.576,2.124-0.865,3.348-0.865C496.539,71.846,498.878,74.402,498.878,79.514z"/>
	<path class="st1" d="M517.274,75.554V72.35h2.88v17.314c0,5.939-2.844,8.927-8.495,8.927c-2.52,0-4.464-0.504-5.759-1.512
		c-1.332-1.008-2.16-2.52-2.484-4.535h2.88c0.216,1.26,0.756,2.195,1.584,2.771c0.828,0.612,2.088,0.937,3.779,0.937
		c3.743,0,5.615-2.088,5.615-6.191v-3.275c-1.368,2.482-3.455,3.742-6.263,3.742c-2.592,0-4.644-0.899-6.155-2.663
		c-1.512-1.728-2.232-3.923-2.232-6.623c0-2.735,0.721-4.932,2.232-6.659c1.512-1.836,3.563-2.736,6.155-2.736
		C513.819,71.846,515.906,73.07,517.274,75.554z M507.087,76.238c-1.008,1.223-1.512,2.915-1.512,5.003
		c0,1.944,0.432,3.563,1.332,4.788c1.008,1.367,2.483,2.087,4.499,2.087c1.872,0,3.312-0.647,4.392-1.944
		c1.008-1.26,1.512-2.915,1.512-4.931c0-2.088-0.504-3.78-1.512-5.003c-1.08-1.368-2.52-2.016-4.355-2.016
		C509.571,74.223,508.131,74.87,507.087,76.238z"/>
	<path class="st1" d="M550.573,75.374c0.721-1.224,1.584-2.124,2.592-2.663c0.9-0.576,1.98-0.865,3.276-0.865
		c1.943,0,3.491,0.613,4.715,1.836c1.152,1.26,1.764,2.952,1.764,5.076V90.96h-2.88V79.226c0-1.655-0.359-2.88-1.043-3.672
		c-0.721-0.864-1.872-1.26-3.456-1.26c-1.224,0-2.268,0.433-3.06,1.368c-0.864,0.936-1.26,2.123-1.26,3.635V90.96h-2.88V79.226
		c0-3.312-1.439-4.932-4.283-4.932c-1.332,0-2.412,0.504-3.275,1.584c-0.864,1.008-1.296,2.268-1.296,3.743V90.96h-2.88V72.35h2.88
		v2.484c1.403-2.016,3.167-2.988,5.255-2.988C547.585,71.846,549.53,72.998,550.573,75.374z"/>
	<path class="st1" d="M582.361,74.727c1.584,1.836,2.376,4.139,2.376,6.947c0,2.771-0.792,5.074-2.34,6.875
		c-1.691,1.943-3.924,2.915-6.695,2.915c-2.808,0-5.003-0.972-6.659-2.915c-1.584-1.801-2.376-4.104-2.376-6.875
		c0-2.809,0.792-5.111,2.376-6.947c1.656-1.944,3.852-2.881,6.659-2.881C578.473,71.846,580.706,72.782,582.361,74.727z
		 M571.094,76.525c-1.008,1.368-1.476,3.061-1.476,5.148c0,2.051,0.468,3.742,1.476,5.111c1.08,1.512,2.628,2.268,4.607,2.268
		c1.943,0,3.491-0.756,4.644-2.268c0.972-1.369,1.476-3.096,1.476-5.111c0-2.088-0.504-3.78-1.476-5.148
		c-1.152-1.512-2.7-2.268-4.644-2.268C573.722,74.258,572.174,75.014,571.094,76.525z"/>
	<path class="st1" d="M602.449,75.374c0.721-1.224,1.584-2.124,2.592-2.663c0.9-0.576,1.98-0.865,3.276-0.865
		c1.943,0,3.491,0.613,4.715,1.836c1.152,1.26,1.764,2.952,1.764,5.076V90.96h-2.88V79.226c0-1.655-0.359-2.88-1.043-3.672
		c-0.721-0.864-1.872-1.26-3.456-1.26c-1.224,0-2.268,0.433-3.06,1.368c-0.864,0.936-1.26,2.123-1.26,3.635V90.96h-2.88V79.226
		c0-3.312-1.439-4.932-4.283-4.932c-1.332,0-2.412,0.504-3.275,1.584c-0.864,1.008-1.296,2.268-1.296,3.743V90.96h-2.88V72.35h2.88
		v2.484c1.403-2.016,3.167-2.988,5.255-2.988C599.461,71.846,601.406,72.998,602.449,75.374z"/>
	<path class="st1" d="M633.697,74.87c1.368,1.8,2.088,4.355,2.16,7.595H621.17c0.145,2.088,0.684,3.707,1.691,4.859
		c1.009,1.152,2.412,1.729,4.176,1.729c1.512,0,2.771-0.396,3.708-1.152c0.792-0.648,1.403-1.619,1.871-2.916h2.88
		c-0.432,1.801-1.26,3.24-2.52,4.392c-1.548,1.368-3.527,2.088-5.939,2.088c-2.663,0-4.823-0.899-6.407-2.628
		c-1.655-1.799-2.447-4.176-2.447-7.199c0-2.735,0.756-5.039,2.34-6.875c1.583-1.943,3.707-2.916,6.407-2.916
		C629.917,71.846,632.185,72.854,633.697,74.87z M623.006,75.878c-1.008,1.079-1.584,2.52-1.764,4.355h11.626
		c-0.359-3.995-2.339-5.976-5.867-5.976C625.346,74.258,624.014,74.798,623.006,75.878z"/>
	<path class="st1" d="M654.901,79.514V90.96h-2.88v-11.23c0-3.636-1.655-5.436-4.896-5.436c-1.296,0-2.411,0.468-3.348,1.403
		c-1.008,1.008-1.548,2.34-1.655,4.032v11.23h-2.88V72.35h2.88v2.736c0.647-1.044,1.476-1.836,2.483-2.375
		c1.008-0.576,2.124-0.865,3.348-0.865C652.561,71.846,654.901,74.402,654.901,79.514z"/>
	<path class="st1" d="M664.333,72.35h4.607v2.412h-4.607v11.843c0,0.685,0.108,1.188,0.396,1.476
		c0.252,0.288,0.72,0.469,1.367,0.469h2.376v2.411h-2.808c-1.512,0-2.628-0.396-3.275-1.188c-0.612-0.719-0.9-1.764-0.9-3.167
		V74.762h-3.743V72.35h3.743v-4.822l2.844-1.188V72.35z"/>
	<path class="st1" d="M676.213,87.324c0.432,0.432,0.648,0.936,0.648,1.584c0,0.611-0.217,1.115-0.648,1.548
		s-0.972,0.647-1.548,0.647c-0.647,0-1.151-0.215-1.548-0.647c-0.432-0.433-0.647-0.937-0.647-1.548
		c0-0.648,0.216-1.152,0.647-1.584c0.396-0.432,0.9-0.648,1.548-0.648C675.242,86.676,675.782,86.893,676.213,87.324z"/>
	<path class="st1" d="M40.263,185.26v2.555H26.009v8.639h13.498v2.557H26.009v11.95h-2.952v-25.7H40.263z"/>
	<path class="st1" d="M58.443,194.727c1.583,1.836,2.375,4.139,2.375,6.947c0,2.771-0.792,5.074-2.34,6.875
		c-1.692,1.943-3.923,2.915-6.695,2.915c-2.808,0-5.003-0.972-6.659-2.915c-1.584-1.801-2.376-4.104-2.376-6.875
		c0-2.809,0.792-5.111,2.376-6.947c1.656-1.944,3.852-2.881,6.659-2.881C54.556,191.846,56.787,192.782,58.443,194.727z
		 M47.177,196.525c-1.008,1.368-1.476,3.061-1.476,5.148c0,2.051,0.468,3.742,1.476,5.111c1.08,1.512,2.627,2.268,4.607,2.268
		c1.943,0,3.491-0.756,4.643-2.268c0.972-1.369,1.476-3.096,1.476-5.111c0-2.088-0.504-3.78-1.476-5.148
		c-1.152-1.512-2.7-2.268-4.643-2.268C49.804,194.258,48.256,195.014,47.177,196.525z"/>
	<path class="st1" d="M75.292,192.278v2.88c-0.936-0.288-1.872-0.396-2.772-0.396c-1.439,0-2.664,0.612-3.635,1.908
		c-1.008,1.224-1.476,2.699-1.476,4.428v9.862h-2.843v-18.61h2.843v3.24c0.504-1.08,1.152-1.943,1.944-2.556
		c0.972-0.792,2.088-1.188,3.384-1.188C73.744,191.846,74.607,191.99,75.292,192.278z"/>
	<path class="st1" d="M104.667,194.727c1.583,1.836,2.375,4.139,2.375,6.947c0,2.771-0.792,5.074-2.34,6.875
		c-1.691,1.943-3.923,2.915-6.695,2.915c-2.808,0-5.003-0.972-6.659-2.915c-1.584-1.801-2.376-4.104-2.376-6.875
		c0-2.809,0.792-5.111,2.376-6.947c1.656-1.944,3.852-2.881,6.659-2.881C100.779,191.846,103.011,192.782,104.667,194.727z
		 M93.4,196.525c-1.008,1.368-1.476,3.061-1.476,5.148c0,2.051,0.468,3.742,1.476,5.111c1.08,1.512,2.627,2.268,4.607,2.268
		c1.943,0,3.491-0.756,4.643-2.268c0.972-1.369,1.476-3.096,1.476-5.111c0-2.088-0.504-3.78-1.476-5.148
		c-1.152-1.512-2.7-2.268-4.643-2.268C96.027,194.258,94.479,195.014,93.4,196.525z"/>
	<path class="st1" d="M126.446,199.514v11.446h-2.879v-11.23c0-3.636-1.656-5.436-4.896-5.436c-1.296,0-2.412,0.468-3.348,1.403
		c-1.008,1.008-1.548,2.34-1.656,4.032v11.23h-2.879v-18.61h2.879v2.736c0.648-1.044,1.476-1.836,2.484-2.375
		c1.008-0.576,2.124-0.865,3.347-0.865C124.106,191.846,126.446,194.402,126.446,199.514z"/>
	<path class="st1" d="M144.482,193.467c1.439,1.115,2.304,2.807,2.627,5.074h-2.844c-0.252-1.439-0.828-2.52-1.728-3.239
		c-0.936-0.72-2.124-1.044-3.6-1.044c-1.8,0-3.24,0.684-4.284,2.052c-1.008,1.332-1.512,3.132-1.512,5.399s0.468,4.068,1.476,5.363
		c0.972,1.296,2.412,1.98,4.283,1.98c3.167,0,5.003-1.62,5.436-4.824h2.879c-0.432,2.376-1.332,4.212-2.771,5.436
		c-1.404,1.188-3.24,1.8-5.543,1.8c-2.808,0-4.967-0.937-6.515-2.808c-1.476-1.764-2.196-4.067-2.196-6.911s0.72-5.147,2.196-6.947
		c1.584-1.979,3.779-2.952,6.551-2.952C141.243,191.846,143.078,192.387,144.482,193.467z"/>
	<path class="st1" d="M165.038,194.87c1.368,1.8,2.087,4.355,2.16,7.595h-14.686c0.144,2.088,0.684,3.707,1.691,4.859
		c1.008,1.152,2.412,1.729,4.176,1.729c1.512,0,2.771-0.396,3.708-1.152c0.792-0.648,1.404-1.619,1.872-2.916h2.88
		c-0.432,1.801-1.26,3.24-2.52,4.392c-1.547,1.368-3.527,2.088-5.939,2.088c-2.664,0-4.823-0.899-6.407-2.628
		c-1.656-1.799-2.448-4.176-2.448-7.199c0-2.735,0.756-5.039,2.34-6.875c1.583-1.943,3.708-2.916,6.407-2.916
		C161.258,191.846,163.526,192.854,165.038,194.87z M154.347,195.878c-1.008,1.079-1.583,2.52-1.764,4.355h11.626
		c-0.36-3.995-2.339-5.976-5.867-5.976C156.687,194.258,155.355,194.798,154.347,195.878z"/>
	<path class="st1" d="M175.083,207.685c0.468,0.647,0.72,1.476,0.72,2.52c0,1.584-0.468,2.987-1.404,4.212
		c-0.936,1.151-2.196,1.943-3.744,2.34v-1.764c0.936-0.324,1.728-0.865,2.304-1.584c0.54-0.756,0.792-1.549,0.792-2.412
		c-0.18,0.072-0.432,0.145-0.792,0.145c-0.612,0-1.116-0.217-1.548-0.648s-0.648-0.973-0.648-1.584c0-0.684,0.216-1.224,0.684-1.619
		c0.396-0.433,0.936-0.613,1.656-0.613C173.895,206.676,174.579,207,175.083,207.685z"/>
	<path class="st1" d="M193.155,192.35l5.688,14.688l5.507-14.688h3.167l-10.187,25.737h-3.131l3.204-7.56l-7.379-18.178H193.155z"/>
	<path class="st1" d="M224.905,194.727c1.583,1.836,2.375,4.139,2.375,6.947c0,2.771-0.792,5.074-2.34,6.875
		c-1.691,1.943-3.923,2.915-6.695,2.915c-2.808,0-5.003-0.972-6.659-2.915c-1.584-1.801-2.376-4.104-2.376-6.875
		c0-2.809,0.792-5.111,2.376-6.947c1.656-1.944,3.852-2.881,6.659-2.881C221.017,191.846,223.249,192.782,224.905,194.727z
		 M213.638,196.525c-1.008,1.368-1.476,3.061-1.476,5.148c0,2.051,0.468,3.742,1.476,5.111c1.08,1.512,2.627,2.268,4.607,2.268
		c1.943,0,3.491-0.756,4.643-2.268c0.972-1.369,1.476-3.096,1.476-5.111c0-2.088-0.504-3.78-1.476-5.148
		c-1.152-1.512-2.7-2.268-4.643-2.268C216.266,194.258,214.718,195.014,213.638,196.525z"/>
	<path class="st1" d="M233.906,192.35v11.375c0,1.764,0.36,3.096,1.116,3.96s1.98,1.331,3.672,1.331
		c1.224,0,2.339-0.504,3.312-1.439c1.008-1.008,1.62-2.304,1.835-3.887v-11.34h2.88v18.61h-2.88v-2.88
		c-1.512,2.232-3.527,3.384-6.047,3.384c-4.536,0-6.767-2.556-6.767-7.595v-11.52H233.906z"/>
	<path class="st1" d="M276.745,193.467c1.439,1.115,2.304,2.807,2.627,5.074h-2.844c-0.252-1.439-0.828-2.52-1.728-3.239
		c-0.936-0.72-2.124-1.044-3.6-1.044c-1.8,0-3.24,0.684-4.284,2.052c-1.008,1.332-1.512,3.132-1.512,5.399s0.468,4.068,1.476,5.363
		c0.972,1.296,2.412,1.98,4.283,1.98c3.167,0,5.003-1.62,5.436-4.824h2.879c-0.432,2.376-1.332,4.212-2.771,5.436
		c-1.404,1.188-3.24,1.8-5.543,1.8c-2.808,0-4.967-0.937-6.515-2.808c-1.476-1.764-2.196-4.067-2.196-6.911s0.72-5.147,2.196-6.947
		c1.584-1.979,3.779-2.952,6.551-2.952C273.505,191.846,275.341,192.387,276.745,193.467z"/>
	<path class="st1" d="M297.841,194.727c1.583,1.836,2.375,4.139,2.375,6.947c0,2.771-0.792,5.074-2.34,6.875
		c-1.692,1.943-3.923,2.915-6.695,2.915c-2.808,0-5.003-0.972-6.659-2.915c-1.584-1.801-2.376-4.104-2.376-6.875
		c0-2.809,0.792-5.111,2.376-6.947c1.656-1.944,3.852-2.881,6.659-2.881C293.953,191.846,296.185,192.782,297.841,194.727z
		 M286.574,196.525c-1.008,1.368-1.476,3.061-1.476,5.148c0,2.051,0.468,3.742,1.476,5.111c1.08,1.512,2.627,2.268,4.607,2.268
		c1.943,0,3.491-0.756,4.643-2.268c0.972-1.369,1.476-3.096,1.476-5.111c0-2.088-0.504-3.78-1.476-5.148
		c-1.152-1.512-2.7-2.268-4.643-2.268C289.202,194.258,287.654,195.014,286.574,196.525z"/>
	<path class="st1" d="M306.842,192.35v11.375c0,1.764,0.36,3.096,1.116,3.96s1.98,1.331,3.672,1.331
		c1.224,0,2.339-0.504,3.312-1.439c1.008-1.008,1.62-2.304,1.835-3.887v-11.34h2.88v18.61h-2.88v-2.88
		c-1.512,2.232-3.527,3.384-6.047,3.384c-4.536,0-6.767-2.556-6.767-7.595v-11.52H306.842z"/>
	<path class="st1" d="M327.542,184.756v26.204h-2.844v-26.204H327.542z"/>
	<path class="st1" d="M349.212,184.756v26.204h-2.7v-3.06c-1.296,2.375-3.384,3.563-6.191,3.563c-2.736,0-4.859-1.008-6.371-2.952
		c-1.404-1.799-2.088-4.104-2.088-6.91c0-2.736,0.684-4.968,2.088-6.768c1.512-2.016,3.563-2.988,6.227-2.988
		s4.715,1.297,6.155,3.924v-11.014H349.212z M336.181,196.382c-0.936,1.26-1.368,2.987-1.368,5.22c0,2.231,0.432,3.995,1.332,5.291
		c1.008,1.439,2.52,2.195,4.535,2.195c1.872,0,3.312-0.72,4.355-2.16c0.9-1.295,1.368-2.986,1.368-5.074v-0.36
		c0-2.159-0.54-3.923-1.548-5.255c-1.044-1.368-2.412-2.016-4.068-2.016C338.737,194.223,337.189,194.941,336.181,196.382z"/>
	<path class="st1" d="M382.296,184.756v26.204h-2.7v-3.06c-1.296,2.375-3.384,3.563-6.191,3.563c-2.735,0-4.859-1.008-6.371-2.952
		c-1.404-1.799-2.088-4.104-2.088-6.91c0-2.736,0.684-4.968,2.088-6.768c1.512-2.016,3.563-2.988,6.228-2.988
		c2.663,0,4.715,1.297,6.155,3.924v-11.014H382.296z M369.265,196.382c-0.936,1.26-1.367,2.987-1.367,5.22
		c0,2.231,0.432,3.995,1.332,5.291c1.008,1.439,2.52,2.195,4.535,2.195c1.872,0,3.312-0.72,4.355-2.16
		c0.899-1.295,1.368-2.986,1.368-5.074v-0.36c0-2.159-0.54-3.923-1.548-5.255c-1.044-1.368-2.412-2.016-4.068-2.016
		C371.821,194.223,370.274,194.941,369.265,196.382z"/>
	<path class="st1" d="M401.197,194.87c1.367,1.8,2.087,4.355,2.159,7.595H388.67c0.144,2.088,0.684,3.707,1.691,4.859
		s2.412,1.729,4.176,1.729c1.512,0,2.771-0.396,3.707-1.152c0.792-0.648,1.404-1.619,1.872-2.916h2.88
		c-0.433,1.801-1.26,3.24-2.521,4.392c-1.547,1.368-3.527,2.088-5.938,2.088c-2.664,0-4.823-0.899-6.407-2.628
		c-1.656-1.799-2.448-4.176-2.448-7.199c0-2.735,0.756-5.039,2.34-6.875c1.584-1.943,3.708-2.916,6.407-2.916
		C397.417,191.846,399.685,192.854,401.197,194.87z M390.505,195.878c-1.008,1.079-1.583,2.52-1.764,4.355h11.627
		c-0.36-3.995-2.34-5.976-5.867-5.976C392.845,194.258,391.513,194.798,390.505,195.878z"/>
	<path class="st1" d="M417.756,185.26v2.482h-3.203c-0.792,0-1.404,0.181-1.765,0.613c-0.359,0.396-0.539,1.043-0.539,1.943v2.051
		h5.255v2.412h-5.255v16.198h-2.88v-16.198h-4.68v-2.412h4.68v-2.123c0-1.584,0.396-2.771,1.188-3.636
		c0.828-0.899,2.052-1.331,3.636-1.331H417.756z"/>
	<path class="st1" d="M430.896,192.278v2.88c-0.936-0.288-1.872-0.396-2.771-0.396c-1.439,0-2.664,0.612-3.636,1.908
		c-1.008,1.224-1.476,2.699-1.476,4.428v9.862h-2.844v-18.61h2.844v3.24c0.504-1.08,1.151-1.943,1.943-2.556
		c0.973-0.792,2.088-1.188,3.384-1.188C429.348,191.846,430.212,191.99,430.896,192.278z"/>
	<path class="st1" d="M448.284,194.727c1.583,1.836,2.375,4.139,2.375,6.947c0,2.771-0.792,5.074-2.34,6.875
		c-1.691,1.943-3.923,2.915-6.694,2.915c-2.808,0-5.004-0.972-6.659-2.915c-1.584-1.801-2.376-4.104-2.376-6.875
		c0-2.809,0.792-5.111,2.376-6.947c1.655-1.944,3.852-2.881,6.659-2.881C444.396,191.846,446.627,192.782,448.284,194.727z
		 M437.017,196.525c-1.009,1.368-1.477,3.061-1.477,5.148c0,2.051,0.468,3.742,1.477,5.111c1.079,1.512,2.627,2.268,4.607,2.268
		c1.943,0,3.491-0.756,4.643-2.268c0.973-1.369,1.477-3.096,1.477-5.111c0-2.088-0.504-3.78-1.477-5.148
		c-1.151-1.512-2.699-2.268-4.643-2.268C439.644,194.258,438.096,195.014,437.017,196.525z"/>
	<path class="st1" d="M468.623,197.642h-2.808c-0.252-1.151-0.72-2.016-1.439-2.52c-0.792-0.576-1.943-0.864-3.42-0.864
		c-1.295,0-2.304,0.217-3.023,0.721c-0.792,0.467-1.188,1.115-1.188,1.943c0,0.791,0.504,1.476,1.584,2.016
		c0.684,0.324,1.979,0.72,3.852,1.224c2.231,0.54,3.815,1.116,4.787,1.728c1.476,0.937,2.231,2.196,2.231,3.816
		c0,3.814-2.627,5.759-7.883,5.759c-4.896,0-7.559-2.159-7.991-6.443h2.808c0.216,1.476,0.756,2.521,1.548,3.168
		c0.792,0.575,1.98,0.864,3.563,0.864c3.312,0,5.004-1.08,5.004-3.168c0-1.044-0.612-1.836-1.764-2.412
		c-0.612-0.287-1.944-0.684-3.96-1.188c-2.195-0.54-3.743-1.08-4.607-1.656c-1.439-0.863-2.124-2.051-2.124-3.635
		s0.685-2.809,2.088-3.744c1.296-0.936,3.023-1.404,5.111-1.404C465.599,191.846,468.119,193.754,468.623,197.642z"/>
	<path class="st1" d="M477.552,192.35h4.607v2.412h-4.607v11.843c0,0.685,0.107,1.188,0.396,1.476
		c0.252,0.288,0.72,0.469,1.368,0.469h2.375v2.411h-2.808c-1.512,0-2.627-0.396-3.275-1.188c-0.611-0.719-0.899-1.764-0.899-3.167
		v-11.843h-3.744v-2.412h3.744v-4.822l2.844-1.188V192.35z"/>
	<path class="st1" d="M502.32,192.35h4.607v2.412h-4.607v11.843c0,0.685,0.107,1.188,0.396,1.476
		c0.252,0.288,0.72,0.469,1.368,0.469h2.375v2.411h-2.808c-1.512,0-2.627-0.396-3.275-1.188c-0.611-0.719-0.899-1.764-0.899-3.167
		v-11.843h-3.744v-2.412h3.744v-4.822l2.844-1.188V192.35z"/>
	<path class="st1" d="M513.011,184.756v10.654c0.648-1.188,1.512-2.088,2.592-2.699c1.008-0.576,2.124-0.865,3.384-0.865
		c2.16,0,3.852,0.613,5.003,1.908c1.152,1.26,1.729,3.096,1.729,5.472v11.734h-2.88v-11.303c0-1.728-0.432-3.06-1.224-3.995
		c-0.864-0.936-2.052-1.404-3.6-1.404c-1.44,0-2.628,0.576-3.563,1.729c-0.973,1.151-1.44,2.627-1.44,4.355v10.618h-2.879v-26.204
		H513.011z"/>
	<path class="st1" d="M544.583,194.87c1.367,1.8,2.087,4.355,2.159,7.595h-14.686c0.144,2.088,0.684,3.707,1.691,4.859
		s2.412,1.729,4.176,1.729c1.512,0,2.771-0.396,3.707-1.152c0.792-0.648,1.404-1.619,1.872-2.916h2.88
		c-0.433,1.801-1.26,3.24-2.521,4.392c-1.547,1.368-3.527,2.088-5.938,2.088c-2.664,0-4.823-0.899-6.407-2.628
		c-1.656-1.799-2.448-4.176-2.448-7.199c0-2.735,0.756-5.039,2.34-6.875c1.584-1.943,3.708-2.916,6.407-2.916
		C540.802,191.846,543.071,192.854,544.583,194.87z M533.891,195.878c-1.008,1.079-1.583,2.52-1.764,4.355h11.627
		c-0.36-3.995-2.34-5.976-5.867-5.976C536.231,194.258,534.899,194.798,533.891,195.878z"/>
	<path class="st1" d="M567.083,192.35h4.607v2.412h-4.607v11.843c0,0.685,0.108,1.188,0.396,1.476
		c0.252,0.288,0.72,0.469,1.367,0.469h2.376v2.411h-2.808c-1.512,0-2.628-0.396-3.275-1.188c-0.612-0.719-0.9-1.764-0.9-3.167
		v-11.843h-3.743v-2.412h3.743v-4.822l2.844-1.188V192.35z"/>
	<path class="st1" d="M578.819,185.943c0.432,0.359,0.647,0.863,0.647,1.512c0,0.611-0.216,1.115-0.647,1.548
		c-0.433,0.396-0.937,0.612-1.548,0.612c-0.612,0-1.116-0.217-1.548-0.612c-0.433-0.433-0.612-0.937-0.612-1.548
		c0-0.648,0.18-1.152,0.612-1.512c0.432-0.432,0.936-0.612,1.548-0.612C577.882,185.331,578.386,185.512,578.819,185.943z
		 M578.71,192.35v18.61h-2.88v-18.61H578.71z"/>
	<path class="st1" d="M598.077,195.374c0.721-1.224,1.584-2.124,2.592-2.663c0.9-0.576,1.98-0.865,3.276-0.865
		c1.943,0,3.491,0.613,4.715,1.836c1.152,1.26,1.764,2.952,1.764,5.076v12.202h-2.88v-11.734c0-1.655-0.359-2.88-1.043-3.672
		c-0.721-0.864-1.872-1.26-3.456-1.26c-1.224,0-2.268,0.433-3.06,1.368c-0.864,0.936-1.26,2.123-1.26,3.635v11.663h-2.88v-11.734
		c0-3.312-1.439-4.932-4.283-4.932c-1.332,0-2.412,0.504-3.275,1.584c-0.864,1.008-1.296,2.268-1.296,3.743v11.339h-2.88v-18.61
		h2.88v2.484c1.403-2.016,3.167-2.988,5.255-2.988C595.089,191.846,597.034,192.998,598.077,195.374z"/>
	<path class="st1" d="M629.325,194.87c1.368,1.8,2.088,4.355,2.16,7.595h-14.687c0.145,2.088,0.684,3.707,1.691,4.859
		c1.009,1.152,2.412,1.729,4.176,1.729c1.512,0,2.771-0.396,3.708-1.152c0.792-0.648,1.403-1.619,1.871-2.916h2.88
		c-0.432,1.801-1.26,3.24-2.52,4.392c-1.548,1.368-3.527,2.088-5.939,2.088c-2.663,0-4.823-0.899-6.407-2.628
		c-1.655-1.799-2.447-4.176-2.447-7.199c0-2.735,0.756-5.039,2.34-6.875c1.583-1.943,3.707-2.916,6.407-2.916
		C625.545,191.846,627.813,192.854,629.325,194.87z M618.634,195.878c-1.008,1.079-1.584,2.52-1.764,4.355h11.626
		c-0.359-3.995-2.339-5.976-5.867-5.976C620.974,194.258,619.642,194.798,618.634,195.878z"/>
	<path class="st1" d="M660.861,193.934c1.08,1.225,1.655,2.916,1.655,5.076v11.95h-2.699v-3.132
		c-0.72,1.008-1.691,1.836-2.844,2.484c-1.368,0.756-2.916,1.151-4.644,1.151c-1.872,0-3.348-0.468-4.463-1.403
		c-1.152-0.973-1.729-2.232-1.729-3.744c0-2.123,0.828-3.707,2.556-4.787c1.512-1.008,3.672-1.548,6.479-1.584l4.464-0.072v-0.972
		c0-3.132-1.62-4.679-4.859-4.679c-1.368,0-2.484,0.252-3.348,0.827c-0.973,0.576-1.584,1.476-1.872,2.663l-2.844-0.215
		c0.396-1.944,1.368-3.42,2.88-4.355c1.368-0.864,3.132-1.297,5.363-1.297C657.621,191.846,659.565,192.53,660.861,193.934z
		 M655.353,202.105c-4.175,0.072-6.263,1.439-6.263,4.139c0,0.864,0.324,1.549,1.044,2.124c0.72,0.54,1.655,0.828,2.808,0.828
		c1.764,0,3.312-0.576,4.679-1.728c1.332-1.116,2.017-2.412,2.017-3.852v-1.584L655.353,202.105z"/>
	<path class="st1" d="M682.64,199.514v11.446h-2.88v-11.23c0-3.636-1.655-5.436-4.896-5.436c-1.296,0-2.411,0.468-3.348,1.403
		c-1.008,1.008-1.548,2.34-1.655,4.032v11.23h-2.88v-18.61h2.88v2.736c0.647-1.044,1.476-1.836,2.483-2.375
		c1.008-0.576,2.124-0.865,3.348-0.865C680.3,191.846,682.64,194.402,682.64,199.514z"/>
	<path class="st1" d="M703.736,184.756v26.204h-2.7v-3.06c-1.296,2.375-3.384,3.563-6.191,3.563c-2.735,0-4.859-1.008-6.371-2.952
		c-1.403-1.799-2.088-4.104-2.088-6.91c0-2.736,0.685-4.968,2.088-6.768c1.512-2.016,3.563-2.988,6.228-2.988
		c2.663,0,4.715,1.297,6.155,3.924v-11.014H703.736z M690.705,196.382c-0.936,1.26-1.367,2.987-1.367,5.22
		c0,2.231,0.432,3.995,1.332,5.291c1.008,1.439,2.52,2.195,4.535,2.195c1.872,0,3.312-0.72,4.355-2.16
		c0.899-1.295,1.368-2.986,1.368-5.074v-0.36c0-2.159-0.54-3.923-1.548-5.255c-1.044-1.368-2.412-2.016-4.068-2.016
		C693.26,194.223,691.713,194.941,690.705,196.382z"/>
	<path class="st1" d="M90.358,244.756v11.014c1.44-2.627,3.492-3.924,6.155-3.924c2.627,0,4.715,0.973,6.227,2.988
		c1.368,1.8,2.088,4.031,2.088,6.768c0,2.807-0.72,5.111-2.088,6.91c-1.548,1.944-3.671,2.952-6.371,2.952
		c-2.879,0-4.931-1.188-6.191-3.563v3.06h-2.699v-26.204H90.358z M91.834,256.238c-1.08,1.332-1.584,3.096-1.584,5.255v0.36
		c0,2.088,0.468,3.779,1.404,5.074c1.008,1.44,2.484,2.16,4.355,2.16c2.016,0,3.527-0.756,4.535-2.195
		c0.864-1.296,1.332-3.06,1.332-5.291c0-2.232-0.468-3.96-1.404-5.22c-1.044-1.44-2.556-2.159-4.571-2.159
		C94.21,254.223,92.842,254.87,91.834,256.238z"/>
	<path class="st1" d="M119.301,252.278v2.88c-0.936-0.288-1.872-0.396-2.772-0.396c-1.439,0-2.664,0.612-3.635,1.908
		c-1.008,1.224-1.476,2.699-1.476,4.428v9.862h-2.843v-18.61h2.843v3.24c0.504-1.08,1.152-1.943,1.944-2.556
		c0.972-0.792,2.088-1.188,3.384-1.188C117.753,251.846,118.617,251.99,119.301,252.278z"/>
	<path class="st1" d="M125.638,245.943c0.432,0.359,0.648,0.863,0.648,1.512c0,0.611-0.216,1.115-0.648,1.548
		c-0.432,0.396-0.936,0.612-1.548,0.612s-1.116-0.217-1.548-0.612c-0.432-0.433-0.612-0.937-0.612-1.548
		c0-0.648,0.18-1.152,0.612-1.512c0.432-0.432,0.936-0.612,1.548-0.612S125.206,245.512,125.638,245.943z M125.53,252.35v18.61
		h-2.88v-18.61H125.53z"/>
	<path class="st1" d="M146.588,259.514v11.446h-2.879v-11.23c0-3.636-1.656-5.436-4.896-5.436c-1.296,0-2.412,0.468-3.348,1.403
		c-1.008,1.008-1.548,2.34-1.656,4.032v11.23h-2.879v-18.61h2.879v2.736c0.648-1.044,1.476-1.836,2.484-2.375
		c1.008-0.576,2.124-0.865,3.347-0.865C144.248,251.846,146.588,254.402,146.588,259.514z"/>
	<path class="st1" d="M164.984,255.554v-3.204h2.879v17.314c0,5.939-2.844,8.927-8.495,8.927c-2.52,0-4.464-0.504-5.759-1.512
		c-1.332-1.008-2.16-2.52-2.484-4.535h2.879c0.216,1.26,0.756,2.195,1.584,2.771c0.828,0.612,2.088,0.937,3.78,0.937
		c3.743,0,5.615-2.088,5.615-6.191v-3.275c-1.368,2.482-3.456,3.742-6.263,3.742c-2.592,0-4.644-0.899-6.155-2.663
		c-1.512-1.728-2.232-3.923-2.232-6.623c0-2.735,0.72-4.932,2.232-6.659c1.512-1.836,3.563-2.736,6.155-2.736
		C161.528,251.846,163.616,253.07,164.984,255.554z M154.797,256.238c-1.008,1.223-1.512,2.915-1.512,5.003
		c0,1.944,0.432,3.563,1.332,4.788c1.008,1.367,2.483,2.087,4.5,2.087c1.872,0,3.312-0.647,4.391-1.944
		c1.008-1.26,1.512-2.915,1.512-4.931c0-2.088-0.504-3.78-1.512-5.003c-1.08-1.368-2.52-2.016-4.355-2.016
		C157.281,254.223,155.841,254.87,154.797,256.238z"/>
	<path class="st1" d="M189.284,252.35h4.607v2.412h-4.607v11.843c0,0.685,0.108,1.188,0.396,1.476
		c0.252,0.288,0.72,0.469,1.368,0.469h2.375v2.411h-2.808c-1.512,0-2.627-0.396-3.275-1.188c-0.612-0.719-0.9-1.764-0.9-3.167
		v-11.843h-3.744v-2.412h3.744v-4.822l2.844-1.188V252.35z"/>
	<path class="st1" d="M199.976,244.756v10.654c0.648-1.188,1.512-2.088,2.592-2.699c1.008-0.576,2.124-0.865,3.383-0.865
		c2.16,0,3.852,0.613,5.003,1.908c1.152,1.26,1.728,3.096,1.728,5.472v11.734h-2.88v-11.303c0-1.728-0.432-3.06-1.224-3.995
		c-0.864-0.936-2.052-1.404-3.6-1.404c-1.44,0-2.628,0.576-3.563,1.729c-0.972,1.151-1.44,2.627-1.44,4.355v10.618h-2.879v-26.204
		H199.976z"/>
	<path class="st1" d="M232.087,254.727c1.583,1.836,2.375,4.139,2.375,6.947c0,2.771-0.792,5.074-2.34,6.875
		c-1.692,1.943-3.923,2.915-6.695,2.915c-2.808,0-5.003-0.972-6.659-2.915c-1.584-1.801-2.376-4.104-2.376-6.875
		c0-2.809,0.792-5.111,2.376-6.947c1.656-1.944,3.852-2.881,6.659-2.881C228.199,251.846,230.431,252.782,232.087,254.727z
		 M220.82,256.525c-1.008,1.368-1.476,3.061-1.476,5.148c0,2.051,0.468,3.742,1.476,5.111c1.08,1.512,2.627,2.268,4.607,2.268
		c1.943,0,3.491-0.756,4.643-2.268c0.972-1.369,1.476-3.096,1.476-5.111c0-2.088-0.504-3.78-1.476-5.148
		c-1.152-1.512-2.7-2.268-4.643-2.268C223.448,254.258,221.9,255.014,220.82,256.525z"/>
	<path class="st1" d="M252.426,257.642h-2.808c-0.252-1.151-0.72-2.016-1.439-2.52c-0.792-0.576-1.944-0.864-3.42-0.864
		c-1.295,0-2.304,0.217-3.023,0.721c-0.792,0.467-1.188,1.115-1.188,1.943c0,0.791,0.504,1.476,1.584,2.016
		c0.684,0.324,1.979,0.72,3.852,1.224c2.231,0.54,3.815,1.116,4.787,1.728c1.476,0.937,2.232,2.196,2.232,3.816
		c0,3.814-2.627,5.759-7.883,5.759c-4.896,0-7.559-2.159-7.991-6.443h2.808c0.216,1.476,0.756,2.521,1.548,3.168
		c0.792,0.575,1.98,0.864,3.563,0.864c3.312,0,5.003-1.08,5.003-3.168c0-1.044-0.612-1.836-1.764-2.412
		c-0.612-0.287-1.944-0.684-3.959-1.188c-2.196-0.54-3.744-1.08-4.607-1.656c-1.44-0.863-2.124-2.051-2.124-3.635
		s0.684-2.809,2.088-3.744c1.296-0.936,3.023-1.404,5.111-1.404C249.403,251.846,251.922,253.754,252.426,257.642z"/>
	<path class="st1" d="M270.822,254.87c1.368,1.8,2.087,4.355,2.16,7.595h-14.686c0.144,2.088,0.684,3.707,1.691,4.859
		c1.008,1.152,2.412,1.729,4.176,1.729c1.512,0,2.771-0.396,3.708-1.152c0.792-0.648,1.404-1.619,1.872-2.916h2.88
		c-0.432,1.801-1.26,3.24-2.52,4.392c-1.547,1.368-3.527,2.088-5.939,2.088c-2.664,0-4.823-0.899-6.407-2.628
		c-1.656-1.799-2.448-4.176-2.448-7.199c0-2.735,0.756-5.039,2.34-6.875c1.583-1.943,3.708-2.916,6.407-2.916
		C267.042,251.846,269.311,252.854,270.822,254.87z M260.131,255.878c-1.008,1.079-1.583,2.52-1.764,4.355h11.626
		c-0.36-3.995-2.339-5.976-5.867-5.976C262.471,254.258,261.139,254.798,260.131,255.878z"/>
	<path class="st1" d="M302.357,253.934c1.08,1.225,1.656,2.916,1.656,5.076v11.95h-2.7v-3.132c-0.72,1.008-1.691,1.836-2.843,2.484
		c-1.368,0.756-2.916,1.151-4.644,1.151c-1.872,0-3.348-0.468-4.463-1.403c-1.152-0.973-1.728-2.232-1.728-3.744
		c0-2.123,0.828-3.707,2.556-4.787c1.512-1.008,3.672-1.548,6.479-1.584l4.463-0.072v-0.972c0-3.132-1.62-4.679-4.859-4.679
		c-1.368,0-2.484,0.252-3.348,0.827c-0.972,0.576-1.584,1.476-1.872,2.663l-2.843-0.215c0.396-1.944,1.368-3.42,2.879-4.355
		c1.368-0.864,3.132-1.297,5.363-1.297C299.118,251.846,301.062,252.53,302.357,253.934z M296.85,262.105
		c-4.175,0.072-6.263,1.439-6.263,4.139c0,0.864,0.324,1.549,1.044,2.124c0.72,0.54,1.656,0.828,2.808,0.828
		c1.764,0,3.312-0.576,4.679-1.728c1.332-1.116,2.016-2.412,2.016-3.852v-1.584L296.85,262.105z"/>
	<path class="st1" d="M319.206,252.278v2.88c-0.936-0.288-1.872-0.396-2.772-0.396c-1.439,0-2.664,0.612-3.635,1.908
		c-1.008,1.224-1.476,2.699-1.476,4.428v9.862h-2.843v-18.61h2.843v3.24c0.504-1.08,1.152-1.943,1.944-2.556
		c0.972-0.792,2.088-1.188,3.384-1.188C317.658,251.846,318.521,251.99,319.206,252.278z"/>
	<path class="st1" d="M326.586,252.35h4.607v2.412h-4.607v11.843c0,0.685,0.108,1.188,0.396,1.476
		c0.252,0.288,0.72,0.469,1.368,0.469h2.375v2.411h-2.808c-1.512,0-2.627-0.396-3.275-1.188c-0.612-0.719-0.9-1.764-0.9-3.167
		v-11.843h-3.744v-2.412h3.744v-4.822l2.844-1.188V252.35z"/>
	<path class="st1" d="M335.514,252.35l4.571,15.083l4.319-15.083h2.7l4.32,15.083l4.571-15.083h3.167l-6.335,18.61h-2.736
		l-4.319-14.974l-4.392,14.974h-2.7l-6.335-18.61H335.514z"/>
	<path class="st1" d="M376.552,254.727c1.584,1.836,2.376,4.139,2.376,6.947c0,2.771-0.792,5.074-2.34,6.875
		c-1.691,1.943-3.924,2.915-6.695,2.915c-2.808,0-5.003-0.972-6.659-2.915c-1.584-1.801-2.376-4.104-2.376-6.875
		c0-2.809,0.792-5.111,2.376-6.947c1.656-1.944,3.852-2.881,6.659-2.881C372.665,251.846,374.897,252.782,376.552,254.727z
		 M365.286,256.525c-1.008,1.368-1.476,3.061-1.476,5.148c0,2.051,0.468,3.742,1.476,5.111c1.08,1.512,2.628,2.268,4.607,2.268
		c1.943,0,3.491-0.756,4.644-2.268c0.972-1.369,1.476-3.096,1.476-5.111c0-2.088-0.504-3.78-1.476-5.148
		c-1.152-1.512-2.7-2.268-4.644-2.268C367.914,254.258,366.365,255.014,365.286,256.525z"/>
	<path class="st1" d="M393.401,252.278v2.88c-0.936-0.288-1.872-0.396-2.771-0.396c-1.439,0-2.664,0.612-3.636,1.908
		c-1.008,1.224-1.476,2.699-1.476,4.428v9.862h-2.844v-18.61h2.844v3.24c0.504-1.08,1.151-1.943,1.943-2.556
		c0.973-0.792,2.088-1.188,3.384-1.188C391.853,251.846,392.717,251.99,393.401,252.278z"/>
	<path class="st1" d="M398.694,244.756v16.233l9.322-8.64h3.815l-8.206,7.488l8.998,11.122h-3.707l-7.271-9.251l-2.951,2.664v6.587
		h-2.88v-26.204H398.694z"/>
	<path class="st1" d="M429.076,257.642h-2.808c-0.252-1.151-0.72-2.016-1.439-2.52c-0.792-0.576-1.943-0.864-3.42-0.864
		c-1.295,0-2.304,0.217-3.023,0.721c-0.792,0.467-1.188,1.115-1.188,1.943c0,0.791,0.504,1.476,1.584,2.016
		c0.684,0.324,1.979,0.72,3.852,1.224c2.231,0.54,3.815,1.116,4.787,1.728c1.476,0.937,2.231,2.196,2.231,3.816
		c0,3.814-2.627,5.759-7.883,5.759c-4.896,0-7.559-2.159-7.991-6.443h2.808c0.216,1.476,0.756,2.521,1.548,3.168
		c0.792,0.575,1.98,0.864,3.563,0.864c3.312,0,5.004-1.08,5.004-3.168c0-1.044-0.612-1.836-1.764-2.412
		c-0.612-0.287-1.944-0.684-3.96-1.188c-2.195-0.54-3.743-1.08-4.607-1.656c-1.439-0.863-2.124-2.051-2.124-3.635
		s0.685-2.809,2.088-3.744c1.296-0.936,3.023-1.404,5.111-1.404C426.052,251.846,428.572,253.754,429.076,257.642z"/>
	<path class="st1" d="M447.905,244.756v11.014c1.44-2.627,3.492-3.924,6.155-3.924c2.628,0,4.716,0.973,6.228,2.988
		c1.368,1.8,2.088,4.031,2.088,6.768c0,2.807-0.72,5.111-2.088,6.91c-1.548,1.944-3.672,2.952-6.371,2.952
		c-2.88,0-4.932-1.188-6.191-3.563v3.06h-2.699v-26.204H447.905z M449.381,256.238c-1.08,1.332-1.584,3.096-1.584,5.255v0.36
		c0,2.088,0.468,3.779,1.403,5.074c1.008,1.44,2.484,2.16,4.355,2.16c2.016,0,3.527-0.756,4.535-2.195
		c0.864-1.296,1.332-3.06,1.332-5.291c0-2.232-0.468-3.96-1.403-5.22c-1.044-1.44-2.556-2.159-4.571-2.159
		C451.756,254.223,450.389,254.87,449.381,256.238z"/>
	<path class="st1" d="M480.124,253.934c1.08,1.225,1.656,2.916,1.656,5.076v11.95h-2.7v-3.132c-0.72,1.008-1.691,1.836-2.843,2.484
		c-1.368,0.756-2.916,1.151-4.644,1.151c-1.872,0-3.348-0.468-4.464-1.403c-1.151-0.973-1.728-2.232-1.728-3.744
		c0-2.123,0.828-3.707,2.556-4.787c1.512-1.008,3.672-1.548,6.479-1.584l4.463-0.072v-0.972c0-3.132-1.62-4.679-4.859-4.679
		c-1.368,0-2.483,0.252-3.348,0.827c-0.972,0.576-1.584,1.476-1.872,2.663l-2.843-0.215c0.396-1.944,1.367-3.42,2.879-4.355
		c1.368-0.864,3.132-1.297,5.363-1.297C476.884,251.846,478.828,252.53,480.124,253.934z M474.617,262.105
		c-4.176,0.072-6.264,1.439-6.264,4.139c0,0.864,0.324,1.549,1.044,2.124c0.72,0.54,1.656,0.828,2.808,0.828
		c1.764,0,3.312-0.576,4.68-1.728c1.332-1.116,2.016-2.412,2.016-3.852v-1.584L474.617,262.105z"/>
	<path class="st1" d="M499.816,253.467c1.439,1.115,2.304,2.807,2.627,5.074h-2.844c-0.252-1.439-0.827-2.52-1.728-3.239
		c-0.936-0.72-2.124-1.044-3.6-1.044c-1.8,0-3.239,0.684-4.283,2.052c-1.008,1.332-1.512,3.132-1.512,5.399s0.468,4.068,1.476,5.363
		c0.972,1.296,2.412,1.98,4.283,1.98c3.168,0,5.004-1.62,5.436-4.824h2.88c-0.432,2.376-1.332,4.212-2.771,5.436
		c-1.404,1.188-3.24,1.8-5.544,1.8c-2.808,0-4.967-0.937-6.515-2.808c-1.476-1.764-2.196-4.067-2.196-6.911s0.721-5.147,2.196-6.947
		c1.584-1.979,3.779-2.952,6.551-2.952C496.576,251.846,498.412,252.387,499.816,253.467z"/>
	<path class="st1" d="M508.817,244.756v16.233l9.322-8.64h3.815l-8.206,7.488l8.998,11.122h-3.707l-7.271-9.251l-2.951,2.664v6.587
		h-2.88v-26.204H508.817z"/>
	<path class="st1" d="M541.936,252.35h4.607v2.412h-4.607v11.843c0,0.685,0.108,1.188,0.396,1.476
		c0.252,0.288,0.72,0.469,1.367,0.469h2.376v2.411h-2.808c-1.512,0-2.628-0.396-3.275-1.188c-0.612-0.719-0.9-1.764-0.9-3.167
		v-11.843h-3.743v-2.412h3.743v-4.822l2.844-1.188V252.35z"/>
	<path class="st1" d="M564.723,254.727c1.583,1.836,2.375,4.139,2.375,6.947c0,2.771-0.792,5.074-2.34,6.875
		c-1.691,1.943-3.923,2.915-6.694,2.915c-2.808,0-5.004-0.972-6.659-2.915c-1.584-1.801-2.376-4.104-2.376-6.875
		c0-2.809,0.792-5.111,2.376-6.947c1.655-1.944,3.852-2.881,6.659-2.881C560.835,251.846,563.067,252.782,564.723,254.727z
		 M553.457,256.525c-1.009,1.368-1.477,3.061-1.477,5.148c0,2.051,0.468,3.742,1.477,5.111c1.079,1.512,2.627,2.268,4.607,2.268
		c1.943,0,3.491-0.756,4.643-2.268c0.973-1.369,1.477-3.096,1.477-5.111c0-2.088-0.504-3.78-1.477-5.148
		c-1.151-1.512-2.699-2.268-4.643-2.268C556.083,254.258,554.536,255.014,553.457,256.525z"/>
	<path class="st1" d="M586.251,244.756v26.204h-2.844v-26.204H586.251z"/>
	<path class="st1" d="M595.215,245.943c0.432,0.359,0.647,0.863,0.647,1.512c0,0.611-0.216,1.115-0.647,1.548
		c-0.433,0.396-0.937,0.612-1.548,0.612c-0.612,0-1.116-0.217-1.548-0.612c-0.433-0.433-0.612-0.937-0.612-1.548
		c0-0.648,0.18-1.152,0.612-1.512c0.432-0.432,0.936-0.612,1.548-0.612C594.279,245.331,594.783,245.512,595.215,245.943z
		 M595.107,252.35v18.61h-2.88v-18.61H595.107z"/>
	<path class="st1" d="M611.522,245.26v2.482h-3.203c-0.792,0-1.404,0.181-1.765,0.613c-0.359,0.396-0.539,1.043-0.539,1.943v2.051
		h5.255v2.412h-5.255v16.198h-2.88v-16.198h-4.68v-2.412h4.68v-2.123c0-1.584,0.396-2.771,1.188-3.636
		c0.828-0.899,2.052-1.331,3.636-1.331H611.522z"/>
	<path class="st1" d="M628.37,254.87c1.367,1.8,2.087,4.355,2.159,7.595h-14.686c0.144,2.088,0.684,3.707,1.691,4.859
		s2.412,1.729,4.176,1.729c1.512,0,2.771-0.396,3.707-1.152c0.792-0.648,1.404-1.619,1.872-2.916h2.88
		c-0.433,1.801-1.26,3.24-2.521,4.392c-1.547,1.368-3.527,2.088-5.938,2.088c-2.664,0-4.823-0.899-6.407-2.628
		c-1.656-1.799-2.448-4.176-2.448-7.199c0-2.735,0.756-5.039,2.34-6.875c1.584-1.943,3.708-2.916,6.407-2.916
		C624.589,251.846,626.858,252.854,628.37,254.87z M617.678,255.878c-1.008,1.079-1.583,2.52-1.764,4.355h11.627
		c-0.36-3.995-2.34-5.976-5.867-5.976C620.018,254.258,618.686,254.798,617.678,255.878z"/>
	<path class="st1" d="M637.982,267.324c0.432,0.432,0.648,0.936,0.648,1.584c0,0.611-0.217,1.115-0.648,1.548
		s-0.972,0.647-1.548,0.647c-0.647,0-1.151-0.215-1.548-0.647c-0.432-0.433-0.647-0.937-0.647-1.548
		c0-0.648,0.216-1.152,0.647-1.584c0.396-0.432,0.9-0.648,1.548-0.648C637.01,266.676,637.55,266.893,637.982,267.324z"/>
</g>
</svg>