<!-- Generator: Adobe Illustrator 22.0.1, SVG Export Plug-In  -->
<svg version="1.1"
	 xmlns="http://www.w3.org/2000/svg" xmlns:xlink="http://www.w3.org/1999/xlink" xmlns:a="http://ns.adobe.com/AdobeSVGViewerExtensions/3.0/"
	 x="0px" y="0px" width="417.333px" height="144.651px" viewBox="0 0 417.333 144.651"
	 style="enable-background:new 0 0 417.333 144.651;" xml:space="preserve">
<style type="text/css">
	.st0{fill:#575756;}
	.st1{font-family:'PingFangTC-Medium-B5pc-H';}
	.st2{font-size:55px;}
	.st3{font-family:'PingFangTC-Regular-B5pc-H';}
	.st4{font-size:36px;}
</style>
<defs>
</defs>
<g>
	<path class="st0" d="M32.996,8.035v5.114H19.907V47.3h-5.939v-34.15H0.825V8.035H32.996z"/>
	<path class="st0" d="M43.009,7.265v15.618c1.045-1.649,2.365-2.915,3.959-3.685c1.43-0.77,3.024-1.1,4.839-1.1
		c3.409,0,5.994,0.99,7.754,3.024c1.65,1.925,2.475,4.784,2.475,8.524V47.3h-5.829V30.638c0-2.53-0.55-4.4-1.54-5.72
		c-1.1-1.375-2.805-2.035-5.004-2.035c-1.979,0-3.574,0.771-4.784,2.364c-1.265,1.596-1.87,3.631-1.87,6.105V47.3H37.18V7.265
		H43.009z"/>
	<path class="st0" d="M91.296,22.828c2.2,2.859,3.354,6.819,3.41,11.878H73.148c0.22,2.75,0.935,4.895,2.254,6.379
		c1.32,1.431,3.135,2.2,5.444,2.2c2.035,0,3.685-0.495,4.95-1.43c0.99-0.771,1.814-2.034,2.584-3.685h5.829
		c-0.66,2.64-1.925,4.895-3.904,6.654c-2.475,2.145-5.609,3.244-9.404,3.244c-4.18,0-7.534-1.319-9.954-3.904
		c-2.64-2.75-3.959-6.434-3.959-11.108c0-4.234,1.21-7.754,3.739-10.613c2.42-2.915,5.774-4.345,9.954-4.345
		C85.302,18.099,88.876,19.639,91.296,22.828z M75.623,24.808c-1.21,1.266-2.035,3.08-2.365,5.5h15.343
		c-0.55-4.949-3.134-7.425-7.754-7.425C78.647,22.883,76.943,23.487,75.623,24.808z"/>
	<path class="st0" d="M142.995,10.18c2.75,2.034,4.29,5.169,4.675,9.459h-5.939c-0.55-2.53-1.54-4.399-3.08-5.499
		c-1.54-1.155-3.739-1.705-6.709-1.705c-2.584,0-4.564,0.385-5.939,1.154c-1.705,0.881-2.53,2.311-2.53,4.29
		c0,1.76,0.935,3.134,2.915,4.179c0.88,0.496,3.135,1.32,6.819,2.42c5.279,1.65,8.744,2.915,10.284,3.85
		c3.354,2.035,5.06,4.84,5.06,8.469c0,3.52-1.375,6.27-4.125,8.305c-2.749,1.979-6.599,2.969-11.548,2.969
		c-4.785,0-8.524-0.989-11.219-2.859c-3.245-2.31-5.004-5.939-5.334-10.889h5.939c0.44,3.08,1.54,5.334,3.3,6.654
		c1.595,1.21,4.014,1.814,7.314,1.814c2.97,0,5.334-0.55,7.094-1.539c1.76-0.99,2.64-2.365,2.64-4.125
		c0-2.199-1.265-3.904-3.739-5.169c-0.88-0.44-3.465-1.319-7.81-2.64c-4.839-1.54-7.809-2.585-9.019-3.244
		c-3.025-1.815-4.51-4.455-4.51-7.865c0-3.464,1.43-6.158,4.345-8.139c2.75-1.869,6.214-2.805,10.394-2.805
		C136.836,7.265,140.41,8.2,142.995,10.18z"/>
	<path class="st0" d="M176.984,22.388c2.529,2.805,3.85,6.379,3.85,10.725c0,4.289-1.265,7.863-3.795,10.613
		c-2.64,2.859-6.104,4.344-10.394,4.344c-4.289,0-7.754-1.484-10.394-4.344c-2.529-2.75-3.794-6.324-3.794-10.613
		c0-4.346,1.265-7.92,3.85-10.725c2.584-2.859,6.049-4.289,10.338-4.289C170.936,18.099,174.399,19.528,176.984,22.388z
		 M160.377,26.073c-1.32,1.814-1.925,4.179-1.925,7.039c0,2.859,0.604,5.169,1.925,6.983c1.484,2.09,3.574,3.189,6.269,3.189
		c2.695,0,4.785-1.1,6.324-3.189c1.32-1.87,1.98-4.179,1.98-6.983c0-2.86-0.66-5.225-1.98-7.039c-1.539-2.146-3.629-3.19-6.324-3.19
		C163.951,22.883,161.861,23.928,160.377,26.073z"/>
	<path class="st0" d="M211.414,29.757V47.3h-5.829V30.252c0-4.839-2.255-7.259-6.654-7.259c-1.65,0-3.135,0.55-4.345,1.76
		c-1.319,1.32-2.145,3.135-2.364,5.444V47.3h-5.83V18.868h5.83v3.52c1.1-1.43,2.364-2.475,3.794-3.189
		c1.43-0.77,3.024-1.1,4.784-1.1C207.839,18.099,211.414,21.948,211.414,29.757z"/>
	<path class="st0" d="M259.812,22.388c2.529,2.805,3.85,6.379,3.85,10.725c0,4.289-1.265,7.863-3.795,10.613
		c-2.64,2.859-6.104,4.344-10.394,4.344c-4.289,0-7.754-1.484-10.394-4.344c-2.529-2.75-3.794-6.324-3.794-10.613
		c0-4.346,1.265-7.92,3.85-10.725c2.584-2.859,6.049-4.289,10.338-4.289C253.764,18.099,257.228,19.528,259.812,22.388z
		 M243.205,26.073c-1.32,1.814-1.925,4.179-1.925,7.039c0,2.859,0.604,5.169,1.925,6.983c1.484,2.09,3.574,3.189,6.269,3.189
		c2.695,0,4.785-1.1,6.324-3.189c1.32-1.87,1.98-4.179,1.98-6.983c0-2.86-0.66-5.225-1.98-7.039c-1.539-2.146-3.629-3.19-6.324-3.19
		C246.779,22.883,244.689,23.928,243.205,26.073z"/>
	<path class="st0" d="M286.378,8.035v4.949h-5.114c-0.935,0-1.649,0.22-2.09,0.715c-0.439,0.44-0.66,1.21-0.66,2.255v2.914h7.479
		v4.785h-7.479V47.3h-5.774V23.653h-6.544v-4.785h6.544v-3.079c0-2.42,0.66-4.345,1.98-5.664c1.319-1.431,3.189-2.09,5.719-2.09
		H286.378z"/>
	<path class="st0" d="M315.913,8.035l13.693,31.456h0.165l13.638-31.456h7.095V47.3h-5.994V19.253h-0.221L332.246,47.3h-5.169
		l-12.044-28.047h-0.22V47.3h-5.994V8.035H315.913z"/>
	<path class="st0" d="M379.711,21.233c1.705,1.814,2.585,4.454,2.585,7.919V47.3h-5.39v-4.015c-1.1,1.431-2.475,2.585-4.124,3.409
		c-1.87,0.881-4.069,1.375-6.6,1.375c-2.97,0-5.279-0.77-6.929-2.254c-1.814-1.485-2.695-3.41-2.695-5.774
		c0-3.19,1.266-5.665,3.795-7.369c2.31-1.649,5.609-2.475,9.789-2.585l6.379-0.165v-1.155c0-3.959-2.145-5.938-6.435-5.938
		c-1.814,0-3.299,0.33-4.399,0.989c-1.319,0.771-2.145,1.926-2.475,3.52l-5.773-0.494c0.604-3.08,2.145-5.39,4.563-6.819
		c2.09-1.319,4.95-1.925,8.47-1.925C374.651,18.099,377.731,19.144,379.711,21.233z M370.527,34.321
		c-5.334,0.11-7.974,1.98-7.974,5.5c0,1.1,0.439,1.979,1.374,2.694c0.88,0.715,2.09,1.1,3.575,1.1c2.475,0,4.564-0.771,6.324-2.255
		s2.694-3.354,2.694-5.555v-1.648L370.527,34.321z"/>
	<path class="st0" d="M413.975,29.757V47.3h-5.829V30.252c0-4.839-2.255-7.259-6.654-7.259c-1.649,0-3.135,0.55-4.345,1.76
		c-1.319,1.32-2.145,3.135-2.364,5.444V47.3h-5.829V18.868h5.829v3.52c1.1-1.43,2.364-2.475,3.794-3.189
		c1.431-0.77,3.025-1.1,4.785-1.1C410.4,18.099,413.975,21.948,413.975,29.757z"/>
	<path class="st0" d="M19.978,125.753v2.447H1.8v-2.447H19.978z"/>
	<path class="st0" d="M47.446,110.599c2.556,0,4.571,0.576,6.047,1.764c1.512,1.225,2.304,3.023,2.304,5.4
		c0,1.439-0.396,2.699-1.188,3.814c-0.864,1.152-2.016,1.872-3.492,2.232v0.072c2.448,0.539,3.816,2.088,4.104,4.679l0.396,3.96
		c0.144,1.584,0.612,2.844,1.368,3.779h-3.204c-0.576-0.863-0.936-1.98-1.044-3.42l-0.324-3.42c-0.144-1.512-0.684-2.627-1.62-3.275
		c-0.864-0.647-2.088-0.936-3.708-0.936h-7.775V136.3h-2.952v-25.701H47.446z M39.311,122.693h7.775
		c1.872,0,3.348-0.468,4.355-1.331c0.9-0.828,1.368-1.98,1.368-3.492c0-1.584-0.468-2.771-1.332-3.527
		c-0.936-0.792-2.412-1.188-4.392-1.188h-7.775V122.693z"/>
	<path class="st0" d="M74.77,120.21c1.368,1.8,2.087,4.355,2.16,7.595H62.243c0.144,2.088,0.684,3.708,1.691,4.859
		c1.008,1.151,2.412,1.728,4.176,1.728c1.512,0,2.771-0.396,3.708-1.151c0.792-0.647,1.404-1.62,1.872-2.915h2.88
		c-0.432,1.799-1.26,3.238-2.52,4.391c-1.547,1.368-3.527,2.088-5.939,2.088c-2.664,0-4.823-0.9-6.407-2.627
		c-1.656-1.801-2.448-4.176-2.448-7.199c0-2.736,0.756-5.04,2.34-6.875c1.583-1.944,3.708-2.916,6.407-2.916
		C70.99,117.187,73.258,118.194,74.77,120.21z M64.079,121.218c-1.008,1.08-1.583,2.52-1.764,4.355h11.626
		c-0.36-3.996-2.339-5.976-5.867-5.976C66.418,119.598,65.086,120.138,64.079,121.218z"/>
	<path class="st0" d="M95.973,124.853V136.3h-2.879v-11.23c0-3.636-1.656-5.436-4.896-5.436c-1.296,0-2.412,0.469-3.348,1.404
		c-1.008,1.008-1.548,2.34-1.656,4.031v11.23h-2.879V117.69h2.879v2.735c0.648-1.044,1.476-1.836,2.484-2.376
		c1.008-0.576,2.124-0.863,3.347-0.863C93.633,117.187,95.973,119.741,95.973,124.853z"/>
	<path class="st0" d="M114.873,120.21c1.368,1.8,2.087,4.355,2.16,7.595h-14.686c0.144,2.088,0.684,3.708,1.691,4.859
		c1.008,1.151,2.412,1.728,4.176,1.728c1.512,0,2.771-0.396,3.708-1.151c0.792-0.647,1.404-1.62,1.872-2.915h2.88
		c-0.432,1.799-1.26,3.238-2.52,4.391c-1.547,1.368-3.527,2.088-5.939,2.088c-2.664,0-4.823-0.9-6.407-2.627
		c-1.656-1.801-2.448-4.176-2.448-7.199c0-2.736,0.756-5.04,2.34-6.875c1.583-1.944,3.708-2.916,6.407-2.916
		C111.093,117.187,113.361,118.194,114.873,120.21z M104.182,121.218c-1.008,1.08-1.583,2.52-1.764,4.355h11.626
		c-0.36-3.996-2.339-5.976-5.867-5.976C106.522,119.598,105.19,120.138,104.182,121.218z M112.137,110.312l-4.931,5.255h-1.98
		l3.6-5.255H112.137z"/>
	<path class="st0" d="M136.438,110.599l9.575,21.922h0.107l9.539-21.922h3.672V136.3h-2.952v-20.445h-0.107l-8.891,20.445h-2.664
		l-8.891-20.445h-0.108V136.3h-2.952v-25.701H136.438z"/>
	<path class="st0" d="M178.16,119.274c1.08,1.223,1.655,2.915,1.655,5.074V136.3h-2.699v-3.132c-0.72,1.009-1.691,1.836-2.844,2.483
		c-1.368,0.756-2.916,1.152-4.644,1.152c-1.872,0-3.348-0.468-4.463-1.404c-1.152-0.971-1.729-2.231-1.729-3.743
		c0-2.124,0.828-3.708,2.556-4.787c1.512-1.008,3.672-1.548,6.479-1.584l4.464-0.071v-0.973c0-3.131-1.62-4.68-4.859-4.68
		c-1.368,0-2.484,0.252-3.348,0.828c-0.973,0.576-1.584,1.477-1.872,2.664l-2.844-0.217c0.396-1.943,1.368-3.419,2.88-4.355
		c1.367-0.863,3.132-1.295,5.363-1.295C174.92,117.187,176.864,117.87,178.16,119.274z M172.652,127.444
		c-4.175,0.072-6.263,1.44-6.263,4.141c0,0.863,0.324,1.547,1.044,2.123c0.72,0.54,1.655,0.828,2.808,0.828
		c1.764,0,3.312-0.576,4.679-1.729c1.332-1.115,2.017-2.411,2.017-3.852v-1.583L172.652,127.444z"/>
	<path class="st0" d="M198.212,120.894v-3.203h2.879v17.313c0,5.939-2.844,8.927-8.494,8.927c-2.521,0-4.464-0.504-5.76-1.512
		c-1.332-1.008-2.16-2.52-2.483-4.535h2.879c0.217,1.26,0.757,2.195,1.584,2.771c0.828,0.611,2.088,0.936,3.78,0.936
		c3.743,0,5.615-2.088,5.615-6.191v-3.275c-1.368,2.484-3.456,3.744-6.264,3.744c-2.592,0-4.644-0.9-6.155-2.664
		c-1.512-1.728-2.231-3.924-2.231-6.623c0-2.736,0.72-4.932,2.231-6.659c1.512-1.836,3.563-2.735,6.155-2.735
		C194.756,117.187,196.844,118.41,198.212,120.894z M188.024,121.577c-1.008,1.225-1.512,2.916-1.512,5.004
		c0,1.943,0.433,3.563,1.332,4.787c1.008,1.368,2.483,2.088,4.5,2.088c1.871,0,3.312-0.648,4.391-1.943
		c1.008-1.26,1.512-2.916,1.512-4.932c0-2.088-0.504-3.779-1.512-5.004c-1.079-1.367-2.52-2.016-4.355-2.016
		C190.509,119.562,189.068,120.21,188.024,121.577z"/>
	<path class="st0" d="M216.284,117.618v2.879c-0.937-0.287-1.872-0.395-2.772-0.395c-1.439,0-2.663,0.611-3.635,1.907
		c-1.008,1.224-1.477,2.7-1.477,4.427v9.863h-2.843V117.69h2.843v3.239c0.504-1.079,1.152-1.944,1.944-2.556
		c0.972-0.792,2.088-1.188,3.384-1.188C214.736,117.187,215.6,117.33,216.284,117.618z"/>
	<path class="st0" d="M222.62,111.282c0.433,0.361,0.648,0.865,0.648,1.513c0,0.612-0.216,1.116-0.648,1.548
		c-0.432,0.396-0.936,0.611-1.548,0.611c-0.611,0-1.115-0.216-1.548-0.611c-0.432-0.432-0.611-0.936-0.611-1.548
		c0-0.647,0.18-1.151,0.611-1.513c0.433-0.432,0.937-0.611,1.548-0.611C221.685,110.671,222.188,110.851,222.62,111.282z
		 M222.513,117.69V136.3h-2.88V117.69H222.513z"/>
	<path class="st0" d="M232.88,117.69h4.607v2.412h-4.607v11.842c0,0.684,0.108,1.188,0.396,1.476
		c0.252,0.288,0.72,0.468,1.367,0.468h2.376v2.412h-2.808c-1.512,0-2.628-0.396-3.275-1.188c-0.612-0.721-0.9-1.764-0.9-3.168
		v-11.842h-3.743v-2.412h3.743v-4.824l2.844-1.188V117.69z"/>
	<path class="st0" d="M245.66,117.69h4.607v2.412h-4.607v11.842c0,0.684,0.107,1.188,0.396,1.476
		c0.252,0.288,0.72,0.468,1.368,0.468h2.375v2.412h-2.808c-1.512,0-2.627-0.396-3.275-1.188c-0.611-0.721-0.899-1.764-0.899-3.168
		v-11.842h-3.744v-2.412h3.744v-4.824l2.844-1.188V117.69z"/>
	<path class="st0" d="M267.906,120.21c1.368,1.8,2.088,4.355,2.16,7.595H255.38c0.145,2.088,0.684,3.708,1.691,4.859
		c1.009,1.151,2.412,1.728,4.176,1.728c1.512,0,2.771-0.396,3.708-1.151c0.792-0.647,1.403-1.62,1.871-2.915h2.88
		c-0.432,1.799-1.26,3.238-2.52,4.391c-1.548,1.368-3.527,2.088-5.939,2.088c-2.663,0-4.823-0.9-6.407-2.627
		c-1.655-1.801-2.447-4.176-2.447-7.199c0-2.736,0.756-5.04,2.34-6.875c1.583-1.944,3.707-2.916,6.407-2.916
		C264.127,117.187,266.395,118.194,267.906,120.21z M257.216,121.218c-1.008,1.08-1.584,2.52-1.764,4.355h11.626
		c-0.359-3.996-2.339-5.976-5.867-5.976C259.556,119.598,258.224,120.138,257.216,121.218z"/>
</g>
</svg>