<!-- Generator: Adobe Illustrator 22.0.1, SVG Export Plug-In  -->
<svg version="1.1"
	 xmlns="http://www.w3.org/2000/svg" xmlns:xlink="http://www.w3.org/1999/xlink" xmlns:a="http://ns.adobe.com/AdobeSVGViewerExtensions/3.0/"
	 x="0px" y="0px" width="247.352px" height="238.06px" viewBox="0 0 247.352 238.06"
	 style="enable-background:new 0 0 247.352 238.06;" xml:space="preserve">
<style type="text/css">
	.st0{fill:#575756;}
	.st1{font-family:'PingFangTC-Medium-B5pc-H';}
	.st2{font-size:55px;}
	.st3{font-family:'PingFangTC-Regular-B5pc-H';}
	.st4{font-size:36px;}
</style>
<defs>
</defs>
<g>
	<path class="st0" d="M32.996,8.035v5.114H19.907V47.3h-5.939v-34.15H0.825V8.035H32.996z"/>
	<path class="st0" d="M43.009,7.265v15.618c1.045-1.649,2.365-2.915,3.959-3.685c1.43-0.77,3.024-1.1,4.839-1.1
		c3.409,0,5.994,0.99,7.754,3.024c1.65,1.925,2.475,4.784,2.475,8.524V47.3h-5.829V30.638c0-2.53-0.55-4.4-1.54-5.72
		c-1.1-1.375-2.805-2.035-5.004-2.035c-1.979,0-3.574,0.771-4.784,2.364c-1.265,1.596-1.87,3.631-1.87,6.105V47.3H37.18V7.265
		H43.009z"/>
	<path class="st0" d="M91.296,22.828c2.2,2.859,3.354,6.819,3.41,11.878H73.148c0.22,2.75,0.935,4.895,2.254,6.379
		c1.32,1.431,3.135,2.2,5.444,2.2c2.035,0,3.685-0.495,4.95-1.43c0.99-0.771,1.814-2.034,2.584-3.685h5.829
		c-0.66,2.64-1.925,4.895-3.904,6.654c-2.475,2.145-5.609,3.244-9.404,3.244c-4.18,0-7.534-1.319-9.954-3.904
		c-2.64-2.75-3.959-6.434-3.959-11.108c0-4.234,1.21-7.754,3.739-10.613c2.42-2.915,5.774-4.345,9.954-4.345
		C85.302,18.099,88.876,19.639,91.296,22.828z M75.623,24.808c-1.21,1.266-2.035,3.08-2.365,5.5h15.343
		c-0.55-4.949-3.134-7.425-7.754-7.425C78.647,22.883,76.943,23.487,75.623,24.808z"/>
	<path class="st0" d="M151.079,8.035l-17.377,16.883L153.608,47.3h-8.028l-15.948-18.478l-5.114,4.895V47.3h-5.994V8.035h5.994
		v18.972L143.49,8.035H151.079z"/>
	<path class="st0" d="M163.952,8.585c0.77,0.715,1.155,1.65,1.155,2.805s-0.44,2.09-1.21,2.859c-0.771,0.715-1.76,1.1-2.86,1.1
		c-1.154,0-2.089-0.385-2.859-1.1c-0.77-0.77-1.154-1.76-1.154-2.859c0-1.154,0.385-2.09,1.154-2.805
		c0.771-0.77,1.705-1.1,2.859-1.1C162.192,7.485,163.182,7.815,163.952,8.585z M163.952,18.868V47.3h-5.829V18.868H163.952z"/>
	<path class="st0" d="M194.53,27.062h-5.665c-0.439-1.54-1.1-2.585-2.034-3.189c-0.99-0.66-2.53-0.99-4.51-0.99
		c-1.76,0-3.079,0.22-3.959,0.771c-1.045,0.55-1.54,1.43-1.54,2.529c0,0.99,0.77,1.814,2.31,2.529c0.99,0.44,2.859,0.99,5.72,1.705
		c3.244,0.77,5.664,1.705,7.203,2.695c2.255,1.43,3.41,3.409,3.41,5.938c0,5.994-4.234,9.019-12.648,9.019
		c-7.809,0-11.988-3.354-12.648-9.953h5.72c0.329,1.925,1.045,3.299,2.034,4.069c0.99,0.715,2.53,1.1,4.729,1.1
		c4.51,0,6.819-1.319,6.819-3.849c0-1.375-0.88-2.476-2.53-3.245c-0.88-0.44-2.805-0.99-5.719-1.649
		c-3.354-0.771-5.72-1.596-7.039-2.475c-2.2-1.375-3.3-3.301-3.3-5.72c0-2.585,1.045-4.62,3.189-6.05
		c2.145-1.484,4.949-2.199,8.359-2.199C189.8,18.099,193.87,21.068,194.53,27.062z"/>
	<path class="st0" d="M223.129,27.062h-5.665c-0.439-1.54-1.1-2.585-2.034-3.189c-0.99-0.66-2.53-0.99-4.51-0.99
		c-1.76,0-3.079,0.22-3.959,0.771c-1.045,0.55-1.54,1.43-1.54,2.529c0,0.99,0.77,1.814,2.31,2.529c0.99,0.44,2.859,0.99,5.72,1.705
		c3.244,0.77,5.664,1.705,7.203,2.695c2.255,1.43,3.41,3.409,3.41,5.938c0,5.994-4.234,9.019-12.648,9.019
		c-7.809,0-11.988-3.354-12.648-9.953h5.72c0.329,1.925,1.045,3.299,2.034,4.069c0.99,0.715,2.53,1.1,4.729,1.1
		c4.51,0,6.819-1.319,6.819-3.849c0-1.375-0.88-2.476-2.53-3.245c-0.88-0.44-2.805-0.99-5.719-1.649
		c-3.354-0.771-5.72-1.596-7.039-2.475c-2.2-1.375-3.3-3.301-3.3-5.72c0-2.585,1.045-4.62,3.189-6.05
		c2.145-1.484,4.949-2.199,8.359-2.199C218.4,18.099,222.469,21.068,223.129,27.062z"/>
	<path class="st0" d="M19.978,125.753v2.447H1.8v-2.447H19.978z"/>
	<path class="st0" d="M55.005,112.435c1.8,1.477,2.916,3.6,3.384,6.407h-2.952c-0.396-1.943-1.26-3.419-2.592-4.464
		c-1.404-1.115-3.24-1.655-5.507-1.655c-2.808,0-5.003,0.972-6.659,2.952c-1.656,1.943-2.448,4.57-2.448,7.883
		c0,3.239,0.792,5.795,2.376,7.667c1.691,1.979,4.211,2.987,7.559,2.987c1.404,0,2.735-0.216,4.031-0.576
		c1.26-0.359,2.34-0.863,3.24-1.439v-6.551h-8.063v-2.557h10.979v10.512c-1.224,1.008-2.736,1.764-4.5,2.34
		c-1.872,0.575-3.852,0.863-5.975,0.863c-4.067,0-7.235-1.296-9.467-3.888c-2.088-2.411-3.132-5.543-3.132-9.358
		c0-3.816,1.008-6.947,3.096-9.432c2.196-2.699,5.184-4.031,8.963-4.031C50.542,110.095,53.097,110.851,55.005,112.435z"/>
	<path class="st0" d="M65.807,117.69v11.375c0,1.764,0.36,3.095,1.116,3.959c0.756,0.863,1.98,1.332,3.672,1.332
		c1.224,0,2.339-0.504,3.312-1.44c1.008-1.008,1.62-2.304,1.835-3.888V117.69h2.88V136.3h-2.88v-2.88
		c-1.512,2.231-3.527,3.384-6.047,3.384c-4.536,0-6.767-2.556-6.767-7.596V117.69H65.807z"/>
	<path class="st0" d="M97.305,122.981h-2.808c-0.252-1.152-0.72-2.016-1.439-2.52c-0.792-0.576-1.944-0.864-3.42-0.864
		c-1.296,0-2.304,0.216-3.023,0.72c-0.792,0.469-1.188,1.116-1.188,1.944c0,0.792,0.504,1.476,1.584,2.016
		c0.684,0.323,1.979,0.72,3.852,1.224c2.231,0.54,3.815,1.116,4.787,1.729c1.476,0.936,2.232,2.195,2.232,3.814
		c0,3.816-2.628,5.76-7.883,5.76c-4.896,0-7.559-2.16-7.991-6.443h2.808c0.216,1.477,0.756,2.52,1.548,3.168
		c0.792,0.576,1.979,0.863,3.563,0.863c3.312,0,5.003-1.08,5.003-3.167c0-1.044-0.612-1.836-1.764-2.412
		c-0.612-0.288-1.944-0.684-3.959-1.188c-2.196-0.54-3.744-1.08-4.607-1.655c-1.44-0.865-2.124-2.053-2.124-3.637
		c0-1.583,0.684-2.807,2.088-3.743c1.296-0.936,3.023-1.403,5.111-1.403C94.281,117.187,96.801,119.094,97.305,122.981z"/>
	<path class="st0" d="M106.234,117.69h4.607v2.412h-4.607v11.842c0,0.684,0.108,1.188,0.396,1.476
		c0.252,0.288,0.72,0.468,1.368,0.468h2.375v2.412h-2.808c-1.512,0-2.627-0.396-3.275-1.188c-0.612-0.721-0.9-1.764-0.9-3.168
		v-11.842h-3.744v-2.412h3.744v-4.824l2.844-1.188V117.69z"/>
	<path class="st0" d="M128.048,119.274c1.08,1.223,1.656,2.915,1.656,5.074V136.3h-2.7v-3.132c-0.72,1.009-1.691,1.836-2.843,2.483
		c-1.368,0.756-2.916,1.152-4.644,1.152c-1.872,0-3.348-0.468-4.463-1.404c-1.152-0.971-1.728-2.231-1.728-3.743
		c0-2.124,0.828-3.708,2.556-4.787c1.512-1.008,3.672-1.548,6.479-1.584l4.463-0.071v-0.973c0-3.131-1.62-4.68-4.859-4.68
		c-1.368,0-2.484,0.252-3.348,0.828c-0.972,0.576-1.584,1.477-1.872,2.664l-2.843-0.217c0.396-1.943,1.368-3.419,2.879-4.355
		c1.368-0.863,3.132-1.295,5.363-1.295C124.809,117.187,126.752,117.87,128.048,119.274z M122.541,127.444
		c-4.175,0.072-6.263,1.44-6.263,4.141c0,0.863,0.324,1.547,1.044,2.123c0.72,0.54,1.656,0.828,2.808,0.828
		c1.764,0,3.312-0.576,4.679-1.729c1.332-1.115,2.016-2.411,2.016-3.852v-1.583L122.541,127.444z"/>
	<path class="st0" d="M135.286,117.69l5.327,15.01l5.327-15.01h3.168l-7.056,18.609h-2.915l-7.019-18.609H135.286z"/>
	<path class="st0" d="M184.495,110.599l-11.627,11.016l13.247,14.686h-3.96l-11.339-12.778l-3.995,3.779v8.999h-2.951v-25.701h2.951
		v13.354l13.822-13.354H184.495z"/>
	<path class="st0" d="M191.768,110.095V136.3h-2.844v-26.205H191.768z"/>
	<path class="st0" d="M200.732,111.282c0.432,0.361,0.647,0.865,0.647,1.513c0,0.612-0.216,1.116-0.647,1.548
		c-0.433,0.396-0.937,0.611-1.548,0.611c-0.612,0-1.116-0.216-1.548-0.611c-0.433-0.432-0.612-0.936-0.612-1.548
		c0-0.647,0.18-1.151,0.612-1.513c0.432-0.432,0.936-0.611,1.548-0.611C199.795,110.671,200.299,110.851,200.732,111.282z
		 M200.624,117.69V136.3h-2.88V117.69H200.624z"/>
	<path class="st0" d="M219.99,120.714c0.721-1.225,1.584-2.124,2.592-2.664c0.9-0.576,1.98-0.863,3.276-0.863
		c1.943,0,3.491,0.611,4.715,1.836c1.152,1.26,1.764,2.951,1.764,5.074V136.3h-2.88v-11.734c0-1.656-0.359-2.88-1.043-3.672
		c-0.721-0.863-1.872-1.26-3.456-1.26c-1.224,0-2.268,0.432-3.06,1.368c-0.864,0.936-1.26,2.124-1.26,3.636V136.3h-2.88v-11.734
		c0-3.312-1.439-4.932-4.283-4.932c-1.332,0-2.412,0.504-3.275,1.584c-0.864,1.008-1.296,2.268-1.296,3.744V136.3h-2.88V117.69h2.88
		v2.483c1.403-2.016,3.167-2.987,5.255-2.987C217.002,117.187,218.947,118.338,219.99,120.714z"/>
	<path class="st0" d="M241.771,117.69h4.607v2.412h-4.607v11.842c0,0.684,0.108,1.188,0.396,1.476
		c0.252,0.288,0.72,0.468,1.367,0.468h2.376v2.412h-2.808c-1.512,0-2.628-0.396-3.275-1.188c-0.612-0.721-0.9-1.764-0.9-3.168
		v-11.842h-3.743v-2.412h3.743v-4.824l2.844-1.188V117.69z"/>
</g>
</svg>