<!-- Generator: Adobe Illustrator 22.0.1, SVG Export Plug-In  -->
<svg version="1.1"
	 xmlns="http://www.w3.org/2000/svg" xmlns:xlink="http://www.w3.org/1999/xlink" xmlns:a="http://ns.adobe.com/AdobeSVGViewerExtensions/3.0/"
	 x="0px" y="0px" width="662.569px" height="386.621px" viewBox="0 0 662.569 386.621"
	 style="enable-background:new 0 0 662.569 386.621;" xml:space="preserve">
<style type="text/css">
	.st0{fill:none;}
	.st1{fill:#575756;}
	.st2{font-family:'PingFangTC-Regular-B5pc-H';}
	.st3{font-size:36px;}
</style>
<defs>
</defs>
<g>
	<rect x="0" y="4.752" class="st0" width="662.569" height="381.869"/>
	<path class="st1" d="M3.492,5.259L9.143,26.82h0.144l5.868-21.561h3.204l5.831,21.561h0.144l5.651-21.561h3.312L25.917,30.96
		h-3.276L16.81,9.542h-0.108L10.834,30.96H7.559L0.18,5.259H3.492z"/>
	<path class="st1" d="M50.146,14.87c1.368,1.8,2.087,4.355,2.16,7.595H37.619c0.144,2.088,0.684,3.708,1.691,4.859
		c1.008,1.152,2.412,1.728,4.176,1.728c1.512,0,2.771-0.396,3.708-1.152c0.792-0.648,1.404-1.62,1.872-2.916h2.88
		c-0.432,1.8-1.26,3.239-2.52,4.391c-1.547,1.368-3.527,2.088-5.939,2.088c-2.664,0-4.823-0.9-6.407-2.627
		c-1.656-1.8-2.448-4.176-2.448-7.199c0-2.736,0.756-5.04,2.34-6.875c1.583-1.944,3.708-2.916,6.407-2.916
		C46.366,11.846,48.634,12.854,50.146,14.87z M39.455,15.878c-1.008,1.08-1.583,2.52-1.764,4.355h11.626
		c-0.36-3.996-2.339-5.976-5.867-5.976C41.794,14.258,40.462,14.798,39.455,15.878z"/>
	<path class="st1" d="M82.113,14.87c1.368,1.8,2.087,4.355,2.16,7.595H69.586c0.144,2.088,0.684,3.708,1.691,4.859
		c1.008,1.152,2.412,1.728,4.176,1.728c1.512,0,2.771-0.396,3.708-1.152c0.792-0.648,1.404-1.62,1.872-2.916h2.88
		c-0.432,1.8-1.26,3.239-2.52,4.391c-1.548,1.368-3.527,2.088-5.939,2.088c-2.664,0-4.824-0.9-6.407-2.627
		c-1.656-1.8-2.448-4.176-2.448-7.199c0-2.736,0.756-5.04,2.34-6.875c1.583-1.944,3.708-2.916,6.407-2.916
		C78.333,11.846,80.601,12.854,82.113,14.87z M71.422,15.878c-1.008,1.08-1.583,2.52-1.764,4.355h11.626
		c-0.36-3.996-2.339-5.976-5.867-5.976C73.762,14.258,72.43,14.798,71.422,15.878z"/>
	<path class="st1" d="M101.661,13.934c1.08,1.224,1.656,2.916,1.656,5.075V30.96h-2.7v-3.132c-0.72,1.008-1.691,1.836-2.843,2.484
		c-1.368,0.756-2.916,1.152-4.644,1.152c-1.872,0-3.348-0.468-4.463-1.404c-1.152-0.972-1.728-2.232-1.728-3.744
		c0-2.124,0.828-3.708,2.556-4.787c1.512-1.008,3.672-1.548,6.479-1.584l4.463-0.072v-0.972c0-3.131-1.62-4.679-4.859-4.679
		c-1.368,0-2.484,0.252-3.348,0.828c-0.972,0.576-1.584,1.476-1.872,2.664l-2.843-0.216c0.396-1.944,1.368-3.419,2.879-4.355
		c1.368-0.864,3.132-1.296,5.363-1.296C98.421,11.846,100.365,12.53,101.661,13.934z M96.153,22.105
		c-4.175,0.072-6.263,1.44-6.263,4.14c0,0.864,0.324,1.548,1.044,2.124c0.72,0.54,1.656,0.828,2.808,0.828
		c1.764,0,3.312-0.576,4.679-1.728c1.332-1.116,2.016-2.412,2.016-3.852v-1.583L96.153,22.105z"/>
	<path class="st1" d="M122,17.642h-2.808c-0.252-1.152-0.72-2.016-1.439-2.52c-0.792-0.576-1.944-0.864-3.42-0.864
		c-1.296,0-2.304,0.216-3.023,0.72c-0.792,0.468-1.188,1.116-1.188,1.944c0,0.792,0.504,1.476,1.584,2.016
		c0.684,0.324,1.979,0.72,3.852,1.224c2.231,0.54,3.815,1.116,4.787,1.728c1.476,0.936,2.232,2.196,2.232,3.815
		c0,3.815-2.628,5.759-7.883,5.759c-4.896,0-7.559-2.16-7.991-6.443h2.808c0.216,1.476,0.756,2.52,1.548,3.168
		c0.792,0.576,1.979,0.864,3.563,0.864c3.312,0,5.003-1.08,5.003-3.167c0-1.044-0.612-1.836-1.764-2.412
		c-0.612-0.288-1.944-0.684-3.959-1.188c-2.196-0.54-3.744-1.08-4.607-1.656c-1.44-0.864-2.124-2.052-2.124-3.636
		c0-1.583,0.684-2.808,2.088-3.744c1.296-0.936,3.023-1.404,5.111-1.404C118.977,11.846,121.496,13.754,122,17.642z"/>
	<path class="st1" d="M129.885,5.943c0.432,0.36,0.648,0.864,0.648,1.512c0,0.612-0.216,1.116-0.648,1.548
		c-0.432,0.396-0.936,0.612-1.548,0.612s-1.116-0.216-1.548-0.612c-0.432-0.432-0.612-0.936-0.612-1.548
		c0-0.648,0.18-1.152,0.612-1.512c0.432-0.432,0.936-0.612,1.548-0.612S129.453,5.511,129.885,5.943z M129.777,12.35v18.61h-2.88
		V12.35H129.777z"/>
	<path class="st1" d="M138.597,4.755V30.96h-2.844V4.755H138.597z"/>
	<path class="st1" d="M144.716,12.35l5.688,14.687l5.508-14.687h3.167l-10.187,25.737h-3.132l3.204-7.559l-7.379-18.178H144.716z"/>
	<path class="st1" d="M187.411,15.554V12.35h2.879v17.314c0,5.939-2.844,8.927-8.494,8.927c-2.521,0-4.464-0.504-5.76-1.512
		c-1.332-1.008-2.16-2.52-2.483-4.535h2.879c0.217,1.26,0.757,2.195,1.584,2.771c0.828,0.612,2.088,0.936,3.78,0.936
		c3.743,0,5.615-2.088,5.615-6.191v-3.275c-1.368,2.483-3.456,3.743-6.264,3.743c-2.592,0-4.644-0.9-6.155-2.664
		c-1.512-1.728-2.231-3.923-2.231-6.623c0-2.736,0.72-4.932,2.231-6.659c1.512-1.836,3.563-2.736,6.155-2.736
		C183.955,11.846,186.042,13.07,187.411,15.554z M177.223,16.238c-1.008,1.224-1.512,2.916-1.512,5.003
		c0,1.944,0.433,3.563,1.332,4.788c1.008,1.368,2.483,2.087,4.5,2.087c1.871,0,3.312-0.648,4.391-1.944
		c1.008-1.26,1.512-2.916,1.512-4.931c0-2.088-0.504-3.78-1.512-5.003c-1.079-1.368-2.52-2.016-4.355-2.016
		C179.708,14.222,178.267,14.87,177.223,16.238z"/>
	<path class="st1" d="M209.19,14.87c1.367,1.8,2.087,4.355,2.159,7.595h-14.686c0.144,2.088,0.684,3.708,1.691,4.859
		s2.412,1.728,4.176,1.728c1.512,0,2.771-0.396,3.707-1.152c0.792-0.648,1.404-1.62,1.872-2.916h2.88
		c-0.433,1.8-1.26,3.239-2.521,4.391c-1.548,1.368-3.527,2.088-5.938,2.088c-2.664,0-4.824-0.9-6.407-2.627
		c-1.656-1.8-2.448-4.176-2.448-7.199c0-2.736,0.756-5.04,2.34-6.875c1.584-1.944,3.708-2.916,6.407-2.916
		C205.41,11.846,207.678,12.854,209.19,14.87z M198.499,15.878c-1.008,1.08-1.583,2.52-1.764,4.355h11.627
		c-0.36-3.996-2.34-5.976-5.867-5.976C200.838,14.258,199.506,14.798,198.499,15.878z"/>
	<path class="st1" d="M219.703,12.35h4.607v2.412h-4.607v11.842c0,0.684,0.108,1.188,0.396,1.476
		c0.252,0.288,0.72,0.468,1.367,0.468h2.376v2.412h-2.808c-1.512,0-2.628-0.396-3.275-1.188c-0.612-0.72-0.9-1.764-0.9-3.167V14.762
		h-3.743V12.35h3.743V7.527l2.844-1.188V12.35z"/>
	<path class="st1" d="M253.074,13.466c1.439,1.116,2.304,2.808,2.627,5.075h-2.844c-0.252-1.44-0.827-2.52-1.728-3.24
		c-0.936-0.72-2.124-1.044-3.6-1.044c-1.8,0-3.239,0.684-4.283,2.052c-1.008,1.332-1.512,3.132-1.512,5.399
		c0,2.268,0.468,4.067,1.476,5.363c0.972,1.296,2.412,1.98,4.283,1.98c3.168,0,5.004-1.62,5.436-4.823h2.88
		c-0.432,2.375-1.332,4.211-2.771,5.435c-1.404,1.188-3.24,1.8-5.544,1.8c-2.808,0-4.967-0.936-6.515-2.808
		c-1.476-1.764-2.196-4.067-2.196-6.911s0.721-5.147,2.196-6.947c1.584-1.979,3.779-2.952,6.551-2.952
		C249.833,11.846,251.669,12.386,253.074,13.466z"/>
	<path class="st1" d="M262.075,12.35v11.375c0,1.764,0.359,3.095,1.115,3.959c0.756,0.864,1.98,1.332,3.672,1.332
		c1.224,0,2.34-0.504,3.312-1.44c1.008-1.008,1.62-2.304,1.836-3.887V12.35h2.88v18.61h-2.88v-2.88
		c-1.512,2.232-3.527,3.384-6.047,3.384c-4.536,0-6.768-2.556-6.768-7.595V12.35H262.075z"/>
	<path class="st1" d="M290.082,12.278v2.879c-0.937-0.288-1.872-0.396-2.772-0.396c-1.439,0-2.663,0.612-3.635,1.908
		c-1.008,1.224-1.477,2.7-1.477,4.427v9.863h-2.843V12.35h2.843v3.24c0.504-1.08,1.152-1.944,1.944-2.556
		c0.972-0.792,2.088-1.188,3.384-1.188C288.534,11.846,289.397,11.99,290.082,12.278z"/>
	<path class="st1" d="M296.417,5.943c0.433,0.36,0.648,0.864,0.648,1.512c0,0.612-0.216,1.116-0.648,1.548
		c-0.432,0.396-0.936,0.612-1.548,0.612c-0.611,0-1.115-0.216-1.548-0.612c-0.432-0.432-0.611-0.936-0.611-1.548
		c0-0.648,0.18-1.152,0.611-1.512c0.433-0.432,0.937-0.612,1.548-0.612C295.482,5.331,295.986,5.511,296.417,5.943z M296.31,12.35
		v18.61h-2.88V12.35H296.31z"/>
	<path class="st1" d="M316.684,14.726c1.584,1.835,2.376,4.139,2.376,6.947c0,2.771-0.792,5.075-2.34,6.875
		c-1.692,1.944-3.924,2.916-6.695,2.916c-2.808,0-5.003-0.972-6.659-2.916c-1.584-1.8-2.376-4.104-2.376-6.875
		c0-2.808,0.792-5.112,2.376-6.947c1.656-1.944,3.852-2.88,6.659-2.88C312.796,11.846,315.028,12.782,316.684,14.726z
		 M305.417,16.526c-1.008,1.368-1.476,3.06-1.476,5.147c0,2.052,0.468,3.743,1.476,5.111c1.08,1.512,2.628,2.268,4.607,2.268
		c1.943,0,3.491-0.756,4.644-2.268c0.972-1.368,1.476-3.096,1.476-5.111c0-2.088-0.504-3.78-1.476-5.147
		c-1.152-1.512-2.7-2.268-4.644-2.268C308.045,14.258,306.498,15.014,305.417,16.526z"/>
	<path class="st1" d="M325.685,12.35v11.375c0,1.764,0.36,3.095,1.116,3.959c0.756,0.864,1.979,1.332,3.672,1.332
		c1.224,0,2.339-0.504,3.312-1.44c1.008-1.008,1.619-2.304,1.835-3.887V12.35h2.88v18.61h-2.88v-2.88
		c-1.512,2.232-3.527,3.384-6.047,3.384c-4.535,0-6.767-2.556-6.767-7.595V12.35H325.685z"/>
	<path class="st1" d="M357.184,17.642h-2.808c-0.252-1.152-0.72-2.016-1.439-2.52c-0.792-0.576-1.944-0.864-3.42-0.864
		c-1.296,0-2.304,0.216-3.023,0.72c-0.792,0.468-1.188,1.116-1.188,1.944c0,0.792,0.504,1.476,1.584,2.016
		c0.685,0.324,1.979,0.72,3.852,1.224c2.231,0.54,3.815,1.116,4.787,1.728c1.477,0.936,2.232,2.196,2.232,3.815
		c0,3.815-2.628,5.759-7.883,5.759c-4.896,0-7.56-2.16-7.991-6.443h2.808c0.216,1.476,0.756,2.52,1.548,3.168
		c0.792,0.576,1.979,0.864,3.563,0.864c3.312,0,5.003-1.08,5.003-3.167c0-1.044-0.611-1.836-1.764-2.412
		c-0.611-0.288-1.943-0.684-3.959-1.188c-2.196-0.54-3.744-1.08-4.607-1.656c-1.44-0.864-2.124-2.052-2.124-3.636
		c0-1.583,0.684-2.808,2.088-3.744c1.296-0.936,3.023-1.404,5.111-1.404C354.161,11.846,356.68,13.754,357.184,17.642z"/>
	<path class="st1" d="M365.213,27.324c0.432,0.432,0.647,0.936,0.647,1.584c0,0.612-0.216,1.116-0.647,1.548
		c-0.433,0.432-0.973,0.648-1.548,0.648c-0.648,0-1.152-0.216-1.548-0.648c-0.433-0.432-0.648-0.936-0.648-1.548
		c0-0.648,0.216-1.152,0.648-1.584c0.396-0.432,0.899-0.648,1.548-0.648C364.241,26.676,364.781,26.893,365.213,27.324z"/>
	<path class="st1" d="M3.492,65.259L9.143,86.82h0.144l5.868-21.561h3.204l5.831,21.561h0.144l5.651-21.561h3.312L25.917,90.96
		h-3.276L16.81,69.542h-0.108L10.834,90.96H7.559L0.18,65.259H3.492z"/>
	<path class="st1" d="M50.146,74.87c1.368,1.8,2.087,4.355,2.16,7.595H37.619c0.144,2.088,0.684,3.708,1.691,4.859
		c1.008,1.152,2.412,1.728,4.176,1.728c1.512,0,2.771-0.396,3.708-1.152c0.792-0.648,1.404-1.62,1.872-2.916h2.88
		c-0.432,1.8-1.26,3.239-2.52,4.391c-1.547,1.368-3.527,2.088-5.939,2.088c-2.664,0-4.823-0.9-6.407-2.627
		c-1.656-1.8-2.448-4.176-2.448-7.199c0-2.736,0.756-5.04,2.34-6.875c1.583-1.944,3.708-2.916,6.407-2.916
		C46.366,71.846,48.634,72.854,50.146,74.87z M39.455,75.878c-1.008,1.08-1.583,2.52-1.764,4.355h11.626
		c-0.36-3.996-2.339-5.976-5.867-5.976C41.794,74.258,40.462,74.798,39.455,75.878z"/>
	<path class="st1" d="M68.794,72.35l4.571,15.083l4.319-15.083h2.7l4.32,15.083l4.571-15.083h3.167l-6.335,18.61h-2.736
		l-4.319-14.974L74.662,90.96h-2.7l-6.335-18.61H68.794z"/>
	<path class="st1" d="M109.833,74.726c1.583,1.835,2.375,4.139,2.375,6.947c0,2.771-0.792,5.075-2.34,6.875
		c-1.691,1.944-3.923,2.916-6.695,2.916c-2.808,0-5.003-0.972-6.659-2.916c-1.584-1.8-2.376-4.104-2.376-6.875
		c0-2.808,0.792-5.112,2.376-6.947c1.656-1.944,3.852-2.88,6.659-2.88C105.945,71.846,108.177,72.782,109.833,74.726z
		 M98.566,76.526c-1.008,1.368-1.476,3.06-1.476,5.147c0,2.052,0.468,3.743,1.476,5.111c1.08,1.512,2.627,2.268,4.607,2.268
		c1.943,0,3.491-0.756,4.643-2.268c0.972-1.368,1.476-3.096,1.476-5.111c0-2.088-0.504-3.78-1.476-5.147
		c-1.152-1.512-2.7-2.268-4.643-2.268C101.193,74.258,99.646,75.014,98.566,76.526z"/>
	<path class="st1" d="M131.612,79.513V90.96h-2.879v-11.23c0-3.636-1.656-5.436-4.896-5.436c-1.296,0-2.412,0.468-3.348,1.404
		c-1.008,1.008-1.548,2.34-1.656,4.032v11.23h-2.879V72.35h2.879v2.736c0.648-1.044,1.476-1.836,2.484-2.375
		c1.008-0.576,2.124-0.864,3.347-0.864C129.272,71.846,131.612,74.402,131.612,79.513z"/>
	<path class="st1" d="M152.708,64.755V90.96h-2.699V87.9c-1.296,2.375-3.384,3.563-6.191,3.563c-2.736,0-4.859-1.008-6.371-2.952
		c-1.404-1.8-2.088-4.104-2.088-6.911c0-2.736,0.684-4.967,2.088-6.767c1.512-2.016,3.563-2.988,6.227-2.988
		c2.664,0,4.716,1.296,6.155,3.924V64.755H152.708z M139.677,76.382c-0.936,1.26-1.368,2.988-1.368,5.219
		c0,2.232,0.433,3.996,1.332,5.292c1.008,1.44,2.52,2.196,4.535,2.196c1.872,0,3.312-0.72,4.355-2.16
		c0.9-1.296,1.368-2.988,1.368-5.076v-0.36c0-2.16-0.54-3.923-1.548-5.255c-1.044-1.368-2.412-2.016-4.067-2.016
		C142.233,74.222,140.685,74.942,139.677,76.382z"/>
	<path class="st1" d="M171.608,74.87c1.368,1.8,2.088,4.355,2.16,7.595h-14.687c0.145,2.088,0.684,3.708,1.691,4.859
		c1.009,1.152,2.412,1.728,4.176,1.728c1.512,0,2.771-0.396,3.708-1.152c0.792-0.648,1.403-1.62,1.871-2.916h2.88
		c-0.432,1.8-1.26,3.239-2.52,4.391c-1.548,1.368-3.527,2.088-5.939,2.088c-2.663,0-4.823-0.9-6.407-2.627
		c-1.655-1.8-2.447-4.176-2.447-7.199c0-2.736,0.756-5.04,2.34-6.875c1.583-1.944,3.707-2.916,6.407-2.916
		C167.829,71.846,170.096,72.854,171.608,74.87z M160.917,75.878c-1.008,1.08-1.584,2.52-1.764,4.355h11.626
		c-0.359-3.996-2.339-5.976-5.867-5.976C163.257,74.258,161.925,74.798,160.917,75.878z"/>
	<path class="st1" d="M187.88,72.278v2.879c-0.937-0.288-1.872-0.396-2.772-0.396c-1.439,0-2.663,0.612-3.635,1.908
		c-1.008,1.224-1.477,2.7-1.477,4.427v9.863h-2.843V72.35h2.843v3.24c0.504-1.08,1.152-1.944,1.944-2.556
		c0.972-0.792,2.088-1.188,3.384-1.188C186.333,71.846,187.196,71.99,187.88,72.278z"/>
	<path class="st1" d="M216.283,73.934c1.08,1.224,1.656,2.916,1.656,5.075V90.96h-2.7v-3.132c-0.72,1.008-1.691,1.836-2.843,2.484
		c-1.368,0.756-2.916,1.152-4.644,1.152c-1.872,0-3.348-0.468-4.464-1.404c-1.151-0.972-1.728-2.232-1.728-3.744
		c0-2.124,0.828-3.708,2.556-4.787c1.512-1.008,3.672-1.548,6.479-1.584l4.463-0.072v-0.972c0-3.131-1.62-4.679-4.859-4.679
		c-1.368,0-2.483,0.252-3.348,0.828c-0.972,0.576-1.584,1.476-1.872,2.664l-2.843-0.216c0.396-1.944,1.367-3.419,2.879-4.355
		c1.368-0.864,3.132-1.296,5.363-1.296C213.043,71.846,214.987,72.53,216.283,73.934z M210.776,82.105
		c-4.176,0.072-6.264,1.44-6.264,4.14c0,0.864,0.324,1.548,1.044,2.124c0.72,0.54,1.656,0.828,2.808,0.828
		c1.764,0,3.312-0.576,4.68-1.728c1.332-1.116,2.016-2.412,2.016-3.852v-1.583L210.776,82.105z"/>
	<path class="st1" d="M225.284,64.755V75.77c1.44-2.628,3.492-3.924,6.155-3.924c2.628,0,4.716,0.972,6.228,2.988
		c1.368,1.8,2.088,4.031,2.088,6.767c0,2.808-0.72,5.111-2.088,6.911c-1.548,1.944-3.672,2.952-6.371,2.952
		c-2.88,0-4.932-1.188-6.191-3.563v3.06h-2.699V64.755H225.284z M226.76,76.238c-1.08,1.332-1.584,3.096-1.584,5.255v0.36
		c0,2.088,0.468,3.78,1.403,5.076c1.008,1.439,2.484,2.16,4.355,2.16c2.016,0,3.527-0.756,4.535-2.196
		c0.864-1.296,1.332-3.06,1.332-5.292c0-2.231-0.468-3.959-1.403-5.219c-1.044-1.44-2.556-2.16-4.571-2.16
		C229.135,74.222,227.768,74.87,226.76,76.238z"/>
	<path class="st1" d="M258.474,74.726c1.584,1.835,2.376,4.139,2.376,6.947c0,2.771-0.792,5.075-2.34,6.875
		c-1.692,1.944-3.924,2.916-6.695,2.916c-2.808,0-5.003-0.972-6.659-2.916c-1.584-1.8-2.376-4.104-2.376-6.875
		c0-2.808,0.792-5.112,2.376-6.947c1.656-1.944,3.852-2.88,6.659-2.88C254.586,71.846,256.818,72.782,258.474,74.726z
		 M247.208,76.526c-1.008,1.368-1.476,3.06-1.476,5.147c0,2.052,0.468,3.743,1.476,5.111c1.08,1.512,2.628,2.268,4.607,2.268
		c1.943,0,3.491-0.756,4.644-2.268c0.972-1.368,1.476-3.096,1.476-5.111c0-2.088-0.504-3.78-1.476-5.147
		c-1.152-1.512-2.7-2.268-4.644-2.268C249.835,74.258,248.288,75.014,247.208,76.526z"/>
	<path class="st1" d="M267.475,72.35v11.375c0,1.764,0.36,3.095,1.116,3.959c0.756,0.864,1.979,1.332,3.672,1.332
		c1.224,0,2.339-0.504,3.312-1.44c1.008-1.008,1.619-2.304,1.835-3.887V72.35h2.88v18.61h-2.88v-2.88
		c-1.512,2.232-3.527,3.384-6.047,3.384c-4.535,0-6.767-2.556-6.767-7.595V72.35H267.475z"/>
	<path class="st1" d="M289.723,72.35h4.607v2.412h-4.607v11.842c0,0.684,0.108,1.188,0.396,1.476
		c0.252,0.288,0.72,0.468,1.367,0.468h2.376v2.412h-2.808c-1.512,0-2.628-0.396-3.275-1.188c-0.612-0.72-0.9-1.764-0.9-3.167V74.762
		h-3.743V72.35h3.743v-4.823l2.844-1.188V72.35z"/>
	<path class="st1" d="M314.491,72.35h4.607v2.412h-4.607v11.842c0,0.684,0.108,1.188,0.396,1.476
		c0.252,0.288,0.72,0.468,1.367,0.468h2.376v2.412h-2.808c-1.512,0-2.628-0.396-3.275-1.188c-0.612-0.72-0.9-1.764-0.9-3.167V74.762
		h-3.743V72.35h3.743v-4.823l2.844-1.188V72.35z"/>
	<path class="st1" d="M325.183,64.755V75.41c0.647-1.188,1.512-2.088,2.592-2.7c1.008-0.576,2.123-0.864,3.383-0.864
		c2.16,0,3.852,0.612,5.004,1.908c1.151,1.26,1.728,3.096,1.728,5.472V90.96h-2.88V79.657c0-1.728-0.432-3.06-1.224-3.995
		c-0.863-0.936-2.052-1.404-3.6-1.404c-1.439,0-2.628,0.576-3.563,1.728c-0.972,1.152-1.439,2.627-1.439,4.355V90.96h-2.88V64.755
		H325.183z"/>
	<path class="st1" d="M346.243,65.943c0.433,0.36,0.648,0.864,0.648,1.512c0,0.612-0.216,1.116-0.648,1.548
		c-0.432,0.396-0.936,0.612-1.548,0.612c-0.611,0-1.115-0.216-1.548-0.612c-0.432-0.432-0.611-0.936-0.611-1.548
		c0-0.648,0.18-1.152,0.611-1.512c0.433-0.432,0.937-0.612,1.548-0.612C345.307,65.331,345.811,65.511,346.243,65.943z
		 M346.135,72.35v18.61h-2.88V72.35H346.135z"/>
	<path class="st1" d="M367.193,79.513V90.96h-2.879v-11.23c0-3.636-1.656-5.436-4.896-5.436c-1.296,0-2.412,0.468-3.348,1.404
		c-1.008,1.008-1.548,2.34-1.656,4.032v11.23h-2.879V72.35h2.879v2.736c0.648-1.044,1.477-1.836,2.484-2.375
		c1.008-0.576,2.123-0.864,3.347-0.864C364.853,71.846,367.193,74.402,367.193,79.513z"/>
	<path class="st1" d="M385.589,75.554V72.35h2.879v17.314c0,5.939-2.844,8.927-8.494,8.927c-2.521,0-4.464-0.504-5.76-1.512
		c-1.332-1.008-2.16-2.52-2.483-4.535h2.879c0.217,1.26,0.757,2.195,1.584,2.771c0.828,0.612,2.088,0.936,3.78,0.936
		c3.743,0,5.615-2.088,5.615-6.191v-3.275c-1.368,2.483-3.456,3.743-6.264,3.743c-2.592,0-4.644-0.9-6.155-2.664
		c-1.512-1.728-2.231-3.923-2.231-6.623c0-2.736,0.72-4.932,2.231-6.659c1.512-1.836,3.563-2.736,6.155-2.736
		C382.133,71.846,384.221,73.07,385.589,75.554z M375.402,76.238c-1.008,1.224-1.512,2.916-1.512,5.003
		c0,1.944,0.433,3.563,1.332,4.788c1.008,1.368,2.483,2.087,4.5,2.087c1.871,0,3.312-0.648,4.391-1.944
		c1.008-1.26,1.512-2.916,1.512-4.931c0-2.088-0.504-3.78-1.512-5.003c-1.079-1.368-2.52-2.016-4.355-2.016
		C377.886,74.222,376.446,74.87,375.402,76.238z"/>
	<path class="st1" d="M407.152,77.642h-2.808c-0.252-1.152-0.72-2.016-1.439-2.52c-0.792-0.576-1.943-0.864-3.42-0.864
		c-1.296,0-2.304,0.216-3.023,0.72c-0.792,0.468-1.188,1.116-1.188,1.944c0,0.792,0.504,1.476,1.584,2.016
		c0.684,0.324,1.979,0.72,3.852,1.224c2.231,0.54,3.815,1.116,4.787,1.728c1.476,0.936,2.231,2.196,2.231,3.815
		c0,3.815-2.628,5.759-7.883,5.759c-4.896,0-7.559-2.16-7.991-6.443h2.808c0.216,1.476,0.756,2.52,1.548,3.168
		c0.792,0.576,1.979,0.864,3.563,0.864c3.312,0,5.004-1.08,5.004-3.167c0-1.044-0.612-1.836-1.764-2.412
		c-0.612-0.288-1.944-0.684-3.96-1.188c-2.195-0.54-3.743-1.08-4.607-1.656c-1.439-0.864-2.124-2.052-2.124-3.636
		c0-1.583,0.685-2.808,2.088-3.744c1.296-0.936,3.023-1.404,5.111-1.404C404.128,71.846,406.648,73.754,407.152,77.642z"/>
	<path class="st1" d="M424.217,72.35l4.571,15.083l4.319-15.083h2.7l4.319,15.083l4.571-15.083h3.168l-6.335,18.61h-2.736
		l-4.319-14.974l-4.392,14.974h-2.699l-6.335-18.61H424.217z"/>
	<path class="st1" d="M464.715,74.87c1.368,1.8,2.088,4.355,2.16,7.595h-14.687c0.145,2.088,0.684,3.708,1.691,4.859
		c1.009,1.152,2.412,1.728,4.176,1.728c1.512,0,2.771-0.396,3.708-1.152c0.792-0.648,1.403-1.62,1.871-2.916h2.88
		c-0.432,1.8-1.26,3.239-2.52,4.391c-1.548,1.368-3.527,2.088-5.939,2.088c-2.663,0-4.823-0.9-6.407-2.627
		c-1.655-1.8-2.447-4.176-2.447-7.199c0-2.736,0.756-5.04,2.34-6.875c1.583-1.944,3.707-2.916,6.407-2.916
		C460.936,71.846,463.204,72.854,464.715,74.87z M454.025,75.878c-1.008,1.08-1.584,2.52-1.764,4.355h11.626
		c-0.359-3.996-2.339-5.976-5.867-5.976C456.365,74.258,455.033,74.798,454.025,75.878z"/>
	<path class="st1" d="M495.819,73.466c1.439,1.116,2.304,2.808,2.628,5.075h-2.844c-0.252-1.44-0.828-2.52-1.728-3.24
		c-0.937-0.72-2.124-1.044-3.6-1.044c-1.8,0-3.24,0.684-4.284,2.052c-1.008,1.332-1.512,3.132-1.512,5.399
		c0,2.268,0.468,4.067,1.477,5.363c0.972,1.296,2.411,1.98,4.283,1.98c3.167,0,5.003-1.62,5.436-4.823h2.879
		c-0.432,2.375-1.331,4.211-2.771,5.435c-1.403,1.188-3.239,1.8-5.543,1.8c-2.808,0-4.968-0.936-6.516-2.808
		c-1.476-1.764-2.195-4.067-2.195-6.911s0.72-5.147,2.195-6.947c1.584-1.979,3.779-2.952,6.552-2.952
		C492.58,71.846,494.415,72.386,495.819,73.466z"/>
	<path class="st1" d="M515.943,73.934c1.08,1.224,1.655,2.916,1.655,5.075V90.96h-2.699v-3.132c-0.72,1.008-1.691,1.836-2.844,2.484
		c-1.368,0.756-2.916,1.152-4.644,1.152c-1.872,0-3.348-0.468-4.463-1.404c-1.152-0.972-1.729-2.232-1.729-3.744
		c0-2.124,0.828-3.708,2.556-4.787c1.512-1.008,3.672-1.548,6.479-1.584l4.464-0.072v-0.972c0-3.131-1.62-4.679-4.859-4.679
		c-1.368,0-2.484,0.252-3.348,0.828c-0.973,0.576-1.584,1.476-1.872,2.664l-2.844-0.216c0.396-1.944,1.368-3.419,2.88-4.355
		c1.367-0.864,3.132-1.296,5.363-1.296C512.703,71.846,514.647,72.53,515.943,73.934z M510.435,82.105
		c-4.175,0.072-6.263,1.44-6.263,4.14c0,0.864,0.324,1.548,1.044,2.124c0.72,0.54,1.655,0.828,2.808,0.828
		c1.764,0,3.312-0.576,4.679-1.728c1.332-1.116,2.017-2.412,2.017-3.852v-1.583L510.435,82.105z"/>
	<path class="st1" d="M537.722,79.513V90.96h-2.88v-11.23c0-3.636-1.655-5.436-4.896-5.436c-1.296,0-2.411,0.468-3.348,1.404
		c-1.008,1.008-1.548,2.34-1.655,4.032v11.23h-2.88V72.35h2.88v2.736c0.647-1.044,1.476-1.836,2.483-2.375
		c1.008-0.576,2.124-0.864,3.348-0.864C535.382,71.846,537.722,74.402,537.722,79.513z"/>
	<path class="st1" d="M547.227,61.875c0.468,0.648,0.72,1.476,0.72,2.556c0,1.584-0.468,2.988-1.403,4.176
		c-0.937,1.152-2.196,1.943-3.708,2.375v-1.8c0.936-0.324,1.656-0.828,2.231-1.548c0.576-0.756,0.828-1.548,0.828-2.412
		c-0.144,0.072-0.432,0.108-0.792,0.108c-0.611,0-1.116-0.216-1.512-0.648c-0.432-0.432-0.647-0.936-0.647-1.548
		c0-0.684,0.18-1.224,0.611-1.62c0.432-0.432,1.008-0.612,1.728-0.612C546.075,60.904,546.723,61.228,547.227,61.875z"/>
	<path class="st1" d="M559.395,72.35h4.607v2.412h-4.607v11.842c0,0.684,0.107,1.188,0.396,1.476
		c0.252,0.288,0.72,0.468,1.368,0.468h2.375v2.412h-2.808c-1.512,0-2.627-0.396-3.275-1.188c-0.611-0.72-0.899-1.764-0.899-3.167
		V74.762h-3.744V72.35h3.744v-4.823l2.844-1.188V72.35z"/>
	<path class="st1" d="M593.413,77.642h-2.808c-0.252-1.152-0.72-2.016-1.439-2.52c-0.792-0.576-1.943-0.864-3.42-0.864
		c-1.296,0-2.304,0.216-3.023,0.72c-0.792,0.468-1.188,1.116-1.188,1.944c0,0.792,0.504,1.476,1.584,2.016
		c0.684,0.324,1.979,0.72,3.852,1.224c2.231,0.54,3.815,1.116,4.787,1.728c1.476,0.936,2.231,2.196,2.231,3.815
		c0,3.815-2.628,5.759-7.883,5.759c-4.896,0-7.559-2.16-7.991-6.443h2.808c0.216,1.476,0.756,2.52,1.548,3.168
		c0.792,0.576,1.979,0.864,3.563,0.864c3.312,0,5.004-1.08,5.004-3.167c0-1.044-0.612-1.836-1.764-2.412
		c-0.612-0.288-1.944-0.684-3.96-1.188c-2.195-0.54-3.743-1.08-4.607-1.656c-1.439-0.864-2.124-2.052-2.124-3.636
		c0-1.583,0.685-2.808,2.088-3.744c1.296-0.936,3.023-1.404,5.111-1.404C590.389,71.846,592.909,73.754,593.413,77.642z"/>
	<path class="st1" d="M611.809,74.87c1.367,1.8,2.087,4.355,2.159,7.595h-14.686c0.144,2.088,0.684,3.708,1.691,4.859
		s2.412,1.728,4.176,1.728c1.512,0,2.771-0.396,3.707-1.152c0.792-0.648,1.404-1.62,1.872-2.916h2.88
		c-0.433,1.8-1.26,3.239-2.521,4.391c-1.548,1.368-3.527,2.088-5.938,2.088c-2.664,0-4.824-0.9-6.407-2.627
		c-1.656-1.8-2.448-4.176-2.448-7.199c0-2.736,0.756-5.04,2.34-6.875c1.584-1.944,3.708-2.916,6.407-2.916
		C608.029,71.846,610.297,72.854,611.809,74.87z M601.118,75.878c-1.008,1.08-1.583,2.52-1.764,4.355h11.627
		c-0.36-3.996-2.34-5.976-5.867-5.976C603.458,74.258,602.125,74.798,601.118,75.878z"/>
	<path class="st1" d="M631.789,74.87c1.368,1.8,2.088,4.355,2.16,7.595h-14.687c0.145,2.088,0.684,3.708,1.691,4.859
		c1.009,1.152,2.412,1.728,4.176,1.728c1.512,0,2.771-0.396,3.708-1.152c0.792-0.648,1.403-1.62,1.871-2.916h2.88
		c-0.432,1.8-1.26,3.239-2.52,4.391c-1.548,1.368-3.527,2.088-5.939,2.088c-2.663,0-4.823-0.9-6.407-2.627
		c-1.655-1.8-2.447-4.176-2.447-7.199c0-2.736,0.756-5.04,2.34-6.875c1.583-1.944,3.707-2.916,6.407-2.916
		C628.009,71.846,630.277,72.854,631.789,74.87z M621.098,75.878c-1.008,1.08-1.584,2.52-1.764,4.355h11.626
		c-0.359-3.996-2.339-5.976-5.867-5.976C623.438,74.258,622.106,74.798,621.098,75.878z"/>
	<path class="st1" d="M641.402,87.324c0.432,0.432,0.647,0.936,0.647,1.584c0,0.612-0.216,1.116-0.647,1.548
		c-0.433,0.432-0.973,0.648-1.548,0.648c-0.648,0-1.152-0.216-1.548-0.648c-0.433-0.432-0.648-0.936-0.648-1.548
		c0-0.648,0.216-1.152,0.648-1.584c0.396-0.432,0.899-0.648,1.548-0.648C640.429,86.676,640.969,86.893,641.402,87.324z"/>
	<path class="st1" d="M21.669,185.259v2.556h-9.071v23.145H9.683v-23.145H0.612v-2.556H21.669z"/>
	<path class="st1" d="M27.395,184.755v10.655c0.648-1.188,1.512-2.088,2.592-2.7c1.008-0.576,2.124-0.864,3.383-0.864
		c2.16,0,3.852,0.612,5.003,1.908c1.152,1.26,1.728,3.096,1.728,5.472v11.734h-2.88v-11.303c0-1.728-0.432-3.06-1.224-3.995
		c-0.864-0.936-2.052-1.404-3.6-1.404c-1.44,0-2.628,0.576-3.563,1.728c-0.972,1.152-1.44,2.627-1.44,4.355v10.619h-2.879v-26.205
		H27.395z"/>
	<path class="st1" d="M58.534,193.934c1.08,1.224,1.656,2.916,1.656,5.075v11.951h-2.7v-3.132c-0.72,1.008-1.691,1.836-2.843,2.484
		c-1.368,0.756-2.916,1.152-4.644,1.152c-1.872,0-3.348-0.468-4.463-1.404c-1.152-0.972-1.728-2.232-1.728-3.744
		c0-2.124,0.828-3.708,2.556-4.787c1.512-1.008,3.672-1.548,6.479-1.584l4.463-0.072v-0.972c0-3.131-1.62-4.679-4.859-4.679
		c-1.368,0-2.484,0.252-3.348,0.828c-0.972,0.576-1.584,1.476-1.872,2.664l-2.843-0.216c0.396-1.944,1.368-3.419,2.879-4.355
		c1.368-0.864,3.132-1.296,5.363-1.296C55.294,191.846,57.238,192.53,58.534,193.934z M53.026,202.105
		c-4.175,0.072-6.263,1.44-6.263,4.14c0,0.864,0.324,1.548,1.044,2.124c0.72,0.54,1.656,0.828,2.808,0.828
		c1.764,0,3.312-0.576,4.679-1.728c1.332-1.116,2.016-2.412,2.016-3.852v-1.583L53.026,202.105z"/>
	<path class="st1" d="M69.623,192.35h4.607v2.412h-4.607v11.842c0,0.684,0.108,1.188,0.396,1.476
		c0.252,0.288,0.72,0.468,1.368,0.468h2.375v2.412h-2.808c-1.512,0-2.627-0.396-3.275-1.188c-0.612-0.72-0.9-1.764-0.9-3.167
		v-11.842h-3.744v-2.412h3.744v-4.823l2.844-1.188V192.35z"/>
	<path class="st1" d="M82.474,181.875c0.468,0.648,0.72,1.476,0.72,2.556c0,1.584-0.468,2.988-1.404,4.176
		c-0.936,1.152-2.196,1.943-3.708,2.375v-1.8c0.936-0.324,1.656-0.828,2.231-1.548c0.576-0.756,0.828-1.548,0.828-2.412
		c-0.144,0.072-0.432,0.108-0.792,0.108c-0.612,0-1.116-0.216-1.512-0.648c-0.432-0.432-0.648-0.936-0.648-1.548
		c0-0.684,0.18-1.224,0.612-1.62c0.432-0.432,1.008-0.612,1.728-0.612C81.322,180.904,81.97,181.228,82.474,181.875z"/>
	<path class="st1" d="M103.893,197.642h-2.808c-0.252-1.152-0.72-2.016-1.439-2.52c-0.792-0.576-1.944-0.864-3.42-0.864
		c-1.296,0-2.304,0.216-3.023,0.72c-0.792,0.468-1.188,1.116-1.188,1.944c0,0.792,0.504,1.476,1.584,2.016
		c0.684,0.324,1.979,0.72,3.852,1.224c2.231,0.54,3.815,1.116,4.787,1.728c1.476,0.936,2.232,2.196,2.232,3.815
		c0,3.815-2.628,5.759-7.883,5.759c-4.896,0-7.559-2.16-7.991-6.443h2.808c0.216,1.476,0.756,2.52,1.548,3.168
		c0.792,0.576,1.979,0.864,3.563,0.864c3.312,0,5.003-1.08,5.003-3.167c0-1.044-0.612-1.836-1.764-2.412
		c-0.612-0.288-1.944-0.684-3.959-1.188c-2.196-0.54-3.744-1.08-4.607-1.656c-1.44-0.864-2.124-2.052-2.124-3.636
		c0-1.583,0.684-2.808,2.088-3.744c1.296-0.936,3.023-1.404,5.111-1.404C100.869,191.846,103.389,193.754,103.893,197.642z"/>
	<path class="st1" d="M120.958,192.35l4.571,15.083l4.319-15.083h2.7l4.319,15.083l4.571-15.083h3.168l-6.335,18.61h-2.736
		l-4.319-14.974l-4.392,14.974h-2.7l-6.335-18.61H120.958z"/>
	<path class="st1" d="M149.901,184.755v10.655c0.648-1.188,1.512-2.088,2.592-2.7c1.008-0.576,2.124-0.864,3.384-0.864
		c2.159,0,3.852,0.612,5.003,1.908c1.152,1.26,1.729,3.096,1.729,5.472v11.734h-2.88v-11.303c0-1.728-0.432-3.06-1.224-3.995
		c-0.864-0.936-2.052-1.404-3.6-1.404c-1.44,0-2.628,0.576-3.563,1.728c-0.973,1.152-1.44,2.627-1.44,4.355v10.619h-2.879v-26.205
		H149.901z"/>
	<path class="st1" d="M181.472,194.87c1.367,1.8,2.087,4.355,2.159,7.595h-14.686c0.144,2.088,0.684,3.708,1.691,4.859
		s2.412,1.728,4.176,1.728c1.512,0,2.771-0.396,3.707-1.152c0.792-0.648,1.404-1.62,1.872-2.916h2.88
		c-0.433,1.8-1.26,3.239-2.521,4.391c-1.548,1.368-3.527,2.088-5.938,2.088c-2.664,0-4.824-0.9-6.407-2.627
		c-1.656-1.8-2.448-4.176-2.448-7.199c0-2.736,0.756-5.04,2.34-6.875c1.584-1.944,3.708-2.916,6.407-2.916
		C177.692,191.846,179.96,192.854,181.472,194.87z M170.781,195.878c-1.008,1.08-1.583,2.52-1.764,4.355h11.627
		c-0.36-3.996-2.34-5.976-5.867-5.976C173.121,194.258,171.789,194.798,170.781,195.878z"/>
	<path class="st1" d="M202.675,199.513v11.447h-2.879v-11.23c0-3.636-1.656-5.436-4.896-5.436c-1.296,0-2.412,0.468-3.348,1.404
		c-1.008,1.008-1.548,2.34-1.656,4.032v11.23h-2.879v-18.61h2.879v2.736c0.648-1.044,1.477-1.836,2.484-2.375
		c1.008-0.576,2.123-0.864,3.347-0.864C200.335,191.846,202.675,194.402,202.675,199.513z"/>
	<path class="st1" d="M223.052,185.943c0.433,0.36,0.648,0.864,0.648,1.512c0,0.612-0.216,1.116-0.648,1.548
		c-0.432,0.396-0.936,0.612-1.548,0.612c-0.611,0-1.115-0.216-1.548-0.612c-0.432-0.432-0.611-0.936-0.611-1.548
		c0-0.648,0.18-1.152,0.611-1.512c0.433-0.432,0.937-0.612,1.548-0.612C222.117,185.331,222.621,185.511,223.052,185.943z
		 M222.945,192.35v18.61h-2.88v-18.61H222.945z"/>
	<path class="st1" d="M242.311,195.374c0.72-1.224,1.584-2.124,2.592-2.664c0.899-0.576,1.979-0.864,3.275-0.864
		c1.943,0,3.491,0.612,4.716,1.836c1.151,1.26,1.764,2.952,1.764,5.075v12.203h-2.88v-11.734c0-1.656-0.36-2.88-1.044-3.672
		c-0.72-0.864-1.872-1.26-3.455-1.26c-1.225,0-2.269,0.432-3.06,1.368c-0.864,0.936-1.261,2.124-1.261,3.635v11.663h-2.879v-11.734
		c0-3.312-1.44-4.932-4.284-4.932c-1.331,0-2.411,0.504-3.275,1.584c-0.863,1.008-1.296,2.268-1.296,3.744v11.338h-2.879v-18.61
		h2.879v2.484c1.404-2.016,3.168-2.988,5.256-2.988C239.324,191.846,241.267,192.998,242.311,195.374z"/>
	<path class="st1" d="M273.126,193.934c1.08,1.224,1.656,2.916,1.656,5.075v11.951h-2.7v-3.132c-0.72,1.008-1.691,1.836-2.843,2.484
		c-1.368,0.756-2.916,1.152-4.644,1.152c-1.872,0-3.348-0.468-4.464-1.404c-1.151-0.972-1.728-2.232-1.728-3.744
		c0-2.124,0.828-3.708,2.556-4.787c1.512-1.008,3.672-1.548,6.479-1.584l4.463-0.072v-0.972c0-3.131-1.62-4.679-4.859-4.679
		c-1.368,0-2.483,0.252-3.348,0.828c-0.972,0.576-1.584,1.476-1.872,2.664l-2.843-0.216c0.396-1.944,1.367-3.419,2.879-4.355
		c1.368-0.864,3.132-1.296,5.363-1.296C269.887,191.846,271.831,192.53,273.126,193.934z M267.62,202.105
		c-4.176,0.072-6.264,1.44-6.264,4.14c0,0.864,0.324,1.548,1.044,2.124c0.72,0.54,1.656,0.828,2.808,0.828
		c1.764,0,3.312-0.576,4.68-1.728c1.332-1.116,2.016-2.412,2.016-3.852v-1.583L267.62,202.105z"/>
	<path class="st1" d="M293.178,195.554v-3.204h2.88v17.314c0,5.939-2.844,8.927-8.495,8.927c-2.52,0-4.464-0.504-5.759-1.512
		c-1.332-1.008-2.16-2.52-2.484-4.535h2.88c0.216,1.26,0.756,2.195,1.584,2.771c0.828,0.612,2.088,0.936,3.779,0.936
		c3.743,0,5.615-2.088,5.615-6.191v-3.275c-1.368,2.483-3.455,3.743-6.263,3.743c-2.592,0-4.644-0.9-6.155-2.664
		c-1.512-1.728-2.232-3.923-2.232-6.623c0-2.736,0.721-4.932,2.232-6.659c1.512-1.836,3.563-2.736,6.155-2.736
		C289.723,191.846,291.81,193.07,293.178,195.554z M282.992,196.238c-1.008,1.224-1.512,2.916-1.512,5.003
		c0,1.944,0.432,3.563,1.332,4.788c1.008,1.368,2.483,2.087,4.499,2.087c1.872,0,3.312-0.648,4.392-1.944
		c1.008-1.26,1.512-2.916,1.512-4.931c0-2.088-0.504-3.78-1.512-5.003c-1.08-1.368-2.52-2.016-4.355-2.016
		C285.475,194.222,284.036,194.87,282.992,196.238z"/>
	<path class="st1" d="M304.447,185.943c0.433,0.36,0.648,0.864,0.648,1.512c0,0.612-0.216,1.116-0.648,1.548
		c-0.432,0.396-0.936,0.612-1.548,0.612c-0.611,0-1.115-0.216-1.548-0.612c-0.432-0.432-0.611-0.936-0.611-1.548
		c0-0.648,0.18-1.152,0.611-1.512c0.433-0.432,0.937-0.612,1.548-0.612C303.511,185.331,304.015,185.511,304.447,185.943z
		 M304.339,192.35v18.61h-2.88v-18.61H304.339z"/>
	<path class="st1" d="M325.397,199.513v11.447h-2.879v-11.23c0-3.636-1.656-5.436-4.896-5.436c-1.296,0-2.412,0.468-3.348,1.404
		c-1.008,1.008-1.548,2.34-1.656,4.032v11.23h-2.879v-18.61h2.879v2.736c0.648-1.044,1.477-1.836,2.484-2.375
		c1.008-0.576,2.123-0.864,3.347-0.864C323.057,191.846,325.397,194.402,325.397,199.513z"/>
	<path class="st1" d="M343.865,193.934c1.08,1.224,1.656,2.916,1.656,5.075v11.951h-2.7v-3.132c-0.72,1.008-1.691,1.836-2.843,2.484
		c-1.368,0.756-2.916,1.152-4.644,1.152c-1.872,0-3.348-0.468-4.464-1.404c-1.151-0.972-1.728-2.232-1.728-3.744
		c0-2.124,0.828-3.708,2.556-4.787c1.512-1.008,3.672-1.548,6.479-1.584l4.463-0.072v-0.972c0-3.131-1.62-4.679-4.859-4.679
		c-1.368,0-2.483,0.252-3.348,0.828c-0.972,0.576-1.584,1.476-1.872,2.664l-2.843-0.216c0.396-1.944,1.367-3.419,2.879-4.355
		c1.368-0.864,3.132-1.296,5.363-1.296C340.625,191.846,342.569,192.53,343.865,193.934z M338.358,202.105
		c-4.176,0.072-6.264,1.44-6.264,4.14c0,0.864,0.324,1.548,1.044,2.124c0.72,0.54,1.656,0.828,2.808,0.828
		c1.764,0,3.312-0.576,4.68-1.728c1.332-1.116,2.016-2.412,2.016-3.852v-1.583L338.358,202.105z"/>
	<path class="st1" d="M354.954,192.35h4.607v2.412h-4.607v11.842c0,0.684,0.108,1.188,0.396,1.476
		c0.252,0.288,0.72,0.468,1.367,0.468h2.376v2.412h-2.808c-1.512,0-2.628-0.396-3.275-1.188c-0.612-0.72-0.9-1.764-0.9-3.167
		v-11.842h-3.743v-2.412h3.743v-4.823l2.844-1.188V192.35z"/>
	<path class="st1" d="M366.69,185.943c0.432,0.36,0.647,0.864,0.647,1.512c0,0.612-0.216,1.116-0.647,1.548
		c-0.433,0.396-0.937,0.612-1.548,0.612c-0.612,0-1.116-0.216-1.548-0.612c-0.433-0.432-0.612-0.936-0.612-1.548
		c0-0.648,0.18-1.152,0.612-1.512c0.432-0.432,0.936-0.612,1.548-0.612C365.753,185.331,366.257,185.511,366.69,185.943z
		 M366.582,192.35v18.61h-2.88v-18.61H366.582z"/>
	<path class="st1" d="M386.957,194.726c1.583,1.835,2.375,4.139,2.375,6.947c0,2.771-0.792,5.075-2.34,6.875
		c-1.691,1.944-3.923,2.916-6.694,2.916c-2.808,0-5.004-0.972-6.659-2.916c-1.584-1.8-2.376-4.104-2.376-6.875
		c0-2.808,0.792-5.112,2.376-6.947c1.655-1.944,3.852-2.88,6.659-2.88C383.069,191.846,385.3,192.782,386.957,194.726z
		 M375.69,196.526c-1.009,1.368-1.477,3.06-1.477,5.147c0,2.052,0.468,3.743,1.477,5.111c1.079,1.512,2.627,2.268,4.607,2.268
		c1.943,0,3.491-0.756,4.643-2.268c0.973-1.368,1.477-3.096,1.477-5.111c0-2.088-0.504-3.78-1.477-5.147
		c-1.151-1.512-2.699-2.268-4.643-2.268C378.317,194.258,376.769,195.014,375.69,196.526z"/>
	<path class="st1" d="M408.736,199.513v11.447h-2.879v-11.23c0-3.636-1.656-5.436-4.896-5.436c-1.296,0-2.412,0.468-3.348,1.404
		c-1.008,1.008-1.548,2.34-1.656,4.032v11.23h-2.879v-18.61h2.879v2.736c0.648-1.044,1.477-1.836,2.484-2.375
		c1.008-0.576,2.123-0.864,3.347-0.864C406.396,191.846,408.736,194.402,408.736,199.513z"/>
	<path class="st1" d="M439.408,197.642H436.6c-0.252-1.152-0.72-2.016-1.439-2.52c-0.792-0.576-1.944-0.864-3.42-0.864
		c-1.296,0-2.304,0.216-3.023,0.72c-0.792,0.468-1.188,1.116-1.188,1.944c0,0.792,0.504,1.476,1.584,2.016
		c0.685,0.324,1.979,0.72,3.852,1.224c2.231,0.54,3.815,1.116,4.787,1.728c1.477,0.936,2.232,2.196,2.232,3.815
		c0,3.815-2.628,5.759-7.883,5.759c-4.896,0-7.56-2.16-7.991-6.443h2.808c0.216,1.476,0.756,2.52,1.548,3.168
		c0.792,0.576,1.979,0.864,3.563,0.864c3.312,0,5.003-1.08,5.003-3.167c0-1.044-0.611-1.836-1.764-2.412
		c-0.611-0.288-1.943-0.684-3.959-1.188c-2.196-0.54-3.744-1.08-4.607-1.656c-1.44-0.864-2.124-2.052-2.124-3.636
		c0-1.583,0.684-2.808,2.088-3.744c1.296-0.936,3.023-1.404,5.111-1.404C436.384,191.846,438.904,193.754,439.408,197.642z"/>
	<path class="st1" d="M448.336,192.35h4.607v2.412h-4.607v11.842c0,0.684,0.108,1.188,0.396,1.476
		c0.252,0.288,0.72,0.468,1.367,0.468h2.376v2.412h-2.808c-1.512,0-2.628-0.396-3.275-1.188c-0.612-0.72-0.9-1.764-0.9-3.167
		v-11.842h-3.743v-2.412h3.743v-4.823l2.844-1.188V192.35z"/>
	<path class="st1" d="M470.151,193.934c1.08,1.224,1.656,2.916,1.656,5.075v11.951h-2.7v-3.132c-0.72,1.008-1.691,1.836-2.843,2.484
		c-1.368,0.756-2.916,1.152-4.644,1.152c-1.872,0-3.348-0.468-4.464-1.404c-1.151-0.972-1.728-2.232-1.728-3.744
		c0-2.124,0.828-3.708,2.556-4.787c1.512-1.008,3.672-1.548,6.479-1.584l4.463-0.072v-0.972c0-3.131-1.62-4.679-4.859-4.679
		c-1.368,0-2.483,0.252-3.348,0.828c-0.972,0.576-1.584,1.476-1.872,2.664l-2.843-0.216c0.396-1.944,1.367-3.419,2.879-4.355
		c1.368-0.864,3.132-1.296,5.363-1.296C466.912,191.846,468.855,192.53,470.151,193.934z M464.644,202.105
		c-4.176,0.072-6.264,1.44-6.264,4.14c0,0.864,0.324,1.548,1.044,2.124c0.72,0.54,1.656,0.828,2.808,0.828
		c1.764,0,3.312-0.576,4.68-1.728c1.332-1.116,2.016-2.412,2.016-3.852v-1.583L464.644,202.105z"/>
	<path class="st1" d="M487,192.278v2.879c-0.937-0.288-1.872-0.396-2.772-0.396c-1.439,0-2.663,0.612-3.635,1.908
		c-1.008,1.224-1.477,2.7-1.477,4.427v9.863h-2.843v-18.61h2.843v3.24c0.504-1.08,1.152-1.944,1.944-2.556
		c0.972-0.792,2.088-1.188,3.384-1.188C485.452,191.846,486.315,191.99,487,192.278z"/>
	<path class="st1" d="M494.379,192.35h4.607v2.412h-4.607v11.842c0,0.684,0.108,1.188,0.396,1.476
		c0.252,0.288,0.72,0.468,1.367,0.468h2.376v2.412h-2.808c-1.512,0-2.628-0.396-3.275-1.188c-0.612-0.72-0.9-1.764-0.9-3.167
		v-11.842h-3.743v-2.412h3.743v-4.823l2.844-1.188V192.35z"/>
	<path class="st1" d="M516.41,197.642h-2.808c-0.252-1.152-0.72-2.016-1.439-2.52c-0.792-0.576-1.943-0.864-3.42-0.864
		c-1.296,0-2.304,0.216-3.023,0.72c-0.792,0.468-1.188,1.116-1.188,1.944c0,0.792,0.504,1.476,1.584,2.016
		c0.684,0.324,1.979,0.72,3.852,1.224c2.231,0.54,3.815,1.116,4.787,1.728c1.476,0.936,2.231,2.196,2.231,3.815
		c0,3.815-2.628,5.759-7.883,5.759c-4.896,0-7.559-2.16-7.991-6.443h2.808c0.216,1.476,0.756,2.52,1.548,3.168
		c0.792,0.576,1.979,0.864,3.563,0.864c3.312,0,5.004-1.08,5.004-3.167c0-1.044-0.612-1.836-1.764-2.412
		c-0.612-0.288-1.944-0.684-3.96-1.188c-2.195-0.54-3.743-1.08-4.607-1.656c-1.439-0.864-2.124-2.052-2.124-3.636
		c0-1.583,0.685-2.808,2.088-3.744c1.296-0.936,3.023-1.404,5.111-1.404C513.386,191.846,515.906,193.754,516.41,197.642z"/>
	<path class="st1" d="M524.439,207.324c0.432,0.432,0.648,0.936,0.648,1.584c0,0.612-0.217,1.116-0.648,1.548
		s-0.972,0.648-1.548,0.648c-0.647,0-1.151-0.216-1.548-0.648c-0.432-0.432-0.647-0.936-0.647-1.548
		c0-0.648,0.216-1.152,0.647-1.584c0.396-0.432,0.9-0.648,1.548-0.648C523.467,206.676,524.007,206.893,524.439,207.324z"/>
</g>
</svg>