<!-- Generator: Adobe Illustrator 22.0.1, SVG Export Plug-In  -->
<svg version="1.1"
	 xmlns="http://www.w3.org/2000/svg" xmlns:xlink="http://www.w3.org/1999/xlink" xmlns:a="http://ns.adobe.com/AdobeSVGViewerExtensions/3.0/"
	 x="0px" y="0px" width="986.097px" height="172.984px" viewBox="0 0 986.097 172.984"
	 style="enable-background:new 0 0 986.097 172.984;" xml:space="preserve">
<style type="text/css">
	.st0{fill:#FFFFFF;}
	.st1{font-family:'PingFangTC-Semibold-B5pc-H';}
	.st2{font-size:72px;}
	.st3{font-family:'PingFangTC-Regular-B5pc-H';}
	.st4{font-size:60px;}
</style>
<defs>
</defs>
<g>
	<path class="st0" d="M13.465,10.507l25.418,37.083h0.288V10.507h8.497V61.92h-8.208L13.753,24.333h-0.288V61.92H5.041V10.507
		H13.465z"/>
	<path class="st0" d="M87.915,29.229c3.384,3.672,5.113,8.353,5.113,14.113c0,5.688-1.729,10.369-5.041,13.969
		c-3.457,3.744-8.065,5.617-13.681,5.617c-5.688,0-10.225-1.873-13.681-5.617c-3.384-3.6-5.041-8.281-5.041-13.969
		c0-5.76,1.656-10.441,5.112-14.113c3.384-3.744,7.921-5.544,13.609-5.544C79.922,23.685,84.458,25.485,87.915,29.229z
		 M66.385,34.414c-1.584,2.304-2.376,5.329-2.376,8.929s0.792,6.553,2.376,8.857c1.872,2.664,4.464,4.032,7.921,4.032
		c3.384,0,6.048-1.368,7.92-4.032c1.584-2.376,2.448-5.329,2.448-8.857c0-3.6-0.864-6.625-2.448-8.929
		c-1.872-2.736-4.536-4.032-7.92-4.032C70.849,30.381,68.257,31.677,66.385,34.414z"/>
	<path class="st0" d="M133.127,9.5v52.42h-8.208V9.5H133.127z"/>
	<path class="st0" d="M152.063,11.012c1.008,1.008,1.584,2.304,1.584,3.888s-0.576,2.952-1.656,3.96
		c-1.08,1.008-2.376,1.512-3.96,1.512c-1.584,0-2.88-0.504-3.96-1.512c-1.08-1.08-1.584-2.376-1.584-3.96s0.504-2.88,1.584-3.888
		c1.08-1.008,2.376-1.512,3.96-1.512C149.615,9.5,150.983,10.003,152.063,11.012z M152.135,24.693V61.92h-8.208V24.693H152.135z"/>
	<path class="st0" d="M192.313,29.733c1.728-2.304,3.528-3.888,5.4-4.752c1.656-0.864,3.744-1.296,6.265-1.296
		c3.816,0,6.984,1.224,9.577,3.816c2.448,2.592,3.744,5.904,3.744,10.009v24.41h-8.208V38.95c0-2.952-0.648-5.112-1.872-6.408
		c-1.296-1.368-3.312-2.016-6.193-2.016c-2.016,0-3.672,0.72-5.04,2.304c-1.44,1.512-2.088,3.6-2.088,6.336V61.92h-8.209V39.022
		c0-5.688-2.448-8.497-7.344-8.497c-2.376,0-4.249,0.864-5.688,2.736c-1.44,1.729-2.16,3.889-2.16,6.337V61.92h-8.209V24.693h8.209
		v3.816c3.096-3.24,6.48-4.824,10.081-4.824C186.048,23.685,189.937,25.701,192.313,29.733z"/>
	<path class="st0" d="M235.51,11.012c1.008,1.008,1.584,2.304,1.584,3.888s-0.576,2.952-1.656,3.96
		c-1.08,1.008-2.376,1.512-3.96,1.512c-1.584,0-2.88-0.504-3.96-1.512c-1.08-1.08-1.584-2.376-1.584-3.96s0.504-2.88,1.584-3.888
		c1.08-1.008,2.376-1.512,3.96-1.512C233.062,9.5,234.43,10.003,235.51,11.012z M235.582,24.693V61.92h-8.209V24.693H235.582z"/>
	<path class="st0" d="M257.398,24.693h8.281v6.769h-8.281v21.026c0,0.864,0.144,1.512,0.576,2.016
		c0.432,0.432,1.008,0.648,1.872,0.648h4.896v6.769h-6.265c-3.24,0-5.616-0.864-7.128-2.592c-1.44-1.584-2.16-3.816-2.16-6.84
		V31.461h-6.697v-6.769h6.697v-8.641l8.208-3.384V24.693z"/>
	<path class="st0" d="M301.896,35.494h-7.993c-0.576-1.872-1.44-3.24-2.592-3.96c-1.224-0.792-3.096-1.152-5.616-1.152
		c-2.16,0-3.816,0.288-4.896,0.936c-1.296,0.648-1.872,1.656-1.872,3.096c0,1.152,0.936,2.232,2.952,3.096
		c1.224,0.504,3.672,1.224,7.417,2.16c4.176,1.008,7.345,2.16,9.361,3.528c2.952,1.872,4.464,4.537,4.464,7.849
		c0,7.921-5.617,11.881-16.777,11.881c-10.369,0-15.914-4.393-16.706-13.105h7.993c0.432,2.376,1.296,4.033,2.52,5.041
		c1.224,0.864,3.168,1.368,5.905,1.368c5.76,0,8.641-1.584,8.641-4.608c0-1.728-1.08-3.096-3.24-4.104
		c-1.152-0.576-3.6-1.224-7.345-2.088c-4.392-1.008-7.488-2.088-9.289-3.24c-2.88-1.8-4.32-4.321-4.32-7.561
		c0-3.456,1.368-6.121,4.248-7.993c2.809-2.016,6.481-2.952,11.089-2.952C295.631,23.685,301.031,27.573,301.896,35.494z"/>
	<path class="st0" d="M319.173,52.703c1.08,1.08,1.656,2.448,1.656,4.032c0,1.584-0.576,2.88-1.656,4.032
		c-1.152,1.008-2.448,1.584-4.032,1.584c-1.584,0-2.952-0.576-3.96-1.584c-1.152-1.152-1.656-2.448-1.656-4.032
		c0-1.584,0.504-2.952,1.656-4.032c1.008-1.152,2.376-1.656,3.96-1.656C316.725,51.047,318.021,51.551,319.173,52.703z"/>
	<path class="st0" d="M395.495,17.132c4.32,4.825,6.481,11.233,6.481,19.154c0,7.921-2.161,14.257-6.481,19.082
		c-4.536,5.041-10.729,7.561-18.578,7.561c-7.92,0-14.113-2.592-18.578-7.633c-4.32-4.896-6.408-11.233-6.408-19.01
		c0-7.849,2.088-14.185,6.408-19.082c4.465-5.185,10.657-7.705,18.578-7.705C384.766,9.5,390.958,12.02,395.495,17.132z
		 M364.532,22.316c-2.809,3.457-4.176,8.065-4.176,13.969c0,5.833,1.368,10.441,4.176,13.897c2.88,3.528,7.057,5.328,12.385,5.328
		c5.329,0,9.433-1.728,12.313-5.112c2.808-3.384,4.248-8.065,4.248-14.113s-1.44-10.801-4.248-14.257
		c-2.88-3.456-6.985-5.112-12.313-5.112C371.589,16.916,367.484,18.716,364.532,22.316z"/>
	<path class="st0" d="M442.366,38.95v22.97h-8.208V39.67c0-6.121-2.809-9.145-8.425-9.145c-2.016,0-3.816,0.72-5.329,2.16
		c-1.728,1.584-2.736,3.888-3.024,6.84V61.92h-8.209V24.693h8.209v4.32c1.44-1.728,3.096-3.096,4.896-3.96
		c1.873-0.936,3.889-1.368,6.121-1.368C437.686,23.685,442.366,28.725,442.366,38.95z"/>
	<path class="st0" d="M459.931,9.5v52.42h-8.209V9.5H459.931z"/>
	<path class="st0" d="M474.259,24.693l9.864,26.498l9.433-26.498h8.929l-20.162,51.484h-8.785l6.553-15.122L465.33,24.693H474.259z"
		/>
	<path class="st0" d="M540.713,11.012c1.008,1.008,1.584,2.304,1.584,3.888s-0.576,2.952-1.656,3.96
		c-1.08,1.008-2.376,1.512-3.96,1.512c-1.585,0-2.881-0.504-3.961-1.512c-1.08-1.08-1.584-2.376-1.584-3.96s0.504-2.88,1.584-3.888
		c1.08-1.008,2.376-1.512,3.961-1.512C538.265,9.5,539.633,10.003,540.713,11.012z M540.785,24.693V61.92h-8.208V24.693H540.785z"/>
	<path class="st0" d="M580.962,29.733c1.729-2.304,3.528-3.888,5.4-4.752c1.656-0.864,3.745-1.296,6.265-1.296
		c3.816,0,6.985,1.224,9.577,3.816c2.448,2.592,3.744,5.904,3.744,10.009v24.41h-8.209V38.95c0-2.952-0.647-5.112-1.872-6.408
		c-1.296-1.368-3.312-2.016-6.192-2.016c-2.016,0-3.672,0.72-5.04,2.304c-1.44,1.512-2.089,3.6-2.089,6.336V61.92h-8.208V39.022
		c0-5.688-2.448-8.497-7.345-8.497c-2.376,0-4.248,0.864-5.688,2.736c-1.44,1.729-2.16,3.889-2.16,6.337V61.92h-8.209V24.693h8.209
		v3.816c3.096-3.24,6.48-4.824,10.081-4.824C574.698,23.685,578.586,25.701,580.962,29.733z"/>
	<path class="st0" d="M643.673,27.789c2.304,2.376,3.456,5.833,3.456,10.369V61.92h-7.633v-4.896c-1.44,1.872-3.24,3.24-5.328,4.249
		c-2.376,1.08-5.185,1.656-8.425,1.656c-3.889,0-6.913-1.008-9.145-2.953c-2.305-2.016-3.457-4.536-3.457-7.632
		c0-4.177,1.585-7.417,4.896-9.649c3.024-2.16,7.272-3.312,12.745-3.457l8.137-0.216v-1.44c0-4.896-2.664-7.273-7.992-7.273
		c-2.305,0-4.104,0.36-5.473,1.224c-1.584,0.936-2.664,2.376-3.097,4.32l-8.137-0.648c0.792-4.104,2.809-7.128,6.049-9
		c2.736-1.729,6.48-2.521,11.233-2.521C636.976,23.685,641.081,25.053,643.673,27.789z M631.36,45.143
		c-6.553,0.144-9.793,2.448-9.793,6.913c0,1.296,0.504,2.376,1.656,3.24c1.152,0.864,2.593,1.368,4.393,1.368
		c3.168,0,5.832-0.936,7.993-2.736c2.16-1.872,3.312-4.249,3.312-7.128v-1.873L631.36,45.143z"/>
	<path class="st0" d="M682.264,29.229v-4.536h8.209v34.851c0,11.737-5.832,17.641-17.497,17.641c-5.257,0-9.217-1.008-11.953-2.88
		c-2.736-2.016-4.465-5.041-5.185-9.217h8.209c0.432,2.088,1.296,3.528,2.664,4.392c1.296,0.792,3.384,1.224,6.265,1.224
		c6.192,0,9.288-3.312,9.288-9.937v-5.472c-2.736,3.816-6.408,5.76-11.017,5.76c-5.04,0-9.145-1.728-12.241-5.04
		c-3.168-3.384-4.681-7.921-4.681-13.538c0-5.616,1.513-10.153,4.681-13.609c3.097-3.457,7.201-5.185,12.241-5.185
		C675.856,23.685,679.528,25.485,682.264,29.229z M665.343,33.549c-1.729,2.088-2.593,5.041-2.593,8.929
		c0,3.528,0.648,6.265,2.017,8.281c1.584,2.376,4.104,3.601,7.704,3.601c3.169,0,5.617-1.08,7.345-3.096
		c1.656-2.16,2.521-5.041,2.521-8.785c0-3.816-0.864-6.769-2.521-8.929c-1.728-2.16-4.176-3.24-7.272-3.24
		C669.448,30.309,667.071,31.389,665.343,33.549z"/>
	<path class="st0" d="M708.687,11.012c1.008,1.008,1.584,2.304,1.584,3.888s-0.576,2.952-1.656,3.96
		c-1.08,1.008-2.376,1.512-3.96,1.512c-1.585,0-2.881-0.504-3.961-1.512c-1.08-1.08-1.584-2.376-1.584-3.96s0.504-2.88,1.584-3.888
		c1.08-1.008,2.376-1.512,3.961-1.512C706.239,9.5,707.607,10.003,708.687,11.012z M708.758,24.693V61.92h-8.208V24.693H708.758z"/>
	<path class="st0" d="M752.104,38.95v22.97h-8.209V39.67c0-6.121-2.809-9.145-8.425-9.145c-2.017,0-3.816,0.72-5.328,2.16
		c-1.729,1.584-2.736,3.888-3.024,6.84V61.92h-8.209V24.693h8.209v4.32c1.439-1.728,3.096-3.096,4.896-3.96
		c1.872-0.936,3.888-1.368,6.12-1.368C747.423,23.685,752.104,28.725,752.104,38.95z"/>
	<path class="st0" d="M789.832,27.789c2.304,2.376,3.456,5.833,3.456,10.369V61.92h-7.633v-4.896c-1.44,1.872-3.24,3.24-5.328,4.249
		c-2.376,1.08-5.185,1.656-8.425,1.656c-3.889,0-6.913-1.008-9.145-2.953c-2.305-2.016-3.457-4.536-3.457-7.632
		c0-4.177,1.585-7.417,4.896-9.649c3.024-2.16,7.272-3.312,12.745-3.457l8.137-0.216v-1.44c0-4.896-2.664-7.273-7.992-7.273
		c-2.305,0-4.104,0.36-5.473,1.224c-1.584,0.936-2.664,2.376-3.097,4.32l-8.137-0.648c0.792-4.104,2.809-7.128,6.049-9
		c2.736-1.729,6.48-2.521,11.233-2.521C783.134,23.685,787.239,25.053,789.832,27.789z M777.518,45.143
		c-6.553,0.144-9.793,2.448-9.793,6.913c0,1.296,0.504,2.376,1.656,3.24c1.152,0.864,2.593,1.368,4.393,1.368
		c3.168,0,5.832-0.936,7.993-2.736c2.16-1.872,3.312-4.249,3.312-7.128v-1.873L777.518,45.143z"/>
	<path class="st0" d="M813.589,24.693h8.28v6.769h-8.28v21.026c0,0.864,0.145,1.512,0.576,2.016
		c0.432,0.432,1.008,0.648,1.872,0.648h4.896v6.769h-6.265c-3.24,0-5.616-0.864-7.129-2.592c-1.439-1.584-2.16-3.816-2.16-6.84
		V31.461h-6.696v-6.769h6.696v-8.641l8.209-3.384V24.693z"/>
	<path class="st0" d="M837.565,11.012c1.008,1.008,1.584,2.304,1.584,3.888s-0.576,2.952-1.656,3.96
		c-1.08,1.008-2.376,1.512-3.96,1.512c-1.585,0-2.881-0.504-3.961-1.512c-1.08-1.08-1.584-2.376-1.584-3.96s0.504-2.88,1.584-3.888
		c1.08-1.008,2.376-1.512,3.961-1.512C835.117,9.5,836.485,10.003,837.565,11.012z M837.636,24.693V61.92h-8.208V24.693H837.636z"/>
	<path class="st0" d="M878.678,29.229c3.385,3.672,5.112,8.353,5.112,14.113c0,5.688-1.728,10.369-5.04,13.969
		c-3.456,3.744-8.064,5.617-13.682,5.617c-5.688,0-10.225-1.873-13.681-5.617c-3.385-3.6-5.041-8.281-5.041-13.969
		c0-5.76,1.656-10.441,5.113-14.113c3.384-3.744,7.92-5.544,13.608-5.544C870.686,23.685,875.222,25.485,878.678,29.229z
		 M857.149,34.414c-1.585,2.304-2.377,5.329-2.377,8.929s0.792,6.553,2.377,8.857c1.872,2.664,4.464,4.032,7.92,4.032
		c3.385,0,6.049-1.368,7.921-4.032c1.584-2.376,2.448-5.329,2.448-8.857c0-3.6-0.864-6.625-2.448-8.929
		c-1.872-2.736-4.536-4.032-7.921-4.032C861.613,30.381,859.021,31.677,857.149,34.414z"/>
	<path class="st0" d="M924.182,38.95v22.97h-8.209V39.67c0-6.121-2.809-9.145-8.425-9.145c-2.017,0-3.816,0.72-5.328,2.16
		c-1.729,1.584-2.736,3.888-3.024,6.84V61.92h-8.209V24.693h8.209v4.32c1.439-1.728,3.096-3.096,4.896-3.96
		c1.872-0.936,3.888-1.368,6.12-1.368C919.501,23.685,924.182,28.725,924.182,38.95z"/>
	<path class="st0" d="M962.917,35.494h-7.992c-0.576-1.872-1.44-3.24-2.593-3.96c-1.224-0.792-3.096-1.152-5.616-1.152
		c-2.16,0-3.816,0.288-4.896,0.936c-1.296,0.648-1.872,1.656-1.872,3.096c0,1.152,0.936,2.232,2.952,3.096
		c1.224,0.504,3.672,1.224,7.417,2.16c4.176,1.008,7.344,2.16,9.36,3.528c2.952,1.872,4.465,4.537,4.465,7.849
		c0,7.921-5.617,11.881-16.778,11.881c-10.368,0-15.913-4.393-16.705-13.105h7.993c0.432,2.376,1.296,4.033,2.52,5.041
		c1.225,0.864,3.169,1.368,5.904,1.368c5.761,0,8.642-1.584,8.642-4.608c0-1.728-1.08-3.096-3.24-4.104
		c-1.152-0.576-3.601-1.224-7.345-2.088c-4.393-1.008-7.489-2.088-9.289-3.24c-2.88-1.8-4.32-4.321-4.32-7.561
		c0-3.456,1.368-6.121,4.248-7.993c2.809-2.016,6.48-2.952,11.089-2.952C956.652,23.685,962.052,27.573,962.917,35.494z"/>
	<path class="st0" d="M980.195,52.703c1.08,1.08,1.656,2.448,1.656,4.032c0,1.584-0.576,2.88-1.656,4.032
		c-1.152,1.008-2.448,1.584-4.032,1.584c-1.585,0-2.952-0.576-3.961-1.584c-1.152-1.152-1.656-2.448-1.656-4.032
		c0-1.584,0.504-2.952,1.656-4.032c1.009-1.152,2.376-1.656,3.961-1.656C977.747,51.047,979.042,51.551,980.195,52.703z"/>
</g>
<g>
	<path class="st0" d="M178.082,116.227l16.859,42.838h-5.34l-4.56-12h-19.68l-4.56,12h-5.28l16.859-42.838H178.082z
		 M183.481,142.926l-8.1-21.419h-0.24l-8.22,21.419H183.481z"/>
	<path class="st0" d="M241.861,133.386v-5.339h4.8v28.859c0,9.899-4.74,14.879-14.16,14.879c-4.199,0-7.439-0.84-9.6-2.52
		c-2.22-1.68-3.6-4.2-4.14-7.56h4.8c0.36,2.1,1.26,3.66,2.641,4.62c1.38,1.02,3.479,1.56,6.299,1.56c6.24,0,9.36-3.48,9.36-10.32
		v-5.459c-2.28,4.14-5.76,6.239-10.439,6.239c-4.32,0-7.74-1.5-10.26-4.439c-2.521-2.88-3.72-6.54-3.72-11.04
		c0-4.56,1.199-8.22,3.72-11.1c2.52-3.06,5.939-4.56,10.26-4.56C236.101,127.206,239.581,129.246,241.861,133.386z M224.881,134.526
		c-1.68,2.04-2.52,4.86-2.52,8.34c0,3.24,0.72,5.939,2.22,7.979c1.68,2.28,4.14,3.48,7.499,3.48c3.12,0,5.521-1.08,7.32-3.24
		c1.68-2.1,2.52-4.86,2.52-8.22c0-3.48-0.84-6.3-2.52-8.34c-1.8-2.28-4.2-3.36-7.26-3.36
		C229.021,131.166,226.622,132.246,224.881,134.526z"/>
	<path class="st0" d="M277.44,130.686c1.8,2.04,2.76,4.86,2.76,8.459v19.919h-4.5v-5.22c-1.199,1.68-2.819,3.06-4.739,4.14
		c-2.28,1.26-4.86,1.92-7.74,1.92c-3.119,0-5.579-0.78-7.439-2.34c-1.92-1.62-2.88-3.72-2.88-6.24c0-3.54,1.38-6.18,4.26-7.979
		c2.521-1.68,6.12-2.58,10.8-2.64l7.439-0.12v-1.62c0-5.22-2.699-7.8-8.1-7.8c-2.279,0-4.14,0.42-5.58,1.38
		c-1.619,0.96-2.64,2.46-3.119,4.44l-4.74-0.36c0.66-3.24,2.28-5.7,4.8-7.26c2.28-1.44,5.22-2.16,8.939-2.16
		C272.041,127.206,275.28,128.346,277.44,130.686z M268.26,144.306c-6.96,0.12-10.439,2.4-10.439,6.899c0,1.44,0.54,2.58,1.74,3.54
		c1.199,0.9,2.76,1.38,4.68,1.38c2.939,0,5.52-0.96,7.8-2.88c2.22-1.86,3.359-4.02,3.359-6.42v-2.64L268.26,144.306z"/>
	<path class="st0" d="M293.339,115.387v43.678H288.6v-43.678H293.339z"/>
	<path class="st0" d="M307.439,115.387v43.678h-4.74v-43.678H307.439z"/>
	<path class="st0" d="M339.897,132.246c2.28,3,3.48,7.26,3.601,12.659h-24.479c0.24,3.48,1.14,6.18,2.82,8.1
		c1.68,1.92,4.02,2.88,6.959,2.88c2.521,0,4.62-0.66,6.18-1.92c1.32-1.08,2.341-2.7,3.12-4.86h4.8c-0.72,3-2.1,5.399-4.199,7.319
		c-2.58,2.28-5.88,3.48-9.9,3.48c-4.439,0-8.039-1.5-10.679-4.38c-2.761-3-4.08-6.959-4.08-12c0-4.56,1.26-8.399,3.899-11.459
		c2.64-3.24,6.18-4.86,10.68-4.86C333.597,127.206,337.377,128.886,339.897,132.246z M322.078,133.926
		c-1.68,1.8-2.64,4.2-2.939,7.26h19.379c-0.6-6.66-3.899-9.959-9.779-9.959C325.978,131.226,323.758,132.126,322.078,133.926z"/>
	<path class="st0" d="M367.017,127.926v4.8c-1.56-0.48-3.119-0.66-4.619-0.66c-2.4,0-4.44,1.02-6.061,3.18
		c-1.68,2.04-2.46,4.5-2.46,7.379v16.439h-4.739v-31.019h4.739v5.399c0.841-1.8,1.92-3.24,3.24-4.26c1.62-1.32,3.479-1.98,5.64-1.98
		C364.437,127.206,365.877,127.446,367.017,127.926z"/>
	<path class="st0" d="M372.837,128.046l9.479,24.479l9.18-24.479h5.28l-16.979,42.898h-5.22l5.34-12.6l-12.3-30.298H372.837z"/>
	<path class="st0" d="M425.576,115.387v18.359c2.4-4.38,5.82-6.54,10.26-6.54c4.38,0,7.86,1.62,10.38,4.98
		c2.28,3,3.479,6.72,3.479,11.28c0,4.68-1.199,8.52-3.479,11.52c-2.58,3.24-6.12,4.919-10.62,4.919c-4.8,0-8.219-1.98-10.319-5.939
		v5.1h-4.5v-43.678H425.576z M428.036,134.526c-1.8,2.22-2.64,5.16-2.64,8.76v0.6c0,3.479,0.78,6.3,2.34,8.459
		c1.68,2.4,4.14,3.6,7.26,3.6c3.36,0,5.88-1.26,7.56-3.66c1.44-2.16,2.22-5.1,2.22-8.819c0-3.72-0.779-6.6-2.34-8.7
		c-1.739-2.4-4.26-3.6-7.619-3.6C431.996,131.166,429.716,132.246,428.036,134.526z"/>
	<path class="st0" d="M473.815,127.926v4.8c-1.56-0.48-3.119-0.66-4.619-0.66c-2.4,0-4.44,1.02-6.061,3.18
		c-1.68,2.04-2.46,4.5-2.46,7.379v16.439h-4.739v-31.019h4.739v5.399c0.841-1.8,1.92-3.24,3.24-4.26c1.62-1.32,3.479-1.98,5.64-1.98
		C471.235,127.206,472.675,127.446,473.815,127.926z"/>
	<path class="st0" d="M502.794,132.006c2.64,3.06,3.96,6.9,3.96,11.58c0,4.62-1.32,8.46-3.9,11.459
		c-2.819,3.24-6.539,4.86-11.159,4.86c-4.68,0-8.34-1.62-11.1-4.86c-2.64-3-3.96-6.839-3.96-11.459c0-4.68,1.32-8.52,3.96-11.58
		c2.76-3.24,6.42-4.8,11.1-4.8C496.315,127.206,500.035,128.766,502.794,132.006z M484.015,135.006c-1.68,2.28-2.46,5.1-2.46,8.58
		c0,3.42,0.78,6.24,2.46,8.52c1.8,2.52,4.38,3.78,7.68,3.78c3.24,0,5.819-1.26,7.739-3.78c1.62-2.28,2.46-5.16,2.46-8.52
		c0-3.48-0.84-6.3-2.46-8.58c-1.92-2.52-4.499-3.78-7.739-3.78C488.395,131.226,485.815,132.486,484.015,135.006z"/>
	<path class="st0" d="M517.795,128.046v18.959c0,2.94,0.6,5.16,1.859,6.6c1.261,1.44,3.301,2.22,6.12,2.22c2.04,0,3.9-0.84,5.52-2.4
		c1.681-1.68,2.7-3.84,3.061-6.48v-18.899h4.8v31.019h-4.8v-4.8c-2.521,3.72-5.88,5.64-10.08,5.64
		c-7.56,0-11.279-4.26-11.279-12.659v-19.199H517.795z"/>
	<path class="st0" d="M569.814,133.386v-5.339h4.8v28.859c0,9.899-4.739,14.879-14.159,14.879c-4.2,0-7.439-0.84-9.6-2.52
		c-2.22-1.68-3.6-4.2-4.14-7.56h4.8c0.359,2.1,1.26,3.66,2.64,4.62c1.38,1.02,3.479,1.56,6.3,1.56c6.239,0,9.359-3.48,9.359-10.32
		v-5.459c-2.279,4.14-5.76,6.239-10.439,6.239c-4.319,0-7.739-1.5-10.26-4.439c-2.52-2.88-3.72-6.54-3.72-11.04
		c0-4.56,1.2-8.22,3.72-11.1c2.521-3.06,5.94-4.56,10.26-4.56C564.054,127.206,567.535,129.246,569.814,133.386z M552.834,134.526
		c-1.68,2.04-2.52,4.86-2.52,8.34c0,3.24,0.72,5.939,2.22,7.979c1.68,2.28,4.14,3.48,7.5,3.48c3.12,0,5.52-1.08,7.319-3.24
		c1.681-2.1,2.521-4.86,2.521-8.22c0-3.48-0.84-6.3-2.521-8.34c-1.8-2.28-4.199-3.36-7.26-3.36
		C556.975,131.166,554.575,132.246,552.834,134.526z"/>
	<path class="st0" d="M586.854,115.387v17.759c1.08-1.98,2.521-3.48,4.32-4.5c1.68-0.96,3.54-1.44,5.64-1.44
		c3.6,0,6.42,1.02,8.34,3.18c1.92,2.1,2.88,5.16,2.88,9.12v19.559h-4.8v-18.839c0-2.88-0.72-5.1-2.04-6.66
		c-1.44-1.56-3.42-2.34-6-2.34c-2.399,0-4.38,0.96-5.939,2.88c-1.62,1.92-2.4,4.38-2.4,7.26v17.699h-4.8v-43.678H586.854z"/>
	<path class="st0" d="M623.694,128.046h7.68v4.02h-7.68v19.739c0,1.14,0.181,1.98,0.66,2.46c0.42,0.48,1.2,0.78,2.28,0.78h3.96v4.02
		h-4.681c-2.52,0-4.379-0.66-5.459-1.98c-1.021-1.2-1.5-2.94-1.5-5.28v-19.739h-6.24v-4.02h6.24v-8.04l4.739-1.98V128.046z"/>
	<path class="st0" d="M664.973,128.046h7.68v4.02h-7.68v19.739c0,1.14,0.181,1.98,0.66,2.46c0.42,0.48,1.2,0.78,2.28,0.78h3.96v4.02
		h-4.681c-2.52,0-4.379-0.66-5.459-1.98c-1.021-1.2-1.5-2.94-1.5-5.28v-19.739h-6.24v-4.02h6.24v-8.04l4.739-1.98V128.046z"/>
	<path class="st0" d="M702.953,132.006c2.64,3.06,3.96,6.9,3.96,11.58c0,4.62-1.32,8.46-3.9,11.459
		c-2.819,3.24-6.539,4.86-11.159,4.86c-4.68,0-8.34-1.62-11.1-4.86c-2.64-3-3.96-6.839-3.96-11.459c0-4.68,1.32-8.52,3.96-11.58
		c2.76-3.24,6.42-4.8,11.1-4.8C696.473,127.206,700.193,128.766,702.953,132.006z M684.173,135.006c-1.68,2.28-2.46,5.1-2.46,8.58
		c0,3.42,0.78,6.24,2.46,8.52c1.8,2.52,4.38,3.78,7.68,3.78c3.24,0,5.819-1.26,7.739-3.78c1.62-2.28,2.46-5.16,2.46-8.52
		c0-3.48-0.84-6.3-2.46-8.58c-1.92-2.52-4.499-3.78-7.739-3.78C688.553,131.226,685.973,132.486,684.173,135.006z"/>
	<path class="st0" d="M738.833,115.387v43.678h-4.739v-43.678H738.833z"/>
	<path class="st0" d="M753.772,117.367c0.72,0.6,1.08,1.44,1.08,2.52c0,1.02-0.36,1.86-1.08,2.58c-0.72,0.66-1.56,1.02-2.58,1.02
		c-1.02,0-1.859-0.36-2.58-1.02c-0.72-0.72-1.02-1.56-1.02-2.58c0-1.08,0.3-1.92,1.02-2.52c0.721-0.72,1.561-1.02,2.58-1.02
		C752.212,116.347,753.052,116.646,753.772,117.367z M753.592,128.046v31.019h-4.8v-31.019H753.592z"/>
	<path class="st0" d="M780.952,116.227v4.14h-5.34c-1.32,0-2.34,0.3-2.94,1.02c-0.6,0.66-0.899,1.74-0.899,3.24v3.42h8.76v4.02
		h-8.76v26.999h-4.8v-26.999h-7.8v-4.02h7.8v-3.54c0-2.64,0.66-4.62,1.979-6.06c1.38-1.5,3.42-2.22,6.06-2.22H780.952z"/>
	<path class="st0" d="M809.03,132.246c2.28,3,3.48,7.26,3.601,12.659h-24.479c0.24,3.48,1.14,6.18,2.82,8.1
		c1.68,1.92,4.02,2.88,6.959,2.88c2.521,0,4.62-0.66,6.18-1.92c1.32-1.08,2.341-2.7,3.12-4.86h4.8c-0.72,3-2.1,5.399-4.199,7.319
		c-2.58,2.28-5.88,3.48-9.9,3.48c-4.439,0-8.039-1.5-10.679-4.38c-2.761-3-4.08-6.959-4.08-12c0-4.56,1.26-8.399,3.899-11.459
		c2.64-3.24,6.18-4.86,10.68-4.86C802.73,127.206,806.51,128.886,809.03,132.246z M791.21,133.926c-1.68,1.8-2.64,4.2-2.939,7.26
		h19.379c-0.6-6.66-3.899-9.959-9.779-9.959C795.111,131.226,792.891,132.126,791.21,133.926z"/>
	<path class="st0" d="M825.05,153.005c0.721,0.72,1.08,1.56,1.08,2.64c0,1.02-0.359,1.86-1.08,2.58
		c-0.72,0.72-1.619,1.08-2.579,1.08c-1.08,0-1.92-0.36-2.58-1.08c-0.721-0.72-1.08-1.56-1.08-2.58c0-1.08,0.359-1.92,1.08-2.64
		c0.66-0.72,1.5-1.08,2.58-1.08C823.431,151.925,824.331,152.285,825.05,153.005z"/>
</g>
</svg>