<!-- Generator: Adobe Illustrator 22.0.1, SVG Export Plug-In  -->
<svg version="1.1"
	 xmlns="http://www.w3.org/2000/svg" xmlns:xlink="http://www.w3.org/1999/xlink" xmlns:a="http://ns.adobe.com/AdobeSVGViewerExtensions/3.0/"
	 x="0px" y="0px" width="149.76px" height="149.76px" viewBox="0 0 149.76 149.76"
	 style="enable-background:new 0 0 149.76 149.76;" xml:space="preserve">
<style type="text/css">
	.st0{fill:none;stroke:#575756;stroke-width:3;stroke-linecap:round;stroke-miterlimit:10;}
	.st1{fill:none;stroke:#575756;stroke-width:3;stroke-linecap:round;stroke-linejoin:round;stroke-miterlimit:10;}
</style>
<defs>
</defs>
<g>
	<circle class="st0" cx="74.88" cy="74.88" r="73.38"/>
	<g>
		<path class="st1" d="M58.998,82.867c6.919,0.692,11.416,6.573,11.762,13.838c0.346,7.265,0.692,15.567,0,17.643
			s-2.368,4.843-5.681,4.497c-3.313-0.346-5.735-4.497-6.081-7.611c0,0-4.151,6.227-10.032,2.422s-1.73-9.34-1.73-9.34"/>
		<path class="st1" d="M52.079,100.871c-4.843,3.445-9.686,6.904-15.913,1.715c-6.227-5.189-3.805-14.183,0-16.951
			c-9.686-0.346-14.529-15.221-1.384-24.562"/>
		<path class="st1" d="M37.204,66.608c-2.422-5.535-7.265-14.875-1.73-20.41s14.875-0.346,16.605,1.384"/>
		<path class="st1" d="M44.122,43.712c0.692-6.855,8.663-10.314,14.364-7.892"/>
		<path class="st1" d="M58.486,39.38c0-3.561,1.549-9.096,7.43-9.096s5.243,9.096,5.243,9.096v38.99"/>
		<path class="st1" d="M71.159,57.268c-4.897,5.189-8.687,6.919-12.673,6.919"/>
		<path class="st1" d="M93.592,64.187c-8.303-1.73-12.454-5.189-12.454-9.859s-0.692-16.936,0-19.279
			c0.692-2.342,2.46-5.11,6.073-4.764c3.613,0.346,4.997,5.392,4.651,9.096"/>
		<path class="st1" d="M91.514,35.049c5.191-0.959,15.569-0.049,15.569,8.663"/>
		<path class="st1" d="M99.299,48.619c2.595-3.459,11.244-8.994,18.163,0c6.919,8.994-3.459,17.989-3.459,17.989"/>
		<path class="st1" d="M118.28,61.073c4.025,4.151,7.484,4.497,6.792,13.146c-0.692,8.648-3.553,11.048-6.792,13.135"/>
		<path class="st1" d="M115.386,84.943c2.894,2.411,6.134,10.032,2.894,14.529c-3.24,4.497-7.739,7.294-18.981,1.399"/>
		<path class="st1" d="M91.514,114.002c14.528,2.076,13.493-4.843,15.569-10.113"/>
		<path class="st1" d="M91.514,109.134c0,0,1.078,9.078-4.303,9.74s-6.342-6.651-6.381-9.74s0-40.104,0-40.104"/>
		<path class="st1" d="M80.813,87.354c2.4-3.448,9.665-5.178,12.778-4.486"/>
	</g>
</g>
</svg>